<?xml version="1.0" encoding="utf-8"?>
<!-- Generator: Adobe Illustrator 25.4.1, SVG Export Plug-In . SVG Version: 6.00 Build 0)  -->
<svg version="1.1" id="Layer_1" xmlns="http://www.w3.org/2000/svg" xmlns:xlink="http://www.w3.org/1999/xlink" x="0px" y="0px"
	 viewBox="0 0 75.6 194.8" style="enable-background:new 0 0 75.6 194.8;" xml:space="preserve">
<style type="text/css">
	.st0{fill:#FFFFFF;}
	.st1{fill:#16172E;}
	.st2{fill:#64C2BD;}
</style>
<g>
	<g>
		<g>
			<g>
				<path class="st0" d="M56.1,189.5c-3-3.4-2-7.3-1.9-11.5c0-0.2,0-0.4-0.1-0.5c-0.1-0.2-0.3-0.2-0.6-0.3c-2.1-0.3-4.2-0.3-6.3,0.2
					c-0.1,0-0.2,0-0.3,0.1c-0.2,0.2-0.1,0.5,0,0.7c0.5,1.8-0.2,4.5-0.7,6.3c-0.5,2.4-1.4,4.6-1.7,7c0,0.3,0,0.6,0.1,0.8
					c0.2,0.3,0.6,0.5,1,0.6c2.1,0.4,4.2,0.7,6.3,0.7c1.7,0,3.5-0.2,4.6-1.4c0.3-0.3,0.5-0.7,0.5-1.1C57.1,190.5,56.6,190,56.1,189.5
					z"/>
				<g>
					<path class="st1" d="M56.4,189.3c-1.1-1.3-1.8-2.9-2-4.6c-0.2-1.7,0-3.3,0.1-5c0-0.4,0-0.8,0.1-1.2c0-0.4,0.1-0.8-0.1-1.2
						c-0.2-0.3-0.6-0.4-0.9-0.4c-0.5-0.1-1-0.1-1.5-0.2c-1-0.1-2,0-3,0.1c-0.5,0.1-0.9,0.1-1.4,0.2c-0.3,0.1-0.8,0.1-1,0.4
						c-0.2,0.3-0.1,0.6,0,0.9c0.1,0.4,0.1,0.8,0.1,1.2c0,0.9-0.1,1.7-0.3,2.6c-0.4,1.8-0.8,3.5-1.3,5.2c-0.3,1-0.5,1.9-0.7,2.9
						c-0.1,0.7-0.5,1.8,0.1,2.5c0.5,0.6,1.6,0.6,2.3,0.8c1,0.2,2,0.3,3.1,0.4c1.8,0.1,3.9,0.3,5.7-0.5c0.7-0.3,1.4-0.9,1.7-1.7
						C57.6,190.7,57,189.9,56.4,189.3c-0.3-0.3-0.7,0.1-0.5,0.5c0.6,0.6,1.1,1.3,0.5,2.1c-0.4,0.6-1.1,1-1.8,1.2
						c-1.5,0.5-3.1,0.4-4.7,0.2c-0.9-0.1-1.9-0.2-2.8-0.3c-0.4-0.1-0.8-0.1-1.2-0.2c-0.3-0.1-0.8-0.1-1-0.4c-0.2-0.3,0-1,0-1.3
						c0.1-0.4,0.2-0.9,0.3-1.3c0.2-0.9,0.4-1.7,0.7-2.6c0.4-1.5,0.8-3,1.1-4.6c0.3-1.4,0.5-2.9,0.2-4.3c0-0.1-0.1-0.3,0-0.4
						c0.1-0.1,0.4-0.1,0.6-0.1c0.5-0.1,1-0.2,1.4-0.2c0.9-0.1,1.8-0.1,2.7-0.1c0.5,0,0.9,0.1,1.4,0.1c0.1,0,0.4,0,0.5,0.1
						c0.2,0.1,0.1,0.6,0.1,0.7c0,0.7-0.1,1.5-0.1,2.2c-0.1,1.6-0.2,3.2,0.1,4.8c0.3,1.6,1,3.1,2.1,4.3
						C56.2,190.1,56.6,189.6,56.4,189.3z"/>
				</g>
			</g>
			<g>
				<path class="st1" d="M57.2,193.5c-1.2,0.1-13.3,0.3-13.4,0c-0.2-2.2,0.2-5.6,1.8-7.3c0.3,0.6,0.7,1.2,1,1.9
					c0.1-0.6,0.2-1.2,0.5-1.8c0.7-1.1,2.2-1.3,3.5-1.4c0.4,0,0.8,0,1.1,0.1c0.3,0.1,0.6,0.4,0.8,0.7c0.7,0.8,1.3,1.6,1.8,2.5
					c0.2-0.6,0.4-1.3,0.5-1.9c0-0.1,1.9,2.3,2,2.8c0.5,1.5,0.7,3,0.7,4.6C57.5,193.5,57.4,193.5,57.2,193.5z"/>
				<g>
					<path class="st1" d="M57.2,193.2c-2.3,0.2-4.7,0.1-7,0.1c-1.4,0-2.8,0-4.3,0c-0.5,0-1,0-1.4-0.1c-0.1,0-0.2,0-0.2,0
						c0,0-0.2,0-0.1,0c0,0-0.1,0-0.1,0c0,0,0-0.1,0,0c0,0-0.5-0.2,0.1,0.1c0.1,0.1,0,0.1,0.1-0.1c0-0.6,0-1.1,0-1.7
						c0-0.6,0.1-1.2,0.3-1.9c0.2-1.2,0.7-2.4,1.4-3.3c-0.2,0-0.3,0-0.5-0.1c0.3,0.6,0.7,1.2,1,1.9c0.1,0.2,0.6,0.2,0.6-0.1
						c0.1-0.8,0.3-1.7,1-2.2c0.6-0.4,1.4-0.6,2.1-0.7c0.4,0,0.8-0.1,1.1-0.1c0.5,0,0.9,0.4,1.2,0.7c0.7,0.7,1.2,1.5,1.7,2.4
						c0.1,0.2,0.5,0.2,0.6-0.1c0.1-0.3,0.2-0.6,0.3-0.9c0-0.1,0.1-0.3,0.1-0.4c0-0.1,0.1-0.4,0.1-0.4c-0.1,0-0.2,0.1-0.2,0.1
						c-0.2,0-0.2-0.1-0.1,0c0,0.1,0.1,0.1,0.2,0.2c0.2,0.2,0.3,0.4,0.5,0.6c0.3,0.4,0.7,0.9,1,1.4c0.3,0.5,0.5,1,0.6,1.7
						c0.2,1,0.3,2.1,0.3,3.2c0.1-0.1,0.2-0.2,0.2-0.3C57.4,193.2,57.3,193.2,57.2,193.2c-0.4,0-0.4,0.7,0,0.7c0.2,0,0.3,0,0.5-0.1
						c0.1,0,0.2-0.2,0.2-0.3c0-1.4-0.1-2.8-0.5-4.1c-0.2-0.7-0.6-1.2-1-1.8c-0.4-0.5-0.7-1.1-1.2-1.6c-0.2-0.2-0.4-0.2-0.6,0
						c-0.2,0.2-0.2,0.6-0.3,0.9c-0.1,0.4-0.2,0.7-0.3,1.1c0.2,0,0.4-0.1,0.6-0.1c-0.6-1-1.2-1.9-2-2.7c-0.3-0.4-0.7-0.6-1.2-0.7
						c-0.5-0.1-1,0-1.5,0.1c-0.8,0.1-1.7,0.3-2.4,0.8c-0.8,0.6-1.1,1.6-1.2,2.5c0.2,0,0.4-0.1,0.6-0.1c-0.3-0.6-0.7-1.2-1-1.9
						c-0.1-0.2-0.4-0.2-0.5-0.1c-1.4,1.7-1.9,4.1-1.9,6.3c0,0.3,0,0.5,0,0.8c0,0.2,0,0.5,0.1,0.6c0.1,0.1,0.2,0.2,0.3,0.2
						c0.3,0.1,0.7,0.1,1,0.1c3,0.1,6,0,9,0c1.1,0,2.2,0,3.3-0.1C57.6,193.8,57.6,193.2,57.2,193.2z"/>
				</g>
			</g>
		</g>
		<g>
			<path class="st1" d="M64.8,108.6c0.4-7.3,0.6-14.6,0.2-21.9c-1.5,0.1-20.5,0.7-20.4,0c-0.5,3,0,6.5,0.1,9.5
				c0.1,3.6,0.2,7.1,0.2,10.7c0.1,7,0.1,14-0.2,20.9c-0.6,18.7-1,37.8-0.2,56.5c4.1-0.2,8.3-0.1,12.4,0.3c0.7,0.1,3.3-22.2,3.5-24.3
				c1.3-11.9,1.8-23.9,3-35.8C64,119.1,64.5,113.9,64.8,108.6z"/>
			<g>
				<path class="st1" d="M65.1,108.6c0.4-7.3,0.6-14.6,0.2-21.9c0-0.2-0.1-0.3-0.3-0.3c-2.4,0.1-4.9,0.2-7.3,0.2
					c-3.5,0.1-7,0.2-10.4,0.1c-0.6,0-1.2,0-1.8-0.1c-0.2,0-0.3,0-0.5-0.1c-0.3-0.1,0-0.1,0,0.2c0-0.4-0.6-0.5-0.6-0.1
					c-0.4,2.8-0.1,5.7,0.1,8.6c0.2,3.2,0.2,6.4,0.3,9.5c0.1,6.5,0.1,12.9,0,19.4c-0.2,6.4-0.4,12.9-0.6,19.3
					c-0.1,6.4-0.2,12.9-0.2,19.3c0,7.2,0.1,14.4,0.4,21.6c0,0.2,0.1,0.3,0.3,0.3c2.2-0.1,4.3-0.1,6.5-0.1c1.1,0,2.1,0.1,3.2,0.1
					c0.5,0,1,0.1,1.6,0.1c0.4,0,0.9,0.2,1.3,0.1c0.3-0.1,0.4-0.5,0.4-0.7c0.1-0.5,0.2-1,0.3-1.5c0.7-3.9,1.2-7.9,1.7-11.9
					c0.4-3.4,0.8-6.7,1.2-10.1c0.9-7.7,1.4-15.5,2-23.3c0.6-8.5,1.6-17.1,2.2-25.6C65,110.7,65.1,109.6,65.1,108.6
					c0-0.4-0.6-0.4-0.7,0c-0.5,8.5-1.5,16.9-2.1,25.3c-0.7,8.4-1.2,16.8-2.1,25.2c-0.3,3.1-0.7,6.3-1.1,9.4c-0.5,4.1-1,8.3-1.7,12.4
					c-0.2,1.1-0.3,2.3-0.7,3.4c0,0.1,0,0.1,0,0.1c0,0,0,0,0,0c0,0,0.1-0.1,0.1-0.1c0,0,0.4,0-0.1,0c-0.1,0-0.3,0-0.4,0
					c-0.3,0-0.5,0-0.8-0.1c-0.5,0-1-0.1-1.6-0.1c-2.1-0.1-4.3-0.2-6.4-0.2c-1,0-2.1,0-3.1,0.1c0.1,0.1,0.2,0.2,0.3,0.3
					c-0.5-12.8-0.5-25.6-0.3-38.4c0.1-6.4,0.4-12.8,0.6-19.3c0.2-6.4,0.2-12.8,0.1-19.2c0-3.6-0.1-7.2-0.2-10.9
					c-0.1-3.2-0.6-6.6-0.1-9.8c-0.2,0-0.4-0.1-0.6-0.1c0,0.6,1.5,0.6,1.9,0.6c1.5,0.1,3,0.1,4.5,0.1c3.7,0,7.4-0.1,11.1-0.2
					c1.1,0,2.2-0.1,3.2-0.1c-0.1-0.1-0.2-0.2-0.3-0.3c0.4,7.3,0.3,14.6-0.2,21.9C64.5,109,65.1,109,65.1,108.6z"/>
			</g>
		</g>
		<g>
			<g>
				<path class="st0" d="M22.4,189.5c3.3-3.4,2.7-7.3,2.9-11.5c0-0.2,0-0.4,0.1-0.5c0.1-0.2,0.4-0.2,0.6-0.3
					c2.1-0.3,4.3-0.3,6.3,0.2c0.1,0,0.2,0,0.3,0.1c0.2,0.2,0.1,0.5,0,0.7c-0.7,1.8-0.1,4.5,0.1,6.3c0.3,2.4,1,4.6,1.1,7
					c0,0.3,0,0.6-0.2,0.8c-0.2,0.3-0.7,0.5-1.1,0.6c-2.1,0.4-4.2,0.7-6.3,0.7c-1.7,0-3.5-0.2-4.5-1.4c-0.2-0.3-0.4-0.7-0.4-1.1
					C21.4,190.5,21.9,190,22.4,189.5z"/>
				<g>
					<path class="st1" d="M22.6,189.7c1-1.1,1.8-2.3,2.2-3.7c0.4-1.3,0.6-2.7,0.6-4.1c0-0.7,0-1.5,0.1-2.2c0-0.4,0-0.7,0-1.1
						c0-0.2,0-0.3,0-0.5c0-0.3,0.1-0.5,0.4-0.5c0.9-0.2,1.8-0.2,2.7-0.2c0.9,0,1.9,0.1,2.8,0.2c0.2,0,0.4,0.1,0.6,0.1
						c0.2,0,0.3,0,0.3,0.2c-0.1,0.3-0.2,0.7-0.3,1c-0.1,0.7-0.1,1.5-0.1,2.2c0.1,1.5,0.3,2.9,0.6,4.4c0.3,1.8,0.7,3.5,0.9,5.3
						c0,0.4,0.1,0.8,0,1.2c-0.1,0.4-0.6,0.5-0.9,0.5c-0.9,0.2-1.8,0.4-2.7,0.5c-1,0.1-2.1,0.2-3.2,0.2c-0.8,0-1.7,0-2.5-0.2
						c-0.8-0.2-1.5-0.5-2-1.1c-0.3-0.4-0.5-0.9-0.3-1.3C22,190.4,22.3,190.1,22.6,189.7c0.3-0.3-0.2-0.8-0.5-0.5
						c-0.5,0.5-1.2,1.2-1.2,2c0,0.8,0.6,1.4,1.2,1.8c1.3,0.9,3.1,0.9,4.6,0.9c1.1,0,2.1-0.1,3.2-0.3c1-0.1,2-0.2,2.9-0.5
						c0.8-0.2,1.1-0.7,1.1-1.5c0-1-0.1-1.9-0.3-2.9c-0.3-1.9-0.7-3.7-1-5.6c-0.2-1.7-0.4-3.3,0.1-4.9c0.1-0.3,0.1-0.7-0.1-0.9
						c-0.3-0.3-0.8-0.3-1.2-0.4c-1-0.2-2-0.3-3-0.3c-0.9,0-1.9,0-2.8,0.2c-0.9,0.2-0.9,1-0.9,1.8c-0.1,1.8,0,3.6-0.3,5.4
						c-0.3,1.9-1.1,3.6-2.5,5.1C21.9,189.6,22.4,190,22.6,189.7z"/>
				</g>
			</g>
			<g>
				<path class="st1" d="M21,193.5c1.2,0.1,13.3,0.3,13.4,0c0.4-2.2,0.3-5.6-1.1-7.3c-0.4,0.6-0.8,1.2-1.2,1.9
					c0-0.6-0.1-1.2-0.4-1.8c-0.6-1.1-2.1-1.3-3.3-1.4c-0.4,0-0.8,0-1.1,0.1c-0.3,0.1-0.6,0.4-0.9,0.7c-0.8,0.8-1.4,1.6-2,2.5
					c-0.1-0.6-0.2-1.3-0.4-1.9c0-0.1-2.1,2.3-2.3,2.8c-0.7,1.5-1,3-1.1,4.6C20.7,193.5,20.9,193.5,21,193.5z"/>
				<g>
					<path class="st1" d="M21,193.9c2.5,0.2,5,0.1,7.5,0.1c1.4,0,2.9,0,4.4,0c0.4,0,0.8,0,1.2-0.1c0.1,0,0.2,0,0.3-0.1
						c0.3-0.1,0.3-0.4,0.3-0.7c0.2-1.2,0.2-2.5,0-3.7c-0.2-1.2-0.5-2.4-1.2-3.4c-0.1-0.2-0.4-0.2-0.6,0c-0.4,0.6-0.8,1.2-1.2,1.9
						c0.2,0.1,0.4,0.1,0.6,0.2c-0.1-1-0.2-2-1-2.6c-0.7-0.5-1.6-0.7-2.4-0.8c-0.5-0.1-1-0.1-1.4,0c-0.5,0.1-1,0.4-1.3,0.7
						c-0.8,0.8-1.5,1.7-2.2,2.6c0.2,0,0.4,0.1,0.6,0.1c-0.1-0.4-0.2-0.8-0.2-1.2c0-0.2,0-0.7-0.2-0.9c-0.2-0.2-0.4,0-0.6,0.1
						c-0.5,0.5-0.9,1-1.3,1.6c-0.5,0.6-0.8,1.1-1.1,1.8c-0.5,1.3-0.8,2.7-0.9,4.1c0,0.1,0.1,0.3,0.2,0.3
						C20.7,193.8,20.9,193.8,21,193.9c0.4,0,0.4-0.6,0-0.7c-0.1,0-0.2,0-0.3,0c0.1,0.1,0.2,0.2,0.2,0.3c0.1-1,0.3-2.1,0.6-3.1
						c0.2-0.6,0.4-1.3,0.8-1.8c0.3-0.5,0.7-0.9,1.1-1.3c0.2-0.2,0.3-0.4,0.5-0.6c0.1-0.1,0.1-0.1,0.2-0.2c0.1-0.1,0.1,0-0.1,0
						c-0.1,0-0.2-0.1-0.2-0.1c-0.1-0.1,0,0.4,0,0.3c0,0.2,0.1,0.3,0.1,0.5c0.1,0.3,0.1,0.6,0.2,0.9c0.1,0.3,0.5,0.3,0.6,0.1
						c0.5-0.8,1.1-1.5,1.7-2.1c0.3-0.3,0.7-0.7,1.1-0.9c0.4-0.1,0.9,0,1.3,0c0.7,0.1,1.4,0.2,2,0.6c0.8,0.5,0.9,1.4,0.9,2.2
						c0,0.3,0.4,0.4,0.6,0.2c0.4-0.6,0.8-1.2,1.2-1.9c-0.2,0-0.4,0-0.6,0c1.3,1.7,1.4,4.1,1.2,6.1c0,0.2-0.1,0.5-0.1,0.7
						c0,0,0,0.1,0,0.2c0,0,0,0.1,0,0.1c0-0.1,0.1-0.1,0.1-0.2c0,0,0,0,0,0c0,0-0.2,0-0.2,0c-0.4,0-0.8,0-1.3,0.1
						c-2.9,0.1-5.8,0-8.7,0c-1,0-2,0-3.1-0.1C20.6,193.2,20.6,193.8,21,193.9z"/>
				</g>
			</g>
		</g>
		<g>
			<path class="st1" d="M20.8,108.4c0.2-7,0.5-14,1.1-20.9c0-0.3,0.1-0.6,0.2-0.8c0.3-0.3,0.8-0.3,1.3-0.3C25,86.4,43,87.9,43,86.7
				c0.2,3-0.6,6.5-1,9.5c-0.4,3.6-0.8,7.1-1.2,10.7c-0.7,7-1.3,14-1.7,20.9c-1,18.7-2.3,37.8-4.7,56.5c-4.1-0.2-8.3-0.1-12.5,0.3
				c-0.7,0.1-1.3-22.2-1.4-24.3c-0.3-11.7,0.3-23.4,0.1-35.1C20.7,119.6,20.7,114,20.8,108.4z"/>
			<g>
				<path class="st1" d="M21.2,108.4c0.1-5.1,0.3-10.2,0.7-15.3c0.1-1.2,0.2-2.5,0.2-3.7c0-0.6,0.1-1.3,0.1-1.9c0-0.3,0-0.6,0.3-0.7
					c0.2-0.2,0.6-0.1,0.9-0.1c0.5,0,1,0.1,1.5,0.1c4.7,0.3,9.5,0.7,14.3,0.7c1,0,1.9,0,2.9-0.1c0.4-0.1,1.2-0.1,1.2-0.7
					c-0.2,0-0.4,0-0.7,0c0.2,2.9-0.5,5.8-0.9,8.7c-0.4,3.1-0.7,6.3-1.1,9.5c-0.7,6.5-1.3,12.9-1.7,19.4c-0.4,6.4-0.7,12.8-1.1,19.2
					c-0.4,6.4-0.9,12.9-1.5,19.3c-0.6,7.2-1.4,14.3-2.3,21.5c0.1-0.1,0.2-0.2,0.3-0.3c-2.1-0.1-4.2-0.1-6.3-0.1
					c-1.1,0-2.1,0.1-3.2,0.1c-0.5,0-1,0.1-1.5,0.1c-0.3,0-0.5,0-0.8,0.1c-0.1,0-0.3,0-0.4,0c-0.1,0-0.2,0-0.3,0c0,0,0,0,0.1,0
					c0,0,0.2,0.1,0.2,0.1c0,0,0-0.1,0,0c0,0,0-0.1,0-0.2c0-0.2-0.1-0.3-0.1-0.5c-0.1-0.6-0.1-1.1-0.2-1.7c-0.3-4-0.5-8-0.6-12
					c-0.1-3.2-0.2-6.4-0.3-9.6c-0.2-7.9,0-15.8,0.1-23.6c0.1-8.4-0.1-16.9,0-25.3C21.1,110.5,21.1,109.4,21.2,108.4
					c0-0.4-0.6-0.4-0.7,0c-0.2,8.6,0,17.1,0,25.7c-0.1,8.6-0.4,17.2-0.2,25.8c0.1,3.1,0.2,6.1,0.3,9.2c0.2,4.1,0.3,8.3,0.6,12.4
					c0.1,0.6,0.1,1.3,0.2,1.9c0,0.3,0.1,0.7,0.2,1.1c0.1,0.1,0.1,0.3,0.3,0.3c0.3,0.1,0.9-0.1,1.3-0.1c0.6,0,1.1-0.1,1.7-0.1
					c2.1-0.1,4.3-0.2,6.4-0.2c1.1,0,2.1,0,3.2,0.1c0.2,0,0.3-0.2,0.3-0.3c1.7-12.8,2.8-25.6,3.6-38.5c0.4-6.4,0.8-12.8,1.1-19.2
					c0.4-6.5,0.9-12.9,1.6-19.4c0.4-3.6,0.8-7.2,1.2-10.9c0.4-3.2,1.2-6.4,1-9.7c0-0.4-0.7-0.4-0.7,0c0-0.1,0.1-0.1,0-0.1
					c-0.1,0-0.1,0-0.2,0.1c-0.3,0.1-0.5,0.1-0.8,0.1c-0.9,0.1-1.8,0.1-2.8,0.1c-2.5,0-5.1-0.1-7.6-0.3c-2.2-0.1-4.4-0.3-6.6-0.4
					c-0.6,0-1.2-0.1-1.8-0.1c-1,0-1.4,0.6-1.5,1.5c-0.1,1.3-0.2,2.6-0.3,3.9c-0.4,5.7-0.6,11.4-0.8,17.1
					C20.5,108.8,21.1,108.8,21.2,108.4z"/>
			</g>
		</g>
	</g>
	<g>
		<g>
			<path class="st0" d="M15.3,35.6c1.3-0.8,2.8-1.4,3.9-2.4c1.4-1.3,2-3.6,2.8-5.4c0-0.1,0.1-0.1,0-0.2c0-0.1-0.1-0.2-0.1-0.2
				c-0.8-0.7-1.9,0.1-2.5,0.6c-1,0.9-1.7,2.1-2.8,3c-0.3-2,0.1-4,0.6-5.9c0.2-0.9,0.5-1.7,0.7-2.6c0.1-0.9,0.2-1.7,0.4-2.6
				c0.2-0.6,0.3-1.3,0.2-1.9c-0.1-0.6-0.4-1-0.9-1.2c-0.2,0.3-0.5,0.6-0.8,0.8c0.2-0.2-0.1-1.1-0.3-1.3c-1-1.4-1.7,0.5-2.1,1.3
				c0.2-0.3-1.1-1-1.5-0.8c-0.2,0.1-0.6,0.8-0.8,1c-0.4,0.7-0.7,1.5-1,2.2c0.1-0.2-0.9-0.8-1.1-0.8c-0.3,0-0.5,0.3-0.6,0.5
				c-0.2,0.5-0.3,1-0.5,1.5c-0.6,1.5-2,2.6-2.8,4c-1,1.9-0.9,4.2-0.8,6.3c0,0.6,0.2,7,0.3,7c0.7,0.1,6.4,1.2,6.4,0.7
				C12.3,37.8,14,36.4,15.3,35.6z"/>
			<g>
				<path class="st1" d="M15.4,35.9c1.2-0.7,2.5-1.3,3.6-2.1c1-0.8,1.6-1.8,2.1-3c0.2-0.6,0.5-1.1,0.7-1.7c0.1-0.3,0.2-0.5,0.3-0.8
					c0.1-0.2,0.3-0.5,0.2-0.8c-0.1-0.5-0.9-0.8-1.3-0.7c-0.6,0-1.1,0.4-1.5,0.7c-1.2,0.9-2,2.3-3.1,3.3c0.2,0.1,0.4,0.2,0.6,0.2
					c-0.2-1.4,0-2.8,0.2-4.2c0.3-1.3,0.7-2.5,1-3.8c0.1-0.6,0.2-1.3,0.3-2c0.1-0.7,0.3-1.3,0.4-1.9c0.2-1,0-2.1-1-2.6
					c-0.1-0.1-0.3-0.1-0.4,0.1c-0.2,0.3-0.5,0.6-0.8,0.8c0.2,0.2,0.3,0.3,0.5,0.5c0.3-0.4,0.1-1-0.1-1.4c-0.2-0.4-0.6-0.9-1.1-0.9
					c-1-0.1-1.4,1.3-1.8,2c0.2,0.1,0.4,0.2,0.6,0.3c0.2-0.7-1.3-1.4-1.8-1.2c-0.4,0.1-0.7,0.8-1,1.1c-0.4,0.7-0.7,1.5-1,2.2
					c0.2,0.1,0.4,0.2,0.6,0.3c0.1-0.5-0.6-0.9-0.9-1.1c-0.6-0.3-1.1-0.1-1.3,0.5c-0.2,0.4-0.3,0.9-0.4,1.3c-0.2,0.4-0.4,0.8-0.6,1.2
					c-0.5,0.7-1.1,1.3-1.6,2c-1.8,2.4-1.5,5.5-1.4,8.4c0.1,1.9,0,3.9,0.2,5.8c0,0.3,0,0.5,0.3,0.6c0.3,0.1,0.6,0.1,0.9,0.1
					c1.1,0.2,2.2,0.4,3.3,0.5c0.5,0.1,1.1,0.1,1.6,0.2c0.3,0,0.7,0.1,0.9-0.2c0.2-0.2,0.1-0.6,0.2-0.8c0.1-0.5,0.4-0.9,0.7-1.2
					C13.9,36.9,14.7,36.4,15.4,35.9c0.4-0.2,0-0.8-0.3-0.6c-1.2,0.7-2.3,1.7-2.9,2.9c-0.1,0.3-0.2,0.6-0.2,0.9c0,0,0,0.2,0,0.2
					c0-0.1,0.1-0.2,0.1-0.2c0,0,0,0,0,0c0,0-0.1,0-0.1,0c-0.3,0-0.7,0-1,0c-1-0.1-2-0.2-2.9-0.4c-0.4-0.1-0.9-0.1-1.3-0.2
					c-0.2,0-0.6-0.2-0.8-0.1c-0.1,0,0.1,0.2,0.2,0.2c0,0,0,0,0,0c0-0.1,0-0.3,0-0.4c0-0.4,0-0.8-0.1-1.2c0-1-0.1-2-0.1-3
					c0-0.7,0-1.4-0.1-2.1c-0.1-1.5-0.2-2.9,0.1-4.4c0.2-0.9,0.5-1.8,1.1-2.6c0.5-0.7,1.1-1.3,1.6-2c0.6-0.8,0.9-1.6,1.2-2.5
					c0.1-0.3,0.2-0.8,0.5-0.6c0.1,0.1,0.2,0.1,0.4,0.2c0.1,0,0.1,0.1,0.2,0.1c0.1,0.1,0.1,0.2,0.1,0c-0.1,0.3,0.4,0.6,0.6,0.3
					c0.4-0.9,0.8-1.8,1.3-2.7c0.2-0.3,0.3-0.4,0.7-0.3c0.2,0.1,0.3,0.1,0.5,0.2c0.1,0,0.1,0.1,0.1,0.1c0.1,0.1,0,0.1,0.1,0
					c-0.1,0.3,0.4,0.6,0.6,0.3c0.2-0.5,0.5-1.3,1-1.6c0.3-0.1,0.5,0.2,0.6,0.4c0.1,0.1,0.1,0.3,0.2,0.5c0,0.1,0,0.1,0,0.2
					c0,0.1,0,0.2,0,0.1c-0.3,0.3,0.1,0.7,0.5,0.5c0.3-0.2,0.5-0.5,0.8-0.8c-0.1,0-0.3,0-0.4,0.1c1.2,0.6,0.7,2,0.4,3
					c-0.3,1.2-0.3,2.5-0.7,3.6c-0.7,2.4-1.3,4.8-1,7.3c0,0.3,0.3,0.4,0.6,0.2c0.9-0.8,1.5-1.7,2.3-2.6c0.4-0.4,0.7-0.7,1.2-1
					c0.2-0.1,0.5-0.2,0.7-0.3c0.1,0,0.2,0,0.4,0.1c0.2,0.1,0.2,0.1,0.1,0.3c-0.4,1-0.7,1.9-1.2,2.9c-0.4,1-1,1.8-1.8,2.5
					c-1.1,0.9-2.3,1.4-3.5,2.1C14.7,35.6,15.1,36.1,15.4,35.9z"/>
			</g>
		</g>
		<g>
			<path class="st1" d="M16.6,17.6c-0.1,0.7-0.2,1.4-0.4,2.1c-0.2,0.7-0.4,1.3-0.7,2c-0.5,1.3-0.6,2.7-0.8,4.1c0,0.4,0.6,0.4,0.7,0
				c0.2-1.4,0.3-2.8,0.8-4.1c0.5-1.3,0.7-2.6,1-3.9C17.3,17.3,16.7,17.2,16.6,17.6L16.6,17.6z"/>
		</g>
		<g>
			<path class="st1" d="M14.1,17.7c0.3,1.4-0.8,2.4-1.2,3.7c-0.2,0.7-0.2,1.5-0.3,2.2c-0.1,0.7-0.3,1.4-0.5,2.2
				c-0.1,0.4,0.5,0.6,0.6,0.2c0.2-0.7,0.4-1.4,0.5-2.2c0.1-0.8,0.1-1.7,0.3-2.4c0.2-0.6,0.6-1.2,0.9-1.8c0.3-0.6,0.4-1.3,0.2-2
				C14.6,17.1,14,17.3,14.1,17.7L14.1,17.7z"/>
		</g>
		<g>
			<path class="st1" d="M10.8,19.8c0.1,2.2-1.2,4.1-1.3,6.2c0,0.4,0.6,0.4,0.7,0c0.2-2.1,1.4-4,1.3-6.2
				C11.4,19.4,10.8,19.4,10.8,19.8L10.8,19.8z"/>
		</g>
		<g>
			<path class="st1" d="M15.7,25.6c-2.4-0.2-4.9-0.1-7.3,0.3c-0.4,0.1-0.2,0.7,0.2,0.6c2.4-0.4,4.8-0.4,7.1-0.2
				C16.2,26.3,16.1,25.6,15.7,25.6L15.7,25.6z"/>
		</g>
		<g>
			<path class="st1" d="M16.6,30.6c-1.7,0.2-3.4,0.4-5,0.9c-0.8,0.2-1.5,0.5-2.2,0.9c-0.2,0.1-0.8,0.3-0.8,0.6
				c-0.1,0.2,0.1,0.5,0.4,0.5c0.2,0,0.3-0.1,0.3-0.3c0,0,0,0,0,0c0-0.4-0.7-0.4-0.7,0c0,0,0,0,0,0C8.7,33,8.8,32.9,9,32.8
				c0,0,0.1,0,0.1,0c0,0.1,0.1,0.1,0.1,0.2c0,0,0,0,0,0c0,0.1-0.1,0.2-0.1,0.3c0.2-0.2,0.5-0.3,0.8-0.4c0.3-0.1,0.6-0.3,0.9-0.4
				c0.6-0.2,1.2-0.4,1.9-0.6c1.3-0.3,2.6-0.5,4-0.7C17,31.2,17,30.5,16.6,30.6L16.6,30.6z"/>
		</g>
	</g>
	<g>
		<path class="st0" d="M65.3,79.2c-0.3-4.5-1-9-1-13.5c0-5.1-0.1-10.2-0.7-15.2c-0.2-1.8-0.3-5.3-1.6-6.6c-1.1-1.1-3.8-1.4-5.2-1.5
			c-2.7-0.3-5.4-0.5-8.1-0.8H37.9c-2.7,0.3-5.4,0.5-8.1,0.8c-4.5,0.4-6.3,2.2-9.3,5.2c-1.5,1.6-7.6,6.4-7.5,8.8
			c-0.1-1.5,1.5-16.2,0.9-16.6c-3.3-0.8-6.7-1.1-10-0.8C2.3,47.3,1.4,55.6,1.1,64c-0.1,3.3,0,7,2.3,9.3c0.9,0.9,2.1,1.5,3.3,2.1
			c0.7,0.4,1.5,0.8,2.4,0.7c0.6-0.1,1.2-0.4,1.8-0.7c3.9-2.3,7.1-5.4,10.9-7.7c-0.4,17.5-1.1,35-2.6,52.4c7.2,2.7,14.8,4.2,22.5,4.5
			c0.5-3.1,1-6.2,1.6-9.2c1.3,3,2.5,5.9,3.8,8.9c7.1,1,14.4,0.3,21.1-1.9c0.3-0.1-1.9-18.5-1.9-20.5C66,94.3,65.7,86.7,65.3,79.2z"
			/>
		<g>
			<path class="st1" d="M65.6,79.2c-0.3-4.4-1-8.8-1-13.3c0-4.5-0.1-9-0.5-13.5c-0.1-1.6-0.3-3.3-0.5-4.9c-0.2-1.3-0.4-2.9-1.4-3.9
				c-1-1-2.7-1.2-4-1.4c-1.9-0.3-3.8-0.4-5.8-0.6c-1.3-0.1-2.7-0.4-4-0.4c-0.7,0-1.4,0-2.1,0c-2.1,0-4.3,0-6.4,0c-0.6,0-1.2,0-1.9,0
				c-0.5,0-1,0.1-1.5,0.1c-1.1,0.1-2.2,0.2-3.3,0.3c-1.9,0.2-4,0.2-5.9,0.7c-1.4,0.4-2.7,1-3.8,1.8c-1.2,0.9-2.3,2-3.4,3.1
				c-0.7,0.7-1.5,1.4-2.3,2.1c-1,0.9-2,1.9-2.9,2.9c-0.8,0.8-1.6,1.8-2.1,2.8c-0.2,0.4-0.3,0.8-0.3,1.2c0.2,0,0.4,0,0.7,0
				c0-1,0.1-2.1,0.2-3.1c0.1-1.8,0.3-3.6,0.4-5.4c0.1-1.8,0.3-3.5,0.4-5.3c0-0.6,0-1.2,0-1.8c0-0.3,0-0.7-0.2-1
				c-0.1-0.1-0.1-0.1-0.2-0.2c-0.4-0.2-1-0.2-1.4-0.3c-0.9-0.2-1.9-0.3-2.8-0.4c-2-0.2-3.9-0.2-5.9,0c-0.1,0-0.3,0.1-0.3,0.2
				C2,47.1,1.1,55.4,0.8,63.7c-0.1,3.1-0.1,6.5,1.8,9.1c1,1.4,2.6,2.2,4.1,3c0.8,0.4,1.6,0.8,2.5,0.7c0.8-0.1,1.6-0.6,2.3-1.1
				c3.6-2.2,6.7-5.2,10.4-7.4c-0.2-0.1-0.3-0.2-0.5-0.3c-0.2,6.8-0.4,13.6-0.6,20.5c-0.3,6.8-0.6,13.6-1.1,20.4
				c-0.3,3.8-0.6,7.7-0.9,11.5c0,0.2,0.1,0.3,0.2,0.3c5.6,2.1,11.5,3.5,17.5,4.1c1.7,0.2,3.4,0.3,5.1,0.3c0.1,0,0.3-0.1,0.3-0.2
				c0.5-3.1,1-6.2,1.6-9.2c-0.2,0-0.4,0.1-0.6,0.1c0.7,1.7,1.4,3.4,2.2,5.1c0.4,0.8,0.7,1.7,1.1,2.5c0.2,0.4,0.3,0.8,0.5,1.2
				c0.2,0.4,0.5,0.3,0.9,0.4c3.4,0.4,6.9,0.5,10.3,0.2c3.4-0.3,6.7-1,9.9-2c0.3-0.1,0.6-0.1,0.7-0.5c0-0.1,0-0.2,0-0.3
				c0-0.4,0-0.8-0.1-1.2c-0.3-3.3-0.7-6.7-1-10c-0.3-2.9-0.7-5.8-0.9-8.7c-0.1-1.3-0.1-2.5-0.1-3.8c0-1.8-0.1-3.6-0.2-5.4
				c-0.1-3.7-0.3-7.3-0.5-11C65.7,81,65.6,80.1,65.6,79.2c0-0.4-0.7-0.4-0.7,0c0.4,6.5,0.6,13,0.8,19.5c0,1.5,0,3,0.2,4.5
				c0.1,1.3,0.2,2.6,0.4,3.8c0.3,3.3,0.7,6.6,1,9.9c0.1,1.3,0.3,2.6,0.4,3.8c0,0.4,0.1,0.8,0.1,1.2c0,0.1,0,0.2,0,0.3
				c0,0.1,0,0.1,0,0c0,0,0,0,0,0c0,0,0.1-0.1,0.1-0.1c0,0-0.3,0.1-0.4,0.1c-5.8,1.9-12,2.6-18.1,2c-0.8-0.1-1.5-0.2-2.3-0.3
				c0.1,0,0.1,0.1,0.2,0.1c-1.3-3-2.5-5.9-3.8-8.9c-0.1-0.3-0.5-0.2-0.6,0.1c-0.5,3.1-1,6.2-1.6,9.2c0.1-0.1,0.2-0.2,0.3-0.2
				c-6-0.2-11.9-1.1-17.6-2.8c-1.6-0.5-3.2-1-4.8-1.6c0.1,0.1,0.2,0.2,0.2,0.3c0.6-6.8,1.1-13.6,1.5-20.4c0.4-6.8,0.7-13.6,0.9-20.4
				c0.1-3.8,0.2-7.7,0.3-11.5c0-0.2-0.3-0.4-0.5-0.3c-3.1,1.8-5.8,4.2-8.8,6.3c-0.8,0.5-1.5,1-2.3,1.5c-0.8,0.5-1.6,0.8-2.5,0.4
				c-0.8-0.3-1.7-0.8-2.4-1.2C4.8,74,4,73.5,3.4,72.9c-2.1-2.3-2.2-5.7-2.1-8.7c0.1-3.9,0.4-7.8,0.8-11.7c0.5-4.5,1.1-8.9,1.9-13.3
				c-0.1,0.1-0.2,0.2-0.3,0.2c1.7-0.1,3.4-0.2,5.1,0c0.9,0.1,1.7,0.2,2.6,0.3c0.4,0.1,0.8,0.1,1.2,0.2c0.3,0.1,0.8,0.3,1,0.2
				c0,0,0-0.1,0,0c0,0,0,0.2,0,0.1c0,0.2,0,0.4,0,0.6c0,0.6,0,1.2,0,1.8c-0.1,3.5-0.5,6.9-0.8,10.4c-0.1,1.2-0.3,2.4-0.2,3.5
				c0,0.4,0.7,0.4,0.7,0c0-0.9,0.7-1.8,1.3-2.5c0.8-1,1.8-2,2.7-2.9c0.9-0.8,1.8-1.6,2.6-2.4c0.9-0.9,1.8-1.8,2.7-2.6
				c1-0.9,2.1-1.8,3.3-2.3c1.5-0.7,3.2-0.9,4.9-1c2.2-0.2,4.4-0.4,6.6-0.6c0.5,0,1,0,1.5,0c2,0,4,0,5.9,0c0.9,0,1.8,0,2.7,0
				c0.4,0,0.9,0,1.3,0c2.2,0.2,4.4,0.4,6.5,0.6c1.6,0.1,3.2,0.2,4.7,0.7c0.6,0.2,1.3,0.4,1.8,1c0.4,0.5,0.7,1.2,0.8,1.8
				c0.4,1.4,0.4,2.8,0.6,4.3c0.4,4.3,0.7,8.6,0.7,12.9c0,2.1,0,4.2,0.2,6.4c0.2,2.2,0.4,4.3,0.6,6.5c0.1,1.1,0.2,2.1,0.2,3.2
				C65,79.6,65.6,79.6,65.6,79.2z"/>
		</g>
	</g>
	<g>
		<path class="st0" d="M53.9,99.9c2.9,0.5,5.8,1.1,8.6,1.5c0.2-0.6-0.2-2.7,0.5-3c0.1-0.1,0.2-0.1,0.3-0.1c0.1-0.1,0.1-0.2,0.1-0.3
			c0.3-1.2,0-2.4-0.4-3.5c-0.4-1.2-1.4-4.4-3.2-3.4c-0.6,0.3-0.9,0.9-1.3,1.4c-0.8,1-2,1.7-3.2,2c-2.2,0.5-3.4,1.2-4.6,3.3
			c-0.7,1.2-1.2,2.6-2.1,3.6c-0.2,0.2-0.4,0.6-0.2,0.9c0.1,0.1,0.2,0.1,0.3,0.1c1,0.2,1.9-0.2,2.6-0.8c0.3-0.3,1-2,1.3-1.9
			C52.7,99.7,53.2,99.8,53.9,99.9z"/>
		<g>
			<path class="st1" d="M53.8,100.2c2.9,0.5,5.8,1.1,8.7,1.5c0.1,0,0.3-0.1,0.3-0.2c0.1-0.5,0.1-1,0.1-1.5c0-0.4-0.1-1.1,0.3-1.3
				c0.3-0.2,0.5-0.2,0.6-0.6c0.1-0.4,0.1-0.8,0.1-1.3c0-0.8-0.3-1.7-0.5-2.5c-0.5-1.4-1.6-4.6-3.6-3.6c-0.7,0.3-1,1-1.5,1.5
				c-0.5,0.6-1.1,1.1-1.8,1.5c-0.7,0.3-1.4,0.4-2.1,0.7c-0.6,0.2-1.1,0.4-1.6,0.7c-1.1,0.7-1.8,1.7-2.4,2.9
				c-0.4,0.7-0.7,1.5-1.2,2.2c-0.2,0.3-0.4,0.6-0.7,1c-0.2,0.3-0.4,0.6-0.4,0.9c0.1,0.8,1.3,0.7,1.8,0.6c0.7-0.1,1.4-0.5,1.8-1.1
				c0.3-0.4,0.5-0.9,0.8-1.4c0.1-0.1,0.1-0.2,0.2-0.3c0,0,0.1-0.1,0.1-0.1c0,0.1-0.2,0,0,0C52.9,100.2,53.4,100.2,53.8,100.2
				c0.4,0.1,0.6-0.6,0.2-0.6c-0.3-0.1-0.7-0.1-1-0.2c-0.2,0-0.4-0.1-0.5-0.1c-0.3,0.1-0.5,0.5-0.7,0.8c-0.2,0.4-0.4,0.8-0.6,1.1
				c-0.3,0.5-1,0.8-1.6,0.9c-0.2,0-0.9,0.1-0.9-0.1c0-0.1,0.2-0.4,0.3-0.4c0.1-0.2,0.3-0.3,0.4-0.5c0.4-0.6,0.8-1.3,1.1-1.9
				c0.6-1.1,1.1-2.3,2.2-3.1c0.9-0.7,2-0.9,3.1-1.2c1.3-0.4,2.4-1.2,3.3-2.3c0.4-0.5,0.8-1.1,1.4-1.2c0.4-0.1,0.7,0.2,1,0.5
				c0.6,0.7,1,1.6,1.3,2.5c0.2,0.7,0.5,1.4,0.6,2.1c0.1,0.5,0.1,1,0,1.5c-0.1,0.3-0.4,0.3-0.6,0.6c-0.3,0.4-0.3,0.9-0.3,1.4
				c0,0.5,0.1,1.1,0,1.6c0.1-0.1,0.2-0.2,0.3-0.2c-2.9-0.4-5.7-1-8.6-1.5C53.5,99.5,53.4,100.2,53.8,100.2z"/>
		</g>
	</g>
	<g>
		<path class="st2" d="M48.6,41.6H37.9c-1.3,0.1-2.6,0.2-3.8,0.4c3.4,7.7,6.5,15.6,10,23.3c-0.5-1,2.8-6.9,3.3-8.1
			c1.1-3.1,2.2-6.1,3.2-9.3c0.2-0.6,0.9-3.1,1.6-5.9C51,41.8,49.8,41.7,48.6,41.6z"/>
		<g>
			<path class="st1" d="M48.6,41.3c-3.4,0-6.8,0-10.2,0c-1.4,0-2.9,0.2-4.3,0.4c-0.3,0-0.4,0.3-0.3,0.5c2.6,6,5.1,12.1,7.7,18.1
				c0.7,1.7,1.5,3.4,2.3,5.1c0.2,0.3,0.7,0.1,0.6-0.3c-0.1-0.2,0-0.7,0.1-1c0.2-0.6,0.4-1.1,0.6-1.7c0.6-1.3,1.2-2.5,1.8-3.8
				c0.6-1.3,1.1-2.6,1.6-4c0.8-2.3,1.6-4.6,2.3-6.9C51.4,46,52,44,52.5,42c0.1-0.2-0.1-0.4-0.3-0.4C51,41.5,49.8,41.4,48.6,41.3
				c-0.4,0-0.4,0.6,0,0.7c1.2,0.1,2.4,0.2,3.5,0.3c-0.1-0.1-0.2-0.3-0.3-0.4c-1,4.1-2.3,8.1-3.7,12.1c-0.5,1.5-1.1,3-1.8,4.4
				c-0.6,1.2-1.2,2.5-1.8,3.7c-0.3,0.6-0.6,1.3-0.8,2c-0.1,0.4-0.3,0.9-0.1,1.3c0.2-0.1,0.4-0.2,0.6-0.3c-2.7-6-5.2-12.1-7.8-18.1
				c-0.7-1.7-1.5-3.4-2.2-5.1c-0.1,0.2-0.2,0.3-0.3,0.5c1.4-0.1,2.8-0.4,4.1-0.4c0.8,0,1.5,0,2.3,0c2.2,0,4.3,0,6.5,0
				c0.5,0,1.1,0,1.6,0C49,41.9,49,41.3,48.6,41.3z"/>
		</g>
	</g>
	<g>
		<path class="st0" d="M59.9,42.9c2.3,0.1,4.7,3.3,5.8,5c1.6,2.4,2.6,5.1,3.6,7.8c1.2,3.4,2.5,6.8,3.7,10.2c1,2.6,1.9,5.3,1.5,8
			C74.5,75,74.2,76,73.8,77c-2.5,6.9-6,13.6-9.4,20.1c-0.1,0.2-0.2,0.4-0.5,0.5c-0.1,0-0.3,0-0.4,0c-2.5-0.6-4.8-1.8-6.6-3.4
			c-0.2-0.2-0.5-0.4-0.5-0.8c0-0.2,0.1-0.4,0.2-0.6c2.6-5.7,4.1-12,5.9-18c0.3-1,0.6-2,0.7-3.1c0-0.9-0.1-1.7-0.3-2.6
			c-1.1-6.6-1.5-13.2-1.4-19.9"/>
		<g>
			<path class="st1" d="M59.9,43.3c1.4,0.1,2.6,1.2,3.5,2.2c1,1,1.8,2.2,2.5,3.4c1.9,3.3,3.1,7,4.4,10.5c0.7,1.9,1.4,3.7,2.1,5.6
				c0.7,1.8,1.4,3.7,1.8,5.6c0.2,0.9,0.3,1.9,0.2,2.9c-0.1,1-0.3,1.9-0.6,2.8c-0.6,1.8-1.3,3.7-2.1,5.4c-1.5,3.6-3.2,7-5,10.5
				c-0.4,0.8-0.9,1.7-1.3,2.5c-0.2,0.4-0.4,0.8-0.6,1.2c-0.2,0.4-0.4,0.9-0.7,1.3c-0.2,0.3-0.9,0-1.2-0.1c-0.4-0.1-0.8-0.3-1.2-0.4
				c-0.8-0.3-1.6-0.7-2.3-1.2c-0.8-0.5-1.5-1-2.1-1.6c-0.1-0.1-0.3-0.3-0.4-0.4c-0.1-0.2,0-0.5,0.1-0.7c0.2-0.4,0.4-0.9,0.6-1.3
				c0.7-1.7,1.3-3.5,1.9-5.2c1.2-3.6,2.1-7.2,3.2-10.8c0.3-0.9,0.6-1.8,0.7-2.7c0.2-0.9,0.1-1.8,0-2.7c-0.3-2-0.6-4-0.8-6
				c-0.4-3.9-0.7-7.9-0.7-11.9c0-1,0-2,0-3c0-0.4-0.6-0.4-0.7,0c-0.1,4.2,0.1,8.4,0.4,12.5c0.2,2.1,0.4,4.1,0.8,6.2
				c0.1,1,0.4,2,0.4,3c0.1,1-0.1,2-0.4,3c-1.1,3.8-2.1,7.5-3.3,11.3c-0.6,1.9-1.2,3.7-2,5.5c-0.2,0.5-0.4,0.9-0.6,1.4
				C56.3,92.5,56,93,56,93.4c0,0.7,0.9,1.3,1.4,1.7c1.4,1.1,3,1.9,4.6,2.5c0.7,0.2,1.8,0.7,2.3,0.1c0.3-0.3,0.4-0.7,0.6-1
				c0.2-0.5,0.5-1,0.7-1.4c1.9-3.6,3.7-7.2,5.4-10.9c0.8-1.8,1.6-3.6,2.3-5.5c0.7-1.8,1.5-3.7,1.6-5.6c0.1-2-0.4-3.9-1.1-5.8
				c-0.7-2-1.4-3.9-2.1-5.8c-0.7-2-1.4-3.9-2.2-5.9c-0.7-1.8-1.3-3.6-2.2-5.3c-0.7-1.5-1.6-2.8-2.5-4.1c-0.9-1.2-1.9-2.4-3.3-3.1
				c-0.5-0.3-1.1-0.5-1.8-0.6C59.5,42.6,59.5,43.2,59.9,43.3L59.9,43.3z"/>
		</g>
	</g>
	<g>
		<path class="st1" d="M63.4,73.6c0.4-0.8,1.1-1.5,2-1.8c0.9-0.3,1.9-0.3,2.9-0.6c0.4-0.1,1-0.2,1.2-0.5c0.2-0.3,0.1-0.7-0.1-1
			c-0.3-0.3-0.9-0.3-1.3-0.3c-0.5,0-1.1,0-1.6,0.1c-1,0.1-2,0.6-2.5,1.5c-0.2,0.4,0.4,0.7,0.6,0.3c0.5-0.9,1.6-1.2,2.7-1.3
			c0.3,0,0.6,0,0.9,0c0.2,0,0.6,0,0.8,0.1c0.1,0,0.1,0.1,0.1,0.2c0,0.1-0.2,0.1-0.3,0.1c-0.2,0.1-0.5,0.1-0.7,0.2
			c-1,0.2-2.1,0.2-3,0.6c-0.9,0.4-1.6,1.1-2,1.9C62.6,73.6,63.2,73.9,63.4,73.6L63.4,73.6z"/>
	</g>
	<g>
		<path class="st2" d="M34.2,46.5c0.1,0.4,0.2,0.9,0.3,1.2c1.9-1.5,3.7-3,5.6-4.5c0.2-0.2,0.5-0.3,0.7-0.3c0.1,0,0.2,0.1,0.3,0.2
			c0.3,0.3,2.4,2.4,2.3,2.5c0.9-1.2,1.5-2.1,2.7-2.9c0.1-0.1,0.2-0.1,0.3-0.1c0.1,0,0.2,0.1,0.3,0.2c1,1,2,2.1,3.3,2.8
			c0.6,0.3,2.9,1,2.9,1.9c0-2.8-0.7-5.3-1.7-7.9c-0.2-0.4-0.3-0.9-0.6-1.2c-0.3-0.4-0.7-0.6-1.1-0.9c-2.8-1.5-5.4-1.8-8.5-1.4
			c-1.6,0.2-3.4,0.8-4.5,2C34.8,39.9,33.8,43.9,34.2,46.5z"/>
		<g>
			<path class="st1" d="M33.9,46.6c0.1,0.4,0.2,0.8,0.3,1.2c0.1,0.2,0.3,0.3,0.5,0.1c1-0.8,2.1-1.7,3.1-2.5c0.5-0.4,1-0.8,1.5-1.2
				c0.2-0.2,0.5-0.4,0.7-0.6c0.2-0.2,0.5-0.5,0.8-0.2c0.4,0.4,0.8,0.8,1.2,1.2c0.2,0.2,0.4,0.5,0.7,0.7c0.1,0.1,0.2,0.2,0.2,0.3
				c0,0,0.1,0.1,0.1,0.1c0.1,0-0.1,0,0-0.1c-0.2,0.4,0.4,0.5,0.6,0.3c0.7-0.9,1.3-1.8,2.2-2.5c0.1-0.1,0.4-0.3,0.5-0.3
				c0.1,0,0.2,0.2,0.3,0.3c0.2,0.2,0.4,0.4,0.6,0.6c0.4,0.4,0.9,0.8,1.3,1.2c0.7,0.6,1.4,0.9,2.2,1.2c0.4,0.2,0.8,0.3,1.1,0.5
				c0.2,0.1,0.6,0.3,0.6,0.6c0,0.4,0.6,0.4,0.7,0c0-2.6-0.7-5.2-1.6-7.6c-0.2-0.6-0.4-1.2-0.8-1.6c-0.3-0.4-0.8-0.7-1.2-1
				c-1-0.6-2.2-1-3.3-1.3c-2.2-0.5-4.7-0.4-6.9,0.2c-1.1,0.3-2.1,0.7-2.9,1.5c-0.7,0.6-1.1,1.4-1.5,2.3C34.1,42,33.6,44.4,33.9,46.6
				c0.1,0.4,0.7,0.2,0.6-0.2c-0.3-1.9,0.1-3.8,0.7-5.6c0.3-0.8,0.7-1.6,1.2-2.3c0.6-0.8,1.5-1.3,2.5-1.7c1-0.4,2.1-0.5,3.2-0.6
				c1.1-0.1,2.2-0.1,3.2,0.1c1.1,0.2,2.1,0.5,3.1,1c0.5,0.2,0.9,0.4,1.3,0.7c0.6,0.4,0.8,0.9,1,1.5c1,2.5,1.7,5.1,1.7,7.8
				c0.2,0,0.4,0,0.7,0c0-0.9-1.1-1.3-1.7-1.6c-0.4-0.2-0.8-0.3-1.2-0.5c-0.6-0.3-1.1-0.7-1.6-1.1c-0.5-0.4-1-0.9-1.5-1.4
				c-0.2-0.2-0.4-0.5-0.7-0.5s-0.5,0.1-0.8,0.3c-1.1,0.8-1.8,1.8-2.6,2.9c0.2,0.1,0.4,0.2,0.6,0.3c0.1-0.2-0.1-0.4-0.2-0.6
				c-0.2-0.3-0.5-0.6-0.7-0.9c-0.5-0.5-0.9-1-1.4-1.4c-0.5-0.4-0.9-0.2-1.4,0.1c-0.6,0.5-1.2,1-1.9,1.5c-1.2,1-2.5,2-3.7,3
				c0.2,0,0.4,0.1,0.5,0.1c-0.2-0.4-0.2-0.8-0.3-1.2C34.5,46,33.9,46.2,33.9,46.6z"/>
		</g>
	</g>
	<g>
		<path class="st0" d="M35.3,31.5c-1.1-1.6-1.8-3.6-1.8-5.6c-1.1,0-1.9-0.3-2.4-1.4c-0.3-0.7-0.4-1.5-0.5-2.3
			c-0.1-0.8-0.1-1.7,0.5-2.4c0.1-0.1,0.2-0.2,0.3-0.2c0.5-0.1,0.6,0.7,1.1,0.9c0.3-2.4,0.2-4.8,0.4-7.2c0.7-6.6,8.1-7.7,13.6-6.7
			c2.7,0.5,5.3,1.9,6.7,4.2c2,3.2,1.7,7,0.9,10.5c0.3-0.6,0.8-1.1,1.4-1.4c0.2-0.1,0.4-0.2,0.7-0.2c0.3,0,0.6,0.3,0.7,0.6
			C57,20.7,57,21,57,21.3c-0.2,1.9-1,3.7-2.3,5.1c-0.4,0.4-1,0.8-1.4,0.5c0.7,0.4-0.8,2.7-1.1,3.1c-0.9,1.3-1.7,2.6-2.9,3.8
			c-0.2,0.2-0.3,0.3-0.4,0.6c-0.1,0.2-0.1,0.4-0.1,0.6c0,1.6,0.1,3.2,0.1,4.8c-1.1,0.2-3.7,0.3-4.4,1.2c-0.2,0.3-0.3,0.6-0.4,1
			c-0.2,1.2-0.5,2.4-0.7,3.6c-0.2-0.5-0.7-4.8-1.1-4.8c-1.2-0.1-2.6-0.2-3.8-0.4c-0.4-0.1-0.8-0.2-0.9-0.5c-0.1-0.2,0-0.4,0-0.7
			c0.2-1.3,0.3-2.6,0.3-3.9c0-0.2,0-0.5-0.1-0.6c-0.4-0.8-1.3-1.6-1.9-2.3C35.7,32,35.5,31.8,35.3,31.5z"/>
		<g>
			<path class="st1" d="M35.6,31.4c-1.1-1.6-1.7-3.5-1.8-5.4c0-0.2-0.1-0.3-0.3-0.3c-0.6,0-1.2-0.1-1.7-0.5
				c-0.6-0.6-0.8-1.5-0.9-2.3c-0.1-0.7-0.2-1.7,0.1-2.4c0.1-0.1,0.2-0.4,0.4-0.4c0.1,0,0.2,0.2,0.2,0.2c0.2,0.2,0.3,0.5,0.6,0.6
				c0.2,0.2,0.5-0.1,0.5-0.3c0.2-1.9,0.2-3.8,0.3-5.7c0.1-1.4,0.2-2.7,0.8-4c1-1.9,2.9-3.1,4.9-3.7c2.2-0.6,4.5-0.7,6.7-0.4
				c2.8,0.4,5.7,1.6,7.3,4c2.1,3.1,1.8,7,1,10.4c-0.1,0.3,0.4,0.6,0.6,0.3c0.3-0.5,1.4-2,2-1.4c0.3,0.3,0.2,0.9,0.1,1.3
				c-0.1,0.4-0.2,0.8-0.3,1.2c-0.2,0.8-0.6,1.6-1.1,2.2c-0.3,0.5-1.2,1.9-1.9,1.6c-0.4-0.2-0.7,0.3-0.3,0.6c0.1,0.1-0.1,0.6-0.2,0.8
				c-0.2,0.4-0.4,0.8-0.6,1.2c-0.5,0.9-1.1,1.7-1.7,2.5c-0.4,0.6-0.9,1.1-1.3,1.7c-0.5,0.5-0.8,0.8-0.8,1.6c0,1.6,0.1,3.2,0.1,4.8
				c0.1-0.1,0.2-0.2,0.2-0.3c-1.3,0.3-2.7,0.2-3.9,0.8c-0.7,0.4-1,1-1.1,1.8c-0.2,1.2-0.4,2.3-0.6,3.5c0.2,0,0.4,0,0.6,0
				c-0.2-0.7-0.3-1.5-0.4-2.2c-0.1-0.8-0.2-1.7-0.5-2.5c-0.2-0.4-0.5-0.4-0.9-0.4c-0.9-0.1-1.9-0.2-2.8-0.3c-0.3,0-0.7-0.1-1-0.2
				c-0.4-0.2-0.1-1,0-1.4c0.1-0.9,0.2-1.8,0.2-2.6c0-0.4,0-0.9-0.2-1.3c-0.2-0.4-0.4-0.7-0.7-1C36.8,32.8,36.1,32.1,35.6,31.4
				c-0.2-0.3-0.8,0-0.6,0.3c0.5,0.6,1,1.2,1.5,1.8c0.3,0.3,0.5,0.6,0.7,0.9c0.3,0.4,0.3,0.8,0.3,1.3c0,0.9-0.1,1.9-0.2,2.8
				c-0.1,0.6-0.4,1.4,0.3,1.9c0.6,0.4,1.4,0.4,2.1,0.5c0.5,0.1,0.9,0.1,1.4,0.1c0.2,0,0.4,0,0.6,0c0.1,0,0.6,0,0.4,0
				c-0.1,0,0,0,0,0.1c0,0,0,0.1,0,0.1c0.1,0.2,0.1,0.4,0.1,0.5c0.1,0.5,0.2,0.9,0.3,1.4c0.1,0.8,0.2,1.7,0.4,2.5
				c0.1,0.3,0.6,0.3,0.6,0c0.2-1.1,0.4-2.1,0.6-3.2c0.1-0.4,0.1-1,0.4-1.3c0.2-0.2,0.4-0.3,0.6-0.4c1.1-0.5,2.4-0.4,3.6-0.7
				c0.1,0,0.2-0.2,0.2-0.3c0-0.9,0-1.7-0.1-2.6c0-0.4,0-0.9,0-1.3c0-0.4-0.1-0.9,0-1.3c0.1-0.4,0.4-0.7,0.7-0.9
				c0.3-0.3,0.5-0.6,0.7-0.9c0.4-0.6,0.8-1.2,1.3-1.7c0.5-0.8,1.1-1.5,1.5-2.4c0.3-0.6,0.8-1.6,0.1-2.1c-0.1,0.2-0.2,0.4-0.3,0.6
				c1.1,0.6,2-0.7,2.5-1.4c0.7-1,1.2-2.1,1.5-3.3c0.2-0.9,0.6-2.5-0.6-2.9c-1-0.4-2.2,1-2.6,1.8c0.2,0.1,0.4,0.2,0.6,0.3
				c0.7-3.3,1-6.8-0.5-9.9c-1.4-2.8-4.2-4.6-7.3-5.2c-4.3-0.8-10.1-0.6-12.9,3.4c-0.8,1.2-1.2,2.5-1.3,3.9c-0.2,2.3-0.2,4.6-0.4,6.9
				c0.2-0.1,0.3-0.2,0.5-0.3c-0.3-0.2-0.4-0.6-0.8-0.8c-0.3-0.2-0.7-0.1-1,0.1c-0.8,0.7-0.7,1.9-0.6,2.9c0.1,1,0.3,2.2,1,3
				c0.6,0.6,1.4,0.8,2.2,0.8c-0.1-0.1-0.2-0.2-0.3-0.3c0,2,0.7,4,1.9,5.7C35.3,32,35.8,31.7,35.6,31.4z"/>
		</g>
	</g>
	<g>
		<path class="st1" d="M41.9,25.1c0.4,0,0.4-0.7,0-0.7C41.5,24.5,41.5,25.1,41.9,25.1L41.9,25.1z"/>
	</g>
	<g>
		<path class="st1" d="M44.1,25.1c0.4,0,0.4-0.7,0-0.7C43.7,24.5,43.7,25.1,44.1,25.1L44.1,25.1z"/>
	</g>
	<g>
		<path class="st1" d="M39.9,27.4c1.7,1.1,3.7,0.6,5.5,0.1c0.4-0.1,0.2-0.7-0.2-0.6c-1.6,0.4-3.5,0.9-5-0.1
			C39.9,26.6,39.6,27.1,39.9,27.4L39.9,27.4z"/>
	</g>
	<g>
		<path class="st1" d="M44.2,21.6c0.2,0.8,0.3,1.5,0.5,2.3c0,0.2,0.2,0.3,0.4,0.2c0.2,0,0.3-0.2,0.2-0.4c-0.2-0.8-0.3-1.5-0.5-2.3
			c0-0.2-0.2-0.3-0.4-0.2C44.3,21.3,44.2,21.5,44.2,21.6L44.2,21.6z"/>
	</g>
	<g>
		<path class="st1" d="M32.8,6.1c0,0.3,0.1,0.5,0,0.8c-0.1,0.2-0.3,0.3-0.5,0.5c-1.3,0.9-2.2,2.5-2.4,4.1c-0.3,2,0.8,3.5,1.4,5.3
			c0.9,2.5,0.5,5.5,1.8,7.9c0.2-3.1,0.6-6.2,1.2-9.3c0.2-1.2,0.2-2.6,1.2-3.4c0.8-0.7,2-0.7,2.8-1.6c0.1-0.2,0.3-0.3,0.4-0.4
			c0.2,0,0.4,0,0.5,0.1c2.3,1.2,4.7,1.5,7.2,1.9c1.4,0.3,2.8,1.3,2.9,2.7c0.6-0.8,0.6-1.9,0.2-2.8c1.8,0.6,3,1.2,3.4,3.2
			c0.3,1.6,0.4,3.2,0.5,4.8c0.1,1.4,0.4,3.2,0.1,4.6c1-5,4.1-9.4,2.4-14.7c-0.1-0.2-0.1-0.4-0.1-0.6c0-0.2,0.2-0.4,0.3-0.6
			c0.3-0.5,0.6-1.2,0.3-1.7C56,6.4,55.5,6.3,55,6.1c-2.7-0.9-4.6-3.3-7.3-4.3c-4.2-1.6-8.6-0.6-12.5,1.3c-1.2,0.6-2.6,1.4-2.5,2.8
			C32.8,5.9,32.8,6,32.8,6.1z"/>
		<g>
			<path class="st1" d="M32.5,6.1c0,0.2,0.1,0.4-0.1,0.6C32.3,6.9,32.2,7,32,7c-0.2,0.2-0.5,0.4-0.7,0.6c-0.4,0.4-0.8,0.9-1.1,1.5
				c-0.6,1.1-0.9,2.4-0.7,3.7c0.2,1.3,0.8,2.4,1.3,3.6c0.5,1.3,0.7,2.7,0.9,4.1c0.2,1.5,0.4,3,1.1,4.3c0.2,0.3,0.6,0.1,0.6-0.2
				c0.2-2.1,0.4-4.3,0.7-6.4c0.2-1,0.3-2,0.5-3c0.1-0.8,0.2-1.6,0.5-2.3c0.4-0.8,1.1-1.1,1.8-1.4c0.3-0.1,0.7-0.3,1-0.5
				c0.1-0.1,0.3-0.2,0.4-0.3c0.2-0.1,0.3-0.5,0.6-0.5c0.2,0,0.5,0.3,0.7,0.3c0.2,0.1,0.4,0.2,0.6,0.2c0.5,0.2,1,0.4,1.5,0.5
				c0.9,0.3,1.9,0.5,2.8,0.6c1,0.2,2,0.2,2.9,0.7c0.8,0.4,1.5,1.1,1.6,2.1c0,0.3,0.4,0.4,0.6,0.2c0.6-0.9,0.6-2.1,0.2-3.1
				c-0.1,0.2-0.2,0.3-0.4,0.5c0.8,0.3,1.7,0.6,2.4,1.3c0.8,0.8,0.9,2,1,3.1c0.2,1.3,0.2,2.7,0.3,4c0.1,1.3,0.3,2.6,0.1,3.8
				c-0.1,0.4,0.5,0.6,0.6,0.2c0.6-3,2-5.8,2.6-8.8c0.3-1.5,0.4-3,0.2-4.5c-0.1-0.4-0.1-0.7-0.2-1.1c-0.1-0.5-0.3-0.8-0.1-1.3
				c0.3-0.6,0.7-1.3,0.4-2c-0.2-0.6-0.8-0.9-1.4-1.1c-0.7-0.2-1.4-0.6-2-1c-1.2-0.8-2.3-1.7-3.6-2.5c-2.8-1.7-6.2-2-9.4-1.4
				c-1.9,0.4-3.7,1-5.4,1.9C33.6,3.5,32.2,4.5,32.5,6.1c0,0.3,0.7,0.3,0.6-0.1c-0.2-1.3,1.1-2.1,2.2-2.6c1.4-0.7,3-1.2,4.5-1.6
				c3-0.7,6.4-0.6,9.2,1c1.2,0.7,2.3,1.5,3.4,2.3c0.6,0.4,1.1,0.7,1.8,1c0.5,0.2,1.3,0.4,1.7,0.8c0.6,0.6-0.1,1.4-0.4,2
				c-0.2,0.7,0.2,1.4,0.3,2c0.3,1.4,0.3,2.9,0,4.3c-0.6,3.2-2.1,6.1-2.7,9.2c0.2,0.1,0.4,0.1,0.6,0.2c0.2-1.3,0-2.7-0.1-4.1
				c-0.1-1.5-0.2-3-0.4-4.6c-0.1-1.1-0.3-2.2-1.2-3c-0.7-0.7-1.7-1.1-2.6-1.4c-0.3-0.1-0.5,0.2-0.4,0.5c0.4,0.8,0.3,1.7-0.2,2.5
				c0.2,0.1,0.4,0.1,0.6,0.2c-0.2-1.9-1.9-2.8-3.5-3.1c-2.2-0.4-4.4-0.7-6.3-1.6c-0.4-0.2-0.8-0.5-1.2-0.3c-0.4,0.2-0.6,0.6-1,0.8
				c-0.7,0.5-1.6,0.6-2.2,1.1c-0.6,0.5-0.9,1.3-1.1,2.1c-0.2,1-0.3,2-0.5,3c-0.4,2.6-0.7,5.2-0.9,7.8c0.2-0.1,0.4-0.1,0.6-0.2
				c-1.3-2.4-0.9-5.3-1.8-7.9c-0.4-1.2-1.1-2.3-1.4-3.6c-0.3-1.3,0.1-2.6,0.7-3.7c0.4-0.6,0.9-1.2,1.5-1.6C32.6,7.4,32.9,7.2,33,7
				c0.2-0.3,0.1-0.7,0.1-1C33,5.6,32.4,5.7,32.5,6.1z"/>
		</g>
	</g>
	<g>
		<path class="st1" d="M39.4,16.2c-0.9,0.2-1.8,0.7-2.7,0.6c0.1,0.1,0.2,0.3,0.3,0.4c0.2-0.7,0.9-1,1.6-1.2c0.2-0.1,0.4-0.1,0.5-0.1
			c0.2,0,0.4-0.1,0.6,0c0.1,0,0.2,0.1,0.2,0.2C39.8,16.1,39.5,16.2,39.4,16.2c-0.4,0.1-0.2,0.7,0.2,0.6c0.4-0.1,0.9-0.3,0.9-0.8
			c0.1-0.6-0.5-0.9-1-0.9c-0.4,0-0.9,0.1-1.3,0.2c-0.4,0.1-0.8,0.3-1.1,0.5c-0.4,0.3-0.7,0.7-0.8,1.1c-0.1,0.2,0.1,0.4,0.3,0.4
			c1,0.1,2-0.4,2.9-0.6C40,16.8,39.8,16.1,39.4,16.2z"/>
	</g>
	<g>
		<path class="st1" d="M38.3,18.7c0,0.2,0,0.4,0,0.6c0,0.2,0.1,0.3,0.3,0.3c0.2,0,0.3,0,0.5,0c0.1,0,0.1,0,0.2-0.1
			c0.1,0,0.1-0.1,0.1-0.2c0-0.2,0.1-0.3,0.1-0.5c0-0.2,0-0.3-0.1-0.5c-0.1-0.1-0.2-0.3-0.4-0.3c-0.2-0.1-0.4,0-0.5,0.1
			c-0.1,0-0.1,0.1-0.1,0.2C38.3,18.5,38.3,18.6,38.3,18.7c0.1,0.1,0.3,0.1,0.5,0c0,0,0,0,0,0c0,0-0.1,0-0.1,0c0,0,0,0,0.1,0
			c0,0-0.1,0-0.1,0c0,0,0.1,0,0.1,0c0,0-0.1,0-0.1,0c0,0,0.1,0,0.1,0c0,0-0.1,0-0.1,0c0,0,0.1,0,0.1,0.1c0,0,0,0-0.1-0.1
			c0,0,0.1,0.1,0.1,0.1c0,0,0,0-0.1-0.1c0,0,0,0.1,0.1,0.1c0,0,0-0.1,0-0.1c0,0.1,0,0.1,0,0.2c0,0,0-0.1,0-0.1c0,0.1,0,0.2,0,0.3
			c0,0,0-0.1,0-0.1c0,0.1,0,0.1,0,0.2c0.1-0.1,0.2-0.2,0.3-0.2c-0.2,0-0.3,0-0.5,0c0.1,0.1,0.2,0.2,0.3,0.3c0-0.2,0-0.4,0-0.6
			c0-0.2-0.1-0.3-0.3-0.3C38.5,18.4,38.3,18.6,38.3,18.7L38.3,18.7z"/>
	</g>
	<g>
		<path class="st1" d="M50.4,16.9C50,16.4,49.5,16,49,15.7c-0.5-0.3-1.2-0.6-1.8-0.3c-0.5,0.2-0.8,0.8-0.6,1.3
			c0.1,0.3,0.4,0.5,0.7,0.6c0.3,0.1,0.5,0.2,0.8,0.3c0.6,0.2,1.3,0.3,1.9,0.7c0.1,0.1,0.4,0,0.4-0.1c0.3-0.6,0.1-1.1-0.5-1.4
			c-0.4-0.2-0.7,0.4-0.3,0.6c0.1,0.1,0.2,0.1,0.3,0.2c0,0.1,0,0.2,0,0.3c0.1,0,0.3-0.1,0.4-0.1c-0.9-0.5-1.9-0.6-2.8-1
			c-0.1,0-0.2-0.1-0.2-0.1c0,0,0-0.1,0-0.1c0-0.1,0.1-0.3,0.2-0.4c0.1-0.1,0.3-0.1,0.5-0.1c0.2,0,0.5,0.1,0.7,0.3
			c0.5,0.3,0.9,0.6,1.2,1.1c0.1,0.1,0.3,0.2,0.4,0.1C50.4,17.3,50.5,17.1,50.4,16.9L50.4,16.9z"/>
	</g>
	<g>
		<path class="st1" d="M47.8,18.5c0,0.3,0,0.5-0.1,0.8c0,0.2,0,0.5,0.1,0.7c0.1,0.1,0.2,0.2,0.4,0.2c0.2,0,0.3-0.1,0.4-0.3
			c0.1-0.1,0.1-0.2,0.1-0.4c0-0.1,0-0.2,0-0.3c0-0.3-0.2-0.6-0.3-0.8c0-0.1-0.2-0.1-0.2-0.1c-0.1,0-0.2,0-0.2,0.1
			C47.9,18.4,47.9,18.5,47.8,18.5c0.1,0.1,0.1,0.2,0.2,0.3c-0.1-0.1,0,0,0,0c0,0,0,0,0,0.1c0,0,0,0,0,0.1c0,0,0,0,0,0c0,0,0-0.1,0,0
			c0,0.1,0,0.1,0,0.2c0,0,0,0.1,0,0.1c0,0,0,0,0,0c0,0,0,0,0,0c0,0.1,0,0.1,0,0.2c0,0,0,0,0,0c0,0,0,0,0,0c0,0,0,0.1,0,0.1
			c0,0,0,0,0,0c0,0,0,0,0,0c0,0,0,0,0,0.1c0,0,0-0.1,0,0c0,0,0.1,0,0,0c0.1,0,0.1,0,0,0c0.1,0,0.1,0,0,0c0,0,0,0,0.1,0c0,0,0,0,0,0
			c0,0,0.1,0.1,0,0c0,0,0,0.1,0,0c0,0,0,0,0,0c0,0,0,0,0-0.1c0,0,0,0,0,0c0,0,0,0,0,0c0,0,0,0,0-0.1c0-0.1,0-0.1,0-0.2
			c0-0.3,0.1-0.5,0.1-0.8c0-0.2-0.2-0.3-0.3-0.3C47.9,18.2,47.8,18.3,47.8,18.5L47.8,18.5z"/>
	</g>
	<g>
		<path class="st1" d="M40.6,35.9c1.7,0.4,3.4,0.5,5.1,0.1c0.4-0.1,0.2-0.7-0.2-0.6c-1.6,0.3-3.2,0.3-4.8-0.1
			C40.4,35.2,40.2,35.8,40.6,35.9L40.6,35.9z"/>
	</g>
	<g>
		<path class="st1" d="M43.2,64.6c-0.2,6.7-0.4,13.4-0.5,20.1c-0.1,6.7-0.2,13.3-0.2,20c0,3.8,0,7.6,0,11.4c0,0.4,0.7,0.4,0.7,0
			c0-6.7,0-13.4,0.1-20.1c0.1-6.7,0.2-13.3,0.4-20c0.1-3.8,0.2-7.6,0.3-11.4C43.9,64.2,43.3,64.2,43.2,64.6L43.2,64.6z"/>
	</g>
	<g>
		<path class="st1" d="M35.1,98.4c-3.9,0.6-7.8,1.2-11.7,1.9c-0.4,0.1-0.2,0.7,0.2,0.6c3.9-0.6,7.8-1.2,11.7-1.9
			C35.7,98.9,35.5,98.3,35.1,98.4L35.1,98.4z"/>
	</g>
	<g>
		<path class="st1" d="M24.7,47.8c-0.5,5.4-1.3,10.8-2.3,16.2c-0.3,1.5-0.6,3.1-0.9,4.6c-0.1,0.4,0.5,0.6,0.6,0.2
			c1.2-5.4,2.1-10.8,2.7-16.3c0.2-1.6,0.4-3.1,0.5-4.7C25.4,47.4,24.7,47.4,24.7,47.8L24.7,47.8z"/>
	</g>
	<g>
		<path class="st1" d="M12.7,55.8c0.2,2.1,0.1,4.2-0.3,6.3c-0.4,1.9-1.3,3.9-1.1,5.9c0,0.2,0.4,0.5,0.6,0.2
			c2.9-3.6,3.8-8.5,2.5-12.9c-0.1-0.4-0.8-0.2-0.6,0.2c1.3,4.2,0.4,8.9-2.3,12.3c0.2,0.1,0.4,0.2,0.6,0.2c-0.1-1,0.1-2,0.4-3
			c0.3-1,0.6-2,0.8-3c0.4-2,0.4-4.1,0.2-6.1C13.3,55.4,12.7,55.4,12.7,55.8L12.7,55.8z"/>
	</g>
	<g>
		<path class="st1" d="M46.7,43.2c-0.2-0.1-0.4-0.3-0.5-0.4c-0.1-0.1-0.2-0.2-0.4-0.2c-0.1,0-0.2,0.1-0.3,0.2
			c-0.6,0.5-1.5,0.6-2.3,0.6c-0.8-0.1-1.6-0.4-2.3-0.6c-0.4,0.6-1.1,1-1.6,1.5c0.5,0.7,1.1,1.4,1.7,2c0.3,0.4,0.7,0.8,0.7,1.3
			c0.1,1-0.1,2.3-0.1,3.3c-0.2,2.5-0.3,5-0.5,7.6c1,2.3,2,4.5,3,6.8c-0.3-0.6,1-3.4,2.1-5.6c-0.3-4-0.6-8-1.1-11.9
			c-0.1-0.5-0.1-0.9,0-1.4c0.1-0.3,0.3-0.6,0.5-0.8c0.4-0.6,0.9-1.1,1.3-1.7c0-0.1,0.1-0.1,0.1-0.2C46.9,43.4,46.8,43.3,46.7,43.2z"
			/>
		<g>
			<path class="st1" d="M47,43c-0.3-0.3-0.7-0.7-1.2-0.7c-0.2,0-0.4,0.2-0.6,0.3c-0.2,0.2-0.5,0.3-0.8,0.3c-1.2,0.3-2.4-0.1-3.5-0.5
				c-0.1,0-0.3,0-0.3,0.1c-0.5,0.6-1.1,1-1.6,1.5C39,44.1,39,44.3,39,44.4c0.4,0.6,0.8,1.1,1.3,1.6c0.4,0.5,1,1,1.1,1.6
				c0.1,1.3-0.1,2.7-0.2,4.1c-0.1,1.6-0.2,3.1-0.3,4.7c0,0.4-0.1,0.8-0.1,1.1c0,0.3-0.1,0.7-0.1,1.1c0.1,0.3,0.3,0.7,0.4,1
				c0.2,0.4,0.3,0.7,0.5,1.1c0.7,1.6,1.4,3.2,2.1,4.8c0.2,0.3,0.7,0.1,0.6-0.3c-0.1-0.3,0.1-0.8,0.2-1.1c0.2-0.6,0.4-1.2,0.7-1.8
				c0.3-0.7,0.6-1.4,1-2c0.2-0.3,0.3-0.6,0.3-0.9c0-0.5-0.1-0.9-0.1-1.4c-0.1-1.8-0.3-3.6-0.4-5.4c-0.2-1.8-0.4-3.6-0.5-5.3
				c0-0.5,0-0.9,0.3-1.3c0.2-0.4,0.5-0.7,0.8-1.1C46.9,44.3,47.6,43.6,47,43c-0.3-0.3-0.8,0.2-0.5,0.5c0.2,0.2-0.3,0.7-0.4,0.8
				c-0.3,0.3-0.5,0.7-0.8,1c-0.4,0.6-0.6,1.2-0.6,2c0.1,1.8,0.4,3.5,0.5,5.2c0.2,1.8,0.3,3.6,0.4,5.4c0,0.4,0.1,0.8,0.1,1.2
				c0,0.2,0,0.4,0,0.5c-0.1,0.2-0.2,0.4-0.3,0.6c-0.3,0.6-0.6,1.3-0.9,2c-0.3,0.6-0.5,1.2-0.7,1.9c-0.1,0.4-0.3,0.9-0.1,1.2
				c0.2-0.1,0.4-0.2,0.6-0.3c-0.6-1.4-1.3-2.8-1.9-4.3c-0.3-0.7-0.6-1.4-0.9-2.1c-0.2-0.4-0.1-0.7-0.1-1.1c0-0.4,0.1-0.8,0.1-1.2
				c0.1-1.6,0.2-3.1,0.3-4.7c0.1-1.4,0.3-2.7,0.2-4.1c0-0.7-0.4-1.2-0.9-1.7c-0.5-0.6-1.1-1.2-1.6-1.9c0,0.1,0,0.3-0.1,0.4
				c0.5-0.5,1.1-1,1.6-1.5C41,43,40.9,43,40.8,43c1,0.4,2,0.7,3.1,0.6c0.4,0,0.9-0.1,1.3-0.3c0.2-0.1,0.4-0.3,0.6-0.4
				c0.2-0.1,0.6,0.3,0.7,0.5C46.8,43.7,47.3,43.3,47,43z"/>
		</g>
	</g>
	<g>
		<path class="st0" d="M38.2,5.7c1,0.6,1.9,1.3,2.8,2c0.1,0.1,0.3,0.1,0.5,0c0.1-0.1,0.1-0.3,0-0.5c-0.9-0.8-1.9-1.5-2.9-2.1
			C38.2,4.9,37.9,5.4,38.2,5.7L38.2,5.7z"/>
	</g>
	<g>
		<path class="st0" d="M42.8,6.1c1.2,1.2,2.7,2.2,4.3,2.6c0.4,0.1,0.6-0.5,0.2-0.6c-1.5-0.4-2.9-1.3-4-2.4C43,5.3,42.6,5.8,42.8,6.1
			L42.8,6.1z"/>
	</g>
	<g>
		<path class="st0" d="M48.5,7c0.9,0.6,1.9,1,3,1.3c0.4,0.1,0.6-0.5,0.2-0.6c-1-0.3-2-0.7-2.8-1.2C48.5,6.2,48.1,6.8,48.5,7L48.5,7z
			"/>
	</g>
	<g>
		<path class="st1" d="M34.8,41.2c-0.9,0.5-1.4,1.4-1.7,2.4c-0.5,1.2-0.8,2.5-1.2,3.8c-0.7,2.6-1.2,5.2-1.4,7.9
			c-0.1,1.5-0.2,3.1-0.2,4.6c0,0.4,0.7,0.4,0.7,0c0-3.3,0.3-6.5,1-9.8c0.3-1.6,0.7-3.1,1.2-4.7c0.4-1.2,0.8-2.9,2-3.6
			C35.5,41.6,35.2,41,34.8,41.2L34.8,41.2z"/>
	</g>
	<g>
		<path class="st0" d="M28.9,59.3c0,0.5,0,1,0,1.5c0,1.4,0,3.3,1.1,4.3c1.4,1.3,2.6,0.1,2.7-1.5c0.1-1.5,0-2.7-0.1-4.1
			c-0.1-0.6-0.1-1.2-0.4-1.7C30.9,55.6,29,57.6,28.9,59.3z"/>
		<g>
			<path class="st1" d="M28.6,59.3c0,1.6-0.2,3.4,0.4,4.9c0.5,1.2,2,2.5,3.2,1.4c0.5-0.5,0.8-1.2,0.8-1.9c0.1-1,0-2,0-3
				c-0.1-0.9-0.1-1.9-0.4-2.7c-0.3-0.6-0.8-1.3-1.5-1.4C29.6,56.2,28.6,58,28.6,59.3c0,0.4,0.6,0.4,0.7,0c0-0.8,0.6-2.2,1.6-2.2
				c0.6,0,1,0.7,1.2,1.2c0.2,0.7,0.2,1.5,0.3,2.3c0.1,0.8,0.1,1.5,0.1,2.3c0,0.7-0.1,1.4-0.5,2c-0.9,1.2-2.1-0.2-2.4-1.2
				c-0.5-1.4-0.3-3-0.3-4.5C29.3,58.9,28.6,58.9,28.6,59.3z"/>
		</g>
	</g>
	<g>
		<g>
			<path class="st1" d="M51.7,41.4c2.1,2.9,3.5,6.4,3.9,10c0.1-0.1,0.2-0.2,0.2-0.3c-1.2,0.3-1.9,1.3-2.2,2.4
				c-0.4,1.4-0.4,2.9-0.6,4.3c-0.2,1.5-0.3,3.1-0.5,4.6c-0.2,1.5-0.4,3.1-0.5,4.6c-0.1,0.7,0,1.4,0.4,2c0.4,0.5,1,0.8,1.6,0.6
				c0.2,0,0.3-0.2,0.2-0.4c-0.1-0.4,0.1-0.8,0.4-1c-0.2,0-0.4-0.1-0.5-0.1c0.3,0.8,0.3,1.7-0.1,2.4c0.2,0,0.4,0.1,0.6,0.1
				c-0.1-0.3-0.1-0.6-0.1-0.9c0-0.1,0-0.2,0-0.4c0,0,0-0.1,0-0.1c0.1-0.2,0-0.2-0.1-0.1c-0.1,0-0.1-0.1-0.2-0.1c0-0.1,0-0.1,0.1-0.2
				c0.1,0,0.2-0.1,0.2-0.1c0,0,0,0,0,0c-0.4-0.1-0.4,0.6,0,0.7c0.6,0.1,0.5-1.1-0.2-0.8c-0.3,0.1-0.3,0.5-0.4,0.8c0,0.5,0,1,0.1,1.5
				c0.1,0.3,0.5,0.3,0.6,0.1c0.5-0.9,0.6-2,0.2-2.9c-0.1-0.2-0.3-0.3-0.5-0.1c-0.5,0.4-0.7,1-0.6,1.6c0.1-0.1,0.2-0.3,0.2-0.4
				c-0.9,0.2-1.2-0.9-1.2-1.5c0-0.8,0.1-1.5,0.2-2.3c0.2-1.7,0.4-3.4,0.5-5c0.2-1.6,0.3-3.3,0.5-4.9c0.2-1.4,0.5-3.1,2-3.5
				c0.1,0,0.3-0.2,0.2-0.3c-0.4-3.7-1.8-7.3-4-10.3C52,40.7,51.5,41.1,51.7,41.4L51.7,41.4z"/>
		</g>
		<g>
			<path class="st1" d="M55.9,51.6c1.1,0.4,1.5,1.6,1.8,2.7c0.3,1.6,0.5,3.2,0.7,4.8c0.4,3.3,0.5,6.7,0.5,10
				c0.1-0.1,0.2-0.2,0.3-0.3c-0.5,0-1,0.1-1.4,0.3c0.1,0.1,0.3,0.2,0.4,0.3c0-0.5-0.1-0.9-0.3-1.3c-0.1-0.2-0.4-0.2-0.5-0.1
				c-0.6,0.7-0.8,1.6-0.5,2.5c0.1,0.2,0.4,0.3,0.5,0.1c0.4-0.5,0.6-1.2,0.4-1.9c-0.1-0.4-0.7-0.2-0.6,0.2c0.1,0.4,0.1,0.9-0.2,1.2
				c0.2,0,0.4,0.1,0.5,0.1c-0.2-0.7-0.1-1.4,0.3-1.9c-0.2,0-0.3,0-0.5-0.1c0.2,0.3,0.2,0.6,0.2,1c0,0.2,0.2,0.4,0.4,0.3
				c0.4-0.2,0.8-0.3,1.3-0.3c0.2,0,0.3-0.1,0.3-0.3c0-2.8-0.1-5.6-0.3-8.4c-0.1-1.4-0.3-2.8-0.5-4.1c-0.2-1.1-0.3-2.3-0.6-3.3
				c-0.3-1-0.9-1.8-1.9-2.2C55.7,50.8,55.5,51.4,55.9,51.6L55.9,51.6z"/>
		</g>
	</g>
</g>
</svg>
