<?xml version="1.0" encoding="utf-8"?>
<!-- Generator: Adobe Illustrator 26.0.1, SVG Export Plug-In . SVG Version: 6.00 Build 0)  -->
<svg version="1.1" id="Layer_1" xmlns="http://www.w3.org/2000/svg" xmlns:xlink="http://www.w3.org/1999/xlink" x="0px" y="0px"
	 viewBox="0 0 298.6 263.1" style="enable-background:new 0 0 298.6 263.1;" xml:space="preserve">
<style type="text/css">
	.st0{fill:#095B4C;}
	.st1{fill:#F0EA3E;}
	.st2{fill:#FFFFFF;}
</style>
<circle class="st0" cx="131.5" cy="131.4" r="131"/>
<rect x="195" y="52.2" transform="matrix(0.4347 -0.9006 0.9006 0.4347 71.3459 218.9838)" class="st1" width="30.2" height="1"/>
<rect x="193.5" y="49.1" transform="matrix(0.4347 -0.9006 0.9006 0.4347 71.9516 213.6875)" class="st1" width="25.4" height="0.8"/>
<rect x="53.9" y="37.6" transform="matrix(0.9006 -0.4347 0.4347 0.9006 -17.4987 28.8871)" class="st1" width="1" height="30.2"/>
<rect x="58.1" y="36.8" transform="matrix(0.9006 -0.4347 0.4347 0.9006 -15.7022 30.354)" class="st1" width="0.8" height="25.4"/>
<g>
	<path class="st2" d="M64.7,208.5c0,0.7,0.3,0.9,0.5,0.9s0.5,0,0.7-0.1H66v0.1v0.1c-0.1,0.1-0.5,0.4-1.1,0.4c-0.5,0-1-0.5-1-0.8
		c0-0.4,0-1.3,0-1.4v-0.2c0-0.2,0-0.9,0-1.3h-0.6c-0.1,0-0.1,0-0.1-0.1s0.1-0.1,0.2-0.2c0.2-0.1,1-0.9,1.1-1.2
		c0-0.1,0.1-0.1,0.1-0.1c0.1,0,0.1,0.1,0.1,0.1v1h1.4c0.1,0,0.1,0,0.1,0.1L66,206c0,0,0,0.1-0.1,0.1h-1.3c0,0.5,0,0.9,0,1.4
		L64.7,208.5L64.7,208.5z"/>
	<path class="st2" d="M68.3,207.1c0,0.1,0,0.2,0,0.5c0,1,0.6,1.7,1.4,1.7c0.6,0,1-0.3,1.2-0.7c0,0,0.1-0.1,0.1,0l0.1,0.1
		c0,0,0,0,0,0.1c-0.2,0.4-0.7,1.1-1.6,1.1c-0.6,0-1.2-0.2-1.5-0.7s-0.4-0.9-0.4-1.6c0-0.4,0.1-1.1,0.6-1.6c0.4-0.4,0.9-0.5,1.4-0.5
		c1.1,0,1.4,1.1,1.4,1.5c0,0.1-0.1,0.2-0.3,0.2h-2.4C68.3,207.2,68.3,207.1,68.3,207.1z M69.8,206.8c0.2,0,0.3,0,0.3-0.1
		c0-0.2-0.1-0.9-0.8-0.9c-0.4,0-0.8,0.3-1,1H69.8z"/>
	<path class="st2" d="M74,206.7c0,0.5,0,2,0,2.3c0,0.2,0,0.3,0.3,0.3h0.4c0.1,0,0.1,0,0.1,0.1v0.2c0,0.1,0,0.1-0.1,0.1s-0.5,0-1.1,0
		s-1,0-1.1,0c0,0-0.1,0-0.1-0.1v-0.2c0-0.1,0-0.1,0.1-0.1H73c0.1,0,0.2-0.1,0.2-0.2c0-0.3,0-2,0-2.6v-0.6c0-0.7,0-1.6,0-1.9
		c0-0.3-0.2-0.5-0.5-0.6l-0.2-0.1h-0.1v-0.1c0,0,0,0,0.1-0.1c0.3-0.2,0.8-0.3,1.2-0.6c0.1-0.1,0.1-0.1,0.2-0.1s0.1,0,0.1,0.2
		c0,0.5,0,2.6,0,3.2C74,205.8,74,206.7,74,206.7z"/>
	<path class="st2" d="M76.5,209.2c0-0.2,0.1-0.6,0.6-0.6c0.3,0,0.6,0.2,0.6,0.6c0,0.3-0.2,0.5-0.6,0.5
		C76.9,209.8,76.5,209.7,76.5,209.2z"/>
</g>
<g>
	<path class="st2" d="M105,24.5v-6.3h3.9v1.1h-2.8v1.5h2.4v1.1h-2.4v2.7H105z"/>
	<path class="st2" d="M110.6,24.5v-6.3h1.2v6.3H110.6z"/>
	<path class="st2" d="M113.7,24.5v-6.3h2.4c0.6,0,1.1,0.1,1.3,0.2c0.3,0.1,0.5,0.3,0.7,0.6s0.2,0.6,0.2,1c0,0.5-0.1,0.9-0.4,1.2
		c-0.3,0.3-0.6,0.5-1.1,0.6c0.2,0.2,0.5,0.3,0.6,0.5c0.2,0.2,0.4,0.5,0.7,1l0.7,1.2h-1.4l-0.8-1.4c-0.3-0.5-0.5-0.8-0.6-0.9
		s-0.2-0.2-0.3-0.3c-0.1,0-0.3-0.1-0.6-0.1h-0.2v2.6H113.7z M114.8,20.8h0.9c0.6,0,0.9,0,1-0.1c0.1-0.1,0.2-0.1,0.3-0.3
		c0.1-0.1,0.1-0.3,0.1-0.5c0-0.2-0.1-0.4-0.2-0.5c-0.1-0.1-0.2-0.2-0.4-0.2c-0.1,0-0.4,0-0.8,0h-0.9V20.8z"/>
	<path class="st2" d="M120,22.4l1.1-0.1c0.1,0.4,0.2,0.7,0.4,0.9c0.2,0.2,0.5,0.3,0.8,0.3c0.4,0,0.7-0.1,0.8-0.3
		c0.2-0.2,0.3-0.4,0.3-0.6c0-0.1,0-0.3-0.1-0.4s-0.2-0.2-0.4-0.3c-0.1-0.1-0.4-0.1-0.9-0.3c-0.6-0.2-1.1-0.4-1.3-0.6
		c-0.4-0.3-0.5-0.8-0.5-1.3c0-0.3,0.1-0.6,0.2-0.9c0.2-0.3,0.4-0.5,0.7-0.6c0.3-0.1,0.7-0.2,1.1-0.2c0.7,0,1.3,0.2,1.6,0.5
		c0.4,0.3,0.6,0.8,0.6,1.4l-1.2,0.1c0-0.3-0.2-0.6-0.3-0.7s-0.4-0.2-0.7-0.2c-0.3,0-0.6,0.1-0.8,0.2c-0.1,0.1-0.2,0.2-0.2,0.4
		c0,0.1,0.1,0.3,0.2,0.4c0.1,0.1,0.5,0.3,1.1,0.4c0.6,0.1,1,0.3,1.2,0.5c0.3,0.2,0.5,0.4,0.6,0.6c0.2,0.3,0.2,0.6,0.2,1
		c0,0.4-0.1,0.7-0.3,1c-0.2,0.3-0.4,0.5-0.8,0.7c-0.3,0.2-0.7,0.2-1.2,0.2c-0.7,0-1.3-0.2-1.7-0.6S120,23.1,120,22.4z"/>
	<path class="st2" d="M127.7,24.5v-5.2H126v-1.1h4.5v1.1h-1.7v5.2H127.7z"/>
	<path class="st2" d="M136.6,24.5l-2-6.3h1.3l1.4,4.7l1.4-4.7h1.2l-2,6.3H136.6z"/>
	<path class="st2" d="M141.2,24.5v-6.3h1.2v6.3H141.2z"/>
	<path class="st2" d="M143.9,22.4l1.1-0.1c0.1,0.4,0.2,0.7,0.4,0.9c0.2,0.2,0.5,0.3,0.8,0.3c0.4,0,0.7-0.1,0.8-0.3
		c0.2-0.2,0.3-0.4,0.3-0.6c0-0.1,0-0.3-0.1-0.4s-0.2-0.2-0.4-0.3c-0.1-0.1-0.4-0.1-0.9-0.3c-0.6-0.2-1.1-0.4-1.3-0.6
		c-0.4-0.3-0.5-0.8-0.5-1.3c0-0.3,0.1-0.6,0.2-0.9c0.2-0.3,0.4-0.5,0.7-0.6c0.3-0.1,0.7-0.2,1.1-0.2c0.7,0,1.3,0.2,1.6,0.5
		c0.4,0.3,0.6,0.8,0.6,1.4l-1.2,0.1c0-0.3-0.2-0.6-0.3-0.7c-0.2-0.1-0.4-0.2-0.7-0.2c-0.3,0-0.6,0.1-0.8,0.2
		c-0.1,0.1-0.2,0.2-0.2,0.4c0,0.1,0.1,0.3,0.2,0.4c0.1,0.1,0.5,0.3,1.1,0.4c0.6,0.1,1,0.3,1.2,0.5c0.3,0.2,0.5,0.4,0.6,0.6
		s0.2,0.6,0.2,1c0,0.4-0.1,0.7-0.3,1c-0.2,0.3-0.4,0.5-0.8,0.7c-0.3,0.2-0.7,0.2-1.2,0.2c-0.7,0-1.3-0.2-1.7-0.6
		S144,23.1,143.9,22.4z"/>
	<path class="st2" d="M150.3,24.5v-6.3h1.2v6.3H150.3z"/>
	<path class="st2" d="M154.7,24.5v-5.2H153v-1.1h4.5v1.1h-1.7v5.2H154.7z"/>
</g>
<g>
	<path class="st1" d="M72.4,41.9l-0.1-0.6c-0.1-0.4,0-0.7,0.3-1c0.7-0.6,1.2-1.4,1.6-2.3c0-0.1,0-0.1,0-0.1H73
		c-0.2,0-0.3-0.1-0.4-0.2c-0.1-0.1-0.2-0.3-0.2-0.4V37c0-0.2,0.1-0.3,0.2-0.4c0.1-0.1,0.2-0.2,0.4-0.2h0.3c0.1,0,0.1,0,0.1-0.1v-0.9
		c0-0.2,0.1-0.3,0.2-0.4c0.1-0.1,0.2-0.2,0.4-0.2h0.3c0.2,0,0.3,0.1,0.4,0.2c0.1,0.1,0.2,0.3,0.2,0.4v0.9c0,0.1,0,0.1,0.1,0.1h0.4
		c0.2,0,0.3,0.1,0.4,0.2c0.1,0.1,0.2,0.3,0.2,0.4v0.3c0,0.4-0.1,0.8-0.2,1.2c-0.1,0.3-0.2,0.6-0.4,0.9c0,0,0,0.1,0,0.2
		c0,0,0,0,0,0.1c0,0,0,0.1,0.1,0.1c0,0,0.1,0,0.1,0c0.2-0.3,0.3-0.5,0.4-0.7c0.1-0.1,0.2-0.2,0.3-0.3c0.1-0.1,0.3,0,0.4,0
		c0.1,0.1,0.2,0.2,0.3,0.4c0,0.2,0,0.3,0,0.5c-0.2,0.4-0.4,0.8-0.7,1.2c0,0.1,0,0.1,0,0.2l0,0c0.1,0.1,0.1,0.3,0.1,0.5
		c0,0.2-0.1,0.3-0.2,0.5L76,41.9c-0.1,0.1-0.2,0.2-0.4,0.1c-0.1,0-0.3-0.1-0.4-0.2c-0.2-0.3-0.3-0.5-0.4-0.6c0,0,0,0,0,0
		c0,0,0,0,0,0v3c0,0.2-0.1,0.3-0.2,0.4s-0.2,0.2-0.4,0.2h-0.3c-0.2,0-0.3-0.1-0.4-0.2s-0.2-0.3-0.2-0.4v-2.4c0,0,0,0,0,0
		c0,0,0,0,0,0C73.1,42,73,42.1,73,42.1c-0.1,0.1-0.2,0.1-0.3,0C72.5,42.1,72.4,42,72.4,41.9z M79.3,43.1c0.2,0,0.3-0.1,0.4-0.2
		c0.1-0.2,0.2-0.5,0.2-1.1s0.1-1.5,0.1-2.7v-2.1c0-0.1,0-0.1-0.1-0.1h-0.6c-0.1,0-0.1,0-0.1,0.1c-0.1,1.9-0.3,3.4-0.7,4.6
		s-1,2.1-1.8,3c-0.1,0.1-0.3,0.2-0.4,0.2c-0.2,0-0.3,0-0.5-0.1l-0.3-0.3c-0.1-0.1-0.2-0.2-0.2-0.4c0-0.2,0-0.3,0.1-0.4
		c0.7-0.7,1.3-1.6,1.6-2.6s0.5-2.3,0.6-4.1c0-0.1,0-0.1-0.1-0.1h-1.3c-0.2,0-0.3-0.1-0.4-0.2c-0.1-0.1-0.2-0.3-0.2-0.4v-0.2
		c0-0.2,0.1-0.3,0.2-0.4c0.1-0.1,0.2-0.2,0.4-0.2H81c0.2,0,0.3,0.1,0.4,0.2c0.1,0.1,0.2,0.3,0.2,0.4v1.8c0,1.1,0,2,0,2.7
		c0,0.7-0.1,1.4-0.1,1.9c-0.1,0.5-0.1,0.9-0.2,1.2c-0.1,0.3-0.2,0.5-0.4,0.7c-0.2,0.2-0.3,0.3-0.5,0.3c-0.2,0-0.4,0.1-0.7,0.1
		c-0.2,0-0.6,0-1.1-0.1c-0.2,0-0.3-0.1-0.4-0.2C78,44.2,78,44,78,43.9l0-0.3c0-0.2,0-0.3,0.2-0.4c0.1-0.1,0.2-0.2,0.4-0.1
		C78.9,43,79.1,43.1,79.3,43.1z"/>
	<path class="st1" d="M85.4,44c-0.6,0-1-0.3-1.4-0.8c-0.4-0.5-0.5-1.3-0.5-2.2c0-0.7,0.1-1.4,0.4-2s0.6-1.1,1.1-1.6
		c0,0,0.1-0.1,0-0.2c-0.1-0.4-0.2-0.8-0.3-1.2c0-0.2,0-0.3,0.1-0.5c0.1-0.1,0.2-0.2,0.3-0.3l0.3-0.1c0.2,0,0.3,0,0.4,0.1
		s0.2,0.2,0.3,0.4c0,0.1,0,0.2,0.1,0.4c0,0.2,0.1,0.3,0.1,0.3s0,0.1,0.1,0.1c0.5-0.2,1.1-0.3,1.7-0.3c0.2,0,0.4,0,0.6,0
		c0.1,0,0.1,0,0.1-0.1c0.1-0.3,0.1-0.6,0.2-0.9c0-0.2,0.1-0.3,0.3-0.4s0.3-0.1,0.4-0.1l0.3,0.1c0.2,0,0.3,0.1,0.4,0.3
		s0.1,0.3,0.1,0.5c-0.1,0.3-0.1,0.6-0.2,0.9c0,0.1,0,0.1,0.1,0.1c0.6,0.3,1.1,0.8,1.5,1.4c0.4,0.6,0.5,1.3,0.5,2.1
		c0,2.2-0.9,3.6-2.7,4.1c-0.2,0-0.3,0-0.4-0.1c-0.1-0.1-0.2-0.2-0.3-0.4l-0.1-0.4c0-0.2,0-0.3,0.1-0.4s0.2-0.2,0.3-0.3
		c1-0.3,1.6-1.2,1.6-2.5c0-0.8-0.3-1.4-1-1.8c0,0-0.1,0-0.1,0c-0.6,1.8-1.3,3.2-2.1,4.1C86.9,43.6,86.2,44,85.4,44z M85.5,39.3
		c-0.4,0.5-0.5,1.1-0.5,1.8c0,0.4,0.1,0.8,0.2,1c0.1,0.2,0.3,0.3,0.5,0.3c0.2,0,0.5-0.1,0.8-0.5c0,0,0-0.1,0-0.2c0,0,0,0,0,0
		C86.1,41,85.8,40.2,85.5,39.3C85.6,39.3,85.6,39.2,85.5,39.3C85.5,39.2,85.5,39.2,85.5,39.3z M88.2,38c-0.4,0-0.8,0.1-1.2,0.2
		c0,0-0.1,0.1,0,0.1c0.2,0.8,0.4,1.5,0.5,1.9c0,0,0,0,0,0c0,0,0,0,0,0c0.3-0.6,0.6-1.3,0.9-2.1c0-0.1,0-0.1-0.1-0.1
		C88.2,38,88.2,38,88.2,38C88.2,38,88.2,38,88.2,38z"/>
	<path class="st1" d="M95.4,37.5c-0.2,0-0.3-0.1-0.4-0.2s-0.2-0.3-0.2-0.4v-0.4c0-0.2,0.1-0.3,0.2-0.4c0.1-0.1,0.2-0.2,0.4-0.2
		c2.4,0,4.8-0.1,7.2-0.2c0.2,0,0.3,0,0.4,0.2c0.1,0.1,0.2,0.3,0.2,0.4l0,0.4c0,0.2,0,0.3-0.1,0.5c-0.1,0.1-0.2,0.2-0.4,0.2
		c-1.3,0.2-2.4,0.5-3,1.1c-0.7,0.6-1,1.2-1,2c0,0.7,0.2,1.2,0.6,1.6s1,0.6,1.6,0.6c0.2,0,0.4,0,0.6,0c0.2,0,0.3,0,0.4,0.1
		c0.1,0.1,0.2,0.2,0.2,0.4l0,0.4c0,0.2,0,0.3-0.1,0.5s-0.2,0.2-0.4,0.2c-0.2,0-0.5,0.1-0.9,0.1c-1.2,0-2.1-0.3-2.9-1
		c-0.7-0.7-1.1-1.6-1.1-2.7c0-0.6,0.2-1.2,0.5-1.7c0.3-0.6,0.8-1.1,1.4-1.4c0,0,0,0,0,0c0,0,0,0,0,0C97.6,37.5,96.6,37.5,95.4,37.5z
		"/>
	<path class="st1" d="M109.9,44.4c-1.2,0-2.2-0.2-2.8-0.7c-0.7-0.5-1-1.1-1-1.8c0-0.4,0.1-0.7,0.3-1.1c0.2-0.4,0.5-0.8,0.9-1.3
		c0.1-0.1,0.2-0.2,0.4-0.2c0.2,0,0.3,0,0.4,0.1l0.3,0.2c0.1,0.1,0.2,0.2,0.2,0.4c0,0.2,0,0.3-0.1,0.4c-0.5,0.6-0.7,1-0.7,1.3
		c0,0.3,0.2,0.6,0.6,0.8c0.4,0.2,0.9,0.3,1.7,0.3c0.8,0,1.7-0.1,2.8-0.4c0.2,0,0.3,0,0.4,0.1c0.1,0.1,0.2,0.2,0.2,0.4l0.1,0.4
		c0,0.2,0,0.3-0.1,0.5c-0.1,0.1-0.2,0.2-0.4,0.3C111.9,44.3,110.8,44.4,109.9,44.4z M112.9,36.4c0,0.2-0.1,0.3-0.2,0.4
		s-0.2,0.2-0.4,0.2h-4.9c-0.2,0-0.3-0.1-0.4-0.2s-0.2-0.3-0.2-0.4v-0.3c0-0.2,0.1-0.3,0.2-0.4s0.2-0.2,0.4-0.2h4.9
		c0.2,0,0.3,0.1,0.4,0.2s0.2,0.3,0.2,0.4V36.4z M111.5,38.2c0.1-0.1,0.3-0.1,0.4,0s0.3,0.2,0.3,0.3c0.1,0.1,0.2,0.4,0.3,0.7
		c0.1,0.2,0.1,0.3,0,0.5c-0.1,0.2-0.2,0.3-0.3,0.4c-0.1,0.1-0.3,0.1-0.4,0c-0.1-0.1-0.3-0.2-0.3-0.3c0-0.1-0.1-0.3-0.3-0.6
		c-0.1-0.1-0.1-0.3,0-0.5C111.2,38.4,111.3,38.3,111.5,38.2L111.5,38.2z M113.9,38.1c0.2,0.5,0.3,0.7,0.3,0.7c0.1,0.2,0.1,0.3,0,0.5
		c-0.1,0.2-0.1,0.3-0.3,0.4l0,0c-0.1,0.1-0.3,0.1-0.4,0c-0.2-0.1-0.3-0.2-0.3-0.3c0-0.1-0.1-0.2-0.2-0.3c-0.1-0.2-0.1-0.3-0.2-0.3
		c-0.1-0.1-0.1-0.3,0-0.5c0-0.2,0.1-0.3,0.3-0.4l0,0c0.1-0.1,0.3-0.1,0.4,0C113.7,37.8,113.8,37.9,113.9,38.1z"/>
	<path class="st1" d="M116.9,43.2l-0.2-0.4c-0.2-0.4-0.2-0.7,0-1c0.5-0.8,0.9-1.6,1.1-2.4c0-0.1,0-0.1,0-0.1h-0.6
		c-0.2,0-0.3-0.1-0.4-0.2c-0.1-0.1-0.2-0.3-0.2-0.4v-0.2c0-0.2,0.1-0.3,0.2-0.4c0.1-0.1,0.2-0.2,0.4-0.2h1c0.1,0,0.1,0,0.1-0.1v-1.1
		c0-0.1,0-0.1-0.1-0.1c-0.1,0-0.2,0-0.4,0s-0.3,0-0.4,0c-0.2,0-0.3,0-0.4-0.1c-0.1-0.1-0.2-0.3-0.2-0.4l0-0.1c0-0.2,0-0.3,0.1-0.4
		c0.1-0.1,0.2-0.2,0.4-0.2c1-0.1,2.1-0.2,3.1-0.5c0.2,0,0.3,0,0.5,0.1c0.1,0.1,0.2,0.2,0.3,0.4l0,0.1c0.1,0.2,0,0.3,0,0.5
		c-0.1,0.2-0.2,0.2-0.3,0.3c-0.1,0-0.5,0.1-1,0.2c-0.1,0-0.1,0.1-0.1,0.1v1.3c0,0.1,0,0.1,0.1,0.1h1c0.2,0,0.3,0.1,0.4,0.2
		s0.2,0.3,0.2,0.4v0.2c0,0.2-0.1,0.3-0.2,0.4c-0.1,0.1-0.2,0.2-0.4,0.2h-0.7c-0.1,0-0.1,0,0,0.1c0.1,0.2,0.5,0.9,1.1,1.9
		c0.1,0.2,0.1,0.3,0.1,0.5c0,0.2-0.1,0.3-0.2,0.4l-0.1,0.1c-0.1,0.1-0.2,0.1-0.4,0.1c-0.1,0-0.2-0.1-0.3-0.3l-0.5-1.2c0,0,0,0,0,0
		c0,0,0,0,0,0v3.3c0,0.2-0.1,0.3-0.2,0.4s-0.2,0.2-0.4,0.2h-0.3c-0.2,0-0.3-0.1-0.4-0.2s-0.2-0.3-0.2-0.4v-2.7c0,0,0,0,0,0
		c-0.2,0.6-0.4,1.2-0.7,1.6c-0.1,0.1-0.2,0.2-0.3,0.2C117,43.4,116.9,43.3,116.9,43.2z M122.4,42.4c-0.2,0-0.3-0.1-0.4-0.2
		c-0.1-0.1-0.2-0.3-0.2-0.4V36c0-0.2,0.1-0.3,0.2-0.4c0.1-0.1,0.2-0.2,0.4-0.2h0.3c0.2,0,0.3,0.1,0.4,0.2c0.1,0.1,0.2,0.3,0.2,0.4
		v5.8c0,0.2-0.1,0.3-0.2,0.4c-0.1,0.1-0.2,0.2-0.4,0.2H122.4z M125,34.9c0.2,0,0.3,0.1,0.4,0.2c0.1,0.1,0.2,0.3,0.2,0.4v7.3
		c0,0.3,0,0.6,0,0.8c0,0.2,0,0.4-0.1,0.5c0,0.2-0.1,0.3-0.1,0.4c-0.1,0.1-0.1,0.1-0.3,0.2c-0.1,0.1-0.3,0.1-0.4,0.1
		c-0.1,0-0.3,0-0.6,0c-0.3,0-0.6,0-1,0c-0.2,0-0.3-0.1-0.4-0.2c-0.1-0.1-0.2-0.3-0.2-0.5l0-0.3c0-0.2,0-0.3,0.2-0.4
		c0.1-0.1,0.2-0.2,0.4-0.2c0.4,0,0.6,0,0.7,0c0.2,0,0.3,0,0.3-0.1s0.1-0.2,0.1-0.4v-7.3c0-0.2,0.1-0.3,0.2-0.4
		c0.1-0.1,0.2-0.2,0.4-0.2H125z"/>
	<path class="st1" d="M127.6,44.2c-0.1-0.1-0.2-0.3-0.2-0.4c0-0.2,0-0.3,0.1-0.5c0.2-0.5,0.4-1.1,0.5-1.7c0.1-0.6,0.1-1.5,0.1-2.6
		v-3.5c0-0.2,0.1-0.3,0.2-0.4s0.2-0.2,0.4-0.2h7c0.2,0,0.3,0.1,0.4,0.2s0.2,0.3,0.2,0.4v7.3c0,0.3,0,0.6,0,0.8s0,0.4-0.1,0.5
		s-0.1,0.3-0.2,0.4c-0.1,0.1-0.2,0.1-0.3,0.2c-0.1,0.1-0.3,0.1-0.5,0.1c-0.2,0-0.4,0-0.7,0c-0.1,0-0.3,0-0.7,0
		c-0.2,0-0.3-0.1-0.4-0.2s-0.2-0.3-0.2-0.5l0-0.2c0-0.2,0-0.3,0.1-0.4c0.1-0.1,0.2-0.2,0.4-0.2c0.3,0,0.5,0,0.5,0
		c0.2,0,0.3,0,0.4-0.1c0,0,0.1-0.2,0.1-0.4v-1.2c0-0.1,0-0.1-0.1-0.1h-1.7c-0.1,0-0.1,0-0.1,0.1V44c0,0.2-0.1,0.3-0.2,0.4
		c-0.1,0.1-0.2,0.2-0.4,0.2h-0.4c-0.2,0-0.3-0.1-0.4-0.2c-0.1-0.1-0.2-0.3-0.2-0.4v-2.2c0-0.1,0-0.1-0.1-0.1h-1.6
		c-0.1,0-0.1,0-0.1,0.1c-0.1,1-0.4,1.9-0.8,2.7c-0.1,0.1-0.2,0.2-0.3,0.2s-0.3,0-0.4-0.1L127.6,44.2z M129.7,39.8c0,0.1,0,0.1,0,0.3
		c0,0.1,0,0.2,0,0.2c0,0.1,0,0.1,0.1,0.1h1.5c0.1,0,0.1,0,0.1-0.1v-1.2c0-0.1,0-0.1-0.1-0.1h-1.5c-0.1,0-0.1,0-0.1,0.1V39.8z
		 M129.7,36.5v1.1c0,0.1,0,0.1,0.1,0.1h1.5c0.1,0,0.1,0,0.1-0.1v-1.1c0-0.1,0-0.1-0.1-0.1L129.7,36.5
		C129.7,36.4,129.7,36.4,129.7,36.5z M132.8,36.5v1.1c0,0.1,0,0.1,0.1,0.1h1.7c0.1,0,0.1,0,0.1-0.1v-1.1c0-0.1,0-0.1-0.1-0.1
		L132.8,36.5C132.8,36.4,132.8,36.4,132.8,36.5z M132.8,39.1v1.2c0,0.1,0,0.1,0.1,0.1h1.7c0.1,0,0.1,0,0.1-0.1v-1.2
		c0-0.1,0-0.1-0.1-0.1L132.8,39.1C132.8,39,132.8,39,132.8,39.1z"/>
	<path class="st1" d="M141.3,44.4c-0.6,0-1.1-0.4-1.6-1.3c-0.5-0.9-0.8-1.9-0.8-3.1c0-1.1,0.1-2.2,0.4-3.3c0-0.2,0.1-0.3,0.3-0.4
		c0.1-0.1,0.3-0.1,0.5-0.1l0.4,0.1c0.1,0,0.3,0.1,0.3,0.2c0.1,0.1,0.1,0.3,0.1,0.4c-0.2,1.1-0.3,2.1-0.3,3.1c0,0.7,0.1,1.4,0.3,1.9
		s0.4,0.8,0.6,0.8c0.1,0,0.3-0.1,0.5-0.4c0.2-0.3,0.4-0.7,0.7-1.2c0.1-0.2,0.2-0.3,0.3-0.3s0.3-0.1,0.4,0l0.3,0.1
		c0.2,0.1,0.3,0.2,0.3,0.3s0.1,0.3,0,0.5c-0.3,0.9-0.8,1.6-1.3,2.1C142.3,44.1,141.8,44.4,141.3,44.4z M145.6,42.6
		c-0.1-2-0.4-3.8-1-5.6c-0.1-0.2,0-0.3,0-0.5c0.1-0.1,0.2-0.2,0.3-0.3l0.4-0.1c0.2-0.1,0.3,0,0.5,0c0.2,0.1,0.3,0.2,0.3,0.4
		c0.7,1.8,1.1,3.8,1.1,6.1c0,0.2,0,0.3-0.2,0.4s-0.2,0.2-0.4,0.2h-0.5c-0.2,0-0.3-0.1-0.4-0.2C145.6,42.9,145.6,42.7,145.6,42.6z"/>
	<path class="st1" d="M150.2,44.2c-0.1,0-0.3-0.1-0.3-0.3c-0.1-0.1-0.1-0.3,0-0.5c0.6-2,1-3.9,1.4-5.8c0,0,0,0,0-0.1c0,0,0,0-0.1,0
		h-0.6c-0.2,0-0.3-0.1-0.4-0.2c-0.1-0.1-0.2-0.3-0.2-0.4v-0.3c0-0.2,0.1-0.3,0.2-0.4c0.1-0.1,0.2-0.2,0.4-0.2h0.9
		c0.1,0,0.1,0,0.1-0.1c0-0.1,0-0.2,0-0.3c0-0.1,0-0.2,0-0.3c0-0.2,0.1-0.3,0.2-0.4c0.1-0.1,0.3-0.2,0.4-0.1l0.4,0
		c0.2,0,0.3,0.1,0.4,0.2c0.1,0.1,0.1,0.3,0.1,0.4c0,0,0,0.1,0,0.2c0,0.1,0,0.2,0,0.2c0,0.1,0,0.1,0.1,0.1h2.8c0.2,0,0.3,0.1,0.4,0.2
		c0.1,0.1,0.2,0.3,0.2,0.4V37c0,0.2-0.1,0.3-0.2,0.4c-0.1,0.1-0.2,0.2-0.4,0.2h-3c-0.1,0-0.1,0-0.1,0.1c-0.4,2.2-0.9,4.3-1.4,6.2
		c0,0.2-0.1,0.3-0.3,0.4c-0.1,0.1-0.3,0.1-0.4,0.1L150.2,44.2z M157.4,42.7c0.2,0,0.3,0,0.4,0.1c0.1,0.1,0.2,0.2,0.2,0.4l0,0.3
		c0,0.2,0,0.3-0.1,0.5c-0.1,0.1-0.2,0.2-0.4,0.2c-0.5,0.1-1.1,0.1-1.5,0.1c-1,0-1.7-0.2-2.3-0.6c-0.6-0.4-0.8-0.9-0.8-1.5
		c0-0.4,0.2-0.8,0.5-1.3c0.1-0.1,0.3-0.2,0.4-0.3s0.3,0,0.5,0.1l0.2,0.1c0.1,0.1,0.2,0.2,0.2,0.3c0,0.1,0,0.3-0.1,0.4
		c-0.1,0.2-0.2,0.3-0.2,0.4c0,0.2,0.1,0.4,0.4,0.5c0.3,0.1,0.7,0.2,1.2,0.2C156.5,42.8,157,42.7,157.4,42.7z M154.4,39.9
		c-0.2,0-0.3,0-0.4-0.1c-0.1-0.1-0.2-0.2-0.2-0.4l0-0.2c0-0.2,0-0.3,0.1-0.5s0.2-0.2,0.4-0.2c1.1-0.1,2.1-0.2,3-0.2
		c0.2,0,0.3,0.1,0.4,0.2c0.1,0.1,0.2,0.3,0.2,0.4v0.2c0,0.2-0.1,0.3-0.2,0.4c-0.1,0.1-0.2,0.2-0.4,0.2
		C156.4,39.7,155.4,39.8,154.4,39.9z"/>
	<path class="st1" d="M161.1,44.3c-0.1,0-0.3-0.1-0.3-0.3s-0.1-0.3,0-0.5c0.6-2,1-3.9,1.4-5.8c0,0,0,0,0-0.1c0,0,0,0-0.1,0h-0.6
		c-0.2,0-0.3-0.1-0.4-0.2c-0.1-0.1-0.2-0.3-0.2-0.4v-0.3c0-0.2,0.1-0.3,0.2-0.4c0.1-0.1,0.2-0.2,0.4-0.2h0.9c0.1,0,0.1,0,0.1-0.1
		c0-0.1,0-0.2,0-0.3c0-0.1,0-0.2,0-0.3c0-0.2,0.1-0.3,0.2-0.4c0.1-0.1,0.3-0.2,0.4-0.1l0.4,0c0.2,0,0.3,0.1,0.4,0.2
		c0.1,0.1,0.1,0.3,0.1,0.4c0,0,0,0.1,0,0.2c0,0.1,0,0.2,0,0.2c0,0.1,0,0.1,0.1,0.1h2.8c0.1,0,0.2,0,0.3,0.1c0,0,0,0,0,0l0,0
		c0,0,0,0,0,0c0-0.1-0.1-0.2-0.1-0.3c-0.1-0.1-0.1-0.2-0.1-0.3c-0.1-0.1-0.1-0.3,0-0.4c0-0.1,0.1-0.3,0.3-0.3c0.1-0.1,0.3-0.1,0.4,0
		s0.2,0.2,0.3,0.3c0,0.1,0.1,0.2,0.1,0.3s0.1,0.2,0.1,0.3c0.1,0.1,0.1,0.3,0,0.4c0,0.2-0.1,0.3-0.3,0.3c-0.2,0.1-0.3,0.1-0.5,0
		c0,0,0,0,0,0c0.1,0.1,0.1,0.2,0.1,0.3v0.3c0,0.2-0.1,0.3-0.2,0.4c-0.1,0.1-0.2,0.2-0.4,0.2h-3.1c-0.1,0-0.1,0-0.1,0.1
		c-0.4,2.2-0.9,4.3-1.4,6.2c0,0.2-0.1,0.3-0.3,0.4c-0.1,0.1-0.3,0.1-0.4,0.1L161.1,44.3z M163.9,42.3c0-0.4,0.2-0.8,0.5-1.3
		c0.1-0.1,0.3-0.2,0.4-0.3s0.3,0,0.5,0.1l0.2,0.1c0.1,0.1,0.2,0.2,0.2,0.3c0,0.1,0,0.3-0.1,0.4c-0.1,0.2-0.2,0.3-0.2,0.4
		c0,0.2,0.1,0.4,0.4,0.5c0.3,0.1,0.7,0.2,1.2,0.2c0.4,0,0.9,0,1.4-0.1c0.2,0,0.3,0,0.4,0.1c0.1,0.1,0.2,0.2,0.2,0.4l0,0.3
		c0,0.2,0,0.3-0.1,0.5c-0.1,0.1-0.2,0.2-0.4,0.2c-0.5,0.1-1.1,0.1-1.6,0.1c-1,0-1.7-0.2-2.3-0.6C164.1,43.4,163.9,42.9,163.9,42.3z
		 M165.3,40c-0.2,0-0.3,0-0.4-0.1c-0.1-0.1-0.2-0.2-0.2-0.4l0-0.2c0-0.2,0-0.3,0.1-0.5c0.1-0.1,0.2-0.2,0.4-0.2
		c1.1-0.1,2.1-0.2,3-0.2c0.2,0,0.3,0.1,0.4,0.2c0.1,0.1,0.2,0.3,0.2,0.4v0.2c0,0.2-0.1,0.3-0.2,0.4c-0.1,0.1-0.2,0.2-0.4,0.2
		C167.3,39.8,166.3,39.9,165.3,40z M169.7,36c0,0.1-0.1,0.3-0.3,0.3c-0.1,0.1-0.3,0.1-0.4,0s-0.2-0.2-0.3-0.3
		c-0.1-0.1-0.2-0.3-0.3-0.6c-0.1-0.1-0.1-0.3,0-0.4c0-0.2,0.1-0.3,0.3-0.3c0.1-0.1,0.3-0.1,0.4,0c0.1,0.1,0.3,0.1,0.3,0.3
		c0,0.1,0.1,0.2,0.1,0.3c0.1,0.1,0.1,0.2,0.1,0.3C169.7,35.7,169.7,35.9,169.7,36z"/>
	<path class="st1" d="M174.1,41.9c-0.8-0.6-1.3-1.1-1.5-1.3c-0.2-0.2-0.3-0.5-0.3-1c0-0.4,0.1-0.8,0.3-1c0.2-0.2,0.7-0.6,1.5-1.2
		c1.1-0.7,2-1.5,3-2.2c0.1-0.1,0.3-0.1,0.4-0.1c0.2,0,0.3,0.1,0.4,0.2l0.3,0.4c0.1,0.1,0.1,0.3,0.1,0.5c0,0.2-0.1,0.3-0.2,0.4
		c-1,0.8-2,1.5-2.9,2.2c-0.4,0.3-0.6,0.5-0.8,0.6c-0.1,0.1-0.2,0.2-0.2,0.3c0,0.1,0.1,0.2,0.2,0.3c0.1,0.1,0.3,0.3,0.7,0.6
		c1.1,0.9,2.2,1.7,3.3,2.7c0.1,0.1,0.2,0.2,0.2,0.4c0,0.2,0,0.3-0.1,0.4l-0.3,0.4c-0.1,0.1-0.2,0.2-0.4,0.2c-0.2,0-0.3,0-0.4-0.1
		C176.4,43.6,175.3,42.8,174.1,41.9z"/>
	<path class="st1" d="M182.9,37.5c-0.2,0-0.3-0.1-0.4-0.2c-0.1-0.1-0.2-0.3-0.2-0.4v-0.2c0-0.2,0.1-0.3,0.2-0.4
		c0.1-0.1,0.2-0.2,0.4-0.2h3.1c0.1,0,0.1,0,0.1-0.1v-0.6c0-0.2,0.1-0.3,0.2-0.4c0.1-0.1,0.2-0.2,0.4-0.2h0.5c0.2,0,0.3,0.1,0.4,0.2
		c0.1,0.1,0.2,0.3,0.2,0.4v0.6c0,0.1,0,0.1,0.1,0.1h3.1c0.2,0,0.3,0.1,0.4,0.2c0.1,0.1,0.2,0.3,0.2,0.4v0.2c0,0.2-0.1,0.3-0.2,0.4
		c-0.1,0.1-0.2,0.2-0.4,0.2h-4.4c-0.1,0-0.1,0-0.1,0.1c0,0.4,0,0.7,0,1c0,0.1,0,0.1,0.1,0.1h3.6c0.2,0,0.3,0.1,0.4,0.2
		c0.1,0.1,0.2,0.3,0.2,0.4v0.5c0,0.7,0,1.4,0,1.9c0,0.5-0.1,0.9-0.1,1.3c-0.1,0.4-0.1,0.7-0.2,0.9c-0.1,0.2-0.2,0.4-0.4,0.5
		c-0.2,0.1-0.3,0.2-0.5,0.2c-0.2,0-0.4,0-0.7,0c-0.3,0-0.8,0-1.6-0.1c-0.2,0-0.3-0.1-0.4-0.2c-0.1-0.1-0.2-0.3-0.2-0.5l0-0.3
		c0-0.2,0-0.3,0.2-0.4s0.2-0.2,0.4-0.2c0.6,0,1,0.1,1.4,0.1c0.2,0,0.4-0.1,0.5-0.2c0.1-0.1,0.2-0.4,0.2-0.8c0.1-0.4,0.1-1,0.1-1.8v0
		c0-0.1,0-0.1-0.1-0.1h-2.6c-0.1,0-0.1,0-0.1,0.1c-0.2,0.9-0.4,1.7-0.8,2.3s-0.9,1.3-1.6,1.9c-0.1,0.1-0.3,0.2-0.4,0.1
		c-0.2,0-0.3-0.1-0.4-0.2l-0.3-0.4c-0.1-0.1-0.1-0.3-0.1-0.4c0-0.2,0.1-0.3,0.2-0.4c0.5-0.5,1-0.9,1.2-1.4c0.3-0.5,0.5-1,0.6-1.7
		c0.1-0.6,0.2-1.5,0.2-2.6c0-0.1,0-0.1-0.1-0.1H182.9z"/>
	<path class="st1" d="M73.8,62.4c-0.2,0-0.3,0-0.4-0.1c-0.1-0.1-0.2-0.2-0.2-0.4c-0.2-1.2-0.4-2.6-0.4-4s0.1-2.7,0.4-4
		c0-0.2,0.1-0.3,0.2-0.4c0.1-0.1,0.3-0.1,0.4-0.1l0.4,0.1c0.1,0,0.3,0.1,0.3,0.2c0.1,0.1,0.1,0.3,0.1,0.5c-0.2,1.2-0.3,2.4-0.3,3.8
		s0.1,2.6,0.3,3.8c0,0.2,0,0.3-0.1,0.5c-0.1,0.1-0.2,0.2-0.3,0.2L73.8,62.4z M77.5,62.4c-0.8,0-1.4-0.2-1.8-0.6
		c-0.4-0.4-0.6-0.9-0.6-1.6c0-0.7,0.2-1.2,0.6-1.6c0.4-0.4,1-0.6,1.8-0.6c0.2,0,0.4,0,0.6,0.1c0.1,0,0.1,0,0.1-0.1v-1.7
		c0-0.1,0-0.1-0.1-0.1H76c-0.2,0-0.3-0.1-0.4-0.2c-0.1-0.1-0.2-0.3-0.2-0.4v-0.3c0-0.2,0.1-0.3,0.2-0.4c0.1-0.1,0.2-0.2,0.4-0.2h2.1
		c0.1,0,0.1,0,0.1-0.1v-0.9c0-0.2,0.1-0.3,0.2-0.4c0.1-0.1,0.2-0.2,0.4-0.2h0.4c0.2,0,0.3,0.1,0.4,0.2c0.1,0.1,0.2,0.3,0.2,0.4v0.9
		c0,0.1,0,0.1,0.1,0.1h0.9c0.2,0,0.3,0.1,0.4,0.2c0.1,0.1,0.2,0.3,0.2,0.4v0.3c0,0.2-0.1,0.3-0.2,0.4c-0.1,0.1-0.2,0.2-0.4,0.2h-0.9
		c-0.1,0-0.1,0-0.1,0.1V59c0,0.1,0,0.1,0.1,0.2c0.3,0.3,0.7,0.7,1.2,1.3c0.1,0.1,0.2,0.3,0.2,0.4c0,0.2-0.1,0.3-0.2,0.4l-0.2,0.2
		c-0.1,0.1-0.2,0.2-0.4,0.2s-0.3-0.1-0.4-0.2c0,0-0.1-0.1-0.2-0.2c-0.1-0.1-0.1-0.1-0.2-0.2c0,0,0,0-0.1,0s0,0,0,0
		C79.3,62,78.6,62.4,77.5,62.4z M77.5,59.5c-0.6,0-0.9,0.2-0.9,0.7c0,0.5,0.3,0.7,0.9,0.7c0.3,0,0.5-0.1,0.6-0.2
		c0.1-0.1,0.2-0.4,0.2-0.7v-0.2c0-0.1,0-0.1-0.1-0.1C77.9,59.6,77.7,59.5,77.5,59.5z"/>
	<path class="st1" d="M88,62.4c-1.2,0-2.2-0.2-2.8-0.7c-0.7-0.5-1-1.1-1-1.8c0-0.4,0.1-0.7,0.3-1.1c0.2-0.4,0.5-0.8,0.9-1.3
		c0.1-0.1,0.2-0.2,0.4-0.2c0.2,0,0.3,0,0.4,0.1l0.3,0.2c0.1,0.1,0.2,0.2,0.2,0.4c0,0.2,0,0.3-0.1,0.4c-0.5,0.6-0.7,1-0.7,1.3
		c0,0.3,0.2,0.6,0.6,0.8c0.4,0.2,0.9,0.3,1.6,0.3c0.8,0,1.7-0.1,2.8-0.4c0.2,0,0.3,0,0.4,0.1c0.1,0.1,0.2,0.2,0.2,0.4l0.1,0.4
		c0,0.2,0,0.3-0.1,0.5c-0.1,0.1-0.2,0.2-0.4,0.3C90,62.3,88.9,62.4,88,62.4z M85.6,53.7h4.9c0.2,0,0.3,0.1,0.4,0.2
		c0.1,0.1,0.2,0.3,0.2,0.4v0.3c0,0.2-0.1,0.3-0.2,0.4c-0.1,0.1-0.2,0.2-0.4,0.2h-4.9c-0.2,0-0.3-0.1-0.4-0.2
		C85.1,55,85,54.8,85,54.7v-0.3c0-0.2,0.1-0.3,0.2-0.4C85.3,53.8,85.4,53.7,85.6,53.7z"/>
	<path class="st1" d="M95.5,55.7c-0.2,0-0.3-0.1-0.4-0.2c-0.1-0.1-0.2-0.3-0.2-0.4v-0.3c0-0.2,0.1-0.3,0.2-0.4
		c0.1-0.1,0.2-0.2,0.4-0.2h1.5c0.1,0,0.1,0,0.1-0.1c0-0.1,0-0.2,0-0.3c0-0.1,0-0.2,0-0.3c0-0.2,0.1-0.3,0.2-0.4s0.3-0.2,0.4-0.2
		l0.4,0c0.2,0,0.3,0.1,0.4,0.2s0.1,0.3,0.1,0.4c0,0.1,0,0.1,0,0.3c0,0.1,0,0.2,0,0.2c0,0.1,0,0.1,0.1,0.1h3.8c0.2,0,0.3,0.1,0.4,0.2
		c0.1,0.1,0.2,0.3,0.2,0.4v0.3c0,0.2-0.1,0.3-0.2,0.4c-0.1,0.1-0.2,0.2-0.4,0.2h-4.1c-0.1,0-0.1,0-0.1,0.1c-0.1,0.3-0.2,0.8-0.4,1.4
		v0h0c0,0,0,0,0,0c0.6-0.2,1.2-0.3,1.8-0.3c0.9,0,1.6,0.2,2.1,0.7c0.5,0.5,0.7,1.1,0.7,2c0,0.9-0.3,1.6-1,2.1s-1.6,0.8-2.7,0.8
		c-0.7,0-1.3-0.1-2-0.2c-0.2,0-0.3-0.1-0.4-0.3c-0.1-0.1-0.1-0.3-0.1-0.5l0.1-0.3c0-0.2,0.1-0.3,0.2-0.4c0.1-0.1,0.3-0.1,0.4-0.1
		c0.6,0.1,1.2,0.2,1.7,0.2c0.7,0,1.2-0.1,1.6-0.4c0.4-0.3,0.6-0.6,0.6-1.1c0-0.7-0.4-1.1-1.3-1.1c-0.7,0-1.4,0.2-2,0.5
		c-0.3,0.2-0.7,0.2-1,0.1l-0.3-0.2c-0.1-0.1-0.2-0.2-0.3-0.3c-0.1-0.2-0.1-0.3,0-0.5c0.4-0.9,0.6-1.6,0.8-2.2c0-0.1,0-0.1-0.1-0.1
		H95.5z"/>
	<path class="st1" d="M106.8,59.1c-0.2,0-0.3-0.1-0.4-0.3c-0.1-0.1-0.1-0.3-0.1-0.5c0.1-0.7,0.2-1.5,0.3-2.2c0-0.2,0.1-0.3,0.2-0.4
		c0.1-0.1,0.3-0.2,0.4-0.1l0.4,0c0.2,0,0.3,0.1,0.4,0.2c0.1,0.1,0.1,0.3,0.1,0.5c-0.1,0.5-0.1,0.9-0.2,1.2v0h0c0.9-0.7,1.9-1,2.8-1
		c1,0,1.8,0.2,2.2,0.6c0.5,0.4,0.7,1.1,0.7,2c0,1-0.4,1.7-1.1,2.3s-1.8,0.8-3.3,0.8c-0.6,0-1.2,0-1.9-0.1c-0.2,0-0.3-0.1-0.4-0.2
		c-0.1-0.1-0.1-0.3-0.1-0.5l0-0.3c0-0.2,0.1-0.3,0.2-0.4s0.3-0.2,0.4-0.1c0.7,0.1,1.3,0.1,1.7,0.1c0.8,0,1.4-0.1,1.9-0.4
		c0.4-0.3,0.7-0.7,0.7-1.2c0-0.8-0.5-1.2-1.4-1.2c-0.6,0-1.5,0.3-2.5,0.9c-0.3,0.2-0.7,0.3-1,0.2L106.8,59.1z M108.3,53.4
		c1.3,0.2,2.6,0.2,3.8,0.3c0.2,0,0.3,0.1,0.4,0.2c0.1,0.1,0.2,0.3,0.2,0.4v0.3c0,0.2-0.1,0.3-0.2,0.4c-0.1,0.1-0.2,0.2-0.4,0.2
		c-1.4,0-2.7-0.1-4-0.3c-0.2,0-0.3-0.1-0.4-0.2c-0.1-0.1-0.1-0.3-0.1-0.5l0-0.3c0-0.2,0.1-0.3,0.2-0.4S108.1,53.4,108.3,53.4z"/>
	<path class="st1" d="M117.3,55.4c-0.2,0-0.3-0.1-0.4-0.2c-0.1-0.1-0.2-0.3-0.2-0.4v-0.2c0-0.2,0.1-0.3,0.2-0.4
		c0.1-0.1,0.2-0.2,0.4-0.2h1.5c0.1,0,0.1,0,0.1-0.1c0,0,0-0.1,0.1-0.2c0-0.1,0.1-0.2,0.1-0.3c0.1-0.2,0.1-0.3,0.3-0.4
		s0.3-0.1,0.4-0.1l0.5,0.1c0.1,0,0.3,0.1,0.3,0.2s0.1,0.3,0,0.4c0,0,0,0.1,0,0.1c0,0,0,0.1,0,0.1c0,0.1,0,0.1,0.1,0.1h3.4
		c0.2,0,0.3,0.1,0.4,0.2c0.1,0.1,0.2,0.3,0.2,0.4v0.2c0,0.2-0.1,0.3-0.2,0.4c-0.1,0.1-0.2,0.2-0.4,0.2H120c-0.1,0-0.1,0-0.1,0.1
		c-0.2,0.4-0.2,0.6-0.2,0.6v0h0c0.3-0.1,0.6-0.2,0.8-0.2c0.9,0,1.5,0.4,1.9,1.2c0,0.1,0.1,0.1,0.1,0.1c0.4-0.1,0.9-0.2,1.4-0.2
		c0.2,0,0.3,0,0.4,0.1c0.1,0.1,0.2,0.2,0.2,0.4l0,0.2c0,0.2,0,0.3-0.1,0.5s-0.2,0.2-0.4,0.2c-0.4,0.1-0.8,0.1-1.2,0.2
		c-0.1,0-0.1,0.1-0.1,0.1c0,0.4,0.1,0.7,0.1,0.8c0,0.2,0,0.3-0.2,0.4c-0.1,0.1-0.2,0.2-0.4,0.2h-0.5c-0.2,0-0.3-0.1-0.4-0.2
		c-0.1-0.1-0.2-0.3-0.2-0.4c0-0.1,0-0.2,0-0.3c0,0,0,0,0-0.1s0,0-0.1,0c-0.8,0.4-1.3,0.7-1.3,1.1c0,0.3,0.1,0.5,0.4,0.6
		c0.3,0.1,0.8,0.2,1.5,0.2c0.5,0,1.1-0.1,2-0.2c0.2,0,0.3,0,0.4,0.1c0.1,0.1,0.2,0.2,0.2,0.4l0,0.3c0,0.2,0,0.3-0.1,0.5
		c-0.1,0.1-0.2,0.2-0.4,0.2c-0.7,0.1-1.4,0.1-2.1,0.1c-1.3,0-2.2-0.2-2.7-0.5c-0.6-0.3-0.8-0.9-0.8-1.6c0-0.5,0.2-1,0.6-1.5
		c0.4-0.5,1.1-0.9,1.9-1.2c0.1,0,0.1-0.1,0-0.1c-0.2-0.2-0.4-0.3-0.7-0.3c-0.3,0-0.6,0.1-0.9,0.3c-0.3,0.2-0.7,0.7-1.1,1.3
		c-0.1,0.1-0.2,0.2-0.4,0.3s-0.3,0-0.4-0.1l-0.3-0.2c-0.1-0.1-0.2-0.2-0.2-0.4c0-0.2,0-0.3,0.1-0.5c0.6-1,1-1.8,1.4-2.6
		c0-0.1,0-0.1,0-0.1H117.3z"/>
	<path class="st1" d="M131.9,62.4c-1.2,0-2.2-0.2-2.8-0.7c-0.7-0.5-1-1.1-1-1.8c0-0.4,0.1-0.7,0.3-1.1c0.2-0.4,0.5-0.8,0.9-1.3
		c0.1-0.1,0.2-0.2,0.4-0.2c0.2,0,0.3,0,0.4,0.1l0.3,0.2c0.1,0.1,0.2,0.2,0.2,0.4c0,0.2,0,0.3-0.1,0.4c-0.5,0.6-0.7,1-0.7,1.3
		c0,0.3,0.2,0.6,0.6,0.8c0.4,0.2,0.9,0.3,1.7,0.3c0.8,0,1.7-0.1,2.8-0.4c0.2,0,0.3,0,0.4,0.1c0.1,0.1,0.2,0.2,0.2,0.4l0.1,0.4
		c0,0.2,0,0.3-0.1,0.5c-0.1,0.1-0.2,0.2-0.4,0.3C133.9,62.3,132.8,62.4,131.9,62.4z M134.9,54.4c0,0.2-0.1,0.3-0.2,0.4
		s-0.2,0.2-0.4,0.2h-4.9c-0.2,0-0.3-0.1-0.4-0.2s-0.2-0.3-0.2-0.4v-0.3c0-0.2,0.1-0.3,0.2-0.4s0.2-0.2,0.4-0.2h4.9
		c0.2,0,0.3,0.1,0.4,0.2s0.2,0.3,0.2,0.4V54.4z M133.5,56.2c0.1-0.1,0.3-0.1,0.4,0s0.3,0.2,0.3,0.3c0.1,0.1,0.2,0.4,0.3,0.7
		c0.1,0.2,0.1,0.3,0,0.5c-0.1,0.2-0.2,0.3-0.3,0.4c-0.1,0.1-0.3,0.1-0.4,0c-0.1-0.1-0.3-0.2-0.3-0.3c0-0.1-0.1-0.3-0.3-0.6
		c-0.1-0.1-0.1-0.3,0-0.5C133.2,56.4,133.3,56.3,133.5,56.2L133.5,56.2z M135.9,56.1c0.2,0.5,0.3,0.7,0.3,0.7c0.1,0.2,0.1,0.3,0,0.5
		c-0.1,0.2-0.1,0.3-0.3,0.4l0,0c-0.1,0.1-0.3,0.1-0.4,0c-0.2-0.1-0.3-0.2-0.3-0.3c0-0.1-0.1-0.2-0.2-0.3c-0.1-0.2-0.1-0.3-0.2-0.3
		c-0.1-0.1-0.1-0.3,0-0.5c0-0.2,0.1-0.3,0.3-0.4l0,0c0.1-0.1,0.3-0.1,0.4,0C135.7,55.8,135.8,55.9,135.9,56.1z"/>
	<path class="st1" d="M138.7,62.4l-0.1-0.2c0-0.1,0-0.3,0.1-0.4c0.1-0.1,0.2-0.2,0.3-0.2c0.9-0.1,1.5-0.3,1.8-0.5c0,0,0,0,0,0
		s0,0,0,0h-0.9c-0.2,0-0.3-0.1-0.4-0.2c-0.1-0.1-0.2-0.3-0.2-0.4v-2.8c0,0,0-0.1,0-0.1c0-0.1,0-0.1-0.1-0.1h0
		c-0.2,0-0.3-0.1-0.4-0.2s-0.2-0.3-0.2-0.4v-3.1c0-0.2,0.1-0.3,0.2-0.4c0.1-0.1,0.2-0.2,0.4-0.2h3.4c0.1,0,0.2,0,0.3,0.1
		c0.1,0.1,0.1,0.2,0.1,0.4c0,0.1,0,0.3-0.1,0.4c-0.1,0.1-0.2,0.1-0.3,0.1h-0.4c-0.1,0-0.1,0-0.1,0.1v0.2c0,0.1,0,0.1,0.1,0.1
		c0.2,0,0.3,0.1,0.4,0.2c0.1,0.1,0.2,0.3,0.2,0.4v0.5c0,0.2-0.1,0.3-0.2,0.4c-0.1,0.1-0.2,0.2-0.4,0.2c-0.1,0-0.1,0-0.1,0.1v0.2
		c0,0.1,0,0.1,0.1,0.1h0.6c0.1,0,0.2,0,0.3,0.1c0.1,0.1,0.1,0.2,0.1,0.3c0,0.1,0,0.1,0.1,0.1h2.8c0.2,0,0.3,0.1,0.4,0.2
		s0.2,0.3,0.2,0.4v2.9c0,0.1,0,0.1,0.1,0.1l0.2,0c0.2,0,0.3,0.1,0.4,0.2c0.1,0.1,0.1,0.3,0.1,0.5c0,0.2,0,0.3,0,0.4
		c0,0.1,0,0.2-0.1,0.4s-0.1,0.2-0.1,0.3s-0.1,0.1-0.1,0.2c-0.1,0.1-0.1,0.1-0.2,0.1c0,0-0.1,0.1-0.2,0.1c-0.1,0-0.2,0.1-0.3,0.1
		c-0.1,0-0.2,0-0.4,0c-0.2,0-0.3,0-0.4,0s-0.3,0-0.5,0c-0.4,0-0.7,0-0.9,0c-0.2,0-0.4,0-0.6-0.1c-0.2,0-0.3-0.1-0.3-0.2
		c-0.1-0.1-0.1-0.2-0.1-0.3s0-0.2,0-0.4v-0.9c0-0.1,0-0.1-0.1-0.1h-0.5c-0.1,0-0.1,0-0.1,0.1c-0.2,0.5-0.5,0.9-1,1.2
		c-0.5,0.3-1.2,0.5-2.1,0.6c-0.2,0-0.3,0-0.5-0.1C138.8,62.7,138.7,62.6,138.7,62.4z M140.2,54v0.2c0,0.1,0,0.1,0.1,0.1h0.5
		c0.1,0,0.1,0,0.1-0.1V54c0-0.1,0-0.1-0.1-0.1L140.2,54C140.2,54,140.2,54,140.2,54z M140.2,55.1v0.1c0,0.1,0,0.1,0.1,0.1h1.1
		c0.1,0,0.1,0,0.1-0.1v-0.1c0-0.1,0-0.1-0.1-0.1L140.2,55.1C140.2,55,140.2,55,140.2,55.1z M140.2,56.1v0.2c0,0.1,0,0.1,0.1,0.1h0.5
		c0.1,0,0.1,0,0.1-0.1v-0.2c0-0.1,0-0.1-0.1-0.1L140.2,56.1C140.2,56,140.2,56,140.2,56.1z M145.1,57.9
		C145.1,57.8,145.1,57.8,145.1,57.9l-4.1-0.1c-0.1,0-0.1,0-0.1,0.1V58c0,0.1,0,0.1,0.1,0.1h4C145.1,58.1,145.1,58.1,145.1,57.9
		L145.1,57.9z M140.9,58.9L140.9,58.9c0,0.2,0,0.2,0.1,0.2h4c0.1,0,0.1,0,0.1-0.1v-0.1c0-0.1,0-0.1-0.1-0.1L140.9,58.9
		C141,58.8,140.9,58.8,140.9,58.9z M141,60h4c0.1,0,0.1,0,0.1-0.1v-0.1c0-0.1,0-0.1-0.1-0.1h-4c-0.1,0-0.1,0-0.1,0.1L141,60
		C140.9,60,141,60,141,60z M144.6,54.7c-0.1,0.1-0.1,0.2-0.3,0.4c0,0,0,0,0,0c0,0,0,0,0,0h2.4c0.2,0,0.3,0.1,0.4,0.2
		c0.1,0.1,0.2,0.3,0.2,0.4v0c0,0.2-0.1,0.3-0.2,0.4c-0.1,0.1-0.2,0.2-0.4,0.2h-2.6c-0.2,0-0.3-0.1-0.4-0.2c-0.1-0.1-0.2-0.3-0.2-0.4
		v-0.1c0-0.1,0-0.1-0.1-0.1l-0.4-0.2c-0.1-0.1-0.2-0.2-0.2-0.3c0-0.2,0-0.3,0.1-0.4c0.3-0.5,0.6-1,0.8-1.6c0.1-0.2,0.2-0.3,0.3-0.4
		c0.1-0.1,0.3-0.1,0.5-0.1l0.4,0c0.1,0,0.2,0.1,0.3,0.2s0.1,0.3,0,0.4c0,0.1,0,0.1,0.1,0.1h1.7c0.2,0,0.3,0.1,0.4,0.2
		c0.1,0.1,0.2,0.3,0.2,0.4V54c0,0.2-0.1,0.3-0.2,0.4c-0.1,0.1-0.2,0.2-0.4,0.2h-2.2C144.7,54.6,144.6,54.6,144.6,54.7z M146,61.1
		C146,61,146,61,146,61.1l-1-0.1c-0.1,0-0.1,0-0.1,0.1v0.3c0,0.1,0,0.2,0.1,0.2s0.2,0,0.5,0c0.1,0,0.2,0,0.3,0s0.1,0,0.2-0.1
		s0.1-0.1,0.1-0.2C146,61.3,146,61.2,146,61.1z"/>
	<path class="st1" d="M152.1,59.9c-0.8-0.6-1.3-1.1-1.5-1.3c-0.2-0.2-0.3-0.5-0.3-1c0-0.4,0.1-0.8,0.3-1c0.2-0.2,0.7-0.6,1.5-1.2
		c1.1-0.7,2-1.5,3-2.2c0.1-0.1,0.3-0.1,0.4-0.1c0.2,0,0.3,0.1,0.4,0.2l0.3,0.4c0.1,0.1,0.1,0.3,0.1,0.5c0,0.2-0.1,0.3-0.2,0.4
		c-1,0.8-2,1.5-2.9,2.2c-0.4,0.3-0.6,0.5-0.8,0.6c-0.1,0.1-0.2,0.2-0.2,0.3c0,0.1,0.1,0.2,0.2,0.3c0.1,0.1,0.3,0.3,0.7,0.6
		c1.1,0.9,2.2,1.7,3.3,2.7c0.1,0.1,0.2,0.2,0.2,0.4c0,0.2,0,0.3-0.1,0.4l-0.3,0.4c-0.1,0.1-0.2,0.2-0.4,0.2c-0.2,0-0.3,0-0.4-0.1
		C154.4,61.6,153.3,60.8,152.1,59.9z"/>
	<path class="st1" d="M161.1,62.3c-0.1,0-0.3-0.1-0.3-0.3s-0.1-0.3,0-0.5c0.6-2,1-3.9,1.4-5.8c0,0,0,0,0-0.1c0,0,0,0-0.1,0h-0.6
		c-0.2,0-0.3-0.1-0.4-0.2c-0.1-0.1-0.2-0.3-0.2-0.4v-0.3c0-0.2,0.1-0.3,0.2-0.4c0.1-0.1,0.2-0.2,0.4-0.2h0.9c0.1,0,0.1,0,0.1-0.1
		c0-0.1,0-0.2,0-0.3c0-0.1,0-0.2,0-0.3c0-0.2,0.1-0.3,0.2-0.4c0.1-0.1,0.3-0.2,0.4-0.1l0.4,0c0.2,0,0.3,0.1,0.4,0.2
		c0.1,0.1,0.1,0.3,0.1,0.4c0,0,0,0.1,0,0.2c0,0.1,0,0.2,0,0.2c0,0.1,0,0.1,0.1,0.1h2.8c0.1,0,0.2,0,0.3,0.1c0,0,0,0,0,0l0,0
		c0,0,0,0,0,0c0-0.1-0.1-0.2-0.1-0.3c-0.1-0.1-0.1-0.2-0.1-0.3c-0.1-0.1-0.1-0.3,0-0.4c0-0.1,0.1-0.3,0.3-0.3c0.1-0.1,0.3-0.1,0.4,0
		s0.2,0.2,0.3,0.3c0,0.1,0.1,0.2,0.1,0.3s0.1,0.2,0.1,0.3c0.1,0.1,0.1,0.3,0,0.4c0,0.2-0.1,0.3-0.3,0.3c-0.2,0.1-0.3,0.1-0.5,0
		c0,0,0,0,0,0c0.1,0.1,0.1,0.2,0.1,0.3v0.3c0,0.2-0.1,0.3-0.2,0.4c-0.1,0.1-0.2,0.2-0.4,0.2h-3.1c-0.1,0-0.1,0-0.1,0.1
		c-0.4,2.2-0.9,4.3-1.4,6.2c0,0.2-0.1,0.3-0.3,0.4c-0.1,0.1-0.3,0.1-0.4,0.1L161.1,62.3z M163.9,60.3c0-0.4,0.2-0.8,0.5-1.3
		c0.1-0.1,0.3-0.2,0.4-0.3s0.3,0,0.5,0.1l0.2,0.1c0.1,0.1,0.2,0.2,0.2,0.3c0,0.1,0,0.3-0.1,0.4c-0.1,0.2-0.2,0.3-0.2,0.4
		c0,0.2,0.1,0.4,0.4,0.5c0.3,0.1,0.7,0.2,1.2,0.2c0.4,0,0.9,0,1.4-0.1c0.2,0,0.3,0,0.4,0.1c0.1,0.1,0.2,0.2,0.2,0.4l0,0.3
		c0,0.2,0,0.3-0.1,0.5c-0.1,0.1-0.2,0.2-0.4,0.2c-0.5,0.1-1.1,0.1-1.6,0.1c-1,0-1.7-0.2-2.3-0.6C164.1,61.4,163.9,60.9,163.9,60.3z
		 M165.3,58c-0.2,0-0.3,0-0.4-0.1c-0.1-0.1-0.2-0.2-0.2-0.4l0-0.2c0-0.2,0-0.3,0.1-0.5c0.1-0.1,0.2-0.2,0.4-0.2
		c1.1-0.1,2.1-0.2,3-0.2c0.2,0,0.3,0.1,0.4,0.2c0.1,0.1,0.2,0.3,0.2,0.4v0.2c0,0.2-0.1,0.3-0.2,0.4c-0.1,0.1-0.2,0.2-0.4,0.2
		C167.3,57.8,166.3,57.9,165.3,58z M169.7,54c0,0.1-0.1,0.3-0.3,0.3c-0.1,0.1-0.3,0.1-0.4,0s-0.2-0.2-0.3-0.3
		c-0.1-0.1-0.2-0.3-0.3-0.6c-0.1-0.1-0.1-0.3,0-0.4c0-0.2,0.1-0.3,0.3-0.3c0.1-0.1,0.3-0.1,0.4,0c0.1,0.1,0.3,0.1,0.3,0.3
		c0,0.1,0.1,0.2,0.1,0.3c0.1,0.1,0.1,0.2,0.1,0.3C169.7,53.7,169.7,53.9,169.7,54z"/>
	<path class="st1" d="M172.5,55.8c-0.2,0-0.3-0.1-0.4-0.2c-0.1-0.1-0.2-0.3-0.2-0.4v-0.3c0-0.2,0.1-0.3,0.2-0.4s0.2-0.2,0.4-0.2
		c1,0,2.2,0,3.6-0.1c0,0,0.1,0,0.1-0.1c0-0.1,0-0.3,0-0.5c0-0.2,0-0.3,0.1-0.4c0.1-0.1,0.2-0.2,0.4-0.2l0.4,0c0.2,0,0.3,0,0.4,0.2
		c0.1,0.1,0.2,0.3,0.2,0.4c0,0.2,0,0.4,0,0.6c0,0.1,0,0.1,0.1,0.1c1.1,0,1.7-0.1,1.7-0.1c0.2,0,0.3,0,0.4,0.2
		c0.1,0.1,0.2,0.3,0.2,0.4l0,0.3c0,0.2,0,0.3-0.1,0.4c-0.1,0.1-0.2,0.2-0.4,0.2l-1.6,0.1c-0.1,0-0.1,0-0.1,0.1
		c0.2,0.7,0.4,1.4,0.8,2.1c0.1,0.1,0.1,0.3,0,0.4c0,0.2-0.1,0.3-0.3,0.3l-0.4,0.2c-0.3,0.2-0.7,0.2-1,0c-0.5-0.3-1.1-0.4-1.6-0.4
		c-0.4,0-0.8,0.1-1,0.3c-0.2,0.2-0.3,0.5-0.3,0.8c0,0.9,0.7,1.4,2.2,1.4c0.5,0,1.2-0.1,1.9-0.2c0.2,0,0.3,0,0.4,0.1s0.2,0.2,0.2,0.4
		l0,0.3c0,0.2,0,0.3-0.1,0.5s-0.2,0.2-0.4,0.3c-0.8,0.1-1.5,0.2-2.2,0.2c-1.3,0-2.2-0.3-2.9-0.8c-0.6-0.5-1-1.3-1-2.2
		c0-0.7,0.3-1.3,0.8-1.8s1.2-0.7,2.1-0.7c0.5,0,1,0.1,1.5,0.3l0,0v0c-0.2-0.4-0.3-0.9-0.4-1.3c0-0.1,0-0.1-0.1-0.1
		C174.5,55.8,173.3,55.8,172.5,55.8z"/>
	<path class="st1" d="M185.3,62.4c-0.6,0-1.1-0.4-1.6-1.3c-0.5-0.9-0.8-1.9-0.8-3.1c0-1.1,0.1-2.2,0.4-3.3c0-0.2,0.1-0.3,0.3-0.4
		c0.1-0.1,0.3-0.1,0.5-0.1l0.4,0.1c0.1,0,0.3,0.1,0.3,0.2c0.1,0.1,0.1,0.3,0.1,0.4c-0.2,1.1-0.3,2.1-0.3,3.1c0,0.7,0.1,1.4,0.3,1.9
		s0.4,0.8,0.6,0.8c0.1,0,0.3-0.1,0.5-0.4c0.2-0.3,0.4-0.7,0.7-1.2c0.1-0.2,0.2-0.3,0.3-0.3s0.3-0.1,0.4,0l0.3,0.1
		c0.2,0.1,0.3,0.2,0.3,0.3s0.1,0.3,0,0.5c-0.3,0.9-0.8,1.6-1.3,2.1C186.3,62.1,185.8,62.4,185.3,62.4z M189.6,60.6
		c-0.1-2-0.4-3.8-1-5.6c-0.1-0.2,0-0.3,0-0.5c0.1-0.1,0.2-0.2,0.3-0.3l0.4-0.1c0.2-0.1,0.3,0,0.5,0c0.2,0.1,0.3,0.2,0.3,0.4
		c0.7,1.8,1.1,3.8,1.1,6.1c0,0.2,0,0.3-0.2,0.4s-0.2,0.2-0.4,0.2h-0.5c-0.2,0-0.3-0.1-0.4-0.2C189.6,60.9,189.6,60.7,189.6,60.6z"/>
</g>
<g>
	<path class="st2" d="M98.8,89.3c0,0.7,0,1.3,0.1,1.9h-2.1c0.1-0.5,0.1-1.2,0.1-1.9V87c0-0.1,0-0.4,0-0.6c-0.4,0.4-0.7,0.6-1.1,1
		c-0.3-1-0.4-1.4-0.8-2.1c0.7-0.5,1.2-0.9,1.7-1.5c0.6-0.7,1-1.2,1.4-2.2h-1.5c-0.4,0-0.8,0-1.2,0.1v-2.1c0.3,0.1,0.7,0.1,1.2,0.1
		h0.3v-0.9c0-0.6,0-0.9-0.1-1.2h2.1c-0.1,0.3-0.1,0.6-0.1,1.2v0.9c0.5,0,0.7,0,0.9-0.1l0.8,1.1c-0.1,0.2-0.1,0.3-0.3,0.7
		c-0.4,0.9-0.7,1.6-1.3,2.4c0.1,0.2,0.2,0.2,0.3,0.3c0.5-0.7,0.8-1.2,1.1-2l1.2,1c-0.6,0.9-0.8,1.4-1.3,1.9c0.3,0.2,0.4,0.3,0.7,0.5
		c-0.4,0.5-0.7,0.9-1,1.7c-0.4-0.4-0.8-0.8-1.2-1.3V89.3z M103.9,80.4c0,0.1,0,0.1,0,0.4c0,2.6-0.4,4.8-1,6.4
		c-0.6,1.5-1.3,2.5-2.6,3.8c-0.4-0.9-0.7-1.3-1.3-1.9c0.9-0.8,1.5-1.7,2-2.8c0.5-1.3,0.8-2.7,0.9-4.4c0-0.3,0-0.8,0-1.6
		c-0.6,0-1.1,0-1.6,0.1v-2.1c0.5,0.1,1,0.1,1.7,0.1h3.9c0.5,0,1,0,1.2-0.1c-0.1,0.5-0.1,0.6-0.1,2.8c0,4.3-0.2,7.1-0.5,8.3
		c-0.2,0.6-0.5,1-1,1.2c-0.3,0.1-0.8,0.2-1.5,0.2c-0.4,0-0.6,0-1.1,0c-0.1-1-0.2-1.4-0.4-2.2c0.6,0.1,1.1,0.1,1.4,0.1
		c0.6,0,0.7-0.1,0.8-0.9c0.2-1.3,0.3-3.5,0.3-7.4H103.9z"/>
	<path class="st2" d="M119,77.7c0.7,1.5,1.7,2.6,3.3,3.5c-0.4,0.7-0.6,1.2-0.9,2.2c-1.4-1-2.5-2.2-3.4-3.8c-0.7,1.4-1.6,2.5-3,3.5
		c-0.4-0.7-0.5-0.9-0.8-1.3c-0.3,0-0.4,0-0.6,0h-2.9c-0.5,0-0.8,0-1.1,0.1v-2c0.3,0.1,0.6,0.1,1.1,0.1h2.9c0.5,0,0.8,0,1.1,0v0.8
		c1-0.9,1.6-1.7,2.2-3H119z M110,91.2c0-0.5,0.1-1,0.1-1.4v-2.3c0-0.4,0-0.7-0.1-1.1c0.3,0,0.5,0,1,0h2.7c0.5,0,0.6,0,0.8,0
		c0,0.3,0,0.4,0,1v2.5c0,0.5,0,0.9,0,1.2h-1.8v-0.4h-0.8v0.6H110z M110.1,77.8c0.4,0,0.6,0.1,1.2,0.1h1.9c0.6,0,0.8,0,1.2-0.1v1.7
		c-0.4,0-0.6,0-1.2,0h-1.9c-0.5,0-0.9,0-1.2,0V77.8z M110.1,82.3c0.2,0,0.4,0,0.8,0h2.8c0.4,0,0.5,0,0.7,0v1.6c-0.3,0-0.4,0-0.7,0
		h-2.8c-0.4,0-0.5,0-0.8,0V82.3z M110.1,84.3c0.2,0,0.4,0,0.8,0h2.7c0.4,0,0.5,0,0.8,0V86c-0.2,0-0.4,0-0.8,0h-2.7
		c-0.4,0-0.5,0-0.8,0V84.3z M111.8,88.9h0.9V88h-0.9V88.9z M119.4,82.2c-0.2,0.2-0.2,0.2-0.3,0.4c-1.1,1.4-2.2,2.3-3.6,3.1
		c-0.3-0.7-0.6-1-1.1-1.6c1.7-0.8,2.9-1.9,3.6-3.2L119.4,82.2z M120.9,84.2c-0.6,0.8-1,1.2-1.1,1.3c-1.2,1.3-2.4,2.3-4.1,3
		c-0.4-0.8-0.6-1-1.2-1.7c0.9-0.3,1.2-0.5,1.9-0.9c0.9-0.6,1.7-1.2,2.3-2c0.3-0.4,0.5-0.6,0.6-0.9L120.9,84.2z M122.2,86.4
		c-0.2,0.2-0.2,0.3-0.4,0.5c-1.9,2.3-3.3,3.4-5.8,4.4c-0.3-0.7-0.6-1.1-1.2-1.8c1.7-0.6,3-1.3,4.2-2.4c0.8-0.7,1.4-1.4,1.7-2
		L122.2,86.4z"/>
	<path class="st2" d="M130.1,87c-0.8,1.9-1.6,2.7-2.8,2.7c-1.8,0-3-1.9-3-4.5c0-1.7,0.5-3.2,1.5-4.4c1.2-1.4,2.8-2.1,4.8-2.1
		c1.8,0,3.3,0.7,4.3,1.8c0.8,1,1.3,2.4,1.3,4c0,1.9-0.6,3.6-1.8,4.7c-0.9,0.9-1.9,1.3-3.8,1.7c-0.3-1-0.6-1.6-1.1-2.4
		c1.2-0.1,2.1-0.3,2.8-0.7c1-0.6,1.6-1.8,1.6-3.4c0-1.2-0.4-2.2-1.2-2.9c-0.3-0.3-0.6-0.4-1.1-0.5C131.3,83.4,130.8,85.3,130.1,87z
		 M127.9,81.7c-0.9,0.8-1.4,2.2-1.4,3.4c0,1,0.4,1.8,0.8,1.8c0.3,0,0.7-0.5,1.1-1.6c0.5-1.3,0.8-3,1-4.4
		C128.7,81.1,128.3,81.3,127.9,81.7z"/>
	<path class="st2" d="M143.5,78.8c0-0.5,0-0.8-0.1-1.1h2.3c-0.1,0.3-0.1,0.7-0.1,1.1v0.7h3.2c0.8,0,1.3,0,1.8-0.1v2.3
		c-0.5-0.1-0.9-0.1-1.7-0.1h-4.7c0,0.8,0,0.8-0.1,1.2h3.8c0.7,0,1,0,1.4-0.1c-0.1,0.5-0.1,0.6-0.1,2.1c-0.1,2.6-0.3,4.2-0.6,5
		c-0.4,1-1,1.3-2.3,1.3c-0.3,0-0.9,0-1.7-0.1c-0.1-0.9-0.2-1.4-0.5-2.2c0.7,0.1,1.4,0.2,1.9,0.2c0.7,0,0.8-0.2,1-1.1
		c0.1-0.7,0.2-1.7,0.2-3h-3.3c-0.2,0.9-0.5,1.8-0.9,2.7c-0.7,1.4-1.6,2.5-3.2,3.7c-0.4-0.8-0.8-1.3-1.5-1.9c2-1.3,2.9-2.5,3.4-4.4
		c0.3-1,0.4-2,0.4-3.4h-1.6c-0.7,0-1.3,0-1.8,0.1v-2.3c0.6,0.1,1.1,0.1,1.8,0.1h3.1V78.8z"/>
	<path class="st2" d="M156.7,78.3c-0.1,0.3-0.2,0.8-0.4,1.4c-0.4,2-0.6,3.6-0.6,5.6l1,0.4c-0.4,1.4-0.6,2.6-0.6,4.4
		c0,0.1,0,0.3,0,0.6l-2.2,0.1c0-0.3,0-0.3-0.1-1.1c-0.2-2-0.3-2.8-0.3-4.4c0-2,0.1-3.3,0.5-5.9c0.1-0.7,0.2-1,0.2-1.3c0,0,0,0,0-0.1
		L156.7,78.3z M157.2,80.6c0.5,0.1,1.5,0.2,2.5,0.2c0.3,0,0.5,0,0.9,0c0-0.9,0-0.9,0-1.9c0-0.3,0-0.6-0.1-0.8l2.3,0
		c-0.1,0.5-0.1,1.1-0.1,2.5c0.8-0.1,1.6-0.3,2.1-0.4l0.1,2.3c-0.2,0-0.2,0-0.5,0.1c-0.4,0.1-1,0.2-1.7,0.3c0,1.1,0,1.4,0.1,3.1
		c0.9,0.4,1.4,0.7,2.1,1.3c0.1,0.1,0.1,0.1,0.2,0.2l-0.8,2.5c-0.3-0.4-0.8-0.9-1.6-1.4c0,0.1,0,0.1,0,0.1c0,1.2-1.1,2.1-2.8,2.1
		c-1.9,0-3.1-1-3.1-2.7c0-0.9,0.4-1.6,1-2.1c0.5-0.4,1.2-0.6,2-0.6c0.3,0,0.5,0,0.8,0.1c0-0.4,0-0.5,0-1.2c0-0.5,0-0.7,0-1.2
		c-0.3,0-0.5,0-0.8,0c-0.4,0-1.2,0-2.3-0.1c-0.2,0-0.3,0-0.3,0c0,0-0.1,0-0.2,0L157.2,80.6z M160.7,87.5c-0.3-0.1-0.5-0.2-0.8-0.2
		c-0.6,0-1,0.3-1,0.7c0,0.4,0.3,0.6,0.9,0.6c0.6,0,0.9-0.3,0.9-0.8L160.7,87.5z"/>
	<path class="st2" d="M76.4,107.9c-0.4,0.1-0.5,0.1-1,0.2c-1,0.2-2.7,0.4-4,0.6v2.5c1.5-0.4,2.4-0.5,3.8-0.5c3.2,0,5.7,0.9,7.2,2.6
		c1.2,1.3,1.8,3.1,1.8,5.1c0,4.1-2.8,7.2-6.6,7.2c-3.3,0-5.2-2.4-5.2-6.6c0-0.1,0-0.4,0-0.7c1.9-0.6,2.6-0.9,4-1.8
		c0,0.6-0.1,0.9-0.1,1.5c0,0.9,0.1,1.4,0.2,1.8c0.2,0.5,0.6,0.9,1.2,0.9c1.1,0,1.9-1,1.9-2.5c0-1-0.5-1.9-1.3-2.5
		c-0.7-0.5-1.7-0.8-3.1-0.8c-1.3,0-2.4,0.1-3.9,0.6l0,5.1v0.8c0,1.8-0.1,2.4-0.5,3c-0.5,0.8-1.5,1.3-2.7,1.3c-1.9,0-4.2-0.9-5.7-2.3
		c-1.1-1-1.7-2.4-1.7-3.8c0-1.6,0.9-3.3,2.4-4.8c1.1-1,2.2-1.7,3.9-2.6v-3.4l-2,0.1l-2.6-0.1c-0.1,0-0.3,0-0.6,0l-0.1-4.5
		c0.8,0.2,1.9,0.3,3.6,0.3c0.2,0,0.2,0,1,0c0.4,0,0.4,0,0.5,0v-0.9c0-2.2,0-2.8-0.2-3.9h4.6c-0.1,1-0.2,1.7-0.2,3.6v0.9
		c1.8-0.2,3.4-0.6,4.8-1L76.4,107.9z M67.2,117.1c-1.2,0.6-2.2,1.8-2.2,2.6c0,0.3,0.2,0.6,0.6,0.9c0.4,0.3,0.9,0.5,1.2,0.5
		c0.3,0,0.4-0.2,0.4-1.2V117.1z M82,110.7c-1.3-2.6-2.8-4.5-5.2-6.8l3.5-2.6c2.2,2,3.9,4,5.2,6.4L82,110.7z"/>
	<path class="st2" d="M94.3,102.9c-1.2,0-2,0-2.9,0.1v-3.4c1.1,0.1,2.1,0.2,3.3,0.2h14.1c1.3,0,2.3-0.1,3.3-0.2v3.4
		c-0.9-0.1-1.6-0.1-2.9-0.1h-5.7v0.8h6.4c2.1,0,2.7,0,3.6-0.1c-0.1,0.8-0.1,1.2-0.1,2.5v2c0,1.2,0,1.6,0.1,2.4h-3.8v-3.9h-6.3v2.4
		c0,1.4,0,1.9,0.1,2.7h-4.2c0.1-0.9,0.1-1.6,0.1-2.7v-2.4h-6v3.9h-3.8c0.1-0.8,0.1-1.3,0.1-2.4v-2c0-1.2,0-1.8-0.1-2.5
		c0.9,0.1,1.6,0.1,3.6,0.1h6.1v-0.8H94.3z M111.7,120.2c1.1,0.4,1.7,0.6,2.6,0.8c-0.2,2.7-0.4,3.7-1.1,4.4c-0.8,0.9-2.3,1.1-7.2,1.1
		c-5.4,0-6.2-0.3-6.2-2.5v-1.8h-4v1.3h-4c0.1-1,0.2-2.1,0.2-3.3v-4.9c0-1.2,0-2.1-0.1-3c0.8,0.1,1.4,0.1,2.7,0.1H109
		c1.3,0,2.1,0,2.8-0.1c-0.1,0.8-0.1,1.5-0.1,3V120.2z M94.4,107.2c0.4,0.1,0.5,0.1,1.1,0.1h2.2c0.9,0,0.9,0,1.1-0.1v1.9
		c-0.4-0.1-0.5-0.1-1.1-0.1h-2.2c-0.5,0-0.7,0-1.1,0.1V107.2z M94.4,109.7c0.3,0.1,0.5,0.1,1.1,0.1h2.2c0.6,0,0.9,0,1.1-0.1v1.9
		c-0.3-0.1-0.5-0.1-1.1-0.1h-2.2c-0.4,0-0.8,0-1.1,0.1V109.7z M95.7,115v0.9h4V115H95.7z M95.7,118.3v1h4v-1H95.7z M103.5,115.9h4.2
		V115h-4.2V115.9z M103.5,119.3h4.2v-1h-4.2V119.3z M103.5,122.6c0,0.3,0.1,0.4,0.4,0.5c0.3,0.1,1.6,0.1,2.9,0.1
		c1.5,0,2.6-0.1,2.9-0.3c0.3-0.1,0.4-0.3,0.4-0.8h-6.7V122.6z M104.4,107.2c0.3,0.1,0.5,0.1,1.1,0.1h2.5c0.9,0,0.9,0,1.1-0.1v1.9
		c-0.1,0-0.1,0-0.2,0c-0.1,0-0.6,0-0.9,0h-2.5c-0.6,0-0.6,0-1.1,0.1V107.2z M104.4,109.7c0.4,0.1,0.5,0.1,1.1,0.1h2.5
		c0.6,0,0.9,0,1.1-0.1v1.9c-0.3-0.1-0.5-0.1-1.1-0.1h-2.5c-0.5,0-0.7,0-1.1,0.1V109.7z"/>
	<path class="st2" d="M118.6,103.9c0.6,0.1,1.2,0.1,2.1,0.1h5.5c1.1,0,1.6,0,2.1-0.1v3.8c-0.6-0.1-0.8-0.1-2.1-0.1h-5.6
		c-0.9,0-1.5,0-2.1,0.1V103.9z M123.1,126.5h-3.8c0.1-0.9,0.1-1.7,0.1-2.7V119c0-0.9,0-1.4-0.1-2.2c0.6,0.1,1.1,0.1,1.9,0.1h5.4
		c0.9,0,1.2,0,1.6-0.1c-0.1,0.6-0.1,0.9-0.1,1.9v5.3c0,1.2,0,1.5,0.1,2.1h-3.6v-0.8h-1.6V126.5z M119.4,99.8
		c0.7,0.1,1.2,0.1,2.4,0.1h4c1.2,0,1.7,0,2.4-0.1v3.4c-0.7-0.1-1.3-0.1-2.4-0.1h-4c-1.1,0-1.7,0-2.4,0.1V99.8z M119.5,108.6
		c0.4,0.1,0.8,0.1,1.6,0.1h5.6c0.8,0,1.1,0,1.5-0.1v3.3c-0.5-0.1-0.8-0.1-1.5-0.1h-5.6c-0.8,0-1,0-1.6,0.1V108.6z M119.5,112.7
		c0.6,0.1,0.7,0.1,1.6,0.1h5.5c0.8,0,1.1,0,1.5-0.1v3.3c-0.4-0.1-0.7-0.1-1.6-0.1H121c-0.8,0-1,0-1.5,0.1V112.7z M123,121.9h1.7V120
		H123V121.9z M133.6,104.8c-1.5,0.2-2.2,0.3-4,0.4c-0.3-1.5-0.6-2.5-1.3-4c5.1-0.2,10.1-1.1,12.5-2.3l2.1,3.9
		c-0.2,0.1-0.2,0.1-0.8,0.3c-1.2,0.4-1.2,0.4-4.6,1.1v3h2.4c1.3,0,2.2-0.1,3.1-0.2v4.3c-0.9-0.1-1.9-0.2-3.1-0.2h-2.4v2.7h2.7
		c0.9,0,1.4,0,1.9-0.1c-0.1,0.6-0.1,1.4-0.1,2.4v7c0,1.2,0.1,2.4,0.1,3.3h-4v-1.2h-5v1.2h-4c0.1-0.8,0.1-1.7,0.1-3.1v-7.5
		c0-0.8,0-1-0.1-2.1c0.7,0.1,1.1,0.1,1.9,0.1h2.4v-2.7h-1.8c-1.3,0-2.2,0.1-3.1,0.2V107c0.9,0.1,1.8,0.2,3.1,0.2h1.7V104.8z
		 M133.2,121.3h5v-3.5h-5V121.3z"/>
	<path class="st2" d="M147.3,102.8c0.4,0,0.8,0,1,0c0.7,0,1.6-0.1,4.5-0.3c3.8-0.3,6.3-0.4,11.4-0.6l2.7-0.1l1.1-0.1
		c0.9,0,1.1-0.1,1.2-0.1c0.2,0,0.3,0,0.6-0.1l0.2,5.2c-0.4-0.1-0.5-0.1-0.7-0.1c-1.8,0-4.2,0.8-6,2c-2.6,1.8-4.2,4.2-4.2,6.6
		c0,1.7,0.7,2.8,2.2,3.6c1.1,0.6,3.4,1,5,1c0.2,0,0.4,0,0.8,0l-0.6,5.5c-0.4-0.1-0.4-0.1-1-0.1c-3-0.3-5-0.8-6.7-1.6
		c-3.1-1.6-4.7-4.3-4.7-7.9c0-2.4,0.7-4.6,2.2-6.5c0.7-0.9,1.3-1.5,2.6-2.5l-1.2,0.1c-0.6,0.1-1.5,0.1-6.4,0.6
		c-2.4,0.3-2.6,0.3-3.7,0.6L147.3,102.8z M166,109.4c1.1,1.3,1.8,2.6,2.6,4.2l-2.5,1.3c-0.8-1.8-1.5-3-2.6-4.3L166,109.4z
		 M169.5,107.7c0.9,1.2,1.7,2.3,2.6,4.1l-2.4,1.2c-0.9-1.9-1.6-3-2.5-4.2L169.5,107.7z"/>
	<path class="st2" d="M187.3,118.1c-1.5,3.7-3.3,5.3-5.7,5.3c-3.5,0-6-3.7-6-9c0-3.4,1.1-6.5,3-8.8c2.3-2.8,5.7-4.3,9.5-4.3
		c3.5,0,6.6,1.3,8.6,3.6c1.7,2,2.6,4.8,2.6,8.1c0,3.8-1.3,7.2-3.5,9.4c-1.8,1.8-3.9,2.7-7.6,3.3c-0.6-2.1-1.1-3.1-2.2-4.7
		c2.5-0.2,4.1-0.7,5.5-1.5c2-1.2,3.2-3.6,3.2-6.7c0-2.5-0.8-4.4-2.3-5.7c-0.7-0.6-1.3-0.8-2.2-1C189.6,111,188.7,114.7,187.3,118.1z
		 M182.7,107.5c-1.7,1.6-2.9,4.3-2.9,6.9c0,2.1,0.7,3.7,1.6,3.7c0.7,0,1.3-1,2.1-3.2c0.9-2.6,1.7-6,2-8.8
		C184.5,106.2,183.7,106.7,182.7,107.5z"/>
	<path class="st2" d="M84.2,148.3c-1.6,1.3-2.4,2.5-2.4,3.6c0,1.5,1.7,2.2,5.7,2.2c3.1,0,6.9-0.6,8.6-1.3l0.3,5.6
		c-0.5,0-0.7,0-1.1,0.1c-0.2,0-0.4,0.1-0.8,0.1l-0.7,0.1c-2.2,0.3-4.4,0.5-6.6,0.5c-3,0-5.1-0.3-6.7-1c-2.3-1-3.5-2.8-3.5-5.2
		c0-2.6,1.2-4.7,3.8-7L84.2,148.3z M78.9,135.2c1.7,0.5,4.9,0.8,8.7,0.8c3.4,0,6-0.2,7.3-0.5l0.1,4.4c-1.7,0.9-5.4,3.5-7.3,5.1
		l-3.2-2.5c0.6-0.4,0.9-0.6,1.3-0.9l0.9-0.6c0.2-0.1,0.4-0.2,0.4-0.3l0.3-0.1c0.1,0,0.2-0.1,0.3-0.2c-0.9,0.1-1.3,0.1-2.2,0.1
		c-2,0-3.3-0.1-5.9-0.3c-0.5-0.1-0.6-0.1-0.9-0.1L78.9,135.2z M93.5,142.5c1.1,1.3,1.9,2.6,2.6,4.1l-2.4,1.4
		c-0.9-1.8-1.5-2.9-2.6-4.2L93.5,142.5z M96.9,140.6c1,1.2,1.7,2.3,2.6,4l-2.3,1.4c-0.9-1.8-1.6-3-2.6-4.1L96.9,140.6z"/>
	<path class="st2" d="M125.6,137c-0.4,0.4-0.4,0.4-0.9,0.9c-1.6,1.6-3,2.8-5.8,4.9c0.8,0.5,0.8,0.5,1.4,1.1h2.4c1.5,0,2.5-0.1,3-0.2
		l2.3,2.7c-0.2,0.2-0.2,0.2-0.6,0.9c-2,3.2-3.6,5.2-5.9,7.6c-1-1.4-1.8-2.2-3.1-3.2c1.6-1.2,2.4-2,3.7-3.6h-4.6v8.7
		c0,1.7-0.4,2.6-1.4,3.2c-0.8,0.4-2.1,0.6-5,0.6c-0.3,0-0.8,0-1.7,0c-0.2-1.7-0.5-2.8-1.1-4.5c1.6,0.2,2.6,0.3,4,0.3
		c0.8,0,0.9-0.1,0.9-0.8V148h-5.7c-1.8,0-2.9,0.1-4,0.2v-4.5c0.9,0.1,2,0.2,4,0.2h5.8c-1.8-1.3-2.9-2.1-4.6-3.1l2.5-2.4h-1.8
		c-2,0-2.7,0-3.7,0.1V134c1.1,0.1,1.9,0.2,3.7,0.2h11.3c1.4,0,1.9,0,2.6-0.1L125.6,137z M112,138.3c1.4,0.8,1.4,0.8,3.3,2.1
		c1-0.6,1.6-1,2.7-2.1H112z"/>
	<path class="st2" d="M135.6,150.3c-0.1,4.3-0.3,6.1-0.9,8.9l-2.8-1.5c0.6-2.2,0.9-4.6,0.9-7.8L135.6,150.3z M132.1,145.2
		c0.5,0.1,0.8,0.1,1.7,0.1c0.2,0,0.4,0,0.7,0c0.5-0.6,0.5-0.6,0.9-1.2c-1.3-2-1.7-2.5-3.4-4.4l1.8-3.6l0.7,0.9
		c0.7-1.2,1.5-3.1,1.7-4l3.4,1.4c-0.2,0.3-0.2,0.4-0.5,1c-0.6,1.2-1.6,3.2-2.4,4.4c0.3,0.4,0.3,0.4,0.7,0.9c1.3-2.2,2.2-3.9,2.6-4.8
		l3.1,1.9c-0.2,0.3-0.4,0.6-0.9,1.5c-1,1.7-2.9,4.5-4,5.9c1.1-0.1,1.5-0.1,2.3-0.1c-0.2-0.7-0.3-1-0.6-1.9l2.2-0.9
		c1.8-2.6,3.3-6.2,3.7-9.1l4,0.6c-0.2,0.4-0.2,0.4-0.6,1.9c-0.1,0.4-0.1,0.5-0.4,1.3h5.4c1.1,0,1.6,0,2.2-0.1
		c-0.1,1.1-0.1,1.1-0.2,5.6c0,3.6-0.2,8.7-0.5,11c-0.4,3.5-0.9,5.2-2,6c-0.7,0.5-2.1,0.8-4.2,0.8c-0.6,0-1,0-2-0.1
		c-0.2-1.7-0.4-2.5-1-4.5c1.2,0.2,2.6,0.3,3.3,0.3c1.2,0,1.4-0.3,1.7-2.1c0.4-2.1,0.6-6.5,0.6-12.7h-5c-0.8,1.8-1.4,2.7-2.5,4.2
		c-0.6-0.9-1.1-1.5-2.1-2.5c0.5,1.4,1.1,3.1,1.7,5.5l-2.7,1.2c-0.1-0.6-0.1-0.6-0.2-1.1c-0.7,0.1-1.2,0.1-1.4,0.1v8.7
		c0,1.7,0,2.3,0.2,3.2h-3.9c0.1-0.9,0.2-1.5,0.2-3.2V149c-0.9,0.1-1.6,0.1-2.1,0.1c-1.3,0.1-1.3,0.1-1.8,0.2L132.1,145.2z
		 M143.1,149.9c0.5,2.8,0.8,5.2,1,7.9l-3.1,0.5c-0.1-3-0.3-5.4-0.6-7.8L143.1,149.9z M147.1,153.2c-1-3.9-1.4-5.2-2.4-7.3l3.5-1.6
		c1.3,2.8,1.9,4.5,2.6,7.2L147.1,153.2z"/>
	<path class="st2" d="M161.9,136.3c1.1,0.3,2.7,0.4,5.5,0.4c0.2,0,0.4,0,0.7,0c0.5-1.4,0.7-2.2,0.8-3.2l4.8,0.4
		c-0.2,0.4-0.2,0.5-0.6,1.4c-0.3,0.8-0.5,1.3-0.5,1.4c0.3,0,0.3,0,1.6-0.1c2.6-0.1,5.3-0.5,6.7-0.9l0.2,4.6
		c-0.8,0.1-1.6,0.2-2.4,0.3c-1.9,0.2-5.2,0.4-7.8,0.5c-0.4,0.9-0.6,1.2-1.3,2.1c1.1-0.6,2.2-0.9,3.3-0.9c2.2,0,3.5,0.9,4,2.8
		c0.4-0.2,0.4-0.2,1.8-0.7c0.1,0,0.8-0.3,1.6-0.6c1.5-0.5,1.7-0.6,2.1-0.9l1.6,4.6c-1.4,0.2-4.2,1-6.7,2c0,0.8,0,0.8,0,2.1
		c0,1.3,0,1.7,0.1,2.5l-4.3,0.1c0.1-0.4,0.1-1.3,0.1-3.1l-0.2,0.1c-1.2,0.6-1.4,0.8-1.8,1.2c-0.4,0.4-0.7,1-0.7,1.5
		c0,1.1,1,1.5,3.5,1.5c3.2,0,6.2-0.5,8.4-1.4l0.3,5.2c-0.8,0-0.8,0-2.3,0.3c-2.1,0.3-4.3,0.4-6.3,0.4c-3,0-4.8-0.4-6.3-1.3
		c-1.3-0.8-2.1-2.4-2.1-4.1c0-1.4,0.4-2.5,1.3-3.6c1-1.2,2.2-2.2,3.8-3.1c0.6-0.3,0.9-0.5,1.9-1c-0.2-0.5-0.6-0.7-1.1-0.7
		c-1.3,0-3.2,1-5,2.8c-1.1,1.1-1.8,1.9-2.5,2.9l-3.3-3.6c0.8-0.7,1.9-1.9,2.8-3c0.6-0.8,1.6-2.5,2-3.2c0.4-0.7,0.4-0.7,0.5-0.9
		c-0.4,0-0.7,0-0.8,0c-1.1,0-1.1,0-2.3,0c-0.4,0-0.6,0-0.9,0c-0.1,0-0.2,0-0.4,0L161.9,136.3z"/>
	<path class="st2" d="M76.8,171.9c-0.2,0-0.2,0-0.5,0.1c-0.5,0.1-1.3,0.2-2,0.3v1.3c0.8-0.2,1.2-0.2,1.9-0.2c1.6,0,2.8,0.4,3.6,1.3
		c0.6,0.7,0.9,1.6,0.9,2.6c0,2-1.4,3.6-3.3,3.6c-1.6,0-2.6-1.2-2.6-3.3c0-0.1,0-0.2,0-0.4c1-0.3,1.3-0.4,2-0.9c0,0.3,0,0.5,0,0.8
		c0,0.4,0,0.7,0.1,0.9c0.1,0.3,0.3,0.4,0.6,0.4c0.6,0,0.9-0.5,0.9-1.2c0-0.5-0.2-1-0.6-1.3c-0.4-0.2-0.9-0.4-1.6-0.4
		c-0.6,0-1.2,0.1-1.9,0.3l0,2.6v0.4c0,0.9-0.1,1.2-0.2,1.5c-0.3,0.4-0.8,0.6-1.3,0.6c-1,0-2.1-0.4-2.8-1.1c-0.5-0.5-0.9-1.2-0.9-1.9
		c0-0.8,0.4-1.6,1.2-2.4c0.5-0.5,1.1-0.9,2-1.3v-1.7l-1,0l-1.3,0c0,0-0.2,0-0.3,0l0-2.3c0.4,0.1,1,0.1,1.8,0.1c0.1,0,0.1,0,0.5,0
		c0.2,0,0.2,0,0.3,0v-0.5c0-1.1,0-1.4-0.1-2h2.3c-0.1,0.5-0.1,0.9-0.1,1.8v0.5c0.9-0.1,1.7-0.3,2.4-0.5L76.8,171.9z M72.3,176.5
		c-0.6,0.3-1.1,0.9-1.1,1.3c0,0.2,0.1,0.3,0.3,0.5c0.2,0.1,0.4,0.2,0.6,0.2c0.2,0,0.2-0.1,0.2-0.6V176.5z M79.6,173.3
		c-0.7-1.3-1.4-2.3-2.6-3.4l1.7-1.3c1.1,1,1.9,2,2.6,3.2L79.6,173.3z"/>
	<path class="st2" d="M85.9,171.6c0-0.4,0-0.7,0-1c0.3,0,0.5,0,0.9,0c0.1-0.3,0.2-0.4,0.2-0.6h-1.4c0,4-0.1,5.8-0.3,7.5
		c-0.2,1.7-0.4,2.5-0.9,3.6c-0.6-1-0.8-1.3-1.4-2c0.3-0.9,0.5-1.5,0.6-2.8c0.1-1.7,0.2-3.7,0.2-6.4c0-0.9,0-1.5-0.1-2.1
		c0.5,0.1,0.8,0.1,1.5,0.1h2.8c0.7,0,1.1,0,1.6-0.1v2.1c-0.4,0-0.4,0-0.9,0c-0.1,0.3-0.2,0.4-0.2,0.6h0.3c0.4,0,0.6,0,0.9,0
		c0,0.3,0,0.6,0,1v3.4c0,0.6,0,0.9,0,1.2c-0.3,0-0.5,0-0.8,0h-0.4v3.3c0,1.4-0.3,1.6-1.5,1.6c-0.1,0-0.2,0-0.4,0
		c0-0.7-0.1-1.2-0.2-1.7c-0.1,0.5-0.2,0.7-0.3,1.4l-1.1-0.6c0.4-1.2,0.6-2.1,0.7-3.7l1,0.2c-0.1,1.2-0.1,1.5-0.3,2.4
		c0.3,0,0.3,0,0.3,0c0.2,0,0.2,0,0.2-0.2v-2.8h-0.3c-0.3,0-0.6,0-0.9,0c0-0.3,0-0.7,0-1.1V171.6z M87.4,172.8h0.8v-0.7h-0.8V172.8z
		 M87.4,174.7h0.8V174h-0.8V174.7z M89.7,176.5c0.1,0.8,0.2,1.6,0.3,2.3l-1,0.2c0-1-0.1-1.6-0.2-2.4L89.7,176.5z M94,178.3
		c0.5,0.5,1,0.7,1.8,1.2c-0.5,0.7-0.8,1.1-1.2,1.8c-0.9-0.6-1.4-1.1-2.2-1.9c-0.8,0.9-1.5,1.4-2.6,2c-0.3-0.6-0.7-1.1-1.2-1.7
		c1.1-0.4,1.6-0.8,2.3-1.4c-0.4,0-0.7,0-1,0c0-0.4,0-0.9,0-1.3V172c0-0.8,0-1.2,0-1.4c0.4,0,0.4,0,1.1,0h0.2
		c0.1-0.3,0.1-0.3,0.3-0.6h-0.4c-0.5,0-0.8,0-1.2,0.1V168c0.4,0.1,0.7,0.1,1.5,0.1h2.6c0.8,0,1.2,0,1.6-0.1v2.1
		c-0.5,0-0.8-0.1-1.6-0.1h-0.5c-0.1,0.2-0.1,0.3-0.3,0.6h0.6c0.8,0,1.1,0,1.4,0c0,0.4-0.1,0.8-0.1,1.4v4.8c0,0.6,0,1.2,0.1,1.6
		c-0.5,0-0.8,0-1.1,0H94z M92.5,179.1l0.8-0.8h-1.6L92.5,179.1z M91.9,172.8h1.5v-0.5h-1.5V172.8z M91.9,174.7h1.5v-0.6h-1.5V174.7z
		 M91.9,176.6h1.5V176h-1.5V176.6z"/>
	<path class="st2" d="M100.9,168.9c-0.1,0.7-0.1,1.6-0.1,2.6c0,3.2,0.4,5.7,1,5.7c0.1,0,0.3-0.2,0.4-0.6c0.3-0.8,0.5-1.6,0.7-2.5
		c0.6,0.8,1,1.1,1.8,1.8c-0.3,1.1-0.6,2-1,2.8c-0.5,1-1.2,1.5-2,1.5c-0.7,0-1.4-0.4-1.9-1.2c-0.7-1.1-1-2.5-1.2-4.8
		c-0.1-1-0.1-2.2-0.1-4.2c0-0.5,0-0.6-0.1-1H100.9z M107,169.4c1.7,2.3,2.7,4.9,3,8.4l-2.4,1c-0.1-3.2-1.1-6.1-2.7-8.4L107,169.4z"
		/>
	<path class="st2" d="M116,168.2c-0.1,0.9-0.3,4.8-0.3,7.2c0,1.4,0.1,1.9,0.3,2.3c0.3,0.4,0.8,0.7,1.5,0.7c1.4,0,2.4-0.9,2.9-2.4
		c0.3-0.8,0.4-1.5,0.5-2.6c1,0.8,1.4,1.1,2.3,1.5c-0.5,2.2-0.9,3.2-1.7,4.1c-1,1.2-2.4,1.9-4.1,1.9c-1.3,0-2.3-0.4-3.1-1.1
		c-0.8-0.8-1-1.7-1-3.8c0-0.4,0-0.4,0.1-3.3c0-1.5,0.1-2.8,0.1-3.4c0-0.4,0-0.7-0.1-1.1L116,168.2z"/>
	<path class="st2" d="M124.8,169.3c0.2,0,0.4,0,0.5,0c0.3,0,0.8,0,2.3-0.1c2.1-0.1,3-0.2,7-0.4c1.1,0,1.2-0.1,1.4-0.1l0.1,2.6
		c-0.2,0-0.2,0-0.4,0c-0.9,0-2.1,0.4-3,1c-1.3,0.9-2.1,2.1-2.1,3.3c0,0.8,0.4,1.4,1.1,1.8c0.5,0.3,1.7,0.5,2.5,0.5
		c0.1,0,0.2,0,0.4,0l-0.3,2.8c-0.2,0-0.2,0-0.5-0.1c-1.5-0.2-2.5-0.4-3.3-0.8c-1.6-0.8-2.4-2.1-2.4-4c0-1.2,0.4-2.3,1.1-3.3
		c0.3-0.5,0.7-0.8,1.3-1.2l-4.6,0.4c-0.5,0.1-0.6,0.1-1.1,0.2L124.8,169.3z"/>
	<path class="st2" d="M146.2,171.9c-0.2,0-0.2,0-0.5,0.1c-0.5,0.1-1.3,0.2-2,0.3v1.3c0.8-0.2,1.2-0.2,1.9-0.2c1.6,0,2.8,0.4,3.6,1.3
		c0.6,0.7,0.9,1.6,0.9,2.6c0,2-1.4,3.6-3.3,3.6c-1.6,0-2.6-1.2-2.6-3.3c0-0.1,0-0.2,0-0.4c1-0.3,1.3-0.4,2-0.9c0,0.3,0,0.5,0,0.8
		c0,0.4,0,0.7,0.1,0.9c0.1,0.3,0.3,0.4,0.6,0.4c0.6,0,0.9-0.5,0.9-1.2c0-0.5-0.2-1-0.6-1.3c-0.4-0.2-0.9-0.4-1.6-0.4
		c-0.6,0-1.2,0.1-1.9,0.3l0,2.6v0.4c0,0.9-0.1,1.2-0.2,1.5c-0.3,0.4-0.8,0.6-1.3,0.6c-1,0-2.1-0.4-2.8-1.1c-0.5-0.5-0.9-1.2-0.9-1.9
		c0-0.8,0.4-1.6,1.2-2.4c0.5-0.5,1.1-0.9,2-1.3v-1.7l-1,0l-1.3,0c0,0-0.2,0-0.3,0l0-2.3c0.4,0.1,1,0.1,1.8,0.1c0.1,0,0.1,0,0.5,0
		c0.2,0,0.2,0,0.3,0v-0.5c0-1.1,0-1.4-0.1-2h2.3c-0.1,0.5-0.1,0.9-0.1,1.8v0.5c0.9-0.1,1.7-0.3,2.4-0.5L146.2,171.9z M141.7,176.5
		c-0.6,0.3-1.1,0.9-1.1,1.3c0,0.2,0.1,0.3,0.3,0.5c0.2,0.1,0.4,0.2,0.6,0.2c0.2,0,0.2-0.1,0.2-0.6V176.5z M149,173.3
		c-0.7-1.3-1.4-2.3-2.6-3.4l1.7-1.3c1.1,1,1.9,2,2.6,3.2L149,173.3z"/>
	<path class="st2" d="M156.6,168c-0.2,0.6-0.3,1.5-0.5,3.1c0.9-1.7,1.9-2.5,3.3-2.5c0.9,0,1.8,0.5,2.4,1.3c0.7,1,1.1,2.3,1.1,4
		c0,2.4-0.7,4.1-2,5.3c-0.8,0.7-1.8,1.2-3,1.5c-0.4,0.1-0.8,0.2-1.6,0.3c-0.3-1.1-0.5-1.5-1.1-2.5c3.8-0.2,5.3-1.6,5.3-4.7
		c0-1.8-0.5-2.8-1.5-2.8c-0.5,0-0.9,0.3-1.4,0.8c-0.8,0.9-1.3,2.1-1.5,3.4c0,0.3-0.1,0.5-0.1,1.2l-2.2,0c0-0.1,0-0.2,0-0.2
		c0-0.1,0-0.2,0-0.3c0-0.6,0-1.4,0-1.8c0-1.8,0.1-3.4,0.3-5.3c0-0.4,0.1-0.6,0.1-0.8c0,0,0-0.1,0-0.1L156.6,168z"/>
	<path class="st2" d="M166.4,169.2c0.8,0.2,2.1,0.3,3.8,0.3c0.2,0,0.3,0,0.7,0c0-1,0-1.2-0.1-1.6h2.3c-0.1,0.4-0.1,0.5-0.1,1.5
		c1.8-0.1,3-0.3,3.7-0.5l0.1,2.2c-0.4,0-0.5,0-1.2,0.1c-0.9,0.1-1.6,0.2-2.6,0.2c0,0.4,0,0.4,0,0.9c1.5-0.1,2.5-0.2,3.4-0.4l0.1,2.2
		c-0.3,0-0.3,0-0.8,0.1c-0.6,0.1-1.9,0.2-2.6,0.2c0,0.7,0,0.7,0,1.3c0.7,0.2,1.1,0.4,1.8,0.8c0.7,0.4,0.8,0.5,1.8,1.2
		c0.2,0.1,0.3,0.2,0.5,0.3l-1.3,2.3c-0.4-0.5-0.4-0.5-0.9-0.9c-0.6-0.6-1.3-1-1.9-1.3c0,0.7-0.1,1.1-0.3,1.5
		c-0.4,0.7-1.4,1.1-2.9,1.1c-2.2,0-3.4-1-3.4-2.6c0-1.1,0.6-1.9,1.7-2.4c0.6-0.3,1.4-0.4,2.3-0.4c0.2,0,0.2,0,0.4,0
		c0-0.5,0-0.8,0-0.9c-0.3,0-0.8,0-1,0c-0.8,0-1.4,0-2.1-0.1c-0.6,0-0.6,0-1,0l0-2.2c0.6,0.1,1.9,0.2,3.2,0.2c0.3,0,0.5,0,0.9,0
		c0-0.1,0-0.1,0-0.2c0,0,0,0,0-0.4c0-0.2,0-0.2,0-0.3c-0.3,0-0.4,0-0.6,0c-0.7,0-0.9,0-2.4-0.1c-0.5,0-0.5,0-1,0c-0.2,0-0.3,0-0.4,0
		c-0.1,0-0.1,0-0.2,0L166.4,169.2z M170.2,177.4c-0.8,0-1.3,0.2-1.3,0.7c0,0.4,0.4,0.6,1,0.6c0.7,0,1.1-0.3,1.1-0.9
		c0-0.1,0-0.2,0-0.2C170.7,177.5,170.6,177.4,170.2,177.4z"/>
	<path class="st2" d="M179.6,169.4c0.3,0,0.5,0,0.8,0c0.4,0,3.9-0.1,5.1-0.1c0-0.9,0-1.1-0.1-1.5h2.3c-0.1,0.5-0.1,0.7-0.1,1.5
		c2.2,0,3.2,0,3.7-0.1l0,2.4c-0.6-0.1-0.9-0.1-2.4-0.1c-0.7,0-0.8,0-1.3,0v1.8c0,0.1,0,0.2,0,0.3c0.4,0.8,0.5,1.4,0.5,2.4
		c0,1.6-0.8,3-2.2,4c-0.6,0.4-1.4,0.8-2.6,1.2c-0.4-1-0.7-1.6-1.3-2.3c1.3-0.2,2.1-0.4,2.7-0.9c0.5-0.3,0.8-0.6,1-1.1
		c-0.6,0.5-1,0.7-1.8,0.7c-1.5,0-2.6-1.1-2.6-2.6c0-1.7,1.2-2.8,3.1-2.8c0.4,0,0.7,0,1,0.2c0-0.1,0-0.1,0-0.4c0-0.2,0-0.2,0-0.3
		c-2.7,0.1-4.9,0.2-5.9,0.4L179.6,169.4z M183.7,174.8c0,0.4,0.4,0.8,0.9,0.8c0.6,0,1-0.4,1-0.9c0-0.4-0.3-0.8-0.9-0.8
		C184.1,174,183.7,174.3,183.7,174.8z"/>
</g>
</svg>
