<?xml version="1.0" encoding="utf-8"?>
<!-- Generator: Adobe Illustrator 25.4.1, SVG Export Plug-In . SVG Version: 6.00 Build 0)  -->
<svg version="1.1" id="レイヤー_1" xmlns="http://www.w3.org/2000/svg" xmlns:xlink="http://www.w3.org/1999/xlink" x="0px"
	 y="0px" viewBox="0 0 44 44.1" style="enable-background:new 0 0 44 44.1;" xml:space="preserve">
<style type="text/css">
	.st0{fill:#FFFFFF;}
</style>
<path class="st0" d="M22.1,43.6C10.2,43.6,0.6,34,0.6,22.1S10.2,0.7,22.1,0.7c11.8,0,21.5,9.6,21.5,21.5S33.9,43.6,22.1,43.6z
	 M22.1,1.7c-11.3,0-20.5,9.2-20.5,20.5s9.2,20.5,20.5,20.5s20.5-9.2,20.5-20.5S33.4,1.7,22.1,1.7z"/>
<g>
	<path class="st0" d="M21.4,32.4V15c-0.9,1.2-2.3,2.7-3.7,3.7l-0.7-1.2c2-1.5,3.9-3.7,5.2-5.7c1.3,2,3.2,4.2,5.2,5.7l-0.7,1.2
		c-1.4-1-2.8-2.6-3.7-3.7v17.4H21.4z"/>
</g>
</svg>
