<?xml version="1.0" encoding="utf-8"?>
<!-- Generator: Adobe Illustrator 26.0.1, SVG Export Plug-In . SVG Version: 6.00 Build 0)  -->
<svg version="1.1" id="レイヤー_1" xmlns="http://www.w3.org/2000/svg" xmlns:xlink="http://www.w3.org/1999/xlink" x="0px"
	 y="0px" viewBox="0 0 96.1 96.1" style="enable-background:new 0 0 96.1 96.1;" xml:space="preserve">
<style type="text/css">
	.st0{fill:#77BE9C;}
	.st1{fill:#FFFFFF;}
</style>
<circle class="st0" cx="48.1" cy="48.1" r="48.1"/>
<path class="st1" d="M44.9,62.7c5.1-1.2,9.8-2.2,7.5-6.5c-6.9-13.1-1.8-20.1,5.5-20.1c7.5,0,12.4,7.3,5.5,20.1
	c-2.3,4.3,2.5,5.4,7.5,6.5c4.4,1,4.7,3.1,4.7,6.9l0,1.8h-2.9c0-4.6,0.2-5.2-2.7-5.9c-4.2-1-8.1-1.9-9.6-5.1
	c-0.5-1.2-0.9-3.1,0.5-5.6c3-5.6,3.8-10.4,2.1-13.3c-2-3.3-8-3.3-9.9,0c-1.7,2.8-0.9,7.7,2.1,13.3c1.3,2.5,1,4.4,0.5,5.6
	c-1.5,3.2-5.5,4.1-9.7,5.1c-2.8,0.6-2.6,1.3-2.6,5.9h-2.9C40.3,66.5,39.9,63.9,44.9,62.7z M22.6,71.4h2.9c0-4.2-0.4-3.1,4-4.4
	c2.2-0.7,4.2-1.6,5.1-3.6c0.5-1,0.8-2.7-0.4-4.8c-2.1-4-2.7-7.4-1.6-9.3c1.2-2,5-2,6.2,0c2.1,3.5-1.7,8.8-2.2,11h3.1
	c1-2.2,2.7-4.9,2.7-8.6c0-4.4-2.9-6.8-6.6-6.8c-5.5,0-9.3,5.3-4.1,15.1c1.7,3.2-1.8,4-5.6,4.9c-3.3,0.8-3.5,2.4-3.5,5.1
	C22.6,70,22.6,71.4,22.6,71.4z"/>
<path class="st1" d="M41.9,28.3c-2.3-4.7-10-3.4-10,2.7c0,6,8.2,9.1,10,12.7c1.7-3.6,10-6.7,10-12.7C51.8,24.9,44.2,23.5,41.9,28.3z
	"/>
</svg>
