<?xml version="1.0" encoding="utf-8"?>
<!-- Generator: Adobe Illustrator 26.0.1, SVG Export Plug-In . SVG Version: 6.00 Build 0)  -->
<svg version="1.1" id="レイヤー_1" xmlns="http://www.w3.org/2000/svg" xmlns:xlink="http://www.w3.org/1999/xlink" x="0px"
	 y="0px" viewBox="0 0 96.1 96.1" style="enable-background:new 0 0 96.1 96.1;" xml:space="preserve">
<style type="text/css">
	.st0{fill:#77BE9C;}
	.st1{fill-rule:evenodd;clip-rule:evenodd;fill:#FFFFFF;}
</style>
<circle class="st0" cx="48.1" cy="48.1" r="48.1"/>
<path class="st1" d="M57.7,24c-3.3,0-6,2.7-6,6s2.7,6,6,6c3.3,0,6-2.7,6-6S61.1,24,57.7,24 M57.7,26c2.2,0,4,1.8,4,4s-1.8,4-4,4
	c-2.2,0-4-1.8-4-4S55.5,26,57.7,26 M38.4,24c-3.3,0-6,2.7-6,6s2.7,6,6,6c3.3,0,6-2.7,6-6S41.7,24,38.4,24 M38.4,26c2.2,0,4,1.8,4,4
	s-1.8,4-4,4c-2.2,0-4-1.8-4-4S36.2,26,38.4,26 M57.7,55.7c1.4,0,2.5,1.1,2.6,2.5c0.1,1.5,0.3,4.4,0.6,7l0.3,3.8c0,0.5,0.3,1.1,1,1.1
	c0.8,0,0.9-0.9,0.9-1.1L64,46c0-1,1.4-1.3,1.9-0.4l3.3,6c0.2,0.4,0.9,0.3,0.9-0.2L66.9,40c-0.2-0.7-0.8-1.1-1.5-1.1H30.7
	c-0.7,0-1.3,0.5-1.5,1.1L26,51.2c0,0.8,0.7,0.7,0.9,0.4l3.3-6c0.5-0.9,1.8-0.6,1.9,0.4L33,69c0,0.5,0.3,1.1,1,1.1c0.7,0,1-0.5,1-1.1
	l0.3-3.9c0.2-2.6,0.5-5.4,0.6-6.9c0.1-1.4,1.2-2.5,2.6-2.5c1.2,0,2.4,0.9,2.5,2.5c0.1,1.5,0.3,4.3,0.6,6.9l0.3,3.9
	c0,0.5,0.3,1.1,1,1.1c0.8,0,0.9-0.8,0.9-1.1c0.2-5.9,1.3-24.6,1.3-24.8c0-0.5,0.5-0.9,1-0.9H50c0.5,0,1,0.4,1,0.9
	c0,0.2,1,18.9,1.2,24.8c0,0.6,0.3,1.1,1,1.1c0.7,0,1-0.6,1-1.1l0.3-4c0.2-2.5,0.4-5.4,0.5-6.8C55.3,56.7,56.5,55.7,57.7,55.7
	 M62.2,72.1c-1.6,0-2.9-1.2-3-2.9c-0.1-0.9-0.2-2.3-0.3-3.8c-0.2-2.6-0.5-5.5-0.6-7c0-0.5-0.3-0.6-0.6-0.6c-0.2,0-0.5,0.2-0.5,0.6
	c-0.1,1.5-0.3,4.3-0.5,6.9c-0.1,1.6-0.3,3-0.3,4c-0.1,1.7-1.4,2.9-3,2.9c-1.7,0-3-1.3-3-3c-0.2-5.1-1-19.9-1.2-23.8h-2
	c-0.2,3.9-1,18.7-1.2,23.8c-0.1,1.8-1.3,3-2.9,3c-1.6,0-2.9-1.2-3-2.9l-0.3-3.9c-0.2-2.6-0.5-5.5-0.6-6.9c0-0.5-0.4-0.6-0.5-0.6
	c-0.3,0-0.5,0.2-0.6,0.6c-0.1,1.5-0.3,4.4-0.6,6.9L37,69.2c-0.1,1.7-1.4,2.9-3,2.9c-1.7,0-2.9-1.3-3-3l-0.8-19.4l-1.6,2.8
	c-0.6,1.2-2.2,1.6-3.2,1.1c-0.9-0.4-1.5-1.3-1.5-2.3c0-0.2,0-0.5,0.1-0.7l3.2-11.2c0.4-1.5,1.8-2.6,3.4-2.6h34.7
	c1.6,0,3,1.1,3.4,2.6L72,50.7c0.1,0.2,0.1,0.4,0.1,0.7c0,1-0.6,1.9-1.5,2.3l-0.1,0c-1.1,0.4-2.5-0.1-3.1-1.1l-1.6-2.8l-0.8,19.4
	C65,70.9,63.8,72.1,62.2,72.1"/>
</svg>
