<?xml version="1.0" encoding="utf-8"?>
<!-- Generator: Adobe Illustrator 26.0.1, SVG Export Plug-In . SVG Version: 6.00 Build 0)  -->
<svg version="1.1" id="レイヤー_1" xmlns="http://www.w3.org/2000/svg" xmlns:xlink="http://www.w3.org/1999/xlink" x="0px"
	 y="0px" viewBox="0 0 96.1 96.1" style="enable-background:new 0 0 96.1 96.1;" xml:space="preserve">
<style type="text/css">
	.st0{fill:#77BE9C;}
	.st1{fill-rule:evenodd;clip-rule:evenodd;fill:#FFFFFF;}
</style>
<circle class="st0" cx="48.1" cy="48.1" r="48.1"/>
<path class="st1" d="M63.8,21l-2.6,4.8l-5.4,1l3.8,4l-0.7,5.4l4.9-2.4l4.9,2.4L68,30.8l3.8-4l-5.4-1C66.4,25.8,63.8,21,63.8,21z
	 M63.8,25.5l1.2,2.2l2.5,0.5L65.7,30l0.3,2.5l-2.3-1.1l-2.3,1.1l0.3-2.5l-1.7-1.8l2.5-0.5L63.8,25.5 M32.8,30.9l-1.3,2.4l-2.7,0.5
	l1.9,2l-0.4,2.7l2.5-1.2l2.5,1.2l-0.4-2.7l1.9-2l-2.7-0.5C34.1,33.3,32.8,30.9,32.8,30.9z M32.8,33.2l0.6,1.1l1.2,0.2l-0.9,0.9
	l0.2,1.2l-1.1-0.5l-1.1,0.5l0.2-1.2L31,34.5l1.2-0.2L32.8,33.2 M47.9,34c-5.4,0-9.8,4.4-9.8,9.8c0,5.4,4.4,9.8,9.8,9.8
	c5.4,0,9.8-4.4,9.8-9.8C57.7,38.4,53.3,34,47.9,34 M47.9,36.2c4.2,0,7.6,3.4,7.6,7.6c0,4.2-3.4,7.6-7.6,7.6c-4.2,0-7.6-3.4-7.6-7.6
	C40.4,39.6,43.8,36.2,47.9,36.2 M37.1,70.8h21.6v-6c0-2.7,0.4-3.9,1.4-5.4l2.2-3.4c2.5-3.8,4.8-7.4,6.1-9.7c0.2-0.3,0.1-0.7-0.2-0.9
	c-0.4-0.2-0.9-0.2-1.2,0.2c-1.5,1.6-4.4,4.7-8.8,9.2l-0.8,0.9c-2.1,2.3-3.3,3.3-9.3,3.3h-0.3c-6.2,0-7.5-1.1-9.5-3.4l-0.8-0.8
	c-4.3-4.5-7.3-7.6-8.8-9.2c-0.3-0.3-0.8-0.4-1.2-0.2c-0.3,0.2-0.4,0.6-0.2,0.9c1.3,2.4,4,6.9,8.2,13.7c1,1.7,1.4,3.1,1.4,5.4
	C37.1,65.3,37.1,70.8,37.1,70.8z M60.9,73H35v-7.7c0-1.8-0.3-3-1.1-4.2c-4.4-7-7-11.4-8.3-13.9c-0.7-1.3-0.3-2.9,1-3.7
	c1.2-0.8,3-0.6,3.9,0.5c1.4,1.6,4.5,4.8,8.7,9.2L40,54c1.7,1.9,2.4,2.6,7.9,2.7h0.3c5.3,0,6-0.8,7.7-2.6l0.8-0.9
	c4.4-4.5,7.3-7.6,8.7-9.2c1-1.1,2.7-1.3,3.9-0.5c1.3,0.8,1.7,2.4,1,3.7c-1.3,2.4-3.6,6-6.2,9.9L62,60.5c-0.8,1.2-1.1,1.9-1.1,4.2
	C60.9,64.8,60.9,73,60.9,73z"/>
</svg>
