<?xml version="1.0" encoding="utf-8"?>
<!-- Generator: Adobe Illustrator 25.4.1, SVG Export Plug-In . SVG Version: 6.00 Build 0)  -->
<svg version="1.1" id="レイヤー_1" xmlns="http://www.w3.org/2000/svg" xmlns:xlink="http://www.w3.org/1999/xlink" x="0px"
	 y="0px" viewBox="0 0 213.8 145.9" style="enable-background:new 0 0 213.8 145.9;" xml:space="preserve">
<style type="text/css">
	.st0{fill:#FFFFFF;}
</style>
<g>
	<path class="st0" d="M8.8,99.7c0,0.1-0.1,0.2-0.1,0.3c1.4,0.3,2,1.3,2,2.3c0,1.4-1.2,2.4-3.4,2.6c-0.1-0.2-0.2-0.5-0.4-0.7
		c1.7-0.2,2.9-0.8,2.9-1.9c0-0.5-0.2-1.3-1.4-1.5c-0.4,1-1,1.8-1.7,2.5c0.1,0.1,0.1,0.3,0.2,0.4l-0.7,0.5C6.1,104,6,103.9,6,103.7
		c-0.7,0.5-1.2,0.5-1.6,0.5c-0.8,0-1.2-0.6-1.2-1.3c0-1.2,1-2.2,2.3-2.8c0-0.4,0-0.9,0-1.3c-0.4,0-0.8,0-1.2,0c-0.3,0-0.5,0-0.7,0
		V98c0.4,0,1.2,0,1.9,0c0-0.4,0-0.9,0-1.3l1.2,0.1c0,0.1-0.1,0.2-0.2,0.2c0,0.3,0,0.7-0.1,1c1,0,2.4-0.2,3.4-0.4l0.1,0.9
		c-1,0.2-2.5,0.3-3.5,0.3c0,0.4,0,0.8,0,1.1c0.7-0.2,1.2-0.2,1.5-0.2c0-0.1,0.1-0.3,0.1-0.4L8.8,99.7z M5.8,103
		c-0.1-0.5-0.2-1.2-0.2-1.9c-0.8,0.4-1.5,1-1.5,1.8c0,0.6,0.5,0.6,0.6,0.6C5,103.4,5.4,103.2,5.8,103z M7.6,100.6
		c-0.6,0-1,0.1-1.2,0.2c0,0.6,0.1,1.1,0.2,1.5C6.9,101.9,7.3,101.3,7.6,100.6z"/>
	<path class="st0" d="M16.2,96.9c0,0.1-0.1,0.2-0.3,0.2c-0.1,0.4-0.1,0.8-0.2,1.1c0.8,0,1.7-0.2,2.4-0.4l0.1,0.9
		c-0.8,0.2-1.8,0.3-2.7,0.4c-0.4,1.7-1,3.1-1.8,4.4l-0.9-0.3c0.8-1.2,1.4-2.5,1.7-4c-0.2,0-0.4,0-0.6,0H13v-0.8h1c0.3,0,0.6,0,0.8,0
		C14.9,98,15,97.5,15,97L16.2,96.9z M18.6,100.8c0,0.6,0,1.1,0.1,1.7c0.5,0.2,1.3,0.6,1.8,1l-0.4,0.8c-0.4-0.3-1-0.7-1.4-0.9
		c0,0.5-0.2,1.5-1.8,1.5c-1,0-1.8-0.5-1.8-1.4s0.9-1.4,1.8-1.4c0.3,0,0.5,0,0.9,0.1c0-0.5-0.1-1-0.1-1.4L18.6,100.8z M17.8,103.1
		c-0.3-0.1-0.7-0.2-0.9-0.2c-0.5,0-1,0.2-1,0.7c0,0.4,0.4,0.6,1,0.6c0.5,0,0.9-0.2,0.9-0.8V103.1z M20.4,100c-1,0-2.2,0.2-3.2,0.4
		l-0.1-0.8c1-0.3,2.3-0.5,3.2-0.5L20.4,100z"/>
	<path class="st0" d="M28.2,98.8c-0.7,0.2-1.7,0.4-2.6,0.5c-0.4,2-0.9,4-1.6,5.5l-0.9-0.3c0.7-1.4,1.3-3.2,1.6-5.1
		c-0.1,0-0.3,0-0.4,0c-0.4,0-0.8,0-1.2,0v-0.9c0.3,0,0.8,0,1.2,0c0.2,0,0.3,0,0.5,0c0.1-0.5,0.1-1.2,0.2-1.7l1.2,0.1
		c0,0.1-0.1,0.2-0.3,0.2c-0.1,0.4-0.1,0.8-0.2,1.3c0.8-0.1,1.6-0.2,2.3-0.5L28.2,98.8z M30.6,104.7c-0.3,0-0.6,0-0.9,0
		c-0.8,0-1.5-0.1-2-0.2c-0.7-0.2-1.1-0.7-1.1-1.3c0-0.5,0.3-1,0.6-1.3l0.8,0.3c-0.3,0.3-0.4,0.6-0.4,0.9c0,0.6,0.7,0.7,2,0.7
		c0.4,0,0.7,0,1.1,0L30.6,104.7z M27.1,100.2c0.9-0.3,2.2-0.5,3.2-0.5v0.9c-1,0-2.1,0.1-3,0.4L27.1,100.2z"/>
	<path class="st0" d="M38.7,100.1L38.7,100.1c-0.2,0-0.2,0-0.3,0c-2.7,0.8-4.9,1.8-4.9,2.9c0,0.8,0.8,1,2.2,1s2.5-0.1,3.2-0.2
		l0.1,0.9c-0.6,0.1-1.8,0.2-3.3,0.2c-1.7,0-3.1-0.4-3.1-1.8c0-1,0.9-1.8,2.3-2.5c-0.3-0.6-0.4-1.6-0.4-3.6l1.3,0.1
		c0,0.1-0.1,0.2-0.3,0.2c0,1.4,0,2.4,0.2,2.9c0.8-0.4,1.7-0.7,2.7-1L38.7,100.1z"/>
	<path class="st0" d="M44.6,103c0,0.1-0.1,0.1-0.2,0.1c-0.6,0.7-1.7,1.5-2.6,2c-0.2-0.2-0.5-0.5-0.7-0.6c0.9-0.5,2-1.2,2.5-1.9
		L44.6,103z M47.3,101.4h2.1v0.8h-8.3v-0.8h2.1v-2.1h-1.7v-0.8h1.7v-1.7l1.1,0.1c0,0.1-0.1,0.1-0.2,0.2v1.5h2.4v-1.7l1.1,0.1
		c0,0.1-0.1,0.1-0.2,0.2v1.5H49v0.8h-1.8L47.3,101.4L47.3,101.4z M44,99.2v2.1h2.4v-2.1H44z M48.4,105.1c-0.5-0.5-1.6-1.4-2.5-2
		l0.8-0.5c0.8,0.6,1.9,1.4,2.5,2L48.4,105.1z"/>
	<path class="st0" d="M53.2,97.3c0,0.1-0.1,0.2-0.3,0.2c-0.3,1.5-0.5,3.1-0.5,4c0,0.6,0,1.2,0.1,1.5c0.1-0.4,0.5-1.2,0.6-1.5
		l0.5,0.6c-0.3,0.8-0.6,1.3-0.8,1.7c0,0.2-0.1,0.3-0.1,0.4s0,0.2,0,0.3l-0.9,0.1c-0.3-0.9-0.4-2-0.4-3.2s0.2-2.9,0.4-4.4L53.2,97.3z
		 M58.7,104c-0.3,0-0.6,0-1,0c-0.6,0-1.2,0-1.6-0.1c-1.2-0.2-1.7-0.8-1.7-1.5c0-0.6,0.3-1.2,0.8-1.8l0.8,0.3
		c-0.4,0.4-0.7,0.9-0.7,1.3c0,0.8,1.1,0.9,2.2,0.9c0.4,0,0.8,0,1.2-0.1V104z M54.6,98.3c1.1,0,2.7-0.1,3.9-0.3l0.1,0.9
		c-1.1,0.2-2.9,0.3-3.9,0.3L54.6,98.3z"/>
	<path class="st0" d="M66.6,99.7c0,0.1-0.1,0.2-0.1,0.3c1.4,0.3,2,1.3,2,2.3c0,1.4-1.2,2.4-3.4,2.6c-0.1-0.2-0.2-0.5-0.4-0.7
		c1.7-0.2,2.9-0.8,2.9-1.9c0-0.5-0.2-1.3-1.4-1.5c-0.4,1-1,1.8-1.7,2.5c0.1,0.1,0.1,0.3,0.2,0.4l-0.7,0.5c-0.1-0.1-0.1-0.2-0.2-0.4
		c-0.7,0.5-1.2,0.5-1.6,0.5c-0.8,0-1.2-0.6-1.2-1.3c0-1.2,1-2.2,2.3-2.8c0-0.4,0-0.9,0-1.3c-0.4,0-0.8,0-1.2,0c-0.3,0-0.5,0-0.7,0
		v-0.8c0.4,0,1.2,0,1.9,0c0-0.4,0-0.9,0-1.3l1.2,0.1c0,0.1-0.1,0.2-0.2,0.2c0,0.3,0,0.7-0.1,1c1,0,2.4-0.2,3.4-0.4l0.1,0.9
		c-1,0.2-2.5,0.3-3.5,0.3c0,0.4,0,0.8,0,1.1c0.7-0.2,1.2-0.2,1.5-0.2c0-0.1,0.1-0.3,0.1-0.4L66.6,99.7z M63.5,103
		c-0.1-0.5-0.2-1.2-0.2-1.9c-0.8,0.4-1.5,1-1.5,1.8c0,0.6,0.5,0.6,0.6,0.6C62.8,103.4,63.2,103.2,63.5,103z M65.4,100.6
		c-0.6,0-1,0.1-1.2,0.2c0,0.6,0.1,1.1,0.2,1.5C64.7,101.9,65.1,101.3,65.4,100.6z"/>
	<path class="st0" d="M71.6,101c0.6-1.3,2-2.3,3.3-2.5c0-0.5-0.1-1-0.1-1.5H76c0,0.1-0.1,0.2-0.2,0.2c0,0.3,0,0.8,0,1.2
		c1.4,0,2.6,0.8,2.6,2.4s-1.1,2.6-2.9,2.6c-0.3,0.6-0.8,1.2-1.7,1.7c-0.2-0.2-0.5-0.5-0.7-0.6c0.7-0.3,1.2-0.8,1.5-1.2
		c-0.6-0.1-1.4-0.6-1.8-1.2c0.2-0.1,0.4-0.4,0.6-0.5c0.3,0.6,1,0.9,1.5,1C75,102,75,101.5,75,101s0-1.1-0.1-1.8
		c-1.1,0.2-2.2,1-3,2.6c-0.1,0.2-0.1,0.4-0.1,0.7c0,0.3,0,0.5,0.1,0.8l-0.9,0.1c-0.2-0.7-0.3-1.7-0.3-2.6c0-1,0.1-2.4,0.4-3.5
		l1.1,0.2c0,0.1-0.1,0.1-0.2,0.1C71.8,98.6,71.6,100,71.6,101L71.6,101z M75.8,99.1c0,0.7,0,1.4,0,2c0,0.5,0,1-0.1,1.3
		c1.1-0.1,1.7-0.7,1.7-1.8C77.5,99.7,76.8,99.1,75.8,99.1z"/>
	<path class="st0" d="M87.8,99.3c0,0.1-0.1,0.2-0.3,0.2c-0.1,0.6-0.2,1.2-0.4,1.8c0.4,0.2,0.9,0.4,1.4,0.7l-0.4,0.9
		c-0.5-0.2-0.9-0.5-1.3-0.6c-0.4,1.2-1,2.1-1.9,2.7c-0.2-0.2-0.5-0.4-0.7-0.5c0.9-0.6,1.4-1.4,1.8-2.6c-0.8-0.3-1.5-0.5-2.1-0.6
		c-0.6,2.1-1.1,2.8-2.3,2.8c-1,0-1.4-0.7-1.4-1.5c0-1.4,1.5-2.1,3-2.1c0.2-0.7,0.3-1.5,0.4-2.3c-0.4,0-1.7,0.1-2.4,0.2
		c-0.1,0.1-0.1,0.1-0.2,0.1l-0.1-1c0.9,0,2.5-0.1,3-0.2c0.1,0,0.2-0.1,0.2-0.1l0.7,0.4c0,0.1-0.1,0.1-0.2,0.2
		c-0.1,0.9-0.4,2-0.6,2.7c0.6,0.1,1.3,0.3,2.1,0.5c0.1-0.5,0.3-1.2,0.4-1.9L87.8,99.3z M83.1,101.1c-1.1,0-2,0.5-2,1.3
		c0,0.4,0.2,0.7,0.6,0.7C82.2,103.1,82.6,102.8,83.1,101.1z"/>
	<path class="st0" d="M106.7,104.2c-0.8,0.1-1.8,0.2-2.7,0.2c-0.8,0-1.4,0-1.8-0.1c-1.1-0.3-1.6-1-1.6-1.8c0-0.7,0.4-1.4,0.9-1.9
		l0.8,0.4c-0.5,0.5-0.7,1-0.7,1.4c0,0.5,0.3,0.9,1,1.1c0.3,0.1,0.8,0.1,1.4,0.1c0.9,0,1.9-0.1,2.8-0.3L106.7,104.2z M102.5,99.6
		c0.4-0.3,0.9-0.7,1.4-0.9l0,0c-0.6,0.1-2,0.1-2.9,0.1c0-0.2,0-0.7,0-0.9c0.9,0,2.7,0,3.5-0.1c0.5,0,1.1-0.1,1.7-0.2l0.1,0.9
		c-1.2,0.2-2.5,1-3,1.5L102.5,99.6z"/>
	<path class="st0" d="M115,104.2c-0.8,0.1-1.8,0.2-2.7,0.2c-0.8,0-1.4,0-1.8-0.1c-1.1-0.3-1.6-1-1.6-1.8c0-0.7,0.4-1.4,0.9-1.9
		l0.8,0.4c-0.5,0.5-0.7,1-0.7,1.4c0,0.5,0.3,0.9,1,1.1c0.3,0.1,0.8,0.1,1.4,0.1c0.9,0,1.9-0.1,2.8-0.3L115,104.2z M110.8,99.6
		c0.4-0.3,0.9-0.7,1.4-0.9l0,0c-0.6,0.1-2,0.1-2.9,0.1c0-0.2,0-0.7,0-0.9c0.9,0,2.7,0,3.5-0.1c0.5,0,1.1-0.1,1.7-0.2l0.1,0.9
		c-1.2,0.2-2.5,1-3,1.5L110.8,99.6z"/>
	<path class="st0" d="M119.1,100.6c0.7-0.4,1.5-0.5,2.1-0.5c1.4,0,2.3,0.8,2.3,2.1c0,1.7-1.6,2.4-4.6,2.6c0-0.2-0.2-0.6-0.3-0.8
		c2.7-0.1,3.9-0.6,3.9-1.7c0-0.9-0.7-1.4-1.7-1.4s-2.3,0.5-3.1,1.2c-0.2,0.2-0.5,0.5-0.8,0.8l-0.6-0.6c0.8-0.9,3.1-3.2,4.1-4.2
		c-0.5,0-2.1,0.2-2.9,0.2c0,0.1-0.1,0.1-0.2,0.1l-0.1-1c1.2,0,3.8-0.2,4-0.3l0.1-0.1l0.7,0.7c-0.1,0.1-0.1,0.1-0.3,0.1
		C121.2,98.5,119.6,100,119.1,100.6L119.1,100.6z"/>
	<path class="st0" d="M127.6,97.3c0,0.1-0.1,0.2-0.3,0.2c-0.3,1.5-0.5,3.1-0.5,4c0,0.6,0,1.2,0.1,1.5c0.1-0.4,0.5-1.2,0.6-1.5
		l0.5,0.6c-0.3,0.8-0.6,1.3-0.8,1.7c0,0.2-0.1,0.3-0.1,0.4s0,0.2,0,0.3l-0.9,0.1c-0.3-0.9-0.4-2-0.4-3.2s0.2-2.9,0.4-4.4L127.6,97.3
		z M133.2,104c-0.3,0-0.6,0-1,0c-0.6,0-1.2,0-1.6-0.1c-1.2-0.2-1.7-0.8-1.7-1.5c0-0.6,0.3-1.2,0.8-1.8l0.8,0.3
		c-0.4,0.4-0.7,0.9-0.7,1.3c0,0.8,1.1,0.9,2.2,0.9c0.4,0,0.8,0,1.2-0.1V104z M129,98.3c1.1,0,2.7-0.1,3.9-0.3l0.1,0.9
		c-1.1,0.2-2.9,0.3-3.9,0.3L129,98.3z"/>
	<path class="st0" d="M143.3,100.9v0.7h-1.4v2.5c0,0.8-0.3,0.9-1.9,0.9c0-0.2-0.2-0.6-0.3-0.8c0.3,0,0.6,0,0.8,0
		c0.5,0,0.5,0,0.5-0.2v-2.5h-5.9v-0.7h1.2c-0.1-0.2-0.2-0.4-0.3-0.5c1.3-0.2,2-0.5,2.4-0.9h-2v-0.7h2.3c0-0.2,0.1-0.4,0.1-0.6h-2.6
		v1h-0.8v-1.7h3.3v-0.8l1.1,0.1c0,0.1-0.1,0.1-0.2,0.2v0.6h3.4v1.7h-0.8v-1H139l0,0l0.9,0.1c0,0.1-0.1,0.1-0.2,0.1
		c0,0.1,0,0.3-0.1,0.4h2.5v0.7h-2.7v0.1c1,0.2,2.2,0.6,2.8,0.9l-0.3,0.4C141.9,100.9,143.3,100.9,143.3,100.9z M139.8,104.2h-2.7
		v0.4h-0.8v-2.4h3.5V104.2z M141.3,100.9c-0.7-0.3-1.6-0.6-2.4-0.8c-0.4,0.4-1,0.6-1.9,0.8H141.3z M139,102.8h-1.9v0.7h1.9V102.8z"
		/>
	<path class="st0" d="M145.8,102c-0.2-0.6-0.2-1.3-0.2-1.8c0-0.8,0.1-1.7,0.3-2.9l1.2,0.2c0,0.1-0.1,0.1-0.2,0.2
		c-0.2,0.7-0.3,1.8-0.3,2.5c0,0.1,0,0.2,0,0.3c0.2-0.4,0.5-1,0.7-1.3c0.1,0.2,0.3,0.4,0.4,0.6c-0.5,0.8-0.9,1.5-0.9,1.9
		c0,0.1,0,0.2,0,0.2L145.8,102z M150.9,97.1c0,0.1-0.1,0.2-0.2,0.2c0.1,0.7,0.2,2,0.2,3.1c0,1.7-0.6,3.3-3.4,4.5
		c-0.1-0.2-0.5-0.5-0.6-0.7c2.5-0.9,3.1-2.4,3.1-3.8c0-1.2-0.1-2.5-0.2-3.4L150.9,97.1z"/>
	<path class="st0" d="M153.5,99.2c0.5,0.2,1.2,0.6,1.5,0.9l-0.5,0.7c-0.3-0.3-1-0.7-1.5-0.9L153.5,99.2z M153.2,104.5
		c0.4-0.7,0.9-1.8,1.3-2.8l0.7,0.5c-0.4,0.9-0.8,1.9-1.1,2.6c0,0.1,0.1,0.1,0.1,0.2v0.1L153.2,104.5z M153.9,96.7
		c0.5,0.2,1.2,0.6,1.5,0.9l-0.5,0.7c-0.3-0.3-0.9-0.7-1.5-1L153.9,96.7z M155.3,99.1h2c0.1-0.3,0.2-0.6,0.3-1
		c-0.6,0.1-1.2,0.2-1.8,0.2c0-0.2-0.1-0.5-0.3-0.7c1.7-0.2,3.6-0.5,4.6-1l0.8,0.7c0,0-0.1,0-0.2,0c-0.5,0.2-1.2,0.4-2,0.6l0,0
		c0,0.1-0.1,0.1-0.2,0.1c-0.1,0.4-0.2,0.7-0.3,1h3.2v0.8h-1.7c0.5,0.6,1.1,1.2,1.9,1.5c-0.2,0.2-0.4,0.5-0.6,0.7
		c-0.9-0.4-1.7-1.3-2.2-2.2h-0.9c-0.5,1-1.3,1.8-2.4,2.3c-0.1-0.2-0.4-0.5-0.5-0.6c0.8-0.4,1.5-0.9,2-1.7h-1.6v-0.7H155.3z
		 M155.2,103.8c0.6-0.5,0.9-1.2,1.1-2l0.7,0.2c-0.2,0.8-0.6,1.7-1.2,2.2L155.2,103.8z M157.4,100.8h1c0,0.1-0.1,0.1-0.2,0.2v3.2
		c0,0.8-0.4,0.9-1.6,0.9c0-0.2-0.1-0.5-0.2-0.8c0.2,0,0.5,0,0.6,0c0.4,0,0.4,0,0.4-0.1V100.8z M159,104.2c-0.1-0.5-0.3-1.3-0.6-1.9
		l0.6-0.2c0.3,0.6,0.5,1.4,0.6,1.9L159,104.2z M160.8,104.4c-0.2-0.6-0.7-1.6-1.3-2.3l0.7-0.3c0.6,0.7,1.1,1.6,1.3,2.2L160.8,104.4z
		"/>
	<path class="st0" d="M163.1,99.9c1.4-0.4,3.1-0.7,3.8-0.7c1.3,0,2.2,0.7,2.2,2.2c0,1.7-1.3,2.9-3.8,3.6c-0.1-0.2-0.4-0.6-0.6-0.8
		c2.3-0.6,3.4-1.6,3.4-2.8c0-0.8-0.4-1.4-1.3-1.4c-0.7,0-2.1,0.3-3.2,0.7c0,0.1-0.1,0.2-0.2,0.2L163.1,99.9z M164.5,96.8
		c1.2,0.1,2.6,0.3,3.6,0.7l-0.2,0.9c-1-0.3-2.4-0.6-3.6-0.7L164.5,96.8z"/>
	<path class="st0" d="M178,98.7c0,0.1-0.1,0.1-0.2,0.2c-1,2.9-2.4,4.8-4.9,6c-0.1-0.2-0.4-0.5-0.7-0.7c2.3-1.1,3.7-2.8,4.4-5h-2.9
		c-0.5,0.7-1.2,1.5-2,2.1c-0.2-0.2-0.5-0.4-0.7-0.6c1.2-0.9,2.3-2.3,2.9-3.9l1.1,0.3c0,0.1-0.1,0.1-0.3,0.1c-0.2,0.4-0.4,0.7-0.5,1
		h2.9l0.1-0.1L178,98.7z"/>
	<path class="st0" d="M180.1,101.9v-4.4l1.2,0.1c0,0.1-0.1,0.2-0.2,0.2v4.2L180.1,101.9L180.1,101.9z M185.3,97.2
		c0,0.1-0.1,0.2-0.2,0.2v2.8c0,1.9-0.6,3.7-3.2,4.7c-0.1-0.2-0.5-0.5-0.7-0.7c2.4-0.9,2.9-2.4,2.9-4v-3.1L185.3,97.2z"/>
	<path class="st0" d="M195.7,103v0.9h-7.5V103H195.7z M194.8,98.2V99h-5.6v-0.9L194.8,98.2L194.8,98.2z"/>
	<path class="st0" d="M198.4,99.3c0.3,0.5,0.5,1.4,0.7,1.9l-0.7,0.2c-0.1-0.5-0.4-1.4-0.6-1.9L198.4,99.3z M203.7,99.5
		c0,0.1-0.1,0.1-0.2,0.1c-0.7,2.6-2.1,4.2-4.2,5.1c-0.1-0.2-0.3-0.4-0.5-0.6c2-0.8,3.3-2.2,4-4.9L203.7,99.5z M200.5,98.9
		c0.2,0.6,0.4,1.4,0.4,2l-0.7,0.2c-0.1-0.6-0.2-1.4-0.4-2L200.5,98.9z"/>
	<path class="st0" d="M212.5,98.7c0,0.1-0.1,0.1-0.2,0.2c-1,2.9-2.4,4.8-4.9,6c-0.1-0.2-0.4-0.5-0.7-0.7c2.3-1.1,3.7-2.8,4.4-5h-2.9
		c-0.5,0.7-1.2,1.5-2,2.1c-0.2-0.2-0.5-0.4-0.7-0.6c1.2-0.9,2.3-2.3,2.9-3.9l1.1,0.3c0,0.1-0.1,0.1-0.3,0.1c-0.2,0.4-0.4,0.7-0.5,1
		h2.9l0.1-0.1L212.5,98.7z"/>
</g>
<g>
	<path class="st0" d="M74.6,38.2l0.1-0.5l3.3-0.8L75.2,35l0.1-0.5l3.7,0.7l-0.1,0.5l-2.7-0.5l2.5,1.7l-0.1,0.3l-3,0.7l2.7,0.5
		l-0.1,0.5L74.6,38.2z"/>
	<path class="st0" d="M76.1,31.7l0.2-0.5l3.6,1.2l-0.2,0.5L76.1,31.7z"/>
	<path class="st0" d="M81.2,29.2c-0.3,0.7-0.9,1-1.5,0.7l0.2-0.5c0.3,0.1,0.7,0,0.9-0.4c0.2-0.4,0.1-0.8-0.2-1
		c-0.9-0.4-1.2,1.7-2.5,1.1c-0.6-0.3-0.7-0.9-0.4-1.6c0.3-0.6,0.9-0.9,1.4-0.7l-0.2,0.5c-0.2-0.1-0.6,0-0.8,0.4
		c-0.2,0.4-0.1,0.7,0.2,0.9c0.9,0.4,1.2-1.7,2.5-1.1C81.3,27.8,81.5,28.5,81.2,29.2z"/>
	<path class="st0" d="M83.4,23.8l-0.9,1.4l0.5,0.7l-0.3,0.4l-2.3-3.2l0.3-0.5l3.9,1L84.3,24L83.4,23.8z M81,23.2l1.2,1.6l0.8-1.1
		L81,23.2z"/>
	<path class="st0" d="M82.9,19.6l0.4-0.4l2.8,1.7L84.5,18l0.4-0.4l2.9,1.7l-1.7-2.8l0.4-0.4l1.9,3.4L88,19.9l-2.8-1.5l1.5,2.8
		l-0.4,0.4L82.9,19.6z"/>
	<path class="st0" d="M92.1,15.6l-1.4,0.9l0.2,0.9l-0.4,0.3l-0.9-3.9l0.5-0.3l3.2,2.4l-0.4,0.3L92.1,15.6z M90.2,14.2l0.5,2l1.1-0.8
		L90.2,14.2z"/>
	<path class="st0" d="M96.6,10.1l0.5-0.2l2.3,2.5L99.8,9l0.5-0.2l1.1,3.6l-0.5,0.2L100,10l-0.3,3l-0.3,0.1l-2-2.3l0.9,2.7l-0.5,0.2
		L96.6,10.1z"/>
	<path class="st0" d="M105.1,8.4l-1.5,0.2l0.2,1.2l1.4-0.2l0.1,0.4l-1.4,0.2l0.2,1.3l1.5-0.2l0.1,0.4l-2,0.3l-0.6-3.7l2-0.3
		L105.1,8.4z"/>
	<path class="st0" d="M110.8,7.8v3.8h-0.5l-2-3v3h-0.5V7.8h0.5l2,3v-3H110.8z"/>
	<path class="st0" d="M113.5,8l2.5,0.4l-0.1,0.4l-1-0.2l-0.5,3.3l-0.5-0.1l0.5-3.3l-1-0.2L113.5,8z"/>
	<path class="st0" d="M119.8,12.5l-1.6-0.5l-0.5,0.7l-0.5-0.2l2.5-3.1l0.5,0.2l0.1,4l-0.5-0.2V12.5z M119.7,10.1l-1.2,1.6l1.3,0.4
		L119.7,10.1z"/>
	<path class="st0" d="M124.3,11.3l-1.5,3l1.2,0.6l-0.2,0.4l-1.6-0.8l1.7-3.4L124.3,11.3z"/>
	<path class="st0" d="M131.8,16.1c0.6,0.5,0.8,1.3,0.6,2l-0.4-0.4c0.1-0.5,0-0.9-0.4-1.3c-0.6-0.5-1.4-0.5-2,0.2s-0.5,1.5,0.1,2
		c0.4,0.4,0.9,0.4,1.3,0.2l0.4,0.4c-0.7,0.4-1.4,0.3-2.1-0.3c-0.8-0.7-0.9-1.8-0.2-2.7C129.8,15.5,131,15.4,131.8,16.1z"/>
	<path class="st0" d="M135.3,19.6l-2.5,2.2l0.9,1l-0.3,0.3l-1.2-1.4l2.8-2.5L135.3,19.6z"/>
	<path class="st0" d="M137.6,22.6l0.3,0.4l-3.1,2.1l-0.3-0.4L137.6,22.6z"/>
	<path class="st0" d="M140.7,28l-3.4,1.7l-0.2-0.4l1.8-3.1l-2.7,1.4l-0.2-0.4l3.4-1.7l0.2,0.4l-1.8,3.1l2.7-1.4L140.7,28z"/>
	<path class="st0" d="M141.8,30.6l0.2,0.5l-3.5,1.3l-0.2-0.5L141.8,30.6z"/>
	<path class="st0" d="M143.2,35.5c0.2,0.8-0.1,1.5-0.8,1.9l-0.1-0.6c0.4-0.3,0.6-0.7,0.5-1.3c-0.2-0.8-0.8-1.2-1.8-1
		c-0.9,0.2-1.3,0.9-1.2,1.7c0.1,0.5,0.4,0.9,0.9,1l0.1,0.6c-0.8-0.1-1.3-0.7-1.5-1.5c-0.2-1,0.4-2,1.5-2.2S143,34.4,143.2,35.5z"/>
</g>
<g>
	<path class="st0" d="M143.5,47.7l-0.1,0.5l-3.3,0.7l2.7,2l-0.1,0.5l-3.7-0.8l0.1-0.5l2.7,0.6l-2.5-1.8l0.1-0.3l3-0.7l-2.7-0.6
		l0.1-0.5L143.5,47.7z"/>
	<path class="st0" d="M141.9,54.1l-0.2,0.5l-3.5-1.3l0.2-0.5L141.9,54.1z"/>
	<path class="st0" d="M136.7,56.5c0.3-0.7,1-1,1.5-0.7l-0.2,0.5c-0.3-0.1-0.7-0.1-0.9,0.4c-0.2,0.4-0.1,0.8,0.2,1
		c0.9,0.5,1.2-1.7,2.5-1c0.6,0.3,0.7,0.9,0.4,1.6c-0.3,0.6-0.9,0.9-1.4,0.7l0.2-0.5c0.2,0.1,0.6,0,0.8-0.4s0.1-0.7-0.2-0.9
		c-0.9-0.4-1.2,1.6-2.5,1C136.6,57.9,136.4,57.2,136.7,56.5z"/>
	<path class="st0" d="M134.4,61.8l1-1.3l-0.5-0.7l0.3-0.4l2.2,3.3l-0.3,0.5l-3.8-1.1l0.3-0.4L134.4,61.8z M136.8,62.5l-1.1-1.7
		l-0.8,1.1L136.8,62.5z"/>
	<path class="st0" d="M134.8,66.1l-0.4,0.4l-2.8-1.8l1.5,2.9l-0.4,0.4l-2.8-1.7l1.6,2.9l-0.4,0.4l-1.8-3.5l0.4-0.4l2.7,1.6l-1.4-2.8
		l0.4-0.4L134.8,66.1z"/>
	<path class="st0" d="M125.5,69.8l1.4-0.9l-0.2-0.9l0.4-0.3l0.9,3.9l-0.5,0.3l-3.1-2.4l0.4-0.3L125.5,69.8z M127.4,71.3l-0.4-2
		l-1.1,0.7L127.4,71.3z"/>
	<path class="st0" d="M120.9,75.3l-0.5,0.2l-2.2-2.6l-0.4,3.4l-0.5,0.1l-1.1-3.6l0.5-0.1l0.8,2.7l0.4-3l0.3-0.1l2,2.3l-0.8-2.7
		l0.5-0.1L120.9,75.3z"/>
	<path class="st0" d="M112.3,76.7l1.5-0.2l-0.2-1.2l-1.4,0.2l-0.1-0.4l1.4-0.2l-0.2-1.3l-1.5,0.2v-0.4l2-0.2l0.5,3.7l-2,0.3
		L112.3,76.7z"/>
	<path class="st0" d="M106.6,77.2l0.1-3.8h0.5l1.9,3.1l0.1-3h0.5l-0.1,3.8h-0.5l-1.9-3l-0.1,3L106.6,77.2z"/>
	<path class="st0" d="M104,76.9l-2.5-0.5l0.1-0.4l1,0.2l0.6-3.3l0.5,0.1l-0.6,3.3l1,0.2L104,76.9z"/>
	<path class="st0" d="M97.8,72.3l1.5,0.5l0.6-0.7l0.5,0.2l-2.5,3.1l-0.5-0.2v-4l0.5,0.2L97.8,72.3z M97.8,74.7l1.3-1.6l-1.3-0.5
		V74.7z"/>
	<path class="st0" d="M93.2,73.4l1.6-3l-1.2-0.6l0.2-0.4l1.6,0.8l-1.8,3.3L93.2,73.4z"/>
	<path class="st0" d="M85.9,68.4c-0.6-0.5-0.8-1.3-0.5-2l0.4,0.4c-0.2,0.5,0,0.9,0.4,1.3c0.6,0.5,1.4,0.5,2-0.2s0.6-1.5,0-2
		c-0.4-0.4-0.9-0.4-1.3-0.2l-0.4-0.4c0.7-0.4,1.4-0.2,2.1,0.3c0.8,0.7,0.9,1.8,0.1,2.7C87.8,69.1,86.6,69.1,85.9,68.4z"/>
	<path class="st0" d="M82.4,64.8l2.6-2.1l-0.8-1l0.3-0.3l1.1,1.4l-2.9,2.4L82.4,64.8z"/>
	<path class="st0" d="M80.2,61.8l-0.3-0.4l3.1-2.1l0.3,0.4L80.2,61.8z"/>
	<path class="st0" d="M77.2,56.3l3.4-1.6l0.2,0.4L79,58.2l2.7-1.3l0.2,0.4L78.4,59l-0.2-0.4l1.8-3.1l-2.7,1.3L77.2,56.3z"/>
	<path class="st0" d="M76.2,53.6L76,53.2l3.6-1.2l0.2,0.5L76.2,53.6z"/>
	<path class="st0" d="M74.9,48.8c-0.1-0.8,0.1-1.5,0.8-1.9l0.1,0.6c-0.4,0.3-0.6,0.7-0.5,1.3c0.1,0.8,0.8,1.2,1.7,1.1
		c0.9-0.2,1.4-0.9,1.2-1.6c-0.1-0.5-0.4-0.9-0.9-1l-0.1-0.6c0.8,0.1,1.3,0.7,1.4,1.5c0.2,1-0.4,2-1.5,2.2
		C76,50.5,75.1,49.8,74.9,48.8z"/>
</g>
<path class="st0" d="M109.1,84.9c-23.4,0-42.4-19-42.4-42.4s19-42.4,42.4-42.4s42.4,19,42.4,42.4S132.5,84.9,109.1,84.9z M109.1,3.1
	c-21.7,0-39.4,17.7-39.4,39.4s17.7,39.4,39.4,39.4s39.4-17.7,39.4-39.4S130.9,3.1,109.1,3.1z"/>
<path class="st0" d="M109.2,23.7c-3.1-1.4-6.7,0.1-8.1,3.3c-0.3,0.8-0.5,1.5-0.5,2.3c-0.1-2.1-1.3-4.1-3.4-5c-2.8-1.2-6.2,0-7.4,2.9
	c-0.1,0.3-0.3,0.7-0.3,1l0,0l0,0l0,0c-0.7,2.8,0.5,5.2,1.2,6.4c0.7,1.1,2.9,4.1,3.2,4.6c0.4,0.5,1.7,2.4,1.7,4.7
	c1.2-2.2-0.6-5.1-0.6-5.1c-0.2-0.4-1.5-2.3-1.6-2.5c-0.1-0.1-0.3-0.5-0.6-1C92,34,92,33,92.1,32.4c0.3-1.5,1.2-2.7,2.5-3.3
	c1.7-0.7,3.6-0.2,4.9,1.2c0.3,0.3,0.5,0.6,0.7,0.9c0.1,0.2,0.2,0.4,0.3,0.6c0,0.1,0.1,0.2,0.1,0.3c0.1-0.2,0.2-0.4,0.3-0.5
	c0.1-0.2,0.2-0.4,0.4-0.6c0.2-0.3,0.4-0.5,0.7-0.8c1.9-1.8,4.6-2.3,6.5-0.9c1.6,1.2,2.1,3.3,1.5,5.3c1-0.7,1.8-1.6,2.3-2.8
	C113.7,28.7,112.3,25,109.2,23.7z"/>
<path class="st0" d="M123.1,56.6c0.8-2.2,1.6-4.3,2.4-6.5c1.1-3.1,2.5-6,3.1-9.2c0.2-1.2,0.4-2.5,0-3.7c-0.3-0.9-1.1-1.5-2-1.3
	c-0.5,0.1-0.9,0.3-1.3,0.5c-1.5,1-2.6,2.5-3.6,4c-2.7,4-4.8,8.2-7,12.5c-0.1,0.1-0.2,0.3-0.2,0.4c0-0.2,0-0.4,0.1-0.6
	c1.3-3.5,2.7-7,4-10.5c0.6-1.7,1-3.6,0.6-5.4c-0.5-2.4-2.4-3.2-4.3-1.9c-0.5,0.4-1,0.8-1.4,1.2c-1.7,1.9-3.1,4-4.3,6.3
	c-1.9,3.4-3.6,6.9-5.5,10.4c-0.1,0.2-0.2,0.3-0.3,0.5c0,0-0.1,0-0.1-0.1c0.3-0.7,0.5-1.4,0.8-2.2c1.3-3.7,2.8-7.3,3.8-11.1
	c0.4-1.8,0.6-3.5,0.1-5.3c-0.7-2.2-2.6-2.9-4.4-1.5c-0.8,0.6-1.5,1.3-2,2.1l0,0l-0.1,0.1c0,0.1-0.1,0.1-0.1,0.2
	c-0.4,0.6-0.8,1.2-1.2,1.9L96.4,43c0,0,0.4-0.1,0.9-0.5c1-0.6,2.8-1.7,4.3-3.7c0,0,0-0.1,0.1-0.1c0-0.1,0.1-0.1,0.1-0.2
	c0.4-0.5,0.7-0.9,1.1-1.4c0.2-0.2,0.6-0.3,0.9-0.3c0.2,0.1,0.5,0.5,0.5,0.8c0,0.8,0,1.7-0.3,2.5c-1.7,5.4-3.4,10.8-5.2,16.2
	c-0.5,1.7-1.1,3.4-1.6,5c1.1,0,2,0,3,0c0.5,0,0.7-0.2,1-0.6c2.1-4,4.2-7.9,6.4-11.9c1.6-3,3.4-5.9,5.1-8.8c0.4-0.6,0.9-1.1,1.4-1.6
	c0.8-0.6,1.8-0.2,1.8,0.8c0,0.8-0.2,1.5-0.4,2.3c-1.5,4.5-3.1,9.1-4.7,13.6c-0.7,1.9-1.3,3.9-2,5.7c0.9,0,1.8,0,2.6,0
	c0.2,0,0.4-0.2,0.5-0.4c1.2-2.3,2.4-4.6,3.7-6.9c2-3.6,4.1-7.2,6.2-10.8c0.6-1,1.5-1.9,2.3-2.8c0.3-0.3,0.7-0.6,1.1-0.4
	c0.3,0.2,0.5,0.7,0.5,1.1c0,0.5-0.1,1-0.3,1.4c-0.9,2.4-1.8,4.7-2.6,7.1c-0.9,2.5-1.8,5-2.6,7.5c-0.3,1-0.5,2,0,3.1
	c0.3,0.7,0.8,1.1,1.6,1c1,0,1.6-0.6,2.2-1.3c1.7-1.8,2.8-4,4-6.1c-0.3-0.2-0.5-0.4-0.8-0.6c-0.8,1.3-1.6,2.6-2.5,3.8
	c-0.3,0.4-0.7,0.8-1,1.1c-0.1,0.1-0.5,0.2-0.6,0.1c-0.1-0.1-0.2-0.4-0.2-0.6C123,57.2,123,56.9,123.1,56.6z"/>
<g>
	<path class="st0" d="M4.4,126.9c-1,0-1.9-0.5-2.8-1.5s-1.3-2-1.3-3.2c0-1.1,0.6-2.1,1.7-2.9s2.7-1.3,4.6-1.5c0.1,0,0.1-0.1,0.2-0.2
		c0.2-1.4,0.3-2.6,0.4-3.6c0-0.1-0.1-0.2-0.2-0.2H2.5c-0.2,0-0.4-0.1-0.6-0.2c-0.2-0.2-0.2-0.4-0.2-0.6s0.1-0.4,0.2-0.6
		c0.2-0.2,0.4-0.2,0.6-0.2H8c0.3,0,0.5,0.1,0.8,0.3c0.2,0.2,0.3,0.5,0.3,0.8v0.6c-0.3,2.4-0.4,3.6-0.4,3.8c0,0.1,0,0.2,0.1,0.2
		c1.1,0.1,2.2,0.3,3.3,0.5c0.1,0,0.2,0,0.2-0.1c0-1,0.1-2.2,0.1-3.6c0-0.3,0.1-0.5,0.3-0.7s0.4-0.3,0.7-0.3s0.5,0.1,0.7,0.3
		c0.2,0.2,0.3,0.4,0.3,0.7c0,1.5,0,2.9-0.1,4.2c0,0.1,0,0.2,0.2,0.2c0.6,0.2,1.3,0.6,2.1,1c0.2,0.1,0.4,0.3,0.4,0.6
		c0.1,0.2,0.1,0.5-0.1,0.7c-0.1,0.2-0.3,0.4-0.5,0.4c-0.2,0.1-0.5,0-0.7-0.1c-0.5-0.3-1-0.5-1.4-0.7h-0.1c0,0-0.1,0-0.1,0.1
		c-0.2,1.7-0.5,3-1,3.8s-1.3,1.6-2.4,2.2c-0.2,0.1-0.5,0.2-0.7,0.1c-0.3-0.1-0.5-0.2-0.6-0.4c-0.1-0.2-0.2-0.4-0.1-0.7
		c0.1-0.2,0.2-0.4,0.4-0.6c0.8-0.5,1.5-1.1,1.8-1.8s0.6-1.8,0.7-3.4c0-0.1-0.1-0.2-0.2-0.2c-1.1-0.3-2.2-0.5-3.4-0.6
		c-0.1,0-0.2,0-0.2,0.1c-0.2,1.2-0.4,2.3-0.6,3.1s-0.5,1.6-0.7,2.1s-0.5,0.9-0.8,1.2c-0.3,0.3-0.6,0.5-0.9,0.6
		C5.1,126.8,4.8,126.9,4.4,126.9z M6.3,119.6c-1.3,0.1-2.3,0.4-3,0.9s-1.1,1-1.1,1.7c0,0.6,0.2,1.3,0.7,1.9s1,0.9,1.4,0.9
		C5.1,125,5.8,123.2,6.3,119.6L6.3,119.6L6.3,119.6z"/>
	<path class="st0" d="M19.6,115.5c-0.2,0-0.4-0.1-0.6-0.2c-0.2-0.2-0.2-0.4-0.2-0.6s0.1-0.4,0.2-0.6c0.2-0.2,0.4-0.2,0.6-0.2
		c2.1,0,4.6,0,7.6-0.1c0.1,0,0.2-0.1,0.1-0.2c-0.1-0.6-0.1-1-0.2-1.3c0-0.3,0-0.5,0.2-0.7s0.4-0.3,0.7-0.3c0.3,0,0.5,0.1,0.7,0.2
		c0.2,0.2,0.3,0.4,0.3,0.6c0,0.4,0.1,0.8,0.2,1.4c0,0.1,0.1,0.2,0.2,0.2c0.9,0,2.1-0.1,3.7-0.2c0.2,0,0.4,0.1,0.6,0.2
		c0.2,0.2,0.3,0.4,0.3,0.6s-0.1,0.4-0.2,0.6c-0.2,0.2-0.3,0.3-0.6,0.3c-0.8,0-1.9,0.1-3.4,0.1c-0.1,0-0.2,0.1-0.1,0.2
		c0.4,1.5,0.9,2.9,1.7,4.2c0.2,0.2,0.2,0.5,0.1,0.8s-0.2,0.5-0.5,0.6c-0.6,0.3-1.2,0.3-1.8-0.1c-1.2-0.6-2.5-1-3.9-1
		c-1.1,0-2,0.2-2.6,0.7c-0.6,0.4-0.9,1-0.9,1.8c0,2,1.7,3,5.1,3c1,0,2.2-0.1,3.7-0.3c0.2,0,0.5,0,0.7,0.1s0.3,0.3,0.4,0.6
		c0,0.2,0,0.5-0.1,0.7s-0.3,0.3-0.6,0.4c-1.3,0.2-2.7,0.3-4,0.3c-2.5,0-4.3-0.5-5.4-1.3s-1.7-2.1-1.7-3.5c0-1.2,0.5-2.2,1.4-3
		c1-0.7,2.3-1.1,4-1.1c1.3,0,2.5,0.3,3.7,0.8l0,0l0,0c-0.5-1-0.9-2.1-1.3-3.5c0-0.1-0.1-0.2-0.2-0.2
		C24.4,115.4,21.8,115.5,19.6,115.5z"/>
	<path class="st0" d="M36.7,122.1c1.3-1.6,2.5-3,3.6-4.1c0.1-0.1,0.1-0.2,0.1-0.3V116c0-0.1-0.1-0.2-0.2-0.2h-2.9
		c-0.2,0-0.4-0.1-0.6-0.2c-0.2-0.2-0.2-0.3-0.2-0.6c0-0.2,0.1-0.4,0.2-0.6c0.2-0.2,0.4-0.2,0.6-0.2h2.9c0.1,0,0.2-0.1,0.2-0.2v-1.9
		c0-0.3,0.1-0.5,0.3-0.6c0.2-0.2,0.4-0.3,0.6-0.3c0.2,0,0.4,0.1,0.6,0.3c0.2,0.2,0.3,0.4,0.3,0.6v3.7c0,0,0,0,0,0.1h0.1
		c1.1-1,2.1-1.6,2.9-2c0.8-0.4,1.7-0.6,2.5-0.6c1.6,0,2.9,0.5,3.7,1.6s1.2,2.8,1.2,5.1c0,2-0.5,3.6-1.4,4.8s-2.3,1.7-3.9,1.7
		c-0.7,0-1.5-0.1-2.2-0.4c-0.2-0.1-0.4-0.2-0.5-0.5s-0.1-0.5,0-0.7s0.2-0.4,0.5-0.5s0.4-0.1,0.7,0c0.6,0.2,1.1,0.3,1.6,0.3
		c1.1,0,1.9-0.4,2.5-1.2c0.6-0.8,0.9-1.9,0.9-3.4c0-1.8-0.2-3-0.7-3.8c-0.5-0.7-1.2-1.1-2.3-1.1c-0.7,0-1.4,0.2-2.3,0.7
		c-0.8,0.5-1.8,1.3-3,2.5c-0.1,0.1-0.1,0.2-0.1,0.3v7.8c0,0.3-0.1,0.5-0.3,0.6c-0.2,0.2-0.4,0.3-0.6,0.3c-0.3,0-0.5-0.1-0.6-0.3
		c-0.2-0.2-0.3-0.4-0.3-0.6v-5.9c0,0,0,0,0-0.1s0,0-0.1,0c-0.8,0.8-1.5,1.7-2.3,2.7c-0.2,0.2-0.4,0.3-0.6,0.3
		c-0.2,0-0.4-0.1-0.6-0.2c-0.2-0.2-0.3-0.4-0.3-0.6C36.5,122.5,36.6,122.3,36.7,122.1z"/>
	<path class="st0" d="M62.9,127.1c-2.2,0-4-0.4-5.3-1.1s-1.9-1.7-1.9-3c0-1.1,0.7-2.5,2.2-4c0.2-0.2,0.4-0.3,0.7-0.3
		s0.5,0.1,0.7,0.2c0.2,0.2,0.3,0.4,0.3,0.6s-0.1,0.5-0.2,0.6c-1.1,1.2-1.6,2.1-1.6,2.7c0,0.7,0.5,1.3,1.4,1.8s2.2,0.7,3.8,0.7
		c1.7,0,3.5-0.2,5.4-0.6c0.2-0.1,0.5,0,0.7,0.1s0.3,0.3,0.4,0.6c0.1,0.3,0,0.5-0.1,0.7s-0.3,0.3-0.6,0.4
		C66.7,126.8,64.8,127.1,62.9,127.1z M58.3,112.6h9.3c0.2,0,0.4,0.1,0.6,0.2c0.2,0.2,0.3,0.4,0.3,0.6c0,0.3-0.1,0.5-0.3,0.6
		c-0.2,0.2-0.4,0.2-0.6,0.2h-9.3c-0.2,0-0.4-0.1-0.6-0.2c-0.2-0.2-0.3-0.4-0.3-0.6c0-0.3,0.1-0.5,0.3-0.6S58.1,112.6,58.3,112.6z"/>
	<path class="st0" d="M80.8,127.1c-2.2,0-4-0.4-5.3-1.1s-1.9-1.7-1.9-3c0-1.1,0.7-2.5,2.2-4c0.2-0.2,0.4-0.3,0.7-0.3
		c0.3,0,0.5,0.1,0.7,0.2c0.2,0.2,0.3,0.4,0.3,0.6s-0.1,0.5-0.2,0.6c-1.1,1.2-1.6,2.1-1.6,2.7c0,0.7,0.5,1.3,1.4,1.8s2.2,0.7,3.8,0.7
		c1.7,0,3.5-0.2,5.4-0.6c0.2-0.1,0.5,0,0.7,0.1s0.3,0.3,0.4,0.6c0.1,0.3,0,0.5-0.1,0.7s-0.3,0.3-0.6,0.4
		C84.6,126.8,82.6,127.1,80.8,127.1z M76.2,112.6h9.3c0.2,0,0.4,0.1,0.6,0.2c0.2,0.2,0.3,0.4,0.3,0.6c0,0.3-0.1,0.5-0.3,0.6
		c-0.2,0.2-0.4,0.2-0.6,0.2h-9.3c-0.2,0-0.4-0.1-0.6-0.2c-0.2-0.2-0.3-0.4-0.3-0.6c0-0.3,0.1-0.5,0.3-0.6
		C75.7,112.7,75.9,112.6,76.2,112.6z"/>
	<path class="st0" d="M92.8,121.2c-0.2,0.1-0.4,0.1-0.6,0.1c-0.2-0.1-0.4-0.2-0.5-0.4c-0.1-0.2-0.1-0.4-0.1-0.6
		c0.1-0.2,0.2-0.4,0.4-0.5l8.8-5.7l0,0l0,0h-7c-0.2,0-0.4-0.1-0.6-0.2c-0.2-0.2-0.2-0.4-0.2-0.6s0.1-0.4,0.2-0.6
		c0.2-0.2,0.4-0.2,0.6-0.2h9.6c0.2,0,0.4,0.1,0.6,0.2c0.2,0.2,0.3,0.4,0.3,0.6c0,0.6-0.2,1-0.7,1.3l-6,3.6l0,0h0.1
		c1.1-0.3,2-0.4,2.9-0.4c3.8,0,5.7,1.3,5.7,4c0,1.7-0.6,3.1-1.9,4s-3.2,1.4-5.7,1.4c-0.9,0-2-0.1-3.1-0.2c-0.3,0-0.5-0.1-0.6-0.3
		c-0.2-0.2-0.3-0.4-0.3-0.7c0-0.2,0.1-0.4,0.3-0.6c0.2-0.2,0.4-0.2,0.6-0.2c0.9,0.1,1.9,0.1,2.9,0.1c3.7,0,5.6-1.1,5.6-3.3
		c0-0.9-0.3-1.5-1-2c-0.7-0.4-1.7-0.7-3.2-0.7C97.7,119.3,95.3,119.9,92.8,121.2z"/>
	<path class="st0" d="M112.5,126.4c-1,0-1.9-0.6-2.7-1.7c-0.8-1.1-1.2-2.5-1.2-4.2c0-2.4,0.8-4.4,2.5-5.9s3.8-2.3,6.5-2.3
		c2.1,0,3.9,0.7,5.3,2s2.1,3,2.1,5.1c0,2-0.5,3.6-1.4,4.9s-2.2,2.1-3.8,2.4c-0.3,0.1-0.5,0-0.7-0.2s-0.4-0.4-0.4-0.6
		c-0.1-0.2,0-0.5,0.1-0.7s0.3-0.3,0.6-0.4c1.2-0.3,2.1-0.9,2.7-1.9c0.6-0.9,0.9-2.1,0.9-3.6c0-1.4-0.5-2.6-1.4-3.6s-2.1-1.5-3.5-1.7
		c-0.1,0-0.2,0-0.2,0.2c-0.3,2.4-0.6,4.4-1,6.1c-0.4,1.6-0.8,2.9-1.3,3.7c-0.5,0.8-1,1.4-1.5,1.8S113.1,126.4,112.5,126.4z
		 M115.9,114.3c-1.7,0.3-3,1-3.9,2.1s-1.5,2.5-1.5,4.1c0,1.1,0.2,2,0.7,2.8c0.4,0.8,0.9,1.2,1.3,1.2c0.2,0,0.4-0.1,0.6-0.3
		c0.2-0.2,0.5-0.5,0.7-1c0.3-0.5,0.5-1.1,0.8-1.8c0.2-0.7,0.5-1.7,0.8-2.9c0.3-1.2,0.5-2.6,0.7-4.2
		C116.1,114.4,116,114.3,115.9,114.3C116,114.3,116,114.3,115.9,114.3z"/>
	<path class="st0" d="M129.6,120.1c-0.2,0.2-0.4,0.3-0.7,0.3s-0.5-0.1-0.7-0.2c-0.2-0.2-0.3-0.4-0.3-0.6c0-0.3,0.1-0.5,0.2-0.7
		c1.7-1.9,2.8-4.1,3.2-6.5c0.1-0.3,0.2-0.5,0.4-0.7s0.5-0.3,0.7-0.2c0.3,0,0.5,0.1,0.7,0.3c0.2,0.2,0.2,0.4,0.2,0.7
		c0,0.1,0,0.2-0.1,0.3c0,0.2-0.1,0.3-0.1,0.3c0,0.1,0,0.2,0.1,0.2h7.3c0.3,0,0.5,0.1,0.8,0.3c0.2,0.2,0.3,0.5,0.3,0.8
		c-0.1,3.9-1.1,6.9-2.9,8.9c-1.9,2-4.8,3.2-8.8,3.6c-0.3,0-0.5,0-0.7-0.2s-0.3-0.4-0.4-0.6c0-0.2,0-0.5,0.2-0.7s0.3-0.3,0.6-0.3
		c3.3-0.4,5.8-1.4,7.3-2.9s2.4-3.8,2.6-6.9c0-0.1-0.1-0.2-0.2-0.2h-6.6c-0.1,0-0.2,0.1-0.2,0.2C132,117,130.9,118.6,129.6,120.1z"/>
	<path class="st0" d="M148,120.5c-0.3,0-0.5-0.1-0.7-0.3c-0.2-0.2-0.3-0.5-0.3-0.7v-6.4c0-0.3,0.1-0.5,0.3-0.7s0.4-0.3,0.7-0.3
		s0.5,0.1,0.8,0.3c0.2,0.2,0.3,0.5,0.3,0.7v6.4c0,0.3-0.1,0.5-0.3,0.7C148.5,120.4,148.3,120.5,148,120.5z M157,112.4
		c0.2-0.2,0.5-0.3,0.8-0.3s0.5,0.1,0.8,0.3s0.3,0.5,0.3,0.8v4c0,3.1-0.7,5.4-2.1,7c-1.4,1.6-3.6,2.6-6.6,3.1c-0.3,0-0.5,0-0.7-0.2
		s-0.4-0.4-0.4-0.6c-0.1-0.3,0-0.5,0.1-0.7s0.3-0.3,0.6-0.4c2.6-0.5,4.4-1.3,5.4-2.5s1.5-3.1,1.5-5.7v-4
		C156.7,112.8,156.8,112.6,157,112.4z"/>
	<path class="st0" d="M164.1,126c-0.3,0-0.5-0.1-0.7-0.3c-0.2-0.2-0.3-0.4-0.3-0.7s0.1-0.5,0.3-0.7s0.4-0.3,0.7-0.3h13.3
		c0.3,0,0.5,0.1,0.7,0.3c0.2,0.2,0.3,0.4,0.3,0.7s-0.1,0.5-0.3,0.7s-0.4,0.3-0.7,0.3H164.1z M165.5,112.9h10.6
		c0.3,0,0.5,0.1,0.7,0.3c0.2,0.2,0.3,0.4,0.3,0.7c0,0.3-0.1,0.5-0.3,0.7s-0.4,0.3-0.7,0.3h-10.6c-0.3,0-0.5-0.1-0.7-0.3
		c-0.2-0.2-0.3-0.4-0.3-0.7c0-0.3,0.1-0.5,0.3-0.7C165,113,165.2,112.9,165.5,112.9z"/>
	<path class="st0" d="M184,120.3c-0.3-1.3-0.6-2.4-0.9-3.3c-0.1-0.2,0-0.5,0.1-0.7s0.3-0.3,0.6-0.4c0.3,0,0.5,0,0.7,0.1
		s0.4,0.3,0.4,0.6c0.4,1.2,0.6,2.3,0.9,3.2c0.1,0.2,0,0.5-0.1,0.7s-0.3,0.4-0.6,0.4c-0.3,0.1-0.5,0-0.7-0.1S184,120.6,184,120.3z
		 M194.3,115.4c0.3,0,0.5,0.1,0.7,0.3c0.2,0.2,0.3,0.4,0.2,0.7c-0.2,3.4-0.9,5.9-2.3,7.5s-3.5,2.6-6.6,3.1c-0.2,0-0.5,0-0.7-0.2
		s-0.3-0.3-0.4-0.6c-0.1-0.2,0-0.5,0.1-0.7s0.3-0.3,0.6-0.4c2.6-0.4,4.4-1.3,5.5-2.6c1.1-1.3,1.7-3.4,1.8-6.3c0-0.3,0.1-0.5,0.3-0.6
		C193.8,115.4,194,115.4,194.3,115.4z M189.9,120.3c-0.1,0.2-0.3,0.4-0.6,0.4c-0.3,0.1-0.5,0-0.7-0.1s-0.4-0.3-0.4-0.6
		c-0.3-1.3-0.6-2.4-0.9-3.4c-0.1-0.2,0-0.5,0.1-0.7s0.3-0.4,0.6-0.4c0.3-0.1,0.5,0,0.7,0.1s0.4,0.3,0.4,0.6c0.4,1.6,0.7,2.8,0.9,3.4
		C190,119.8,190,120.1,189.9,120.3z"/>
	<path class="st0" d="M201.4,120.1c-0.2,0.2-0.4,0.3-0.7,0.3s-0.5-0.1-0.7-0.2c-0.2-0.2-0.3-0.4-0.3-0.6c0-0.3,0.1-0.5,0.2-0.7
		c1.7-1.9,2.8-4.1,3.2-6.5c0.1-0.3,0.2-0.5,0.4-0.7s0.5-0.3,0.7-0.2c0.3,0,0.5,0.1,0.7,0.3c0.2,0.2,0.2,0.4,0.2,0.7
		c0,0.1,0,0.2-0.1,0.3c0,0.2-0.1,0.3-0.1,0.3c0,0.1,0,0.2,0.1,0.2h7.3c0.3,0,0.5,0.1,0.8,0.3c0.2,0.2,0.3,0.5,0.3,0.8
		c-0.1,3.9-1.1,6.9-2.9,8.9c-1.9,2-4.8,3.2-8.8,3.6c-0.3,0-0.5,0-0.7-0.2s-0.3-0.4-0.4-0.6c0-0.2,0-0.5,0.2-0.7s0.3-0.3,0.6-0.3
		c3.3-0.4,5.8-1.4,7.3-2.9s2.4-3.8,2.6-6.9c0-0.1-0.1-0.2-0.2-0.2h-6.6c-0.1,0-0.2,0.1-0.2,0.2C203.8,117,202.8,118.6,201.4,120.1z"
		/>
</g>
<g>
	<path class="st0" d="M50.2,137.9l-2.6,4.9c-0.3,0.1-0.5,0.1-0.9,0l-2.6-5v7.4c-0.3,0.1-0.8,0.1-1.1,0v-9.3c0.4-0.1,0.9-0.1,1.2,0
		l3,5.6l3-5.6c0.3-0.1,0.9-0.1,1.2,0v9.3c-0.3,0.1-0.8,0.1-1.1,0V137.9z"/>
	<path class="st0" d="M55.1,136.5c-0.3,0.1-0.9,0.1-1.2,0l0-1.1c0.4-0.1,0.9-0.1,1.3,0L55.1,136.5z M54,138.1c0.3-0.1,0.8-0.1,1.1,0
		v7.1c-0.3,0.1-0.8,0.1-1.1,0V138.1z"/>
	<path class="st0" d="M62,143.5c0,1.3-1,1.9-2.5,1.9c-0.7,0-1.5-0.1-2.2-0.2c-0.1-0.3-0.1-0.7,0-0.9c0.7,0.1,1.4,0.2,2.1,0.2
		c0.7,0,1.5-0.1,1.5-1v-0.3c0-0.6-0.3-0.7-0.8-0.9l-1.5-0.4c-0.9-0.3-1.4-0.7-1.4-1.6v-0.5c0-1.3,1-1.8,2.7-1.8c0.6,0,1.2,0,2,0.2
		c0.1,0.3,0.1,0.6,0,0.9c-0.8-0.2-1.3-0.2-1.9-0.2c-0.9,0-1.7,0.1-1.7,1v0.3c0,0.5,0.3,0.7,0.8,0.8l1.4,0.4c1,0.3,1.4,0.7,1.4,1.6
		V143.5z"/>
	<path class="st0" d="M68.2,144.3L68.2,144.3c-0.3,0.8-1.2,1.1-2.4,1.1c-1.4,0-2.4-0.6-2.4-2.1c0-1.8,1.1-2.2,2.7-2.2
		c0.7,0,1.2,0.1,2,0.2v-1c0-0.9-0.4-1.4-2-1.4c-0.6,0-1.3,0.1-2.1,0.2c-0.1-0.3-0.1-0.7,0-0.9c0.8-0.2,1.6-0.2,2.4-0.2
		c1.8,0,2.8,0.7,2.8,2v5.4c-0.3,0.1-0.6,0.1-0.9,0L68.2,144.3z M68.1,142.1c-0.6-0.1-1.2-0.2-1.8-0.2c-1.2,0-1.8,0.2-1.8,1.3
		c0,1.1,0.8,1.2,1.6,1.2c1.2,0,1.6-0.3,2-1.1V142.1z"/>
	<path class="st0" d="M75.8,139.6l-1.7,5.6c-0.3,0.1-0.9,0.1-1.2,0l-2.2-7.1c0.3-0.1,0.8-0.1,1.1,0l1.8,5.9l1.7-5.9
		c0.3-0.1,0.8-0.1,1.1,0l1.8,5.9l1.8-5.9c0.4-0.1,0.8-0.1,1.1,0l-2.2,7.1c-0.3,0.1-0.9,0.1-1.2,0L75.8,139.6z"/>
	<path class="st0" d="M86.7,144.3L86.7,144.3c-0.3,0.8-1.2,1.1-2.4,1.1c-1.4,0-2.4-0.6-2.4-2.1c0-1.8,1.1-2.2,2.7-2.2
		c0.7,0,1.2,0.1,2,0.2v-1c0-0.9-0.4-1.4-2-1.4c-0.6,0-1.3,0.1-2.1,0.2c-0.1-0.3-0.1-0.7,0-0.9c0.8-0.2,1.6-0.2,2.4-0.2
		c1.8,0,2.8,0.7,2.8,2v5.4c-0.3,0.1-0.6,0.1-0.9,0L86.7,144.3z M86.6,142.1c-0.6-0.1-1.2-0.2-1.8-0.2c-1.2,0-1.8,0.2-1.8,1.3
		c0,1.1,0.8,1.2,1.6,1.2c1.2,0,1.6-0.3,2-1.1V142.1z"/>
	<path class="st0" d="M100.6,137.9l-2.6,4.9c-0.3,0.1-0.5,0.1-0.9,0l-2.6-5v7.4c-0.3,0.1-0.8,0.1-1.1,0v-9.3c0.4-0.1,0.9-0.1,1.2,0
		l3,5.6l3-5.6c0.3-0.1,0.9-0.1,1.2,0v9.3c-0.3,0.1-0.8,0.1-1.1,0V137.9z"/>
	<path class="st0" d="M109.7,142c-1.1,0.1-3.2,0.1-4.5,0v1c0,1.2,0.8,1.4,2,1.4c0.9,0,1.5-0.1,2.3-0.2c0.1,0.3,0.1,0.7,0,1
		c-0.9,0.2-1.6,0.3-2.4,0.3c-1.8,0-2.9-0.6-2.9-2.2v-3.1c0-1.6,1.1-2.2,2.8-2.2c1.8,0,2.8,0.7,2.8,2.4V142z M108.6,140.3
		c0-1.2-0.8-1.4-1.7-1.4c-0.9,0-1.7,0.2-1.7,1.4v1l1.2-0.1h2.2V140.3z"/>
	<path class="st0" d="M116.7,140.4c0-1.3-0.8-1.5-1.7-1.5c-1.3,0-1.7,0.3-2,1.2v5.1c-0.3,0.1-0.8,0.1-1.1,0v-7.1
		c0.3-0.1,0.6-0.1,0.9,0l0.1,1h0.1c0.2-0.8,1.1-1.1,2.4-1.1c1.4,0,2.4,0.5,2.4,2v5.2c-0.3,0.1-0.8,0.1-1.1,0V140.4z"/>
	<path class="st0" d="M120.5,139.1h-1.2c-0.1-0.3-0.1-0.6,0-0.9l1.2-0.1v-1.9c0.3-0.1,0.8-0.1,1.1,0v1.9h2.3c0.1,0.2,0.1,0.7,0,0.9
		h-2.3v3.9c0,1.4,0.7,1.5,1.3,1.5c0.4,0,0.7,0,1-0.1c0.1,0.3,0.1,0.7,0,1c-0.4,0.1-0.8,0.1-1.3,0.1c-1.1,0-2.1-0.4-2.1-2.2V139.1z"
		/>
	<path class="st0" d="M129.8,144.3L129.8,144.3c-0.3,0.8-1.2,1.1-2.4,1.1c-1.4,0-2.4-0.6-2.4-2.1c0-1.8,1.1-2.2,2.7-2.2
		c0.7,0,1.2,0.1,2,0.2v-1c0-0.9-0.4-1.4-2-1.4c-0.6,0-1.3,0.1-2.1,0.2c-0.1-0.3-0.1-0.7,0-0.9c0.8-0.2,1.6-0.2,2.4-0.2
		c1.8,0,2.8,0.7,2.8,2v5.4c-0.3,0.1-0.6,0.1-0.9,0L129.8,144.3z M129.7,142.1c-0.6-0.1-1.2-0.2-1.8-0.2c-1.2,0-1.8,0.2-1.8,1.3
		c0,1.1,0.8,1.2,1.6,1.2c1.2,0,1.6-0.3,2-1.1V142.1z"/>
	<path class="st0" d="M133.2,135.1c0.3-0.1,0.8-0.1,1.1,0v10.1c-0.3,0.1-0.8,0.1-1.1,0V135.1z"/>
	<path class="st0" d="M139.9,138.3c0-1.9,1.3-2.6,3.5-2.6c0.8,0,1.7,0.1,2.5,0.2c0.1,0.3,0.1,0.7,0,0.9c-0.8-0.1-1.5-0.2-2.3-0.2
		c-1.4,0-2.5,0.2-2.5,1.8v4.2c0,1.6,1.1,1.8,2.5,1.8c1,0,1.7-0.2,2.4-0.4c0.1,0.3,0.1,0.6,0.1,0.9c-0.9,0.3-1.8,0.5-2.7,0.5
		c-2.1,0-3.5-0.6-3.5-2.6V138.3z"/>
	<path class="st0" d="M148.1,135.1c0.3-0.1,0.8-0.1,1.1,0v10.1c-0.3,0.1-0.8,0.1-1.1,0V135.1z"/>
	<path class="st0" d="M153.1,136.5c-0.3,0.1-0.9,0.1-1.2,0l0-1.1c0.4-0.1,0.9-0.1,1.3,0L153.1,136.5z M152,138.1
		c0.3-0.1,0.8-0.1,1.1,0v7.1c-0.3,0.1-0.8,0.1-1.1,0V138.1z"/>
	<path class="st0" d="M160.5,140.4c0-1.3-0.8-1.5-1.7-1.5c-1.3,0-1.7,0.3-2,1.2v5.1c-0.3,0.1-0.8,0.1-1.1,0v-7.1
		c0.3-0.1,0.6-0.1,0.9,0l0.1,1h0.1c0.2-0.8,1.1-1.1,2.4-1.1c1.4,0,2.4,0.5,2.4,2v5.2c-0.3,0.1-0.8,0.1-1.1,0V140.4z"/>
	<path class="st0" d="M165.3,136.5c-0.3,0.1-0.9,0.1-1.2,0l0-1.1c0.4-0.1,0.9-0.1,1.3,0L165.3,136.5z M164.2,138.1
		c0.3-0.1,0.8-0.1,1.1,0v7.1c-0.3,0.1-0.8,0.1-1.1,0V138.1z"/>
	<path class="st0" d="M167.7,140.1c0-1.6,1.1-2.1,2.7-2.1c0.7,0,1.4,0,2.1,0.2c0.1,0.3,0.1,0.7,0,0.9c-0.7-0.1-1.2-0.2-2-0.2
		c-0.9,0-1.8,0.2-1.8,1.4v2.7c0,1.2,0.9,1.4,1.8,1.4c0.8,0,1.3-0.1,2-0.2c0.1,0.3,0.1,0.7,0,0.9c-0.8,0.2-1.4,0.3-2.1,0.3
		c-1.7,0-2.7-0.6-2.7-2.1V140.1z"/>
</g>
</svg>
