<?xml version="1.0" encoding="utf-8"?>
<!-- Generator: Adobe Illustrator 26.0.1, SVG Export Plug-In . SVG Version: 6.00 Build 0)  -->
<svg version="1.1" id="レイヤー_1" xmlns="http://www.w3.org/2000/svg" xmlns:xlink="http://www.w3.org/1999/xlink" x="0px"
	 y="0px" viewBox="0 0 607 156" style="enable-background:new 0 0 607 156;" xml:space="preserve">
<style type="text/css">
	.st0{fill:#126050;}
	.st1{fill:#565757;}
</style>
<g>
	<path class="st0" d="M16.7,70.7l0.2-0.9l5.9-1.5l-5.1-3.5l0.2-0.9l6.7,1.2l-0.2,0.9l-5-0.9l4.6,3.1l-0.1,0.6l-5.4,1.3l5,0.9
		l-0.2,0.9L16.7,70.7z"/>
	<path class="st0" d="M19.4,58.9l0.3-0.8l6.5,2.2l-0.3,0.8L19.4,58.9z"/>
	<path class="st0" d="M28.6,54.4c-0.6,1.2-1.7,1.8-2.7,1.3l0.4-0.9c0.5,0.2,1.2,0.1,1.6-0.8c0.4-0.8,0.1-1.4-0.4-1.7
		c-1.7-0.8-2.2,3-4.5,2c-1-0.5-1.3-1.6-0.7-2.9c0.6-1.2,1.6-1.6,2.6-1.3L24.4,51c-0.4-0.1-1.1,0-1.5,0.8c-0.3,0.7-0.2,1.3,0.4,1.7
		c1.6,0.8,2.2-3,4.5-1.9C28.7,51.9,29.2,53,28.6,54.4z"/>
	<path class="st0" d="M32.5,44.6l-1.7,2.5l0.9,1.3l-0.5,0.8l-4.2-5.9l0.6-0.8l7,1.8L34.1,45L32.5,44.6z M28.2,43.5l2.1,3l1.4-2
		L28.2,43.5z"/>
	<path class="st0" d="M31.7,36.9l0.7-0.7l5.1,3.1L34.6,34l0.7-0.7l5.2,3l-3-5.2l0.7-0.7l3.4,6.2l-0.7,0.7l-5-2.8l2.7,5.1l-0.7,0.7
		L31.7,36.9z"/>
	<path class="st0" d="M48.4,29.8l-2.5,1.6l0.4,1.6l-0.8,0.5l-1.7-7l0.9-0.6l5.8,4.3l-0.8,0.5L48.4,29.8z M44.8,27.1l0.9,3.5l2-1.4
		L44.8,27.1z"/>
	<path class="st0" d="M56.5,19.7l0.9-0.3l4.1,4.6l0.7-6.1l0.9-0.3l2.1,6.4l-0.8,0.3l-1.6-4.8L62.2,25l-0.6,0.2l-3.7-4.1l1.6,4.8
		l-0.8,0.3L56.5,19.7z"/>
	<path class="st0" d="M72,16.7l-2.7,0.4l0.3,2.3L72,19l0.1,0.7l-2.5,0.4l0.3,2.3l2.7-0.4l0.1,0.7l-3.6,0.5l-1-6.7l3.6-0.5L72,16.7z"
		/>
	<path class="st0" d="M82.2,15.6l0,6.8l-0.9,0l-3.5-5.4l0,5.4l-0.9,0l0-6.8l0.9,0l3.5,5.4l0-5.4L82.2,15.6z"/>
	<path class="st0" d="M87.1,16l4.6,0.8l-0.1,0.7l-1.8-0.3l-1,6L87.8,23l1-6l-1.8-0.3L87.1,16z"/>
	<path class="st0" d="M98.5,24.2l-2.8-0.9l-1,1.3l-0.9-0.3l4.4-5.7l1,0.3l0.2,7.2l-0.9-0.3L98.5,24.2z M98.4,19.8l-2.2,2.9l2.3,0.8
		L98.4,19.8z"/>
	<path class="st0" d="M106.7,21.9l-2.7,5.5l2.1,1.1l-0.3,0.6l-2.9-1.5l3-6.1L106.7,21.9z"/>
	<path class="st0" d="M120.2,30.6c1.1,1,1.5,2.3,1.1,3.6l-0.8-0.7c0.3-0.9,0-1.7-0.8-2.3c-1.1-0.9-2.6-0.8-3.7,0.4
		c-1.1,1.3-0.9,2.7,0.1,3.7c0.8,0.6,1.6,0.8,2.4,0.4l0.8,0.7c-1.2,0.7-2.6,0.5-3.7-0.5c-1.4-1.2-1.7-3.3-0.3-4.9
		C116.7,29.5,118.7,29.4,120.2,30.6z"/>
	<path class="st0" d="M126.6,37l-4.6,4l1.6,1.8l-0.5,0.5l-2.1-2.5l5.2-4.5L126.6,37z"/>
	<path class="st0" d="M130.8,42.4l0.5,0.7l-5.6,3.9l-0.5-0.7L130.8,42.4z"/>
	<path class="st0" d="M136.5,52.2l-6.1,3.1l-0.4-0.8l3.2-5.7l-4.8,2.5l-0.4-0.8l6.1-3.1l0.4,0.8l-3.2,5.6l4.8-2.5L136.5,52.2z"/>
	<path class="st0" d="M138.3,56.9l0.3,0.8l-6.4,2.3l-0.3-0.8L138.3,56.9z"/>
	<path class="st0" d="M140.9,65.7c0.3,1.4-0.2,2.7-1.4,3.5l-0.2-1c0.7-0.5,1-1.3,0.8-2.3c-0.3-1.4-1.5-2.2-3.2-1.9
		c-1.6,0.3-2.4,1.6-2.1,3c0.2,1,0.8,1.6,1.7,1.8l0.2,1c-1.4-0.2-2.3-1.2-2.7-2.7c-0.4-1.9,0.7-3.6,2.7-4.1
		C138.8,62.6,140.5,63.8,140.9,65.7z"/>
</g>
<g>
	<path class="st0" d="M141.5,87.8l-0.2,0.9l-6,1.3l5,3.6l-0.2,0.9l-6.6-1.4l0.2-0.9l4.9,1l-4.5-3.2l0.1-0.6l5.4-1.2l-4.9-1l0.2-0.9
		L141.5,87.8z"/>
	<path class="st0" d="M138.5,99.5l-0.3,0.8l-6.4-2.3l0.3-0.8L138.5,99.5z"/>
	<path class="st0" d="M129.2,103.9c0.6-1.2,1.7-1.7,2.7-1.3l-0.4,0.8c-0.5-0.2-1.2-0.1-1.6,0.7c-0.4,0.8-0.2,1.4,0.4,1.7
		c1.6,0.8,2.3-3,4.5-1.8c1,0.5,1.3,1.7,0.7,2.9c-0.6,1.2-1.6,1.6-2.6,1.2l0.4-0.9c0.4,0.2,1.1,0,1.5-0.7c0.3-0.6,0.3-1.3-0.4-1.7
		c-1.6-0.8-2.3,3-4.5,1.8C129,106.3,128.5,105.2,129.2,103.9z"/>
	<path class="st0" d="M125,113.5l1.7-2.4l-0.9-1.3l0.5-0.8l4.1,6l-0.6,0.8l-6.9-2l0.5-0.8L125,113.5z M129.3,114.7l-2.1-3l-1.4,2
		L129.3,114.7z"/>
	<path class="st0" d="M125.7,121.2l-0.7,0.7l-5.1-3.2l2.8,5.3l-0.7,0.7l-5.1-3.1l2.9,5.2l-0.7,0.7l-3.2-6.3l0.7-0.7l4.9,2.9
		l-2.6-5.1l0.7-0.7L125.7,121.2z"/>
	<path class="st0" d="M108.8,128l2.5-1.6l-0.3-1.6l0.8-0.5l1.5,7l-0.9,0.6l-5.7-4.4l0.8-0.5L108.8,128z M112.3,130.7l-0.8-3.6
		l-2.1,1.3L112.3,130.7z"/>
	<path class="st0" d="M100.5,137.8l-0.9,0.3l-4-4.7l-0.8,6.1l-0.9,0.3l-1.9-6.5l0.9-0.3l1.4,4.8l0.7-5.5l0.6-0.2l3.6,4.2l-1.4-4.9
		l0.9-0.3L100.5,137.8z"/>
	<path class="st0" d="M85,140.5l2.8-0.3l-0.3-2.3l-2.5,0.3l-0.1-0.7l2.5-0.3l-0.3-2.3l-2.8,0.3l-0.1-0.7l3.6-0.5l0.8,6.8l-3.6,0.5
		L85,140.5z"/>
	<path class="st0" d="M74.7,141.4l0.2-6.8l0.9,0l3.4,5.5l0.2-5.4l0.9,0l-0.2,6.8l-0.9,0l-3.4-5.5l-0.2,5.4L74.7,141.4z"/>
	<path class="st0" d="M69.9,140.8l-4.5-0.9l0.1-0.7l1.8,0.3l1.1-6l0.9,0.2l-1.1,6l1.8,0.3L69.9,140.8z"/>
	<path class="st0" d="M58.6,132.4l2.8,1l1-1.2l0.9,0.3l-4.6,5.6l-1-0.3l-0.1-7.2l0.9,0.3L58.6,132.4z M58.6,136.8l2.3-2.8l-2.3-0.8
		L58.6,136.8z"/>
	<path class="st0" d="M50.4,134.5l2.8-5.4l-2.1-1.1l0.3-0.6l2.9,1.5l-3.2,6L50.4,134.5z"/>
	<path class="st0" d="M37.1,125.4c-1.1-1-1.5-2.3-1-3.6l0.8,0.7c-0.3,0.9,0,1.7,0.7,2.4c1.1,1,2.5,0.9,3.7-0.4
		c1.1-1.2,1-2.7-0.1-3.7c-0.7-0.7-1.6-0.8-2.4-0.5l-0.8-0.7c1.3-0.6,2.6-0.4,3.7,0.6c1.4,1.3,1.6,3.3,0.2,4.9
		C40.6,126.6,38.5,126.7,37.1,125.4z"/>
	<path class="st0" d="M30.9,118.8l4.7-3.9l-1.5-1.8l0.6-0.5l2.1,2.5l-5.3,4.3L30.9,118.8z"/>
	<path class="st0" d="M26.8,113.4l-0.5-0.7l5.7-3.7l0.5,0.7L26.8,113.4z"/>
	<path class="st0" d="M21.3,103.4l6.1-3l0.4,0.8l-3.3,5.6l4.9-2.3l0.4,0.8l-6.1,3l-0.4-0.8l3.3-5.6l-4.9,2.3L21.3,103.4z"/>
	<path class="st0" d="M19.6,98.6l-0.3-0.8l6.5-2.1l0.3,0.8L19.6,98.6z"/>
	<path class="st0" d="M17.2,89.9c-0.3-1.5,0.2-2.7,1.5-3.5l0.2,1.1c-0.7,0.5-1.1,1.3-0.9,2.3c0.3,1.4,1.5,2.3,3.1,2
		c1.6-0.3,2.5-1.5,2.2-2.9c-0.2-1-0.8-1.6-1.6-1.8l-0.2-1c1.4,0.3,2.3,1.3,2.6,2.7c0.4,1.9-0.8,3.6-2.8,4
		C19.2,92.9,17.5,91.7,17.2,89.9z"/>
</g>
<path class="st0" d="M79.2,155.3c-42.4,0-76.8-34.5-76.8-76.8S36.8,1.7,79.2,1.7S156,36.1,156,78.5S121.6,155.3,79.2,155.3z
	 M79.2,7.1c-39.4,0-71.4,32-71.4,71.4s32,71.4,71.4,71.4s71.4-32,71.4-71.4S118.6,7.1,79.2,7.1z"/>
<path class="st0" d="M79.4,44.3c-5.6-2.4-12.2,0.2-14.7,6c-0.6,1.4-0.9,2.8-1,4.2c-0.1-3.8-2.3-7.4-6.1-9.1
	c-5.2-2.3-11.2,0.1-13.4,5.2c-0.3,0.6-0.5,1.2-0.6,1.8c0,0,0,0,0,0c0,0,0,0,0,0c0,0,0,0,0,0c-1.3,5,0.9,9.5,2.1,11.5
	c1.2,2.1,5.2,7.4,5.8,8.4c0.6,0.9,3.1,4.4,3.1,8.5c2.1-4.1-1.1-9.2-1.1-9.2c-0.4-0.7-2.7-4.2-2.9-4.5c-0.1-0.2-0.6-1-1.1-1.8
	c-1.4-2.4-1.3-4.1-1.1-5.3c0.5-2.6,2.1-4.9,4.6-5.9c3.1-1.3,6.6-0.3,8.9,2.2c0.5,0.5,0.9,1.1,1.2,1.7c0.2,0.3,0.4,0.7,0.5,1.1
	c0.1,0.2,0.1,0.3,0.2,0.5c0.1-0.3,0.3-0.6,0.5-0.9c0.2-0.4,0.5-0.8,0.7-1.1c0.4-0.5,0.8-1,1.2-1.4c3.4-3.3,8.3-4.1,11.7-1.6
	c2.9,2.1,3.8,6,2.7,9.7c1.8-1.2,3.3-2.9,4.2-5C87.4,53.4,84.9,46.8,79.4,44.3z"/>
<path class="st0" d="M104.6,104.1c1.4-3.9,2.9-7.8,4.3-11.8c2-5.5,4.4-10.9,5.6-16.7c0.4-2.2,0.7-4.4-0.1-6.6
	c-0.6-1.7-1.9-2.6-3.5-2.4c-0.8,0.1-1.6,0.5-2.3,1c-2.8,1.9-4.7,4.6-6.5,7.3c-4.9,7.2-8.7,14.9-12.6,22.7c-0.1,0.3-0.3,0.5-0.4,0.8
	c0-0.4,0.1-0.7,0.2-1c2.4-6.4,4.9-12.7,7.2-19.1c1.1-3.1,1.8-6.4,1.2-9.8c-0.9-4.4-4.4-5.9-7.9-3.4c-0.9,0.7-1.8,1.4-2.6,2.2
	c-3.1,3.4-5.6,7.3-7.7,11.4c-3.4,6.2-6.6,12.6-9.9,18.8c-0.2,0.3-0.3,0.6-0.5,0.9c-0.1,0-0.2-0.1-0.2-0.1c0.5-1.3,1-2.6,1.5-3.9
	c2.4-6.6,5.1-13.2,6.8-20.1c0.8-3.2,1.1-6.4,0.1-9.6c-1.3-4-4.7-5.2-8-2.6c-1.4,1.1-2.6,2.4-3.7,3.8l0,0L65.3,66
	c-0.1,0.1-0.2,0.2-0.3,0.3c-0.8,1.1-1.5,2.2-2.2,3.4L56,79.8c0,0,0.7-0.3,1.7-0.8c1.9-1,5-3.1,7.8-6.7c0-0.1,0.1-0.1,0.1-0.2
	c0.1-0.1,0.2-0.2,0.3-0.3c0.6-0.8,1.3-1.7,1.9-2.5c0.3-0.4,1.2-0.6,1.6-0.5c0.4,0.1,0.8,0.9,0.8,1.4c-0.1,1.5-0.1,3.1-0.5,4.6
	c-3.1,9.8-6.2,19.5-9.3,29.3c-1,3-1.9,6.1-2.9,9c1.9,0,3.7,0,5.5,0c0.8,0,1.3-0.4,1.7-1.2c3.8-7.2,7.6-14.4,11.5-21.5
	c3-5.4,6.1-10.7,9.3-16c0.6-1.1,1.6-2.1,2.5-2.8c1.4-1.1,3.2-0.4,3.3,1.4c0,1.4-0.3,2.8-0.7,4.1c-2.8,8.2-5.7,16.4-8.5,24.6
	c-1.2,3.5-2.4,7-3.6,10.3c1.6,0,3.2,0,4.8,0c0.3,0,0.8-0.4,1-0.7c2.3-4.1,4.4-8.4,6.7-12.5c3.7-6.6,7.4-13.1,11.3-19.6
	c1.1-1.8,2.7-3.4,4.1-5.1c0.5-0.6,1.3-1.1,2-0.7c0.5,0.4,0.8,1.3,0.9,1.9c0,0.9-0.2,1.8-0.5,2.6c-1.5,4.3-3.2,8.6-4.7,12.9
	c-1.6,4.5-3.3,9-4.8,13.6c-0.6,1.8-0.8,3.7,0,5.5c0.6,1.2,1.5,2,2.9,1.9c1.7-0.1,3-1.1,4-2.3c3-3.3,5-7.2,7.3-11.1
	c-0.5-0.4-1-0.8-1.4-1.1c-1.5,2.4-3,4.7-4.5,6.9c-0.5,0.8-1.2,1.4-1.9,2c-0.3,0.2-0.8,0.4-1.1,0.2c-0.2-0.1-0.4-0.7-0.3-1.1
	C104.3,105,104.4,104.5,104.6,104.1z"/>
<g>
	<path class="st0" d="M913.5-21.2l0.2-0.9l5.9-1.5l-5.1-3.5l0.2-0.9l6.7,1.2l-0.2,0.9l-5-0.9l4.6,3.1l-0.1,0.6l-5.4,1.3l5,0.9
		l-0.2,0.9L913.5-21.2z"/>
	<path class="st0" d="M916.2-32.9l0.3-0.8l6.5,2.2l-0.3,0.8L916.2-32.9z"/>
	<path class="st0" d="M925.4-37.5c-0.6,1.2-1.7,1.8-2.7,1.3l0.4-0.9c0.5,0.2,1.2,0.1,1.6-0.8c0.4-0.8,0.1-1.4-0.4-1.7
		c-1.7-0.8-2.2,3-4.5,2c-1-0.5-1.3-1.6-0.7-2.9c0.6-1.2,1.6-1.6,2.6-1.3l-0.4,0.9c-0.4-0.1-1.1,0-1.5,0.8c-0.3,0.7-0.2,1.3,0.4,1.7
		c1.6,0.8,2.2-3,4.5-1.9C925.5-39.9,926.1-38.8,925.4-37.5z"/>
	<path class="st0" d="M929.3-47.2l-1.7,2.5l0.9,1.3l-0.5,0.8l-4.2-5.9l0.6-0.8l7,1.8l-0.5,0.8L929.3-47.2z M925.1-48.3l2.1,3l1.4-2
		L925.1-48.3z"/>
	<path class="st0" d="M928.5-54.9l0.7-0.7l5.1,3.1l-2.9-5.3l0.7-0.7l5.2,3l-3-5.2l0.7-0.7l3.4,6.2l-0.7,0.7l-5-2.8l2.7,5.1l-0.7,0.7
		L928.5-54.9z"/>
	<path class="st0" d="M945.2-62.1l-2.5,1.6l0.4,1.6l-0.8,0.5l-1.7-7l0.9-0.6l5.8,4.3l-0.8,0.5L945.2-62.1z M941.7-64.7l0.9,3.5
		l2-1.4L941.7-64.7z"/>
	<path class="st0" d="M953.3-72.1l0.9-0.3l4.1,4.6l0.7-6.1l0.9-0.3l2.1,6.4l-0.8,0.3l-1.6-4.8l-0.6,5.5l-0.6,0.2l-3.7-4.1l1.6,4.8
		l-0.8,0.3L953.3-72.1z"/>
	<path class="st0" d="M968.8-75.2l-2.7,0.4l0.3,2.3l2.5-0.4l0.1,0.7l-2.5,0.4l0.3,2.3l2.7-0.4l0.1,0.7l-3.6,0.5l-1-6.7l3.6-0.5
		L968.8-75.2z"/>
	<path class="st0" d="M979.1-76.3l0,6.8l-0.9,0l-3.5-5.4l0,5.4l-0.9,0l0-6.8l0.9,0l3.5,5.4l0-5.4L979.1-76.3z"/>
	<path class="st0" d="M983.9-75.8l4.6,0.8l-0.1,0.7l-1.8-0.3l-1,6l-0.9-0.1l1-6l-1.8-0.3L983.9-75.8z"/>
	<path class="st0" d="M995.3-67.7l-2.8-0.9l-1,1.3l-0.9-0.3l4.4-5.7l1,0.3l0.2,7.2l-0.9-0.3L995.3-67.7z M995.2-72.1l-2.2,2.9
		l2.3,0.8L995.2-72.1z"/>
	<path class="st0" d="M1003.5-69.9l-2.7,5.5l2.1,1.1l-0.3,0.6l-2.9-1.5l3-6.1L1003.5-69.9z"/>
	<path class="st0" d="M1017-61.2c1.1,1,1.5,2.3,1.1,3.6l-0.8-0.7c0.3-0.9,0-1.7-0.8-2.3c-1.1-0.9-2.6-0.8-3.7,0.4
		c-1.1,1.3-0.9,2.7,0.1,3.7c0.8,0.6,1.6,0.8,2.4,0.4l0.8,0.7c-1.2,0.7-2.6,0.5-3.7-0.5c-1.4-1.2-1.7-3.3-0.3-4.9
		C1013.5-62.3,1015.6-62.4,1017-61.2z"/>
	<path class="st0" d="M1023.4-54.8l-4.6,4l1.6,1.8l-0.5,0.5l-2.1-2.5l5.2-4.5L1023.4-54.8z"/>
	<path class="st0" d="M1027.6-49.4l0.5,0.7l-5.6,3.9l-0.5-0.7L1027.6-49.4z"/>
	<path class="st0" d="M1033.3-39.6l-6.1,3.1l-0.4-0.8l3.2-5.7l-4.8,2.5l-0.4-0.8l6.1-3.1l0.4,0.8l-3.2,5.6l4.8-2.5L1033.3-39.6z"/>
	<path class="st0" d="M1035.1-34.9l0.3,0.8l-6.4,2.3l-0.3-0.8L1035.1-34.9z"/>
	<path class="st0" d="M1037.7-26.1c0.3,1.4-0.2,2.7-1.4,3.5l-0.2-1c0.7-0.5,1-1.3,0.8-2.3c-0.3-1.4-1.5-2.2-3.2-1.9
		c-1.6,0.3-2.4,1.6-2.1,3c0.2,1,0.8,1.6,1.7,1.8l0.2,1c-1.4-0.2-2.3-1.2-2.7-2.7c-0.4-1.9,0.7-3.6,2.7-4.1S1037.3-28,1037.7-26.1z"
		/>
</g>
<g>
	<path class="st0" d="M1038.3-4l-0.2,0.9l-6,1.3l5,3.6l-0.2,0.9l-6.6-1.4l0.2-0.9l4.9,1l-4.5-3.2l0.1-0.6l5.4-1.2l-4.9-1l0.2-0.9
		L1038.3-4z"/>
	<path class="st0" d="M1035.4,7.7l-0.3,0.8l-6.4-2.3l0.3-0.8L1035.4,7.7z"/>
	<path class="st0" d="M1026,12c0.6-1.2,1.7-1.7,2.7-1.3l-0.4,0.8c-0.5-0.2-1.2-0.1-1.6,0.7c-0.4,0.8-0.2,1.4,0.4,1.7
		c1.6,0.8,2.3-3,4.5-1.8c1,0.5,1.3,1.7,0.7,2.9c-0.6,1.2-1.6,1.6-2.6,1.2l0.4-0.9c0.4,0.2,1.1,0,1.5-0.7c0.3-0.6,0.3-1.3-0.4-1.7
		c-1.6-0.8-2.3,3-4.5,1.8C1025.8,14.5,1025.3,13.3,1026,12z"/>
	<path class="st0" d="M1021.9,21.7l1.7-2.4l-0.9-1.3l0.5-0.8l4.1,6l-0.6,0.8l-6.9-2l0.5-0.8L1021.9,21.7z M1026.1,22.9l-2.1-3
		l-1.4,2L1026.1,22.9z"/>
	<path class="st0" d="M1022.5,29.4l-0.7,0.7l-5.1-3.2l2.8,5.3l-0.7,0.7l-5.1-3.1l2.9,5.2l-0.7,0.7l-3.2-6.3l0.7-0.7l4.9,2.9
		l-2.6-5.1l0.7-0.7L1022.5,29.4z"/>
	<path class="st0" d="M1005.7,36.1l2.5-1.6l-0.3-1.6l0.8-0.5l1.5,7l-0.9,0.6l-5.7-4.4l0.8-0.5L1005.7,36.1z M1009.1,38.9l-0.8-3.6
		l-2.1,1.3L1009.1,38.9z"/>
	<path class="st0" d="M997.3,46l-0.9,0.3l-4-4.7l-0.8,6.1l-0.9,0.3l-1.9-6.5l0.9-0.3L991,46l0.7-5.5l0.6-0.2l3.6,4.2l-1.4-4.9
		l0.9-0.3L997.3,46z"/>
	<path class="st0" d="M981.8,48.7l2.8-0.3l-0.3-2.3l-2.5,0.3l-0.1-0.7l2.5-0.3l-0.3-2.3l-2.8,0.3l-0.1-0.7l3.6-0.5l0.8,6.8l-3.6,0.5
		L981.8,48.7z"/>
	<path class="st0" d="M971.5,49.5l0.2-6.8l0.9,0l3.4,5.5l0.2-5.4l0.9,0l-0.2,6.8l-0.9,0l-3.4-5.5l-0.2,5.4L971.5,49.5z"/>
	<path class="st0" d="M966.7,49l-4.5-0.9l0.1-0.7l1.8,0.3l1.1-6l0.9,0.2l-1.1,6l1.8,0.3L966.7,49z"/>
	<path class="st0" d="M955.4,40.5l2.8,1l1-1.2l0.9,0.3l-4.6,5.6l-1-0.3l-0.1-7.2l0.9,0.3L955.4,40.5z M955.4,45l2.3-2.8l-2.3-0.8
		L955.4,45z"/>
	<path class="st0" d="M947.2,42.6l2.8-5.4l-2.1-1.1l0.3-0.6l2.9,1.5l-3.2,6L947.2,42.6z"/>
	<path class="st0" d="M933.9,33.6c-1.1-1-1.5-2.3-1-3.6l0.8,0.7c-0.3,0.9,0,1.7,0.7,2.4c1.1,1,2.5,0.9,3.7-0.4
		c1.1-1.2,1-2.7-0.1-3.7c-0.7-0.7-1.6-0.8-2.4-0.5l-0.8-0.7c1.3-0.6,2.6-0.4,3.7,0.6c1.4,1.3,1.6,3.3,0.2,4.9
		C937.4,34.8,935.3,34.8,933.9,33.6z"/>
	<path class="st0" d="M927.7,27l4.7-3.9l-1.5-1.8l0.6-0.5l2.1,2.5l-5.3,4.3L927.7,27z"/>
	<path class="st0" d="M923.6,21.5l-0.5-0.7l5.7-3.7l0.5,0.7L923.6,21.5z"/>
	<path class="st0" d="M918.1,11.6l6.1-3l0.4,0.8l-3.3,5.6l4.9-2.3l0.4,0.8l-6.1,3l-0.4-0.8l3.3-5.6l-4.9,2.3L918.1,11.6z"/>
	<path class="st0" d="M916.4,6.8L916.1,6l6.5-2.1l0.3,0.8L916.4,6.8z"/>
	<path class="st0" d="M914-2c-0.3-1.5,0.2-2.7,1.5-3.5l0.2,1.1c-0.7,0.5-1.1,1.3-0.9,2.3c0.3,1.4,1.5,2.3,3.1,2
		c1.6-0.3,2.5-1.5,2.2-2.9c-0.2-1-0.8-1.6-1.6-1.8l-0.2-1c1.4,0.3,2.3,1.3,2.6,2.7c0.4,1.9-0.8,3.6-2.8,4C916,1.1,914.3-0.1,914-2z"
		/>
</g>
<path class="st0" d="M976,63.5c-42.4,0-76.8-34.5-76.8-76.8s34.5-76.8,76.8-76.8c42.4,0,76.8,34.5,76.8,76.8S1018.4,63.5,976,63.5z
	 M976-84.7c-39.4,0-71.4,32-71.4,71.4s32,71.4,71.4,71.4c39.4,0,71.4-32,71.4-71.4S1015.4-84.7,976-84.7z"/>
<path class="st0" d="M976.2-47.5c-5.6-2.4-12.2,0.2-14.7,6c-0.6,1.4-0.9,2.8-1,4.2c-0.1-3.8-2.3-7.4-6.1-9.1
	c-5.2-2.3-11.2,0.1-13.4,5.2c-0.3,0.6-0.5,1.2-0.6,1.8c0,0,0,0,0,0c0,0,0,0,0,0c0,0,0,0,0,0c-1.3,5,0.9,9.5,2.1,11.5
	c1.2,2.1,5.2,7.4,5.8,8.4c0.6,0.9,3.1,4.4,3.1,8.5c2.1-4.1-1.1-9.2-1.1-9.2c-0.4-0.7-2.7-4.2-2.9-4.5c-0.1-0.2-0.6-1-1.1-1.8
	c-1.4-2.4-1.3-4.1-1.1-5.3c0.5-2.6,2.1-4.9,4.6-5.9c3.1-1.3,6.6-0.3,8.9,2.2c0.5,0.5,0.9,1.1,1.2,1.7c0.2,0.3,0.4,0.7,0.5,1.1
	c0.1,0.2,0.1,0.3,0.2,0.5c0.1-0.3,0.3-0.6,0.5-0.9c0.2-0.4,0.5-0.8,0.7-1.1c0.4-0.5,0.8-1,1.2-1.4c3.4-3.3,8.3-4.1,11.7-1.6
	c2.9,2.1,3.8,6,2.7,9.7c1.8-1.2,3.3-2.9,4.2-5C984.2-38.4,981.8-45,976.2-47.5z"/>
<path class="st0" d="M1001.4,12.2c1.4-3.9,2.9-7.8,4.3-11.8c2-5.5,4.4-10.9,5.6-16.7c0.4-2.2,0.7-4.4-0.1-6.6
	c-0.6-1.7-1.9-2.6-3.5-2.4c-0.8,0.1-1.6,0.5-2.3,1c-2.8,1.9-4.7,4.6-6.5,7.3c-4.9,7.2-8.7,14.9-12.6,22.7c-0.1,0.3-0.3,0.5-0.4,0.8
	c0-0.4,0.1-0.7,0.2-1c2.4-6.4,4.9-12.7,7.2-19.1c1.1-3.1,1.8-6.4,1.2-9.8c-0.9-4.4-4.4-5.9-7.9-3.4c-0.9,0.7-1.8,1.4-2.6,2.2
	c-3.1,3.4-5.6,7.3-7.7,11.4c-3.4,6.2-6.6,12.6-9.9,18.8c-0.2,0.3-0.3,0.6-0.5,0.9c-0.1,0-0.2-0.1-0.2-0.1c0.5-1.3,1-2.6,1.5-3.9
	c2.4-6.6,5.1-13.2,6.8-20.1c0.8-3.2,1.1-6.4,0.1-9.6c-1.3-4-4.7-5.2-8-2.6c-1.4,1.1-2.6,2.4-3.7,3.8l0,0l-0.2,0.2
	c-0.1,0.1-0.2,0.2-0.3,0.3c-0.8,1.1-1.5,2.2-2.2,3.4L952.8-12c0,0,0.7-0.3,1.7-0.8c1.9-1,5-3.1,7.8-6.7c0-0.1,0.1-0.1,0.1-0.2
	c0.1-0.1,0.2-0.2,0.3-0.3c0.6-0.8,1.3-1.7,1.9-2.5c0.3-0.4,1.2-0.6,1.6-0.5c0.4,0.1,0.8,0.9,0.8,1.4c-0.1,1.5-0.1,3.1-0.5,4.6
	c-3.1,9.8-6.2,19.5-9.3,29.3c-1,3-1.9,6.1-2.9,9c1.9,0,3.7,0,5.5,0c0.8,0,1.3-0.4,1.7-1.2c3.8-7.2,7.6-14.4,11.5-21.5
	c3-5.4,6.1-10.7,9.3-16c0.6-1.1,1.6-2.1,2.5-2.8c1.4-1.1,3.2-0.4,3.3,1.4c0,1.4-0.3,2.8-0.7,4.1c-2.8,8.2-5.7,16.4-8.5,24.6
	c-1.2,3.5-2.4,7-3.6,10.3c1.6,0,3.2,0,4.8,0c0.3,0,0.8-0.4,1-0.7c2.3-4.1,4.4-8.4,6.7-12.5c3.7-6.6,7.4-13.1,11.3-19.6
	c1.1-1.8,2.7-3.4,4.1-5.1c0.5-0.6,1.3-1.1,2-0.7c0.5,0.4,0.8,1.3,0.9,1.9c0,0.9-0.2,1.8-0.5,2.6c-1.5,4.3-3.2,8.6-4.7,12.9
	c-1.6,4.5-3.3,9-4.8,13.6c-0.6,1.8-0.8,3.7,0,5.5c0.6,1.2,1.5,2,2.9,1.9c1.7-0.1,3-1.1,4-2.3c3-3.3,5-7.2,7.3-11.1
	c-0.5-0.4-1-0.8-1.4-1.1c-1.5,2.4-3,4.7-4.5,6.9c-0.5,0.8-1.2,1.4-1.9,2c-0.3,0.2-0.8,0.4-1.1,0.2c-0.2-0.1-0.4-0.7-0.3-1.1
	C1001.1,13.2,1001.2,12.7,1001.4,12.2z"/>
<g>
	<g>
		<path class="st1" d="M295.3,110.2l-4.7,8.8c-0.5,0.1-1,0.1-1.5,0l-4.7-8.8v13.2c-0.6,0.1-1.4,0.1-2,0v-16.6c0.6-0.1,1.6-0.1,2.2,0
			l5.3,10l5.3-10c0.6-0.1,1.5-0.1,2.1,0v16.6c-0.6,0.1-1.4,0.1-2,0V110.2z"/>
		<path class="st1" d="M304.1,107.9c-0.6,0.1-1.5,0.1-2.1,0l-0.1-1.9c0.6-0.1,1.6-0.1,2.2,0L304.1,107.9z M302,110.7
			c0.6-0.1,1.4-0.1,1.9,0v12.6c-0.5,0.1-1.4,0.1-1.9,0V110.7z"/>
		<path class="st1" d="M316.3,120.3c0,2.4-1.8,3.3-4.4,3.3c-1.2,0-2.7-0.1-3.9-0.4c-0.1-0.5-0.1-1.2,0-1.7c1.3,0.3,2.6,0.4,3.7,0.4
			c1.3,0,2.7-0.2,2.7-1.8v-0.5c0-1-0.5-1.3-1.5-1.6l-2.6-0.7c-1.6-0.5-2.4-1.2-2.4-2.8v-1c0-2.3,1.8-3.2,4.8-3.2
			c1.1,0,2.1,0.1,3.5,0.4c0.1,0.5,0.1,1.1,0,1.6c-1.4-0.3-2.2-0.3-3.4-0.3c-1.6,0-3,0.2-3,1.8v0.5c0,0.9,0.6,1.2,1.5,1.5l2.5,0.7
			c1.7,0.4,2.5,1.2,2.5,2.9V120.3z"/>
		<path class="st1" d="M327.4,121.6h-0.1c-0.4,1.5-2,2-4.1,2c-2.4,0-4.2-1-4.2-3.7c0-3.3,2-4,4.8-4c1.2,0,2.2,0.1,3.6,0.3v-1.7
			c0-1.6-0.8-2.5-3.5-2.5c-1.1,0-2.4,0.1-3.8,0.3c-0.1-0.5-0.1-1.2,0-1.7c1.5-0.3,2.9-0.4,4.3-0.4c3.3,0,5,1.2,5,3.5v9.5
			c-0.5,0.1-1.1,0.1-1.6,0L327.4,121.6z M327.2,117.7c-1.1-0.2-2.2-0.3-3.2-0.3c-2.1,0-3.2,0.3-3.2,2.3c0,1.9,1.3,2.2,2.9,2.2
			c2.2,0,2.9-0.5,3.5-2V117.7z"/>
		<path class="st1" d="M340.8,113.4l-3,9.9c-0.6,0.1-1.6,0.1-2.2,0l-4-12.6c0.6-0.1,1.4-0.1,2,0l3.1,10.5l3.1-10.5
			c0.5-0.1,1.5-0.1,2,0l3.1,10.5l3.1-10.5c0.6-0.1,1.4-0.1,2,0l-4,12.6c-0.6,0.1-1.6,0.1-2.2,0L340.8,113.4z"/>
		<path class="st1" d="M360.3,121.6h-0.1c-0.4,1.5-2,2-4.1,2c-2.4,0-4.2-1-4.2-3.7c0-3.3,2-4,4.8-4c1.2,0,2.2,0.1,3.6,0.3v-1.7
			c0-1.6-0.8-2.5-3.5-2.5c-1.1,0-2.4,0.1-3.8,0.3c-0.1-0.5-0.1-1.2,0-1.7c1.5-0.3,2.9-0.4,4.3-0.4c3.3,0,5,1.2,5,3.5v9.5
			c-0.5,0.1-1.1,0.1-1.6,0L360.3,121.6z M360.2,117.7c-1.1-0.2-2.2-0.3-3.2-0.3c-2.1,0-3.2,0.3-3.2,2.3c0,1.9,1.3,2.2,2.9,2.2
			c2.2,0,2.9-0.5,3.5-2V117.7z"/>
		<path class="st1" d="M384.9,110.2l-4.7,8.8c-0.5,0.1-1,0.1-1.5,0l-4.7-8.8v13.2c-0.6,0.1-1.4,0.1-2,0v-16.6c0.6-0.1,1.6-0.1,2.2,0
			l5.3,10l5.3-10c0.6-0.1,1.5-0.1,2.1,0v16.6c-0.6,0.1-1.4,0.1-2,0V110.2z"/>
		<path class="st1" d="M401.2,117.6c-1.9,0.1-5.7,0.2-8,0v1.7c0,2.2,1.5,2.5,3.5,2.5c1.6,0,2.6-0.1,4-0.4c0.1,0.5,0.1,1.2,0,1.7
			c-1.6,0.3-2.9,0.4-4.3,0.4c-3.2,0-5.1-1-5.1-3.8v-5.6c0-2.9,2-3.8,5.1-3.8c3.1,0,4.9,1.3,4.9,4.2V117.6z M399.2,114.6
			c0-2.2-1.4-2.5-3-2.5c-1.6,0-3.1,0.3-3.1,2.5v1.8l2.1-0.1h4V114.6z"/>
		<path class="st1" d="M413.7,114.8c0-2.4-1.3-2.7-3-2.7c-2.3,0-2.9,0.5-3.5,2.2v9.1c-0.5,0.1-1.4,0.1-1.9,0v-12.7
			c0.5-0.1,1.1-0.1,1.6,0l0.2,1.8h0.1c0.4-1.5,2-2,4.2-2c2.5,0,4.3,0.9,4.3,3.6v9.3c-0.5,0.1-1.4,0.1-1.9,0V114.8z"/>
		<path class="st1" d="M420.5,112.4h-2.1c-0.1-0.4-0.1-1.1,0-1.5l2.1-0.1v-3.4c0.6-0.1,1.4-0.1,1.9,0v3.4h4.1c0.1,0.4,0.1,1.2,0,1.6
			h-4.1v6.9c0,2.4,1.3,2.6,2.4,2.6c0.7,0,1.2-0.1,1.7-0.2c0.1,0.5,0.1,1.2,0,1.7c-0.7,0.1-1.4,0.2-2.3,0.2c-1.9,0-3.8-0.8-3.8-3.8
			V112.4z"/>
		<path class="st1" d="M437,121.6h-0.1c-0.4,1.5-2,2-4.1,2c-2.4,0-4.2-1-4.2-3.7c0-3.3,2-4,4.8-4c1.2,0,2.2,0.1,3.6,0.3v-1.7
			c0-1.6-0.8-2.5-3.5-2.5c-1.1,0-2.4,0.1-3.8,0.3c-0.1-0.5-0.1-1.2,0-1.7c1.5-0.3,2.9-0.4,4.3-0.4c3.3,0,5,1.2,5,3.5v9.5
			c-0.4,0.1-1.1,0.1-1.6,0L437,121.6z M436.8,117.7c-1.1-0.2-2.2-0.3-3.2-0.3c-2.1,0-3.2,0.3-3.2,2.3c0,1.9,1.3,2.2,2.9,2.2
			c2.2,0,2.9-0.5,3.5-2V117.7z"/>
		<path class="st1" d="M443.1,105.4c0.6-0.1,1.4-0.1,1.9,0v17.9c-0.5,0.1-1.4,0.1-1.9,0V105.4z"/>
		<path class="st1" d="M455.1,111c0-3.5,2.4-4.6,6.2-4.6c1.5,0,2.9,0.1,4.4,0.4c0.1,0.5,0.1,1.2,0,1.6c-1.4-0.2-2.6-0.3-4.2-0.3
			c-2.4,0-4.4,0.3-4.4,3.2v7.4c0,2.8,2,3.1,4.4,3.1c1.7,0,2.9-0.3,4.2-0.7c0.2,0.4,0.3,1.1,0.3,1.6c-1.5,0.5-3.3,0.8-4.7,0.8
			c-3.8,0-6.2-1.1-6.2-4.6V111z"/>
		<path class="st1" d="M469.7,105.4c0.5-0.1,1.4-0.1,1.9,0v17.9c-0.5,0.1-1.4,0.1-1.9,0V105.4z"/>
		<path class="st1" d="M478.5,107.9c-0.6,0.1-1.5,0.1-2.1,0l0-1.9c0.6-0.1,1.6-0.1,2.2,0L478.5,107.9z M476.5,110.7
			c0.5-0.1,1.4-0.1,1.9,0v12.6c-0.5,0.1-1.4,0.1-1.9,0V110.7z"/>
		<path class="st1" d="M491.7,114.8c0-2.4-1.3-2.7-3-2.7c-2.3,0-2.9,0.5-3.5,2.2v9.1c-0.5,0.1-1.4,0.1-1.9,0v-12.7
			c0.4-0.1,1.1-0.1,1.6,0l0.2,1.8h0.1c0.4-1.5,2-2,4.2-2c2.5,0,4.3,0.9,4.3,3.6v9.3c-0.5,0.1-1.4,0.1-1.9,0V114.8z"/>
		<path class="st1" d="M500.3,107.9c-0.6,0.1-1.5,0.1-2.1,0l-0.1-1.9c0.6-0.1,1.6-0.1,2.2,0L500.3,107.9z M498.3,110.7
			c0.6-0.1,1.4-0.1,1.9,0v12.6c-0.5,0.1-1.4,0.1-1.9,0V110.7z"/>
		<path class="st1" d="M504.5,114.2c0-2.8,1.9-3.8,4.9-3.8c1.2,0,2.4,0.1,3.8,0.3c0.1,0.5,0.1,1.2,0,1.7c-1.2-0.2-2.1-0.3-3.5-0.3
			c-1.6,0-3.1,0.3-3.1,2.5v4.8c0,2.2,1.5,2.5,3.1,2.5c1.5,0,2.3-0.1,3.5-0.4c0.1,0.5,0.1,1.2,0,1.7c-1.3,0.3-2.5,0.4-3.8,0.4
			c-3,0-4.9-1-4.9-3.8V114.2z"/>
	</g>
	<g>
		<path class="st1" d="M198.2,92.9c-1.8,0-3.5-0.9-5.1-2.7c-1.6-1.8-2.4-3.8-2.4-5.9c0-2,1-3.8,3.1-5.4c2.1-1.5,4.9-2.4,8.5-2.7
			c0.2,0,0.3-0.1,0.3-0.3c0.3-2.7,0.6-4.9,0.8-6.6c0-0.2-0.1-0.3-0.3-0.3h-8.3c-0.4,0-0.8-0.2-1.1-0.5c-0.3-0.3-0.4-0.7-0.4-1.1
			c0-0.4,0.1-0.8,0.4-1.1c0.3-0.3,0.7-0.5,1.1-0.5H205c0.5,0,1,0.2,1.4,0.6s0.6,0.9,0.6,1.4V69c-0.5,4.3-0.7,6.6-0.8,6.9
			c0,0.2,0,0.3,0.2,0.3c2.1,0.1,4.1,0.5,6,1c0.2,0,0.3,0,0.3-0.2c0.1-1.9,0.1-4.1,0.1-6.6c0-0.5,0.2-0.9,0.5-1.2
			c0.3-0.3,0.7-0.5,1.2-0.5c0.5,0,0.9,0.2,1.2,0.5c0.3,0.3,0.5,0.8,0.5,1.3c0,2.7-0.1,5.2-0.2,7.6c0,0.2,0.1,0.4,0.3,0.4
			c1.2,0.4,2.5,1.1,3.9,1.9c0.4,0.2,0.7,0.6,0.8,1c0.1,0.4,0.1,0.9-0.1,1.3c-0.2,0.4-0.5,0.7-1,0.8c-0.4,0.1-0.8,0.1-1.2-0.2
			c-1-0.6-1.9-1-2.7-1.3c-0.1,0-0.1,0-0.2,0c-0.1,0-0.1,0.1-0.1,0.2c-0.3,3.2-0.9,5.5-1.8,7.1c-0.9,1.5-2.3,2.9-4.3,4
			c-0.4,0.2-0.9,0.3-1.3,0.2c-0.5-0.1-0.8-0.4-1.1-0.8c-0.3-0.4-0.3-0.8-0.2-1.2c0.1-0.5,0.4-0.8,0.8-1c1.6-0.9,2.7-2,3.3-3.2
			c0.7-1.3,1.1-3.3,1.3-6.2c0-0.2-0.1-0.3-0.3-0.4c-2-0.6-4.1-1-6.2-1.1c-0.2,0-0.3,0.1-0.3,0.2c-0.4,2.3-0.7,4.2-1.1,5.8
			c-0.4,1.6-0.8,2.9-1.3,3.8c-0.4,1-0.9,1.7-1.5,2.3c-0.5,0.5-1.1,0.9-1.6,1.1C199.6,92.8,199,92.9,198.2,92.9z M201.7,79.5
			c-2.4,0.3-4.2,0.8-5.5,1.7c-1.3,0.9-1.9,1.9-1.9,3c0,1.2,0.4,2.3,1.3,3.5c0.9,1.1,1.7,1.7,2.6,1.7c1.5,0,2.7-3.2,3.8-9.7
			c0-0.1,0-0.1-0.1-0.2C201.9,79.5,201.8,79.5,201.7,79.5z"/>
		<path class="st1" d="M228.3,72c-0.4,0-0.8-0.1-1.1-0.5c-0.3-0.3-0.5-0.7-0.5-1.1c0-0.4,0.2-0.8,0.5-1.1c0.3-0.3,0.7-0.5,1.1-0.5
			c3.8,0,8.5-0.1,14-0.2c0.2,0,0.3-0.1,0.2-0.3c-0.1-1-0.2-1.8-0.3-2.4c0-0.5,0.1-0.9,0.4-1.3c0.3-0.4,0.7-0.6,1.2-0.6
			c0.5,0,0.9,0.1,1.2,0.5c0.4,0.3,0.6,0.7,0.6,1.2c0,0.7,0.1,1.5,0.3,2.5c0,0.2,0.2,0.3,0.3,0.3c1.7,0,3.9-0.1,6.8-0.3
			c0.4,0,0.8,0.1,1.1,0.4c0.3,0.3,0.5,0.7,0.5,1.1c0,0.4-0.1,0.8-0.4,1.1c-0.3,0.3-0.6,0.5-1.1,0.5c-1.4,0.1-3.5,0.2-6.3,0.2
			c-0.2,0-0.3,0.1-0.2,0.3c0.7,2.7,1.7,5.3,3.1,7.6c0.3,0.4,0.4,0.9,0.2,1.4c-0.1,0.5-0.4,0.9-0.9,1.1c-1,0.6-2.1,0.5-3.3-0.1
			c-2.3-1.2-4.6-1.8-7.1-1.8c-2,0-3.6,0.4-4.7,1.2c-1.1,0.8-1.7,1.9-1.7,3.3c0,3.7,3.1,5.6,9.4,5.6c1.9,0,4.1-0.2,6.7-0.6
			c0.4-0.1,0.8,0,1.2,0.3c0.4,0.2,0.6,0.6,0.7,1c0.1,0.4,0,0.8-0.2,1.2c-0.3,0.4-0.6,0.6-1,0.6c-2.4,0.4-4.9,0.6-7.4,0.6
			c-4.5,0-7.8-0.8-9.9-2.5c-2.1-1.7-3.2-3.8-3.2-6.4c0-2.3,0.9-4.1,2.7-5.5c1.8-1.4,4.2-2,7.3-2c2.3,0,4.6,0.5,6.9,1.5h0.1v-0.1
			c-1-1.8-1.7-3.9-2.3-6.4c0-0.2-0.2-0.3-0.4-0.3C237.1,71.9,232.3,72,228.3,72z"/>
		<path class="st1" d="M261.1,84.1c2.4-2.9,4.6-5.5,6.7-7.6c0.1-0.1,0.2-0.3,0.2-0.5v-3c0-0.2-0.1-0.3-0.3-0.3h-5.3
			c-0.4,0-0.7-0.1-1-0.4c-0.3-0.3-0.5-0.6-0.5-1c0-0.4,0.2-0.7,0.5-1c0.3-0.3,0.6-0.5,1-0.5h5.3c0.2,0,0.3-0.1,0.3-0.3v-3.4
			c0-0.5,0.2-0.9,0.5-1.2c0.3-0.3,0.7-0.5,1.2-0.5c0.4,0,0.8,0.2,1.2,0.5c0.3,0.3,0.5,0.7,0.5,1.2v6.8c0,0,0,0.1,0.1,0.1
			c0.1,0,0.1,0,0.1,0c2-1.8,3.8-3,5.3-3.7c1.5-0.7,3.1-1,4.6-1c3,0,5.3,1,6.7,3c1.5,2,2.2,5.1,2.2,9.4c0,3.7-0.9,6.7-2.7,8.7
			c-1.8,2.1-4.1,3.1-7.1,3.1c-1.4,0-2.7-0.2-4.1-0.7c-0.4-0.2-0.7-0.5-0.9-0.9c-0.2-0.4-0.2-0.9,0-1.3c0.2-0.4,0.4-0.7,0.9-0.9
			c0.4-0.2,0.8-0.2,1.2-0.1c1.1,0.3,2.1,0.5,2.9,0.5c1.9,0,3.4-0.7,4.6-2.2c1.1-1.5,1.7-3.6,1.7-6.3c0-3.3-0.4-5.6-1.3-6.9
			c-0.9-1.4-2.3-2-4.2-2c-1.3,0-2.6,0.4-4.1,1.3c-1.5,0.9-3.4,2.4-5.6,4.6c-0.1,0.1-0.2,0.3-0.2,0.5v14.3c0,0.5-0.2,0.9-0.5,1.2
			c-0.3,0.3-0.7,0.5-1.2,0.5c-0.5,0-0.9-0.2-1.2-0.5c-0.3-0.3-0.5-0.7-0.5-1.2V81.5c0,0,0-0.1-0.1-0.1c0,0-0.1,0-0.1,0
			c-1.4,1.5-2.8,3.2-4.2,4.9c-0.3,0.3-0.7,0.5-1.1,0.6c-0.4,0-0.8-0.1-1.2-0.4c-0.3-0.3-0.5-0.7-0.6-1.2
			C260.7,84.9,260.8,84.4,261.1,84.1z"/>
		<path class="st0" d="M310.7,93.2c-4.1,0-7.3-0.7-9.7-2.1c-2.4-1.4-3.6-3.2-3.6-5.4c0-2.1,1.3-4.6,4-7.4c0.3-0.4,0.7-0.5,1.2-0.6
			c0.5,0,0.9,0.1,1.3,0.4c0.3,0.3,0.5,0.6,0.6,1.1c0,0.5-0.1,0.8-0.4,1.2c-2,2.1-3,3.8-3,5c0,1.4,0.8,2.5,2.5,3.3
			c1.7,0.8,4,1.2,7,1.2c3.1,0,6.4-0.4,9.9-1.2c0.4-0.1,0.9,0,1.2,0.2c0.4,0.2,0.6,0.6,0.7,1c0.1,0.5,0,0.9-0.2,1.3
			c-0.3,0.4-0.6,0.6-1,0.7C317.6,92.8,314.1,93.2,310.7,93.2z M302.2,66.7h17c0.4,0,0.8,0.2,1.1,0.5c0.3,0.3,0.5,0.7,0.5,1.2
			c0,0.5-0.2,0.8-0.5,1.2c-0.3,0.3-0.7,0.5-1.1,0.5h-17c-0.4,0-0.8-0.2-1.1-0.5c-0.3-0.3-0.5-0.7-0.5-1.2c0-0.5,0.2-0.8,0.5-1.2
			C301.3,66.9,301.7,66.7,302.2,66.7z"/>
		<path class="st0" d="M345.6,93.2c-4.1,0-7.3-0.7-9.7-2.1c-2.4-1.4-3.6-3.2-3.6-5.4c0-2.1,1.3-4.6,4-7.4c0.3-0.4,0.7-0.5,1.2-0.6
			c0.5,0,0.9,0.1,1.3,0.4c0.3,0.3,0.5,0.6,0.6,1.1c0,0.5-0.1,0.8-0.4,1.2c-2,2.1-3,3.8-3,5c0,1.4,0.8,2.5,2.5,3.3
			c1.7,0.8,4,1.2,7,1.2c3.1,0,6.4-0.4,9.9-1.2c0.4-0.1,0.9,0,1.2,0.2c0.4,0.2,0.6,0.6,0.7,1c0.1,0.5,0,0.9-0.2,1.3
			c-0.3,0.4-0.6,0.6-1,0.7C352.5,92.8,349,93.2,345.6,93.2z M337.1,66.7h17c0.4,0,0.8,0.2,1.1,0.5c0.3,0.3,0.5,0.7,0.5,1.2
			c0,0.5-0.2,0.8-0.5,1.2c-0.3,0.3-0.7,0.5-1.1,0.5h-17c-0.4,0-0.8-0.2-1.1-0.5c-0.3-0.3-0.5-0.7-0.5-1.2c0-0.5,0.2-0.8,0.5-1.2
			C336.2,66.9,336.6,66.7,337.1,66.7z"/>
		<path class="st0" d="M369,82.4c-0.3,0.2-0.7,0.2-1.1,0.1c-0.4-0.1-0.7-0.3-0.8-0.7c-0.2-0.4-0.2-0.8-0.1-1.2
			c0.1-0.4,0.3-0.7,0.7-0.9l16.2-10.5l0,0l0,0h-12.9c-0.4,0-0.8-0.2-1.1-0.5c-0.3-0.3-0.5-0.7-0.5-1.1s0.2-0.8,0.5-1.1
			c0.3-0.3,0.7-0.5,1.1-0.5h17.7c0.4,0,0.8,0.2,1.1,0.5c0.3,0.3,0.5,0.7,0.5,1.2c0,1.1-0.4,1.9-1.3,2.4l-11.1,6.5l0,0h0.1
			c1.9-0.5,3.7-0.7,5.3-0.7c7,0,10.5,2.5,10.5,7.4c0,3.2-1.2,5.6-3.5,7.3c-2.4,1.7-5.9,2.5-10.5,2.5c-1.7,0-3.6-0.1-5.7-0.3
			c-0.5,0-0.9-0.2-1.2-0.6c-0.3-0.4-0.5-0.8-0.5-1.2c0-0.4,0.2-0.8,0.5-1.1c0.4-0.3,0.7-0.4,1.2-0.4c1.7,0.2,3.5,0.2,5.4,0.2
			c6.8,0,10.3-2,10.3-6.1c0-1.6-0.6-2.8-1.8-3.6c-1.2-0.8-3.2-1.2-5.9-1.2C378,78.9,373.7,80.1,369,82.4z"/>
		<path class="st1" d="M407.3,92c-1.8,0-3.4-1-4.9-3.1c-1.5-2.1-2.2-4.7-2.2-7.7c0-4.4,1.5-8.1,4.5-10.8c3-2.8,7-4.2,11.9-4.2
			c3.9,0,7.2,1.2,9.8,3.7c2.6,2.5,3.9,5.6,3.9,9.4c0,3.6-0.8,6.6-2.5,8.9c-1.7,2.3-4,3.8-6.9,4.4c-0.5,0.1-0.9,0-1.3-0.3
			c-0.4-0.3-0.7-0.7-0.8-1.2c-0.1-0.4,0-0.8,0.2-1.2c0.3-0.4,0.6-0.6,1-0.7c2.2-0.6,3.8-1.7,5-3.4c1.2-1.7,1.7-3.9,1.7-6.6
			c0-2.6-0.8-4.8-2.5-6.6c-1.7-1.8-3.8-2.8-6.4-3.1c-0.2,0-0.3,0-0.3,0.3c-0.5,4.4-1.2,8.1-1.9,11.1c-0.7,3-1.6,5.3-2.5,6.8
			c-0.9,1.5-1.8,2.6-2.7,3.3C409.5,91.7,408.5,92,407.3,92z M413.6,69.8c-3,0.5-5.5,1.8-7.2,3.9c-1.8,2-2.7,4.6-2.7,7.6
			c0,2,0.4,3.7,1.2,5.1c0.8,1.5,1.6,2.2,2.4,2.2c0.4,0,0.8-0.2,1.2-0.5c0.4-0.3,0.8-0.9,1.3-1.8c0.5-0.9,1-2,1.4-3.3
			c0.5-1.3,0.9-3.1,1.4-5.4c0.5-2.2,0.9-4.8,1.2-7.7c0-0.1,0-0.1-0.1-0.2C413.7,69.7,413.7,69.7,413.6,69.8z"/>
		<path class="st1" d="M440,80.4c-0.3,0.4-0.7,0.5-1.2,0.6c-0.5,0-0.9-0.1-1.3-0.5c-0.4-0.3-0.5-0.7-0.6-1.2c0-0.5,0.1-0.9,0.5-1.2
			c3.1-3.5,5.1-7.4,6-11.9c0.1-0.5,0.3-0.9,0.7-1.2c0.4-0.3,0.8-0.5,1.3-0.5c0.5,0,0.9,0.2,1.2,0.6c0.3,0.4,0.4,0.8,0.3,1.3
			c0,0.1-0.1,0.3-0.1,0.6c-0.1,0.3-0.1,0.5-0.1,0.6c0,0.2,0,0.3,0.2,0.3h13.3c0.5,0,1,0.2,1.4,0.6c0.4,0.4,0.6,0.9,0.6,1.4
			c-0.2,7.2-2,12.6-5.4,16.3c-3.4,3.6-8.8,5.9-16.1,6.7c-0.5,0-0.9-0.1-1.3-0.4c-0.4-0.3-0.6-0.7-0.7-1.1c-0.1-0.4,0-0.8,0.3-1.2
			c0.3-0.4,0.6-0.6,1.1-0.6c6.1-0.8,10.6-2.5,13.4-5.3c2.8-2.8,4.4-7,4.7-12.7c0-0.2-0.1-0.3-0.3-0.3h-12.1c-0.2,0-0.3,0.1-0.4,0.3
			C444.5,74.7,442.6,77.7,440,80.4z"/>
		<path class="st1" d="M476,81.2c-0.5,0-1-0.2-1.3-0.6c-0.4-0.4-0.6-0.8-0.6-1.4V67.6c0-0.5,0.2-1,0.6-1.4c0.4-0.4,0.8-0.6,1.3-0.6
			c0.5,0,1,0.2,1.4,0.6c0.4,0.4,0.6,0.8,0.6,1.3v11.7c0,0.5-0.2,1-0.6,1.3C477,81,476.5,81.2,476,81.2z M492.5,66.2
			c0.4-0.4,0.8-0.6,1.4-0.6s1,0.2,1.4,0.6s0.6,0.8,0.6,1.4v7.3c0,5.6-1.3,9.9-3.8,12.9c-2.5,2.9-6.5,4.9-12.1,5.7
			c-0.5,0.1-0.9,0-1.3-0.3c-0.4-0.3-0.7-0.7-0.8-1.2c-0.1-0.5,0-0.9,0.3-1.3c0.3-0.4,0.6-0.6,1.1-0.7c4.7-0.8,8-2.4,9.9-4.6
			c1.9-2.2,2.8-5.7,2.8-10.4v-7.4C492,67.1,492.2,66.6,492.5,66.2z"/>
		<path class="st1" d="M507.7,91.3c-0.5,0-0.9-0.2-1.3-0.5c-0.3-0.3-0.5-0.8-0.5-1.3s0.2-0.9,0.5-1.3c0.4-0.4,0.8-0.5,1.3-0.5h24.4
			c0.5,0,0.9,0.2,1.3,0.5c0.3,0.4,0.5,0.8,0.5,1.3s-0.2,0.9-0.5,1.3s-0.8,0.5-1.3,0.5H507.7z M510.2,67.2h19.5
			c0.5,0,0.9,0.2,1.3,0.5c0.3,0.3,0.5,0.8,0.5,1.3c0,0.5-0.2,0.9-0.5,1.3c-0.4,0.4-0.8,0.5-1.3,0.5h-19.5c-0.5,0-0.9-0.2-1.3-0.5
			c-0.3-0.4-0.5-0.8-0.5-1.3c0-0.5,0.2-0.9,0.5-1.3C509.2,67.4,509.7,67.2,510.2,67.2z"/>
		<path class="st1" d="M545.5,80.9c-0.6-2.3-1.1-4.3-1.6-6c-0.1-0.4-0.1-0.9,0.2-1.2c0.2-0.4,0.6-0.6,1-0.7c0.5-0.1,0.9,0,1.3,0.2
			c0.4,0.2,0.7,0.6,0.8,1.1c0.6,2.3,1.2,4.3,1.6,6c0.1,0.4,0,0.9-0.2,1.3c-0.3,0.4-0.6,0.7-1.1,0.8c-0.5,0.1-0.9,0-1.3-0.2
			C545.9,81.7,545.7,81.4,545.5,80.9z M564.5,71.8c0.5,0,0.9,0.2,1.2,0.6c0.3,0.4,0.5,0.8,0.5,1.3c-0.3,6.2-1.7,10.8-4.2,13.7
			c-2.5,2.9-6.5,4.8-12.1,5.7c-0.4,0.1-0.8,0-1.2-0.3c-0.4-0.3-0.6-0.6-0.7-1.1c-0.1-0.4,0-0.8,0.2-1.2c0.3-0.4,0.6-0.6,1-0.6
			c4.7-0.8,8.1-2.4,10.1-4.8c2-2.4,3.1-6.2,3.3-11.6c0-0.5,0.2-0.9,0.6-1.2C563.7,71.9,564.1,71.8,564.5,71.8z M556.4,80.8
			c-0.2,0.4-0.6,0.7-1.1,0.8c-0.5,0.1-0.9,0-1.3-0.2c-0.4-0.3-0.7-0.6-0.8-1.1c-0.6-2.4-1.2-4.5-1.6-6.3c-0.1-0.4-0.1-0.9,0.2-1.3
			c0.2-0.4,0.6-0.7,1.1-0.8c0.5-0.1,0.9,0,1.3,0.2c0.4,0.3,0.7,0.6,0.8,1.1c0.8,3,1.3,5.1,1.6,6.2C556.7,80,556.6,80.4,556.4,80.8z"
			/>
		<path class="st1" d="M579.6,80.4c-0.3,0.4-0.7,0.5-1.2,0.6c-0.5,0-0.9-0.1-1.3-0.5c-0.4-0.3-0.5-0.7-0.6-1.2
			c0-0.5,0.1-0.9,0.5-1.2c3.1-3.5,5.1-7.4,6-11.9c0.1-0.5,0.3-0.9,0.7-1.2c0.4-0.3,0.8-0.5,1.3-0.5c0.5,0,0.9,0.2,1.2,0.6
			c0.3,0.4,0.4,0.8,0.3,1.3c0,0.1-0.1,0.3-0.1,0.6c-0.1,0.3-0.1,0.5-0.1,0.6c0,0.2,0,0.3,0.2,0.3h13.3c0.5,0,1,0.2,1.4,0.6
			c0.4,0.4,0.6,0.9,0.6,1.4c-0.2,7.2-2,12.6-5.4,16.3c-3.4,3.6-8.8,5.9-16.1,6.7c-0.5,0-0.9-0.1-1.3-0.4c-0.4-0.3-0.6-0.7-0.7-1.1
			c-0.1-0.4,0-0.8,0.3-1.2c0.3-0.4,0.6-0.6,1.1-0.6c6.1-0.8,10.6-2.5,13.4-5.3c2.8-2.8,4.4-7,4.7-12.7c0-0.2-0.1-0.3-0.3-0.3h-12.1
			c-0.2,0-0.3,0.1-0.4,0.3C584,74.7,582.2,77.7,579.6,80.4z"/>
	</g>
	<g>
		<path class="st1" d="M223.9,40.3c0,0.2-0.1,0.5-0.2,0.7c3.2,0.7,4.6,2.9,4.6,5.3c0,3.3-2.6,5.4-7.9,6.1c-0.1-0.4-0.5-1.2-0.8-1.7
			c4-0.4,6.6-1.8,6.6-4.3c0-1.2-0.5-3-3.1-3.6c-0.9,2.2-2.4,4.2-4,5.7c0.1,0.3,0.2,0.6,0.4,0.9l-1.7,1.1c-0.1-0.2-0.3-0.6-0.4-0.9
			c-1.6,1.1-2.9,1.3-3.6,1.3c-1.9,0-2.8-1.4-2.8-2.9c0-2.9,2.3-5.2,5.2-6.4c0-1,0-2,0-3.1c-1,0-1.9,0-2.8,0c-0.6,0-1.1,0-1.5,0
			l-0.1-1.9c1,0,2.8,0.1,4.4,0c0-0.9,0.1-2,0.1-2.9l2.7,0.2c0,0.2-0.2,0.4-0.6,0.4c-0.1,0.7-0.1,1.5-0.1,2.2
			c2.2-0.1,5.6-0.4,7.8-0.8l0.2,2c-2.2,0.5-5.7,0.7-8.1,0.7c0,0.9-0.1,1.8,0,2.6c1.6-0.4,2.8-0.4,3.5-0.4c0.1-0.3,0.1-0.6,0.2-0.9
			L223.9,40.3z M216.9,47.9c-0.3-1.2-0.4-2.6-0.5-4.3c-1.9,0.9-3.4,2.4-3.4,4.1c0,1.4,1,1.4,1.3,1.4C215.1,49,216,48.5,216.9,47.9z
			 M221.1,42.5c-1.4,0-2.3,0.2-2.9,0.4c0,1.3,0.1,2.5,0.4,3.5C219.6,45.4,220.5,44,221.1,42.5z"/>
		<path class="st1" d="M240.5,34c-0.1,0.2-0.3,0.4-0.6,0.4c-0.1,0.8-0.3,1.8-0.5,2.5c1.7-0.1,3.9-0.5,5.6-1l0.3,2
			c-1.9,0.4-4,0.8-6.2,0.9c-1,3.9-2.3,7.1-4.2,10l-2-0.7c1.8-2.6,3.2-5.8,4-9.2c-0.4,0-1,0-1.4,0H233v-1.9h2.4c0.6,0,1.3,0,1.8,0
			c0.2-1,0.4-2.2,0.5-3.3L240.5,34z M245.9,43c0,1.4,0.1,2.6,0.2,3.9c1.2,0.5,3,1.4,4.2,2.2l-1,1.9c-1-0.7-2.3-1.5-3.2-2
			c0,1.1-0.5,3.4-4,3.4c-2.3,0-4.1-1.1-4.1-3.2c0-2.1,2.1-3.2,4.1-3.2c0.6,0,1.3,0.1,2,0.3c-0.1-1.2-0.1-2.3-0.1-3.1L245.9,43z
			 M244.2,48.2c-0.7-0.3-1.5-0.4-2.1-0.4c-1.1,0-2.3,0.5-2.3,1.5c0,1,1,1.5,2.3,1.5c1.2,0,2.1-0.5,2.1-1.8V48.2z M250.2,41.2
			c-2.3,0-5,0.4-7.2,0.9l-0.3-1.8c2.4-0.6,5.2-1.1,7.4-1.1L250.2,41.2z"/>
		<path class="st1" d="M267,38.4c-1.7,0.6-3.9,0.9-6,1.1c-0.8,4.5-2.1,9.2-3.7,12.7l-2.1-0.7c1.7-3.3,2.9-7.4,3.6-11.8
			c-0.3,0-0.6,0-0.9,0c-1,0-1.9,0-2.7,0l0-2c0.7,0,1.7,0,2.7,0c0.4,0,0.8,0,1.2,0c0.2-1.2,0.3-2.7,0.5-3.9l2.8,0.3
			c0,0.2-0.3,0.4-0.6,0.5c-0.1,0.8-0.3,1.9-0.5,3c1.8-0.2,3.7-0.5,5.3-1.1L267,38.4z M272.5,51.8c-0.6,0-1.3,0.1-2,0.1
			c-1.7,0-3.5-0.1-4.7-0.4c-1.7-0.4-2.5-1.6-2.5-3c0-1.2,0.6-2.3,1.3-3l1.7,0.7c-0.7,0.7-1,1.5-1,2c0,1.4,1.6,1.7,4.7,1.7
			c0.8,0,1.7,0,2.5-0.1L272.5,51.8z M264.6,41.6c2.1-0.7,5-1.1,7.4-1v2c-2.3-0.1-4.9,0.2-7,0.8L264.6,41.6z"/>
		<path class="st1" d="M290.8,41.2c-0.1,0-0.1,0-0.2,0c-0.2,0-0.3,0-0.5-0.1c-6.2,1.7-11.3,4.2-11.3,6.7c0,1.8,1.9,2.4,5.1,2.4
			s5.8-0.3,7.3-0.5l0.2,2.1c-1.5,0.2-4.2,0.4-7.5,0.4c-4,0-7.1-1-7.1-4.2c0-2.2,2.1-4.1,5.2-5.8c-0.7-1.4-1-3.7-1-8.3l3,0.2
			c0,0.3-0.2,0.5-0.7,0.5c0,3.3,0,5.4,0.6,6.6c1.8-0.8,4-1.6,6.1-2.4L290.8,41.2z"/>
		<path class="st1" d="M303.4,48c-0.1,0.1-0.3,0.2-0.5,0.2c-1.4,1.5-3.8,3.4-5.9,4.6c-0.4-0.5-1.2-1.1-1.7-1.5
			c2.1-1.1,4.5-2.9,5.7-4.3L303.4,48z M309.6,44.2h4.7v1.9h-19v-1.9h4.7v-4.9h-3.8v-1.9h3.8v-3.8l2.5,0.1c0,0.2-0.1,0.3-0.5,0.4v3.4
			h5.5v-3.8l2.5,0.1c0,0.2-0.2,0.3-0.5,0.4v3.4h4.1v1.9h-4.1V44.2z M302.1,39.3v4.9h5.5v-4.9H302.1z M312.3,52.8
			c-1.2-1.2-3.7-3.3-5.6-4.7l1.8-1.1c1.8,1.3,4.5,3.3,5.8,4.5L312.3,52.8z"/>
		<path class="st1" d="M322.7,35c0,0.2-0.2,0.4-0.7,0.4c-0.7,3.5-1.1,7.2-1.1,9.2c0,1.4,0,2.7,0.2,3.5c0.3-0.8,1.2-2.8,1.4-3.5
			l1.1,1.4c-0.8,1.8-1.4,2.9-1.7,3.9c-0.1,0.4-0.2,0.7-0.2,1c0,0.2,0,0.5,0.1,0.7l-2,0.3c-0.7-2-0.9-4.5-0.9-7.3
			c0-2.8,0.4-6.6,1-10.1L322.7,35z M335.5,50.3c-0.7,0-1.5,0.1-2.3,0.1c-1.4,0-2.8-0.1-3.7-0.2c-2.7-0.4-3.9-1.8-3.9-3.6
			c0-1.4,0.7-2.7,1.9-4.1l1.9,0.7c-1,1-1.7,2-1.7,3.1c0,1.9,2.6,2,5,2c0.9,0,1.9,0,2.8-0.1L335.5,50.3z M326,37.3
			c2.5-0.1,6.2-0.3,8.9-0.8l0.2,2c-2.5,0.4-6.6,0.7-9,0.7L326,37.3z"/>
		<path class="st1" d="M352.6,40.3c0,0.2-0.1,0.5-0.2,0.7c3.2,0.7,4.6,2.9,4.6,5.3c0,3.3-2.6,5.4-7.9,6.1c-0.1-0.4-0.5-1.2-0.8-1.7
			c4-0.4,6.6-1.8,6.6-4.3c0-1.2-0.5-3-3.1-3.6c-0.9,2.2-2.4,4.2-4,5.7c0.1,0.3,0.2,0.6,0.4,0.9l-1.7,1.1c-0.1-0.2-0.3-0.6-0.4-0.9
			c-1.6,1.1-2.9,1.3-3.6,1.3c-1.9,0-2.8-1.4-2.8-2.9c0-2.9,2.3-5.2,5.2-6.4c0-1,0-2,0-3.1c-1,0-1.9,0-2.8,0c-0.6,0-1.1,0-1.5,0
			l-0.1-1.9c1,0,2.8,0.1,4.4,0c0-0.9,0.1-2,0.1-2.9l2.7,0.2c0,0.2-0.2,0.4-0.6,0.4c-0.1,0.7-0.1,1.5-0.1,2.2
			c2.2-0.1,5.6-0.4,7.8-0.8l0.2,2c-2.2,0.5-5.7,0.7-8.1,0.7c0,0.9-0.1,1.8,0,2.6c1.6-0.4,2.8-0.4,3.5-0.4c0.1-0.3,0.1-0.6,0.2-0.9
			L352.6,40.3z M345.6,47.9c-0.3-1.2-0.4-2.6-0.5-4.3c-1.9,0.9-3.4,2.4-3.4,4.1c0,1.4,1,1.4,1.3,1.4C343.8,49,344.7,48.5,345.6,47.9
			z M349.8,42.5c-1.4,0-2.3,0.2-2.9,0.4c0,1.3,0.1,2.5,0.4,3.5C348.3,45.4,349.2,44,349.8,42.5z"/>
		<path class="st1" d="M363.8,43.3c1.3-2.9,4.5-5.3,7.5-5.9c0-1.1-0.1-2.4-0.3-3.4l2.7,0.1c0,0.2-0.2,0.4-0.5,0.5
			c0,0.7,0.1,1.8,0.1,2.6c3.2,0,5.9,1.8,5.9,5.4s-2.4,5.9-6.6,6c-0.6,1.3-1.9,2.8-4,3.8c-0.4-0.4-1.1-1.1-1.5-1.4
			c1.7-0.7,2.8-1.9,3.4-2.8c-1.5-0.2-3.2-1.3-4.2-2.8c0.5-0.3,1-0.8,1.4-1.2c0.8,1.3,2.3,2.2,3.5,2.3c0.2-0.8,0.3-2.1,0.3-3.1
			c0-1.2,0-2.5-0.1-4.1c-2.4,0.4-5.1,2.3-6.8,5.9c-0.2,0.4-0.3,1-0.3,1.6c0,0.6,0.1,1.2,0.2,1.9l-2,0.2c-0.4-1.7-0.6-3.8-0.6-5.9
			c0-2.3,0.3-5.6,0.9-7.9l2.5,0.5c0,0.2-0.2,0.3-0.5,0.3C364.2,37.8,363.8,41.2,363.8,43.3L363.8,43.3z M373.4,39.1
			c0.1,1.7,0.1,3.3,0.1,4.6c0,1.1-0.1,2.2-0.3,3c2.5-0.1,4-1.6,4-4.1C377.2,40.3,375.6,39.1,373.4,39.1z"/>
		<path class="st1" d="M400.6,39.5c-0.1,0.2-0.3,0.4-0.6,0.4c-0.2,1.3-0.6,2.8-0.9,4.1c1,0.4,2.2,1,3.2,1.5l-0.9,2c-1-0.5-2-1-3-1.5
			c-1,2.8-2.4,4.9-4.4,6.3c-0.4-0.4-1.2-0.9-1.7-1.2c2-1.3,3.3-3.2,4.2-6c-1.8-0.7-3.4-1.2-4.8-1.4c-1.4,4.7-2.6,6.4-5.3,6.4
			c-2.2,0-3.1-1.6-3.1-3.5c0-3.2,3.4-4.8,6.9-4.8c0.4-1.5,0.7-3.4,1-5.2c-1,0.1-3.9,0.3-5.5,0.4c-0.1,0.2-0.3,0.2-0.5,0.3l-0.2-2.2
			c2-0.1,5.8-0.3,6.8-0.4c0.2,0,0.4-0.1,0.5-0.2l1.7,0.9c-0.1,0.1-0.3,0.3-0.5,0.4c-0.3,2-0.8,4.6-1.3,6.3c1.4,0.1,3,0.6,4.8,1.3
			c0.3-1.1,0.6-2.8,0.8-4.3L400.6,39.5z M389.8,43.6c-2.6,0-4.6,1.2-4.6,3.1c0,1,0.5,1.7,1.3,1.7C387.9,48.3,388.7,47.4,389.8,43.6z
			"/>
		<path class="st1" d="M443.1,50.7c-1.7,0.3-4.2,0.4-6.3,0.4c-1.8,0-3.3-0.1-4.2-0.3c-2.6-0.6-3.7-2.3-3.7-4.1c0-1.6,0.8-3.2,2-4.4
			l1.8,0.8c-1.1,1-1.7,2.2-1.7,3.2c0,1.1,0.7,2.1,2.3,2.5c0.7,0.1,1.9,0.2,3.2,0.2c2,0,4.5-0.2,6.4-0.6L443.1,50.7z M433.4,40.1
			c0.9-0.7,2.2-1.6,3.1-2.1v0c-1.3,0.2-4.6,0.2-6.6,0.2c0-0.5,0-1.5,0-2c2,0,6.2,0,8.1-0.2c1.2-0.1,2.6-0.2,3.8-0.5l0.2,2.1
			c-2.6,0.4-5.7,2.4-6.9,3.4L433.4,40.1z"/>
		<path class="st1" d="M461.8,50.7c-1.7,0.3-4.2,0.4-6.3,0.4c-1.8,0-3.3-0.1-4.2-0.3c-2.6-0.6-3.7-2.3-3.7-4.1c0-1.6,0.8-3.2,2-4.4
			l1.8,0.8c-1.1,1-1.7,2.2-1.7,3.2c0,1.1,0.7,2.1,2.3,2.5c0.7,0.1,1.9,0.2,3.2,0.2c2,0,4.5-0.2,6.4-0.6L461.8,50.7z M452,40.1
			c0.9-0.7,2.2-1.6,3.1-2.1v0c-1.3,0.2-4.6,0.2-6.6,0.2c0-0.5,0-1.5,0-2c2,0,6.2,0,8.1-0.2c1.2-0.1,2.6-0.2,3.8-0.5l0.2,2.1
			c-2.6,0.4-5.7,2.4-6.9,3.4L452,40.1z"/>
		<path class="st1" d="M470.7,42.5c1.5-0.8,3.4-1.3,4.9-1.3c3.1,0,5.4,1.8,5.4,4.9c0,3.9-3.7,5.6-10.5,5.9c-0.1-0.5-0.5-1.5-0.7-1.9
			c6.2-0.2,9-1.4,9-4c0-2-1.5-3.1-3.8-3.1c-2.3,0-5.3,1.1-7,2.7c-0.4,0.4-1.2,1.1-1.8,1.8l-1.5-1.4c1.8-2,7.1-7.3,9.4-9.7
			c-1.1,0.1-4.9,0.4-6.7,0.5c-0.1,0.1-0.3,0.3-0.5,0.3l-0.2-2.3c2.8,0,8.8-0.4,9.3-0.6l0.3-0.2L478,36c-0.1,0.1-0.3,0.2-0.6,0.2
			C475.7,37.6,472,41.2,470.7,42.5L470.7,42.5z"/>
		<path class="st1" d="M489.7,35c0,0.2-0.2,0.4-0.7,0.4c-0.7,3.5-1.1,7.2-1.1,9.2c0,1.4,0,2.7,0.2,3.5c0.3-0.8,1.2-2.8,1.4-3.5
			l1.1,1.4c-0.8,1.8-1.4,2.9-1.7,3.9c-0.1,0.4-0.2,0.7-0.2,1c0,0.2,0,0.5,0.1,0.7l-2,0.3c-0.7-2-0.9-4.5-0.9-7.3
			c0-2.8,0.4-6.6,1-10.1L489.7,35z M502.5,50.3c-0.7,0-1.5,0.1-2.3,0.1c-1.4,0-2.8-0.1-3.7-0.2c-2.7-0.4-3.9-1.8-3.9-3.6
			c0-1.4,0.7-2.7,1.9-4.1l1.9,0.7c-1,1-1.7,2-1.7,3.1c0,1.9,2.6,2,5,2c0.9,0,1.9,0,2.8-0.1L502.5,50.3z M493,37.3
			c2.5-0.1,6.3-0.3,8.9-0.8l0.2,2c-2.5,0.4-6.6,0.7-9,0.7L493,37.3z"/>
		<path class="st1" d="M525.7,43.3V45h-3.3v5.7c0,1.9-0.8,2.1-4.4,2.1c-0.1-0.5-0.4-1.3-0.6-1.8c0.7,0,1.4,0,1.9,0
			c1.1,0,1.2,0,1.2-0.4V45h-13.6v-1.7h2.8c-0.2-0.4-0.5-0.9-0.8-1.2c3-0.4,4.6-1,5.5-2.1h-4.6v-1.6h5.3c0.1-0.4,0.2-0.9,0.2-1.5
			h-5.9v2.3h-1.8v-4h7.7v-1.8l2.4,0.1c0,0.2-0.2,0.3-0.5,0.4v1.3h7.7v4H523v-2.3h-7.5v0l2,0.1c0,0.2-0.2,0.3-0.4,0.3
			c0,0.3-0.1,0.7-0.2,1h5.8v1.6h-6.3l-0.1,0.2c2.2,0.5,5,1.4,6.5,2.2l-0.7,1H525.7z M517.6,50.7h-6.2v0.8h-1.8V46h8V50.7z M521,43.3
			c-1.5-0.7-3.7-1.4-5.6-1.9c-0.9,0.8-2.3,1.5-4.4,1.9H521z M515.8,47.5h-4.4v1.7h4.4V47.5z"/>
		<path class="st1" d="M530.8,45.7c-0.4-1.3-0.6-3-0.6-4.2c0-1.7,0.2-4,0.6-6.6l2.7,0.4c-0.1,0.3-0.3,0.3-0.6,0.4
			c-0.4,1.6-0.7,4.2-0.7,5.8c0,0.3,0,0.5,0,0.7c0.4-1,1.1-2.3,1.6-3c0.2,0.4,0.7,1,1,1.3c-1.2,1.9-2.1,3.5-2.1,4.3
			c0,0.2,0,0.4,0.1,0.6L530.8,45.7z M542.4,34.4c0,0.2-0.2,0.4-0.5,0.5c0.2,1.7,0.4,4.6,0.4,7.1c0,4-1.4,7.7-7.8,10.3
			c-0.3-0.4-1-1.3-1.5-1.7c5.7-2.2,7-5.5,7-8.6c0-2.7-0.3-5.7-0.5-7.7L542.4,34.4z"/>
		<path class="st1" d="M547.7,39.2c1.2,0.5,2.8,1.3,3.5,2l-1.2,1.6c-0.7-0.7-2.2-1.6-3.5-2.1L547.7,39.2z M547.1,51.4
			c0.8-1.6,2-4.2,2.9-6.5l1.6,1.1c-0.8,2.1-1.8,4.4-2.5,6c0.1,0.1,0.1,0.3,0.1,0.4c0,0.1,0,0.2-0.1,0.2L547.1,51.4z M548.7,33.6
			c1.2,0.5,2.7,1.4,3.4,2.1l-1.2,1.6c-0.7-0.7-2.2-1.7-3.3-2.3L548.7,33.6z M552,38.9h4.6c0.3-0.7,0.5-1.4,0.7-2.2
			c-1.4,0.2-2.8,0.4-4.2,0.5c-0.1-0.5-0.3-1.2-0.6-1.6c3.8-0.4,8.2-1.2,10.5-2.2l1.8,1.5c-0.1,0.1-0.2,0.1-0.5,0.1
			c-1.2,0.5-2.8,0.9-4.6,1.3h0c0,0.2-0.2,0.3-0.5,0.3c-0.2,0.8-0.4,1.6-0.7,2.3h7.3v1.8H562c1.1,1.5,2.6,2.8,4.3,3.4
			c-0.4,0.4-1,1.1-1.3,1.6c-2-1-3.9-2.9-5.1-5h-2.1c-1.2,2.4-3,4.2-5.5,5.4c-0.2-0.4-0.8-1.1-1.2-1.5c1.9-0.8,3.4-2.2,4.5-3.9H552
			V38.9z M551.7,49.9c1.3-1.1,2.1-2.9,2.6-4.5l1.6,0.5c-0.5,1.8-1.3,3.8-2.7,5.1L551.7,49.9z M556.9,42.9l2.3,0.1
			c0,0.2-0.1,0.3-0.5,0.4v7.4c0,1.9-0.9,2-3.7,2c-0.1-0.5-0.3-1.2-0.5-1.8c0.5,0,1.1,0,1.5,0c0.8,0,0.9,0,0.9-0.3V42.9z M560.5,50.6
			c-0.1-1.2-0.7-3-1.4-4.3l1.5-0.5c0.7,1.3,1.3,3.1,1.5,4.3L560.5,50.6z M564.5,51.1c-0.5-1.5-1.7-3.7-2.9-5.2l1.5-0.8
			c1.3,1.6,2.5,3.7,3,5.1L564.5,51.1z"/>
		<path class="st1" d="M569.7,40.9c3.1-0.8,7.1-1.7,8.7-1.7c3,0,5.1,1.6,5.1,5c0,3.9-3,6.6-8.8,8.3c-0.3-0.5-0.9-1.3-1.4-1.8
			c5.4-1.3,7.9-3.7,7.9-6.4c0-1.8-0.8-3.1-2.9-3.1c-1.7,0-4.7,0.7-7.3,1.7c0,0.2-0.2,0.4-0.4,0.5L569.7,40.9z M572.8,33.8
			c2.9,0.2,6.1,0.8,8.2,1.5l-0.6,2c-2.2-0.7-5.6-1.4-8.2-1.6L572.8,33.8z"/>
	</g>
</g>
<g>
	<path class="st1" d="M875.5,164l-4.7,8.8c-0.5,0.1-1,0.1-1.5,0l-4.7-8.8v13.2c-0.6,0.1-1.4,0.1-2,0v-16.6c0.6-0.1,1.6-0.1,2.2,0
		l5.3,10l5.3-10c0.6-0.1,1.5-0.1,2.1,0v16.6c-0.6,0.1-1.4,0.1-2,0V164z"/>
	<path class="st1" d="M884.3,161.7c-0.6,0.1-1.5,0.1-2.1,0l0-1.9c0.6-0.1,1.6-0.1,2.2,0L884.3,161.7z M882.3,164.5
		c0.5-0.1,1.4-0.1,1.9,0v12.6c-0.5,0.1-1.4,0.1-1.9,0V164.5z"/>
	<path class="st1" d="M896.5,174.1c0,2.4-1.8,3.3-4.4,3.3c-1.2,0-2.7-0.1-3.9-0.4c-0.1-0.5-0.1-1.2,0-1.7c1.3,0.3,2.6,0.4,3.7,0.4
		c1.3,0,2.7-0.2,2.7-1.8v-0.5c0-1-0.5-1.3-1.5-1.6l-2.6-0.7c-1.6-0.5-2.4-1.2-2.4-2.8v-1c0-2.3,1.8-3.2,4.8-3.2
		c1.1,0,2.1,0.1,3.5,0.4c0.1,0.5,0.1,1.1,0,1.6c-1.4-0.3-2.2-0.3-3.4-0.3c-1.6,0-3,0.2-3,1.8v0.5c0,0.9,0.6,1.2,1.5,1.5l2.5,0.7
		c1.7,0.4,2.5,1.2,2.5,2.9V174.1z"/>
	<path class="st1" d="M907.6,175.4h-0.1c-0.4,1.5-2,2-4.1,2c-2.4,0-4.2-1-4.2-3.7c0-3.3,2-4,4.8-4c1.2,0,2.2,0.1,3.6,0.3v-1.7
		c0-1.6-0.8-2.5-3.5-2.5c-1.1,0-2.4,0.1-3.8,0.3c-0.1-0.5-0.1-1.2,0-1.7c1.5-0.3,2.9-0.4,4.3-0.4c3.3,0,5,1.2,5,3.5v9.5
		c-0.4,0.1-1.1,0.1-1.6,0L907.6,175.4z M907.5,171.5c-1.1-0.2-2.2-0.3-3.2-0.3c-2.1,0-3.2,0.3-3.2,2.3c0,1.9,1.3,2.2,2.9,2.2
		c2.2,0,2.9-0.5,3.5-2V171.5z"/>
	<path class="st1" d="M921.1,167.2l-3,9.9c-0.6,0.1-1.6,0.1-2.2,0l-4-12.6c0.6-0.1,1.4-0.1,2,0L917,175l3.1-10.5
		c0.5-0.1,1.5-0.1,2,0l3.1,10.5l3.1-10.5c0.6-0.1,1.4-0.1,2,0l-4,12.6c-0.6,0.1-1.6,0.1-2.2,0L921.1,167.2z"/>
	<path class="st1" d="M940.5,175.4h-0.1c-0.4,1.5-2,2-4.1,2c-2.4,0-4.2-1-4.2-3.7c0-3.3,2-4,4.8-4c1.2,0,2.2,0.1,3.6,0.3v-1.7
		c0-1.6-0.8-2.5-3.5-2.5c-1.1,0-2.4,0.1-3.8,0.3c-0.1-0.5-0.1-1.2,0-1.7c1.5-0.3,2.9-0.4,4.3-0.4c3.3,0,5,1.2,5,3.5v9.5
		c-0.4,0.1-1.1,0.1-1.6,0L940.5,175.4z M940.4,171.5c-1.1-0.2-2.2-0.3-3.2-0.3c-2.1,0-3.2,0.3-3.2,2.3c0,1.9,1.3,2.2,2.9,2.2
		c2.2,0,2.9-0.5,3.5-2V171.5z"/>
	<path class="st1" d="M965.2,164l-4.7,8.8c-0.5,0.1-1,0.1-1.5,0l-4.7-8.8v13.2c-0.6,0.1-1.4,0.1-2,0v-16.6c0.6-0.1,1.6-0.1,2.2,0
		l5.3,10l5.3-10c0.6-0.1,1.5-0.1,2.1,0v16.6c-0.6,0.1-1.4,0.1-2,0V164z"/>
	<path class="st1" d="M981.4,171.4c-1.9,0.1-5.7,0.2-8,0v1.7c0,2.2,1.5,2.5,3.5,2.5c1.6,0,2.6-0.1,4-0.4c0.1,0.5,0.1,1.2,0,1.7
		c-1.6,0.3-2.9,0.4-4.3,0.4c-3.2,0-5.1-1-5.1-3.8V168c0-2.9,2-3.8,5.1-3.8c3.1,0,4.9,1.3,4.9,4.2V171.4z M979.5,168.3
		c0-2.2-1.4-2.5-3-2.5s-3.1,0.3-3.1,2.5v1.8l2.1-0.1h4V168.3z"/>
	<path class="st1" d="M993.9,168.5c0-2.4-1.3-2.7-3-2.7c-2.3,0-2.9,0.5-3.5,2.2v9.1c-0.5,0.1-1.4,0.1-1.9,0v-12.7
		c0.4-0.1,1.1-0.1,1.6,0l0.2,1.8h0.1c0.4-1.5,2-2,4.2-2c2.5,0,4.3,0.9,4.3,3.6v9.3c-0.5,0.1-1.4,0.1-1.9,0V168.5z"/>
	<path class="st1" d="M1000.8,166.2h-2.1c-0.1-0.4-0.1-1.1,0-1.5l2.1-0.1v-3.4c0.6-0.1,1.4-0.1,1.9,0v3.4h4.1c0.1,0.4,0.1,1.2,0,1.6
		h-4.1v6.9c0,2.4,1.3,2.6,2.4,2.6c0.7,0,1.2-0.1,1.7-0.2c0.1,0.5,0.1,1.2,0,1.7c-0.7,0.1-1.4,0.2-2.3,0.2c-1.9,0-3.8-0.8-3.8-3.8
		V166.2z"/>
	<path class="st1" d="M1017.2,175.4h-0.1c-0.4,1.5-2,2-4.1,2c-2.4,0-4.2-1-4.2-3.7c0-3.3,2-4,4.8-4c1.2,0,2.2,0.1,3.6,0.3v-1.7
		c0-1.6-0.8-2.5-3.5-2.5c-1.1,0-2.4,0.1-3.8,0.3c-0.1-0.5-0.1-1.2,0-1.7c1.5-0.3,2.9-0.4,4.3-0.4c3.3,0,5,1.2,5,3.5v9.5
		c-0.5,0.1-1.1,0.1-1.6,0L1017.2,175.4z M1017.1,171.5c-1.1-0.2-2.2-0.3-3.2-0.3c-2.1,0-3.2,0.3-3.2,2.3c0,1.9,1.3,2.2,2.9,2.2
		c2.2,0,2.9-0.5,3.5-2V171.5z"/>
	<path class="st1" d="M1023.3,159.2c0.5-0.1,1.4-0.1,1.9,0v17.9c-0.5,0.1-1.4,0.1-1.9,0V159.2z"/>
	<path class="st1" d="M1035.3,164.7c0-3.5,2.4-4.6,6.2-4.6c1.5,0,2.9,0.1,4.4,0.4c0.1,0.5,0.1,1.2,0,1.6c-1.4-0.2-2.6-0.3-4.2-0.3
		c-2.4,0-4.4,0.3-4.4,3.2v7.4c0,2.8,2,3.1,4.4,3.1c1.7,0,2.9-0.3,4.2-0.7c0.1,0.4,0.2,1.1,0.2,1.6c-1.5,0.5-3.3,0.8-4.7,0.8
		c-3.8,0-6.2-1.1-6.2-4.6V164.7z"/>
	<path class="st1" d="M1049.9,159.2c0.6-0.1,1.4-0.1,1.9,0v17.9c-0.5,0.1-1.4,0.1-1.9,0V159.2z"/>
	<path class="st1" d="M1058.7,161.7c-0.6,0.1-1.5,0.1-2.1,0l-0.1-1.9c0.6-0.1,1.6-0.1,2.2,0L1058.7,161.7z M1056.7,164.5
		c0.6-0.1,1.4-0.1,1.9,0v12.6c-0.5,0.1-1.4,0.1-1.9,0V164.5z"/>
	<path class="st1" d="M1072,168.5c0-2.4-1.3-2.7-3-2.7c-2.3,0-2.9,0.5-3.5,2.2v9.1c-0.5,0.1-1.4,0.1-1.9,0v-12.7
		c0.5-0.1,1.1-0.1,1.6,0l0.2,1.8h0.1c0.4-1.5,2-2,4.2-2c2.5,0,4.3,0.9,4.3,3.6v9.3c-0.5,0.1-1.4,0.1-1.9,0V168.5z"/>
	<path class="st1" d="M1080.5,161.7c-0.6,0.1-1.5,0.1-2.1,0l0-1.9c0.6-0.1,1.6-0.1,2.2,0L1080.5,161.7z M1078.5,164.5
		c0.5-0.1,1.4-0.1,1.9,0v12.6c-0.5,0.1-1.4,0.1-1.9,0V164.5z"/>
	<path class="st1" d="M1084.7,167.9c0-2.8,1.9-3.8,4.9-3.8c1.2,0,2.4,0.1,3.8,0.3c0.1,0.5,0.1,1.2,0,1.7c-1.2-0.2-2.1-0.3-3.5-0.3
		c-1.6,0-3.1,0.3-3.1,2.5v4.8c0,2.2,1.5,2.5,3.1,2.5c1.5,0,2.3-0.1,3.5-0.4c0.1,0.5,0.1,1.2,0,1.7c-1.3,0.3-2.5,0.4-3.8,0.4
		c-3,0-4.9-1-4.9-3.8V167.9z"/>
</g>
<g>
	<path class="st1" d="M778.4,146.7c-1.8,0-3.5-0.9-5.1-2.7c-1.6-1.8-2.4-3.8-2.4-5.9c0-2,1-3.8,3.1-5.4c2.1-1.5,4.9-2.4,8.5-2.7
		c0.2,0,0.3-0.1,0.3-0.3c0.3-2.7,0.6-4.9,0.8-6.6c0-0.2-0.1-0.3-0.3-0.3H775c-0.4,0-0.8-0.2-1.1-0.5c-0.3-0.3-0.4-0.7-0.4-1.1
		s0.1-0.8,0.4-1.1c0.3-0.3,0.7-0.5,1.1-0.5h10.3c0.5,0,1,0.2,1.4,0.6c0.4,0.4,0.6,0.9,0.6,1.4v1.2c-0.5,4.3-0.7,6.6-0.8,6.9
		c0,0.2,0,0.3,0.2,0.3c2.1,0.1,4.1,0.5,6,1c0.2,0,0.3,0,0.3-0.2c0.1-1.9,0.1-4.1,0.1-6.6c0-0.5,0.2-0.9,0.5-1.2
		c0.3-0.3,0.8-0.5,1.2-0.5c0.5,0,0.9,0.2,1.2,0.5c0.3,0.3,0.5,0.8,0.5,1.3c0,2.7-0.1,5.2-0.2,7.6c0,0.2,0.1,0.4,0.3,0.4
		c1.2,0.4,2.5,1.1,3.9,1.9c0.4,0.2,0.7,0.6,0.8,1c0.1,0.4,0.1,0.9-0.1,1.3c-0.2,0.4-0.5,0.7-1,0.8c-0.4,0.1-0.8,0.1-1.2-0.2
		c-1-0.6-1.9-1-2.7-1.3c-0.1,0-0.1,0-0.2,0c-0.1,0-0.1,0.1-0.1,0.2c-0.3,3.2-0.9,5.5-1.8,7.1c-0.9,1.5-2.3,2.9-4.3,4
		c-0.4,0.2-0.9,0.3-1.3,0.2c-0.5-0.1-0.8-0.4-1.1-0.8c-0.3-0.4-0.3-0.8-0.2-1.2c0.1-0.5,0.4-0.8,0.8-1c1.6-0.9,2.7-2,3.3-3.2
		c0.7-1.3,1.1-3.3,1.3-6.2c0-0.2-0.1-0.3-0.3-0.4c-2-0.6-4.1-1-6.2-1.1c-0.2,0-0.3,0.1-0.4,0.2c-0.3,2.3-0.7,4.2-1.1,5.8
		c-0.4,1.6-0.8,2.9-1.3,3.8c-0.4,1-0.9,1.7-1.5,2.3c-0.5,0.5-1.1,0.9-1.6,1.1C779.8,146.6,779.2,146.7,778.4,146.7z M782,133.3
		c-2.4,0.3-4.2,0.8-5.5,1.7c-1.3,0.9-1.9,1.9-1.9,3c0,1.2,0.4,2.3,1.3,3.5c0.9,1.1,1.7,1.7,2.6,1.7c1.5,0,2.7-3.2,3.8-9.7
		c0-0.1,0-0.1-0.1-0.2C782.1,133.3,782,133.3,782,133.3z"/>
	<path class="st1" d="M808.6,125.7c-0.4,0-0.8-0.1-1.1-0.5c-0.3-0.3-0.5-0.7-0.5-1.1c0-0.4,0.2-0.8,0.5-1.1c0.3-0.3,0.7-0.5,1.1-0.5
		c3.8,0,8.5-0.1,14-0.2c0.2,0,0.3-0.1,0.2-0.3c-0.1-1-0.2-1.8-0.3-2.4c0-0.5,0.1-0.9,0.4-1.3c0.3-0.4,0.7-0.6,1.2-0.6
		c0.5,0,0.9,0.1,1.2,0.5c0.4,0.3,0.6,0.7,0.6,1.2c0,0.7,0.1,1.5,0.3,2.5c0,0.2,0.2,0.3,0.3,0.3c1.7,0,3.9-0.1,6.8-0.3
		c0.4,0,0.8,0.1,1.1,0.4c0.3,0.3,0.5,0.7,0.5,1.1c0,0.4-0.1,0.8-0.4,1.1c-0.3,0.3-0.6,0.5-1.1,0.5c-1.4,0.1-3.5,0.2-6.3,0.2
		c-0.2,0-0.3,0.1-0.2,0.3c0.6,2.7,1.7,5.3,3.1,7.6c0.3,0.4,0.4,0.9,0.2,1.4c-0.1,0.5-0.4,0.9-0.9,1.1c-1,0.6-2.1,0.5-3.3-0.1
		c-2.3-1.2-4.6-1.8-7.1-1.8c-2,0-3.6,0.4-4.7,1.2c-1.1,0.8-1.7,1.9-1.7,3.3c0,3.7,3.1,5.6,9.4,5.6c1.9,0,4.1-0.2,6.7-0.6
		c0.4-0.1,0.8,0,1.2,0.3c0.4,0.2,0.6,0.6,0.7,1c0.1,0.4,0,0.8-0.2,1.2c-0.3,0.4-0.6,0.6-1,0.6c-2.4,0.4-4.9,0.6-7.4,0.6
		c-4.5,0-7.8-0.8-9.9-2.5c-2.1-1.7-3.2-3.8-3.2-6.4c0-2.3,0.9-4.1,2.7-5.5c1.8-1.4,4.2-2,7.3-2c2.3,0,4.6,0.5,6.9,1.5h0.1v-0.1
		c-1-1.8-1.7-3.9-2.3-6.4c0-0.2-0.2-0.3-0.4-0.3C817.4,125.6,812.5,125.7,808.6,125.7z"/>
	<path class="st1" d="M841.4,137.8c2.4-2.9,4.6-5.5,6.7-7.6c0.1-0.1,0.2-0.3,0.2-0.5v-3c0-0.2-0.1-0.3-0.3-0.3h-5.3
		c-0.4,0-0.7-0.1-1-0.4c-0.3-0.3-0.5-0.6-0.5-1s0.2-0.7,0.5-1c0.3-0.3,0.7-0.5,1-0.5h5.3c0.2,0,0.3-0.1,0.3-0.3v-3.4
		c0-0.5,0.2-0.9,0.5-1.2c0.3-0.3,0.7-0.5,1.2-0.5c0.4,0,0.8,0.2,1.2,0.5c0.3,0.3,0.5,0.7,0.5,1.2v6.8c0,0,0,0.1,0.1,0.1
		c0.1,0,0.1,0,0.1,0c2-1.8,3.8-3,5.3-3.7c1.5-0.7,3.1-1,4.6-1c3,0,5.3,1,6.7,3c1.5,2,2.2,5.1,2.2,9.4c0,3.7-0.9,6.7-2.7,8.7
		s-4.1,3.1-7.1,3.1c-1.4,0-2.7-0.2-4.1-0.7c-0.4-0.2-0.7-0.5-0.9-0.9c-0.2-0.4-0.2-0.9,0-1.3c0.2-0.4,0.4-0.7,0.9-0.9
		c0.4-0.2,0.8-0.2,1.2-0.1c1.1,0.3,2.1,0.5,2.9,0.5c1.9,0,3.4-0.7,4.6-2.2c1.1-1.5,1.7-3.6,1.7-6.3c0-3.3-0.4-5.6-1.3-6.9
		c-0.9-1.4-2.3-2-4.2-2c-1.3,0-2.6,0.4-4.1,1.3c-1.5,0.9-3.4,2.4-5.6,4.6c-0.1,0.1-0.2,0.3-0.2,0.5V146c0,0.5-0.2,0.9-0.5,1.2
		c-0.3,0.3-0.7,0.5-1.2,0.5c-0.5,0-0.9-0.2-1.2-0.5c-0.3-0.3-0.5-0.7-0.5-1.2v-10.7c0,0,0-0.1-0.1-0.1c0,0-0.1,0-0.1,0
		c-1.4,1.5-2.8,3.2-4.2,4.9c-0.3,0.3-0.7,0.5-1.1,0.6c-0.4,0-0.8-0.1-1.2-0.4c-0.3-0.3-0.5-0.7-0.6-1.2
		C840.9,138.6,841.1,138.2,841.4,137.8z"/>
	<path class="st0" d="M890.9,147c-4.1,0-7.3-0.7-9.7-2.1c-2.4-1.4-3.6-3.2-3.6-5.4c0-2.1,1.3-4.6,4-7.4c0.3-0.4,0.7-0.5,1.2-0.6
		c0.5,0,0.9,0.1,1.3,0.4c0.4,0.3,0.5,0.6,0.6,1.1c0,0.5-0.1,0.8-0.4,1.2c-2,2.1-3,3.8-3,5c0,1.4,0.8,2.5,2.5,3.3
		c1.7,0.8,4,1.2,7,1.2c3.1,0,6.4-0.4,9.9-1.2c0.4-0.1,0.9,0,1.2,0.2c0.4,0.2,0.6,0.6,0.8,1c0.1,0.5,0,0.9-0.2,1.3
		c-0.3,0.4-0.6,0.6-1,0.7C897.9,146.6,894.3,147,890.9,147z M882.4,120.5h17c0.4,0,0.8,0.2,1.1,0.5c0.3,0.3,0.5,0.7,0.5,1.2
		c0,0.5-0.2,0.8-0.5,1.2c-0.3,0.3-0.7,0.5-1.1,0.5h-17c-0.4,0-0.8-0.2-1.1-0.5c-0.3-0.3-0.5-0.7-0.5-1.2c0-0.5,0.2-0.8,0.5-1.2
		C881.6,120.6,882,120.5,882.4,120.5z"/>
	<path class="st0" d="M925.8,147c-4.1,0-7.3-0.7-9.7-2.1c-2.4-1.4-3.6-3.2-3.6-5.4c0-2.1,1.3-4.6,4-7.4c0.3-0.4,0.7-0.5,1.2-0.6
		c0.5,0,0.9,0.1,1.3,0.4c0.4,0.3,0.5,0.6,0.6,1.1c0,0.5-0.1,0.8-0.4,1.2c-2,2.1-3,3.8-3,5c0,1.4,0.8,2.5,2.5,3.3
		c1.7,0.8,4,1.2,7,1.2c3.1,0,6.4-0.4,9.9-1.2c0.4-0.1,0.9,0,1.2,0.2c0.4,0.2,0.6,0.6,0.8,1c0.1,0.5,0,0.9-0.2,1.3
		c-0.3,0.4-0.6,0.6-1,0.7C932.8,146.6,929.2,147,925.8,147z M917.3,120.5h17c0.4,0,0.8,0.2,1.1,0.5c0.3,0.3,0.5,0.7,0.5,1.2
		c0,0.5-0.2,0.8-0.5,1.2c-0.3,0.3-0.7,0.5-1.1,0.5h-17c-0.4,0-0.8-0.2-1.1-0.5c-0.3-0.3-0.5-0.7-0.5-1.2c0-0.5,0.2-0.8,0.5-1.2
		C916.5,120.6,916.9,120.5,917.3,120.5z"/>
	<path class="st0" d="M949.2,136.2c-0.3,0.2-0.7,0.2-1.1,0.1c-0.4-0.1-0.7-0.3-0.8-0.7c-0.2-0.4-0.2-0.8-0.1-1.2
		c0.1-0.4,0.3-0.7,0.7-0.9L964,123l0,0l0,0h-12.9c-0.4,0-0.8-0.2-1.1-0.5c-0.3-0.3-0.5-0.7-0.5-1.1s0.2-0.8,0.5-1.1
		c0.3-0.3,0.7-0.5,1.1-0.5h17.7c0.4,0,0.8,0.2,1.1,0.5s0.5,0.7,0.5,1.2c0,1.1-0.4,1.9-1.3,2.4l-11.1,6.5l0,0h0.1
		c1.9-0.5,3.7-0.7,5.3-0.7c7,0,10.5,2.5,10.5,7.4c0,3.2-1.2,5.6-3.5,7.3c-2.3,1.7-5.8,2.5-10.5,2.5c-1.7,0-3.6-0.1-5.7-0.3
		c-0.5,0-0.9-0.2-1.2-0.6c-0.3-0.4-0.5-0.8-0.5-1.2c0-0.4,0.2-0.8,0.5-1.1c0.3-0.3,0.7-0.4,1.2-0.4c1.7,0.2,3.5,0.2,5.4,0.2
		c6.8,0,10.3-2,10.3-6.1c0-1.6-0.6-2.8-1.8-3.6c-1.2-0.8-3.2-1.2-5.9-1.2C958.2,132.7,953.9,133.9,949.2,136.2z"/>
	<path class="st1" d="M987.6,145.8c-1.8,0-3.4-1-4.9-3.1c-1.5-2.1-2.2-4.7-2.2-7.7c0-4.4,1.5-8.1,4.5-10.8c3-2.8,7-4.2,11.9-4.2
		c3.9,0,7.2,1.2,9.8,3.7c2.6,2.5,3.9,5.6,3.9,9.4c0,3.6-0.8,6.6-2.5,8.9s-4,3.8-6.9,4.4c-0.5,0.1-0.9,0-1.3-0.3
		c-0.4-0.3-0.6-0.7-0.8-1.2c-0.1-0.4,0-0.8,0.2-1.2c0.3-0.4,0.6-0.6,1-0.7c2.2-0.6,3.8-1.7,5-3.4c1.2-1.7,1.7-3.9,1.7-6.6
		c0-2.6-0.8-4.8-2.5-6.6c-1.7-1.8-3.8-2.8-6.4-3.1c-0.2,0-0.3,0-0.3,0.3c-0.5,4.4-1.2,8.1-1.9,11.1c-0.7,3-1.6,5.3-2.5,6.8
		c-0.9,1.5-1.8,2.6-2.7,3.3C989.7,145.5,988.7,145.8,987.6,145.8z M993.8,123.5c-3,0.5-5.5,1.8-7.2,3.9c-1.8,2-2.7,4.6-2.7,7.6
		c0,2,0.4,3.7,1.2,5.1c0.8,1.5,1.6,2.2,2.4,2.2c0.4,0,0.8-0.2,1.2-0.5c0.4-0.3,0.8-0.9,1.3-1.8c0.5-0.9,1-2,1.4-3.3
		c0.5-1.3,0.9-3.1,1.4-5.4c0.5-2.2,0.9-4.8,1.2-7.7c0-0.1,0-0.1-0.1-0.2C994,123.5,993.9,123.5,993.8,123.5z"/>
	<path class="st1" d="M1020.3,134.1c-0.3,0.4-0.7,0.5-1.2,0.6c-0.5,0-0.9-0.1-1.3-0.5c-0.3-0.3-0.5-0.7-0.6-1.2
		c0-0.5,0.1-0.9,0.5-1.2c3.1-3.5,5.1-7.4,6-11.9c0.1-0.5,0.3-0.9,0.7-1.2c0.4-0.3,0.8-0.5,1.3-0.5c0.5,0,0.9,0.2,1.2,0.6
		c0.3,0.4,0.4,0.8,0.4,1.3c0,0.1-0.1,0.3-0.1,0.6c-0.1,0.3-0.1,0.5-0.1,0.6c0,0.2,0,0.3,0.2,0.3h13.3c0.5,0,1,0.2,1.4,0.6
		c0.4,0.4,0.6,0.9,0.6,1.4c-0.2,7.2-2,12.6-5.4,16.3c-3.4,3.6-8.8,5.9-16.1,6.7c-0.5,0-0.9-0.1-1.3-0.4c-0.4-0.3-0.6-0.7-0.7-1.1
		c-0.1-0.4,0-0.8,0.3-1.2c0.3-0.4,0.6-0.6,1.1-0.6c6.1-0.8,10.6-2.5,13.4-5.3c2.8-2.8,4.4-7,4.7-12.7c0-0.2-0.1-0.3-0.3-0.3h-12.1
		c-0.2,0-0.3,0.1-0.4,0.3C1024.7,128.5,1022.8,131.5,1020.3,134.1z"/>
	<path class="st1" d="M1056.2,135c-0.5,0-1-0.2-1.3-0.6c-0.4-0.4-0.6-0.8-0.6-1.4v-11.7c0-0.5,0.2-1,0.6-1.4
		c0.4-0.4,0.8-0.6,1.3-0.6c0.5,0,1,0.2,1.4,0.6c0.4,0.4,0.6,0.8,0.6,1.3V133c0,0.5-0.2,1-0.6,1.3
		C1057.2,134.8,1056.8,135,1056.2,135z M1072.8,120c0.4-0.4,0.8-0.6,1.4-0.6s1,0.2,1.4,0.6c0.4,0.4,0.6,0.8,0.6,1.4v7.3
		c0,5.6-1.3,9.9-3.8,12.9c-2.5,2.9-6.5,4.9-12.1,5.7c-0.5,0.1-0.9,0-1.3-0.3c-0.4-0.3-0.7-0.7-0.8-1.2c-0.1-0.5,0-0.9,0.3-1.3
		c0.3-0.4,0.6-0.6,1.1-0.7c4.7-0.8,8-2.4,9.9-4.6c1.9-2.2,2.8-5.7,2.8-10.4v-7.4C1072.2,120.9,1072.4,120.4,1072.8,120z"/>
	<path class="st1" d="M1087.9,145.1c-0.5,0-0.9-0.2-1.3-0.5c-0.3-0.3-0.5-0.8-0.5-1.3c0-0.5,0.2-0.9,0.5-1.3
		c0.3-0.4,0.8-0.5,1.3-0.5h24.4c0.5,0,0.9,0.2,1.3,0.5c0.3,0.4,0.5,0.8,0.5,1.3c0,0.5-0.2,0.9-0.5,1.3c-0.4,0.3-0.8,0.5-1.3,0.5
		H1087.9z M1090.4,121h19.5c0.5,0,0.9,0.2,1.3,0.5c0.3,0.3,0.5,0.8,0.5,1.3c0,0.5-0.2,0.9-0.5,1.3c-0.3,0.4-0.8,0.5-1.3,0.5h-19.5
		c-0.5,0-0.9-0.2-1.3-0.5c-0.3-0.4-0.5-0.8-0.5-1.3c0-0.5,0.2-0.9,0.5-1.3C1089.5,121.2,1089.9,121,1090.4,121z"/>
	<path class="st1" d="M1125.8,134.6c-0.6-2.3-1.1-4.3-1.6-6c-0.1-0.4-0.1-0.9,0.2-1.2c0.2-0.4,0.6-0.6,1-0.7c0.5-0.1,0.9,0,1.3,0.2
		c0.4,0.2,0.7,0.6,0.8,1.1c0.7,2.3,1.2,4.3,1.6,6c0.1,0.4,0,0.9-0.2,1.3s-0.6,0.7-1.1,0.8c-0.5,0.1-0.9,0-1.3-0.2
		C1126.2,135.5,1125.9,135.1,1125.8,134.6z M1144.8,125.5c0.5,0,0.9,0.2,1.2,0.6c0.3,0.4,0.5,0.8,0.5,1.3
		c-0.3,6.2-1.7,10.8-4.2,13.7c-2.5,2.9-6.5,4.8-12.1,5.7c-0.4,0.1-0.8,0-1.2-0.3s-0.6-0.6-0.7-1.1c-0.1-0.4,0-0.8,0.2-1.2
		c0.3-0.4,0.6-0.6,1-0.6c4.7-0.8,8.1-2.4,10.1-4.8c2-2.4,3.1-6.2,3.3-11.6c0-0.5,0.2-0.9,0.6-1.2
		C1143.9,125.7,1144.3,125.5,1144.8,125.5z M1136.6,134.5c-0.2,0.4-0.6,0.7-1.1,0.8c-0.5,0.1-0.9,0-1.3-0.2
		c-0.4-0.3-0.7-0.6-0.8-1.1c-0.6-2.4-1.2-4.5-1.6-6.3c-0.1-0.4-0.1-0.9,0.2-1.3c0.2-0.4,0.6-0.7,1.1-0.8c0.5-0.1,0.9,0,1.3,0.2
		c0.4,0.3,0.7,0.6,0.8,1.1c0.8,3,1.3,5.1,1.6,6.2C1136.9,133.7,1136.9,134.1,1136.6,134.5z"/>
	<path class="st1" d="M1159.9,134.1c-0.3,0.4-0.7,0.5-1.2,0.6c-0.5,0-0.9-0.1-1.3-0.5c-0.3-0.3-0.5-0.7-0.6-1.2
		c0-0.5,0.1-0.9,0.5-1.2c3.1-3.5,5.1-7.4,6-11.9c0.1-0.5,0.3-0.9,0.7-1.2c0.4-0.3,0.8-0.5,1.3-0.5c0.5,0,0.9,0.2,1.2,0.6
		c0.3,0.4,0.4,0.8,0.4,1.3c0,0.1-0.1,0.3-0.1,0.6c-0.1,0.3-0.1,0.5-0.1,0.6c0,0.2,0,0.3,0.2,0.3h13.3c0.5,0,1,0.2,1.4,0.6
		c0.4,0.4,0.6,0.9,0.6,1.4c-0.2,7.2-2,12.6-5.4,16.3c-3.4,3.6-8.8,5.9-16.1,6.7c-0.5,0-0.9-0.1-1.3-0.4c-0.4-0.3-0.6-0.7-0.7-1.1
		c-0.1-0.4,0-0.8,0.3-1.2c0.3-0.4,0.6-0.6,1.1-0.6c6.1-0.8,10.6-2.5,13.4-5.3c2.8-2.8,4.4-7,4.7-12.7c0-0.2-0.1-0.3-0.3-0.3h-12.1
		c-0.2,0-0.3,0.1-0.4,0.3C1164.3,128.5,1162.4,131.5,1159.9,134.1z"/>
</g>
<g>
	<path class="st1" d="M804.2,94.1c0,0.2-0.1,0.5-0.2,0.7c3.2,0.7,4.6,2.9,4.6,5.3c0,3.3-2.6,5.4-7.9,6.1c-0.1-0.4-0.5-1.2-0.8-1.7
		c4-0.4,6.6-1.8,6.6-4.3c0-1.2-0.5-3-3.1-3.6c-0.9,2.2-2.4,4.2-4,5.7c0.1,0.3,0.2,0.6,0.4,0.9l-1.7,1.1c-0.1-0.2-0.3-0.6-0.4-0.9
		c-1.6,1.1-2.9,1.3-3.6,1.3c-1.9,0-2.8-1.4-2.8-2.9c0-2.9,2.3-5.2,5.2-6.4c0-1,0-2,0-3.1c-1,0-1.9,0-2.8,0c-0.6,0-1.1,0-1.5,0
		l-0.1-1.9c1,0,2.8,0.1,4.4,0c0-0.9,0.1-2,0.1-2.9l2.7,0.2c0,0.2-0.2,0.4-0.6,0.4c-0.1,0.7-0.1,1.5-0.1,2.2c2.2-0.1,5.6-0.4,7.8-0.8
		l0.2,2c-2.2,0.5-5.7,0.7-8.1,0.7c0,0.9-0.1,1.8,0,2.6c1.6-0.4,2.8-0.4,3.5-0.4c0.1-0.3,0.1-0.6,0.2-0.9L804.2,94.1z M797.1,101.6
		c-0.3-1.2-0.4-2.6-0.5-4.3c-1.9,0.9-3.4,2.4-3.4,4.1c0,1.4,1,1.4,1.3,1.4C795.3,102.7,796.2,102.3,797.1,101.6z M801.3,96.3
		c-1.4,0-2.3,0.2-2.9,0.4c0,1.3,0.1,2.5,0.4,3.5C799.8,99.2,800.7,97.8,801.3,96.3z"/>
	<path class="st1" d="M820.8,87.8c-0.1,0.2-0.3,0.4-0.6,0.4c-0.1,0.8-0.3,1.8-0.5,2.5c1.7-0.1,3.9-0.5,5.6-1l0.3,2
		c-1.9,0.4-4,0.8-6.2,0.9c-1,3.9-2.3,7.1-4.2,10l-2-0.7c1.8-2.6,3.2-5.8,4-9.2c-0.4,0-1,0-1.4,0h-2.4v-1.9h2.4c0.6,0,1.3,0,1.8,0
		c0.2-1,0.4-2.2,0.5-3.3L820.8,87.8z M826.2,96.7c0,1.4,0.1,2.6,0.2,3.9c1.2,0.5,3,1.4,4.2,2.2l-1,1.9c-1-0.7-2.3-1.5-3.2-2
		c0,1.1-0.5,3.4-4,3.4c-2.3,0-4.1-1.1-4.1-3.2c0-2.1,2.1-3.2,4.1-3.2c0.6,0,1.3,0.1,2,0.3c-0.1-1.2-0.1-2.3-0.1-3.1L826.2,96.7z
		 M824.5,101.9c-0.7-0.3-1.5-0.4-2.1-0.4c-1.1,0-2.3,0.5-2.3,1.5c0,1,1,1.5,2.3,1.5c1.2,0,2.1-0.5,2.1-1.8V101.9z M830.4,94.9
		c-2.3,0-5,0.4-7.2,0.9l-0.3-1.8c2.4-0.6,5.2-1.1,7.4-1.1L830.4,94.9z"/>
	<path class="st1" d="M847.3,92.2c-1.7,0.6-3.9,0.9-6,1.1c-0.8,4.5-2.1,9.2-3.7,12.7l-2.1-0.7c1.7-3.3,2.9-7.4,3.6-11.8
		c-0.3,0-0.6,0-0.9,0c-1,0-1.9,0-2.7,0l0-2c0.7,0,1.7,0,2.7,0c0.4,0,0.8,0,1.2,0c0.2-1.2,0.3-2.7,0.5-3.9l2.8,0.3
		c0,0.2-0.3,0.4-0.6,0.5c-0.1,0.8-0.3,1.9-0.5,3c1.8-0.2,3.7-0.5,5.3-1.1L847.3,92.2z M852.7,105.6c-0.6,0-1.3,0.1-2,0.1
		c-1.7,0-3.5-0.1-4.7-0.4c-1.7-0.4-2.5-1.6-2.5-3c0-1.2,0.6-2.3,1.3-3l1.7,0.7c-0.7,0.7-1,1.5-1,2c0,1.4,1.6,1.7,4.7,1.7
		c0.8,0,1.7,0,2.5-0.1L852.7,105.6z M844.8,95.4c2.1-0.7,5-1.1,7.4-1v2c-2.3-0.1-4.9,0.2-7,0.8L844.8,95.4z"/>
	<path class="st1" d="M871,95c-0.1,0-0.1,0-0.2,0c-0.2,0-0.3,0-0.5-0.1c-6.2,1.7-11.3,4.2-11.3,6.7c0,1.8,1.9,2.4,5.1,2.4
		c3.1,0,5.8-0.3,7.3-0.5l0.2,2.1c-1.5,0.2-4.2,0.4-7.5,0.4c-4,0-7.1-1-7.1-4.2c0-2.2,2.1-4.1,5.2-5.8c-0.7-1.4-1-3.7-1-8.3l3,0.2
		c0,0.3-0.2,0.5-0.7,0.5c0,3.3,0,5.4,0.6,6.6c1.8-0.8,4-1.6,6.1-2.4L871,95z"/>
	<path class="st1" d="M883.6,101.8c-0.1,0.1-0.3,0.2-0.5,0.2c-1.4,1.5-3.8,3.4-5.9,4.6c-0.4-0.5-1.2-1.1-1.7-1.5
		c2.1-1.1,4.5-2.9,5.7-4.3L883.6,101.8z M889.8,98h4.7v1.9h-19V98h4.7v-4.9h-3.8v-1.9h3.8v-3.8l2.5,0.1c0,0.2-0.1,0.3-0.5,0.4v3.4
		h5.5v-3.8l2.5,0.1c0,0.2-0.2,0.3-0.5,0.4v3.4h4.1v1.9h-4.1V98z M882.3,93.1V98h5.5v-4.9H882.3z M892.5,106.5
		c-1.2-1.2-3.7-3.3-5.6-4.7l1.8-1.1c1.8,1.3,4.5,3.3,5.8,4.5L892.5,106.5z"/>
	<path class="st1" d="M903,88.7c0,0.2-0.2,0.4-0.7,0.4c-0.7,3.5-1.1,7.2-1.1,9.2c0,1.4,0,2.7,0.2,3.5c0.3-0.8,1.2-2.8,1.4-3.5
		l1.1,1.4c-0.8,1.8-1.4,2.9-1.7,3.9c-0.1,0.4-0.2,0.7-0.2,1c0,0.2,0,0.5,0.1,0.7l-2,0.3c-0.7-2-0.9-4.5-0.9-7.3
		c0-2.8,0.4-6.6,1-10.1L903,88.7z M915.8,104c-0.7,0-1.5,0.1-2.3,0.1c-1.4,0-2.8-0.1-3.7-0.2c-2.7-0.4-3.9-1.8-3.9-3.6
		c0-1.4,0.7-2.7,1.9-4.1l1.9,0.7c-1,1-1.7,2-1.7,3.1c0,1.9,2.6,2,5,2c0.9,0,1.9,0,2.8-0.1L915.8,104z M906.2,91
		c2.5-0.1,6.2-0.3,8.9-0.8l0.2,2c-2.5,0.4-6.6,0.7-9,0.7L906.2,91z"/>
	<path class="st1" d="M932.8,94.1c0,0.2-0.1,0.5-0.2,0.7c3.2,0.7,4.6,2.9,4.6,5.3c0,3.3-2.6,5.4-7.9,6.1c-0.1-0.4-0.5-1.2-0.8-1.7
		c4-0.4,6.6-1.8,6.6-4.3c0-1.2-0.5-3-3.1-3.6c-0.9,2.2-2.4,4.2-4,5.7c0.1,0.3,0.2,0.6,0.4,0.9l-1.7,1.1c-0.1-0.2-0.3-0.6-0.4-0.9
		c-1.6,1.1-2.9,1.3-3.6,1.3c-1.9,0-2.8-1.4-2.8-2.9c0-2.9,2.3-5.2,5.2-6.4c0-1,0-2,0-3.1c-1,0-1.9,0-2.8,0c-0.6,0-1.1,0-1.5,0
		l-0.1-1.9c1,0,2.8,0.1,4.4,0c0-0.9,0.1-2,0.1-2.9l2.7,0.2c0,0.2-0.2,0.4-0.6,0.4c-0.1,0.7-0.1,1.5-0.1,2.2c2.2-0.1,5.6-0.4,7.8-0.8
		l0.2,2c-2.2,0.5-5.7,0.7-8.1,0.7c0,0.9-0.1,1.8,0,2.6c1.6-0.4,2.8-0.4,3.5-0.4c0.1-0.3,0.1-0.6,0.2-0.9L932.8,94.1z M925.8,101.6
		c-0.3-1.2-0.4-2.6-0.5-4.3c-1.9,0.9-3.4,2.4-3.4,4.1c0,1.4,1,1.4,1.3,1.4C924,102.7,924.9,102.3,925.8,101.6z M930,96.3
		c-1.4,0-2.3,0.2-2.9,0.4c0,1.3,0.1,2.5,0.4,3.5C928.5,99.2,929.4,97.8,930,96.3z"/>
	<path class="st1" d="M944,97c1.3-2.9,4.5-5.3,7.5-5.9c0-1.1-0.1-2.4-0.3-3.4l2.7,0.1c0,0.2-0.2,0.4-0.5,0.5c0,0.7,0.1,1.8,0.1,2.6
		c3.2,0,5.9,1.8,5.9,5.4c0,3.7-2.4,5.9-6.6,6c-0.6,1.3-1.9,2.8-4,3.8c-0.4-0.4-1.1-1.1-1.5-1.4c1.7-0.7,2.8-1.9,3.4-2.8
		c-1.5-0.2-3.2-1.3-4.2-2.8c0.5-0.3,1-0.8,1.4-1.2c0.8,1.3,2.3,2.2,3.5,2.3c0.2-0.8,0.3-2.1,0.3-3.1c0-1.2,0-2.5-0.1-4.1
		c-2.4,0.4-5.1,2.3-6.8,5.9c-0.2,0.4-0.3,1-0.3,1.6c0,0.6,0.1,1.2,0.2,1.9l-2,0.2c-0.4-1.7-0.6-3.8-0.6-5.9c0-2.3,0.3-5.6,0.9-7.9
		l2.5,0.5c0,0.2-0.2,0.3-0.5,0.3C944.4,91.6,944,94.9,944,97L944,97z M953.7,92.9c0.1,1.7,0.1,3.3,0.1,4.6c0,1.1-0.1,2.2-0.3,3
		c2.5-0.1,4-1.6,4-4.1C957.4,94.1,955.9,92.8,953.7,92.9z"/>
	<path class="st1" d="M980.9,93.2c-0.1,0.2-0.3,0.4-0.6,0.4c-0.2,1.3-0.6,2.8-0.9,4.1c1,0.4,2.2,1,3.2,1.5l-0.9,2c-1-0.5-2-1-3-1.5
		c-1,2.8-2.4,4.9-4.4,6.3c-0.4-0.4-1.2-0.9-1.7-1.2c2-1.3,3.3-3.2,4.2-6c-1.8-0.7-3.4-1.2-4.8-1.4c-1.4,4.7-2.6,6.4-5.3,6.4
		c-2.2,0-3.1-1.6-3.1-3.5c0-3.2,3.4-4.8,6.9-4.8c0.4-1.5,0.7-3.4,1-5.2c-1,0.1-3.9,0.3-5.5,0.4c-0.1,0.2-0.3,0.2-0.5,0.3l-0.2-2.2
		c2-0.1,5.8-0.3,6.8-0.4c0.2,0,0.4-0.1,0.5-0.2l1.7,0.9c-0.1,0.1-0.3,0.3-0.5,0.4c-0.3,2-0.8,4.6-1.3,6.3c1.4,0.1,3,0.6,4.8,1.3
		c0.3-1.1,0.6-2.8,0.8-4.3L980.9,93.2z M970.1,97.3c-2.6,0-4.6,1.2-4.6,3.1c0,1,0.5,1.7,1.3,1.7C968.2,102.1,969,101.2,970.1,97.3z"
		/>
	<path class="st1" d="M1023.4,104.5c-1.7,0.3-4.2,0.4-6.3,0.4c-1.8,0-3.3-0.1-4.2-0.3c-2.6-0.6-3.7-2.3-3.7-4.1c0-1.6,0.8-3.2,2-4.4
		l1.8,0.8c-1.1,1-1.7,2.2-1.7,3.2c0,1.1,0.7,2.1,2.3,2.5c0.7,0.1,1.9,0.2,3.2,0.2c2,0,4.5-0.2,6.4-0.6L1023.4,104.5z M1013.7,93.9
		c0.9-0.7,2.2-1.6,3.1-2.1v0c-1.3,0.2-4.6,0.2-6.6,0.2c0-0.5,0-1.5,0-2c2,0,6.2,0,8.1-0.2c1.2-0.1,2.6-0.2,3.8-0.5l0.2,2.1
		c-2.6,0.4-5.7,2.4-6.9,3.4L1013.7,93.9z"/>
	<path class="st1" d="M1042,104.5c-1.7,0.3-4.2,0.4-6.3,0.4c-1.8,0-3.3-0.1-4.2-0.3c-2.6-0.6-3.7-2.3-3.7-4.1c0-1.6,0.8-3.2,2-4.4
		l1.8,0.8c-1.1,1-1.7,2.2-1.7,3.2c0,1.1,0.7,2.1,2.3,2.5c0.7,0.1,1.9,0.2,3.2,0.2c2,0,4.5-0.2,6.4-0.6L1042,104.5z M1032.3,93.9
		c0.9-0.7,2.2-1.6,3.1-2.1v0c-1.3,0.2-4.6,0.2-6.6,0.2c0-0.5,0-1.5,0-2c2,0,6.2,0,8.1-0.2c1.2-0.1,2.6-0.2,3.8-0.5l0.2,2.1
		c-2.6,0.4-5.7,2.4-6.9,3.4L1032.3,93.9z"/>
	<path class="st1" d="M1051,96.3c1.5-0.8,3.4-1.3,4.9-1.3c3.1,0,5.4,1.8,5.4,4.9c0,3.9-3.7,5.6-10.5,5.9c-0.1-0.5-0.5-1.5-0.7-1.9
		c6.2-0.2,9-1.4,9-4c0-2-1.5-3.1-3.8-3.1c-2.3,0-5.3,1.1-7,2.7c-0.4,0.4-1.2,1.1-1.8,1.8l-1.5-1.4c1.8-2,7.1-7.3,9.4-9.7
		c-1.1,0.1-4.9,0.4-6.7,0.5c-0.1,0.1-0.3,0.3-0.5,0.3l-0.2-2.3c2.8,0,8.8-0.4,9.3-0.6l0.3-0.2l1.6,1.7c-0.1,0.1-0.3,0.2-0.6,0.2
		C1055.9,91.4,1052.2,95,1051,96.3L1051,96.3z"/>
	<path class="st1" d="M1069.9,88.7c0,0.2-0.2,0.4-0.7,0.4c-0.7,3.5-1.1,7.2-1.1,9.2c0,1.4,0,2.7,0.2,3.5c0.3-0.8,1.2-2.8,1.4-3.5
		l1.1,1.4c-0.8,1.8-1.4,2.9-1.7,3.9c-0.1,0.4-0.2,0.7-0.2,1c0,0.2,0,0.5,0.1,0.7l-2,0.3c-0.7-2-0.9-4.5-0.9-7.3
		c0-2.8,0.4-6.6,1-10.1L1069.9,88.7z M1082.7,104c-0.7,0-1.5,0.1-2.3,0.1c-1.4,0-2.8-0.1-3.7-0.2c-2.7-0.4-3.9-1.8-3.9-3.6
		c0-1.4,0.7-2.7,1.9-4.1l1.9,0.7c-1,1-1.7,2-1.7,3.1c0,1.9,2.6,2,5,2c0.9,0,1.9,0,2.8-0.1L1082.7,104z M1073.2,91
		c2.5-0.1,6.3-0.3,8.9-0.8l0.2,2c-2.5,0.4-6.6,0.7-9,0.7L1073.2,91z"/>
	<path class="st1" d="M1105.9,97v1.7h-3.3v5.7c0,1.9-0.8,2.1-4.4,2.1c-0.1-0.5-0.4-1.3-0.6-1.8c0.7,0,1.4,0,1.9,0
		c1.1,0,1.2,0,1.2-0.4v-5.7h-13.6V97h2.8c-0.2-0.4-0.5-0.9-0.8-1.2c3-0.4,4.6-1,5.5-2.1h-4.6v-1.6h5.3c0.1-0.4,0.2-0.9,0.2-1.5h-5.9
		v2.3h-1.8v-4h7.7v-1.8l2.4,0.1c0,0.2-0.2,0.3-0.5,0.4V89h7.7v4h-1.9v-2.3h-7.5v0l2,0.1c0,0.2-0.2,0.3-0.4,0.3c0,0.3-0.1,0.7-0.2,1
		h5.8v1.6h-6.3l-0.1,0.2c2.2,0.5,5,1.4,6.5,2.2l-0.7,1H1105.9z M1097.9,104.4h-6.2v0.8h-1.8v-5.5h8V104.4z M1101.2,97
		c-1.5-0.7-3.7-1.4-5.6-1.9c-0.9,0.8-2.3,1.5-4.4,1.9H1101.2z M1096,101.2h-4.4v1.7h4.4V101.2z"/>
	<path class="st1" d="M1111.1,99.4c-0.4-1.3-0.6-3-0.6-4.2c0-1.7,0.2-4,0.6-6.6l2.7,0.4c-0.1,0.3-0.3,0.3-0.6,0.4
		c-0.4,1.6-0.7,4.2-0.7,5.8c0,0.3,0,0.5,0,0.7c0.4-1,1.1-2.3,1.6-3c0.2,0.4,0.7,1,1,1.3c-1.2,1.9-2.1,3.5-2.1,4.3
		c0,0.2,0,0.4,0.1,0.6L1111.1,99.4z M1122.6,88.1c0,0.2-0.2,0.4-0.5,0.5c0.2,1.7,0.4,4.6,0.4,7.1c0,4-1.4,7.7-7.8,10.3
		c-0.3-0.4-1-1.3-1.5-1.7c5.7-2.2,7-5.5,7-8.6c0-2.7-0.3-5.7-0.5-7.7L1122.6,88.1z"/>
	<path class="st1" d="M1128,92.9c1.2,0.5,2.8,1.3,3.5,2l-1.2,1.6c-0.7-0.7-2.2-1.6-3.5-2.1L1128,92.9z M1127.3,105.2
		c0.8-1.6,2-4.2,2.9-6.5l1.6,1.1c-0.8,2.1-1.8,4.4-2.5,6c0.1,0.1,0.1,0.3,0.1,0.4c0,0.1,0,0.2-0.1,0.2L1127.3,105.2z M1129,87.3
		c1.2,0.5,2.7,1.4,3.4,2.1l-1.2,1.6c-0.7-0.7-2.2-1.7-3.3-2.3L1129,87.3z M1132.2,92.7h4.6c0.3-0.7,0.5-1.4,0.7-2.2
		c-1.4,0.2-2.8,0.4-4.2,0.5c-0.1-0.5-0.3-1.2-0.6-1.6c3.8-0.4,8.2-1.2,10.5-2.2l1.8,1.5c-0.1,0.1-0.2,0.1-0.5,0.1
		c-1.2,0.5-2.8,0.9-4.6,1.3h0c0,0.2-0.2,0.3-0.5,0.3c-0.2,0.8-0.4,1.6-0.7,2.3h7.3v1.8h-3.9c1.1,1.5,2.6,2.8,4.3,3.4
		c-0.4,0.4-1,1.1-1.3,1.6c-2-1-3.9-2.9-5.1-5h-2.1c-1.2,2.4-3,4.2-5.5,5.4c-0.2-0.4-0.8-1.1-1.2-1.5c1.9-0.8,3.4-2.2,4.5-3.9h-3.7
		V92.7z M1131.9,103.6c1.3-1.1,2.1-2.9,2.6-4.5l1.6,0.5c-0.5,1.8-1.3,3.8-2.7,5.1L1131.9,103.6z M1137.1,96.6l2.3,0.1
		c0,0.2-0.1,0.3-0.5,0.4v7.4c0,1.9-0.9,2-3.7,2c-0.1-0.5-0.3-1.2-0.5-1.8c0.5,0,1.1,0,1.5,0c0.8,0,0.9,0,0.9-0.3V96.6z
		 M1140.7,104.4c-0.1-1.2-0.7-3-1.4-4.3l1.5-0.5c0.7,1.3,1.3,3.1,1.5,4.3L1140.7,104.4z M1144.8,104.8c-0.5-1.5-1.7-3.7-2.9-5.2
		l1.5-0.8c1.3,1.6,2.5,3.7,3,5.1L1144.8,104.8z"/>
	<path class="st1" d="M1149.9,94.7c3.1-0.8,7.1-1.7,8.7-1.7c3,0,5.1,1.6,5.1,5c0,3.9-3,6.6-8.8,8.3c-0.3-0.5-0.9-1.3-1.4-1.8
		c5.4-1.3,7.9-3.7,7.9-6.4c0-1.8-0.8-3.1-2.9-3.1c-1.7,0-4.7,0.7-7.3,1.7c0,0.2-0.2,0.4-0.4,0.5L1149.9,94.7z M1153.1,87.6
		c2.9,0.2,6.1,0.8,8.2,1.5l-0.6,2c-2.2-0.7-5.6-1.4-8.2-1.6L1153.1,87.6z"/>
</g>
</svg>
