<?xml version="1.0" encoding="utf-8"?>
<!-- Generator: Adobe Illustrator 25.4.1, SVG Export Plug-In . SVG Version: 6.00 Build 0)  -->
<svg version="1.1" id="レイヤー_1" xmlns="http://www.w3.org/2000/svg" xmlns:xlink="http://www.w3.org/1999/xlink" x="0px"
	 y="0px" viewBox="0 0 310.8 85.9" style="enable-background:new 0 0 310.8 85.9;" xml:space="preserve">
<style type="text/css">
	.st0{fill:#565757;}
	.st1{fill:#9FC88C;}
	.st2{fill:#575757;}
</style>
<g>
	<path class="st0" d="M106.3,23.1c0,0.1-0.1,0.2-0.1,0.3c1.4,0.3,2,1.3,2,2.3c0,1.4-1.2,2.4-3.4,2.6c-0.1-0.2-0.2-0.5-0.4-0.7
		c1.7-0.2,2.9-0.8,2.9-1.9c0-0.5-0.2-1.3-1.4-1.5c-0.4,1-1,1.8-1.7,2.5c0.1,0.1,0.1,0.3,0.2,0.4l-0.7,0.5c-0.1-0.1-0.1-0.2-0.2-0.4
		c-0.7,0.5-1.2,0.5-1.6,0.5c-0.8,0-1.2-0.6-1.2-1.3c0-1.2,1-2.2,2.3-2.8c0-0.4,0-0.9,0-1.3c-0.4,0-0.8,0-1.2,0c-0.3,0-0.5,0-0.7,0
		v-0.8c0.4,0,1.2,0,1.9,0c0-0.4,0-0.9,0-1.3l1.2,0.1c0,0.1-0.1,0.2-0.2,0.2c0,0.3,0,0.7-0.1,1c1,0,2.4-0.2,3.4-0.4l0.1,0.9
		c-1,0.2-2.5,0.3-3.5,0.3c0,0.4,0,0.8,0,1.1c0.7-0.2,1.2-0.2,1.5-0.2c0-0.1,0.1-0.3,0.1-0.4L106.3,23.1z M103.2,26.4
		c-0.1-0.5-0.2-1.2-0.2-1.9c-0.8,0.4-1.5,1-1.5,1.8c0,0.6,0.5,0.6,0.6,0.6C102.4,26.9,102.8,26.7,103.2,26.4z M105,24.1
		c-0.6,0-1,0.1-1.2,0.2c0,0.6,0.1,1.1,0.2,1.5C104.4,25.4,104.8,24.8,105,24.1z"/>
	<path class="st0" d="M113.7,20.4c0,0.1-0.1,0.2-0.3,0.2c-0.1,0.4-0.1,0.8-0.2,1.1c0.8,0,1.7-0.2,2.4-0.4l0.1,0.9
		c-0.8,0.2-1.8,0.3-2.7,0.4c-0.4,1.7-1,3.1-1.8,4.4l-0.9-0.3c0.8-1.2,1.4-2.5,1.7-4c-0.2,0-0.4,0-0.6,0h-1.1v-0.8h1
		c0.3,0,0.6,0,0.8,0c0.1-0.4,0.2-0.9,0.2-1.4L113.7,20.4z M116,24.3c0,0.6,0,1.1,0.1,1.7c0.5,0.2,1.3,0.6,1.8,1l-0.4,0.8
		c-0.4-0.3-1-0.7-1.4-0.9c0,0.5-0.2,1.5-1.8,1.5c-1,0-1.8-0.5-1.8-1.4s0.9-1.4,1.8-1.4c0.3,0,0.5,0,0.9,0.1c0-0.5-0.1-1-0.1-1.4
		L116,24.3z M115.3,26.6c-0.3-0.1-0.7-0.2-0.9-0.2c-0.5,0-1,0.2-1,0.7c0,0.4,0.4,0.6,1,0.6c0.5,0,0.9-0.2,0.9-0.8V26.6z M117.8,23.5
		c-1,0-2.2,0.2-3.2,0.4l-0.1-0.8c1-0.3,2.3-0.5,3.2-0.5L117.8,23.5z"/>
	<path class="st0" d="M125.6,22.3c-0.7,0.2-1.7,0.4-2.6,0.5c-0.4,2-0.9,4-1.6,5.5l-0.9-0.3c0.7-1.4,1.3-3.2,1.6-5.1
		c-0.1,0-0.3,0-0.4,0c-0.4,0-0.8,0-1.2,0V22c0.3,0,0.8,0,1.2,0c0.2,0,0.3,0,0.5,0c0.1-0.5,0.1-1.2,0.2-1.7l1.2,0.1
		c0,0.1-0.1,0.2-0.3,0.2c-0.1,0.4-0.1,0.8-0.2,1.3c0.8-0.1,1.6-0.2,2.3-0.5L125.6,22.3z M128,28.2c-0.3,0-0.6,0-0.9,0
		c-0.8,0-1.5-0.1-2-0.2c-0.7-0.2-1.1-0.7-1.1-1.3c0-0.5,0.3-1,0.6-1.3l0.8,0.3c-0.3,0.3-0.4,0.6-0.4,0.9c0,0.6,0.7,0.7,2,0.7
		c0.4,0,0.7,0,1.1,0L128,28.2z M124.6,23.7c0.9-0.3,2.2-0.5,3.2-0.5v0.9c-1,0-2.1,0.1-3,0.4L124.6,23.7z"/>
	<path class="st0" d="M136.2,23.5C136.1,23.5,136.1,23.5,136.2,23.5c-0.2,0-0.2,0-0.3,0c-2.7,0.8-4.9,1.8-4.9,2.9c0,0.8,0.8,1,2.2,1
		s2.5-0.1,3.2-0.2l0.1,0.9c-0.6,0.1-1.8,0.2-3.3,0.2c-1.7,0-3.1-0.4-3.1-1.8c0-1,0.9-1.8,2.3-2.5c-0.3-0.6-0.4-1.6-0.4-3.6l1.3,0.1
		c0,0.1-0.1,0.2-0.3,0.2c0,1.4,0,2.4,0.2,2.9c0.8-0.4,1.7-0.7,2.7-1L136.2,23.5z"/>
	<path class="st0" d="M142,26.5c0,0.1-0.1,0.1-0.2,0.1c-0.6,0.7-1.7,1.5-2.6,2c-0.2-0.2-0.5-0.5-0.7-0.6c0.9-0.5,2-1.2,2.5-1.9
		L142,26.5z M144.7,24.8h2.1v0.8h-8.3v-0.8h2.1v-2.1h-1.7v-0.8h1.7v-1.7l1.1,0.1c0,0.1-0.1,0.1-0.2,0.2V22h2.4v-1.7l1.1,0.1
		c0,0.1-0.1,0.1-0.2,0.2v1.5h1.8v0.8h-1.8v1.9H144.7z M141.4,22.7v2.1h2.4v-2.1H141.4z M145.9,28.6c-0.5-0.5-1.6-1.4-2.5-2l0.8-0.5
		c0.8,0.6,1.9,1.4,2.5,2L145.9,28.6z"/>
	<path class="st0" d="M150.6,20.8c0,0.1-0.1,0.2-0.3,0.2c-0.3,1.5-0.5,3.1-0.5,4c0,0.6,0,1.2,0.1,1.5c0.1-0.4,0.5-1.2,0.6-1.5
		l0.5,0.6c-0.3,0.8-0.6,1.3-0.8,1.7c0,0.2-0.1,0.3-0.1,0.4s0,0.2,0,0.3l-0.9,0.1c-0.3-0.9-0.4-2-0.4-3.2s0.2-2.9,0.4-4.4L150.6,20.8
		z M156.2,27.5c-0.3,0-0.6,0-1,0c-0.6,0-1.2,0-1.6-0.1c-1.2-0.2-1.7-0.8-1.7-1.5c0-0.6,0.3-1.2,0.8-1.8l0.8,0.3
		c-0.4,0.4-0.7,0.9-0.7,1.3c0,0.8,1.1,0.9,2.2,0.9c0.4,0,0.8,0,1.2-0.1V27.5z M152,21.8c1.1,0,2.7-0.1,3.9-0.3l0.1,0.9
		c-1.1,0.2-2.9,0.3-3.9,0.3L152,21.8z"/>
	<path class="st0" d="M164,23.1c0,0.1-0.1,0.2-0.1,0.3c1.4,0.3,2,1.3,2,2.3c0,1.4-1.2,2.4-3.4,2.6c-0.1-0.2-0.2-0.5-0.4-0.7
		c1.7-0.2,2.9-0.8,2.9-1.9c0-0.5-0.2-1.3-1.4-1.5c-0.4,1-1,1.8-1.7,2.5c0.1,0.1,0.1,0.3,0.2,0.4l-0.7,0.5c-0.1-0.1-0.1-0.2-0.2-0.4
		c-0.7,0.5-1.2,0.5-1.6,0.5c-0.8,0-1.2-0.6-1.2-1.3c0-1.2,1-2.2,2.3-2.8c0-0.4,0-0.9,0-1.3c-0.4,0-0.8,0-1.2,0c-0.3,0-0.5,0-0.7,0
		v-0.8c0.4,0,1.2,0,1.9,0c0-0.4,0-0.9,0-1.3l1.2,0.1c0,0.1-0.1,0.2-0.2,0.2c0,0.3,0,0.7-0.1,1c1,0,2.4-0.2,3.4-0.4l0.1,0.9
		c-1,0.2-2.5,0.3-3.5,0.3c0,0.4,0,0.8,0,1.1c0.7-0.2,1.2-0.2,1.5-0.2c0-0.1,0.1-0.3,0.1-0.4L164,23.1z M161,26.4
		c-0.1-0.5-0.2-1.2-0.2-1.9c-0.8,0.4-1.5,1-1.5,1.8c0,0.6,0.5,0.6,0.6,0.6C160.2,26.9,160.6,26.7,161,26.4z M162.8,24.1
		c-0.6,0-1,0.1-1.2,0.2c0,0.6,0.1,1.1,0.2,1.5C162.2,25.4,162.6,24.8,162.8,24.1z"/>
	<path class="st0" d="M169.1,24.4c0.6-1.3,2-2.3,3.3-2.5c0-0.5-0.1-1-0.1-1.5h1.2c0,0.1-0.1,0.2-0.2,0.2c0,0.3,0,0.8,0,1.2
		c1.4,0,2.6,0.8,2.6,2.4s-1.1,2.6-2.9,2.6c-0.3,0.6-0.8,1.2-1.7,1.7c-0.2-0.2-0.5-0.5-0.7-0.6c0.7-0.3,1.2-0.8,1.5-1.2
		c-0.6-0.1-1.4-0.6-1.8-1.2c0.2-0.1,0.4-0.4,0.6-0.5c0.3,0.6,1,0.9,1.5,1c0.1-0.4,0.1-0.9,0.1-1.4s0-1.1-0.1-1.8
		c-1.1,0.2-2.2,1-3,2.6c-0.1,0.2-0.1,0.4-0.1,0.7c0,0.3,0,0.5,0.1,0.8l-0.9,0.1c-0.2-0.7-0.3-1.7-0.3-2.6c0-1,0.1-2.4,0.4-3.5
		l1.1,0.2c0,0.1-0.1,0.1-0.2,0.1C169.3,22.1,169.1,23.5,169.1,24.4L169.1,24.4z M173.3,22.6c0,0.7,0,1.4,0,2c0,0.5,0,1-0.1,1.3
		c1.1-0.1,1.7-0.7,1.7-1.8C174.9,23.1,174.2,22.6,173.3,22.6z"/>
	<path class="st0" d="M185.2,22.8c0,0.1-0.1,0.2-0.3,0.2c-0.1,0.6-0.2,1.2-0.4,1.8c0.4,0.2,0.9,0.4,1.4,0.7l-0.4,0.9
		c-0.5-0.2-0.9-0.5-1.3-0.6c-0.4,1.2-1,2.1-1.9,2.7c-0.2-0.2-0.5-0.4-0.7-0.5c0.9-0.6,1.4-1.4,1.8-2.6c-0.8-0.3-1.5-0.5-2.1-0.6
		c-0.6,2.1-1.1,2.8-2.3,2.8c-1,0-1.4-0.7-1.4-1.5c0-1.4,1.5-2.1,3-2.1c0.2-0.7,0.3-1.5,0.4-2.3c-0.4,0-1.7,0.1-2.4,0.2
		c-0.1,0.1-0.1,0.1-0.2,0.1l-0.1-1c0.9,0,2.5-0.1,3-0.2c0.1,0,0.2-0.1,0.2-0.1l0.7,0.4c0,0.1-0.1,0.1-0.2,0.2
		c-0.1,0.9-0.4,2-0.6,2.7c0.6,0.1,1.3,0.3,2.1,0.5c0.1-0.5,0.3-1.2,0.4-1.9L185.2,22.8z M180.5,24.6c-1.1,0-2,0.5-2,1.3
		c0,0.4,0.2,0.7,0.6,0.7C179.7,26.6,180,26.2,180.5,24.6z"/>
	<path class="st0" d="M204.1,27.7c-0.8,0.1-1.8,0.2-2.7,0.2c-0.8,0-1.4,0-1.8-0.1c-1.1-0.3-1.6-1-1.6-1.8c0-0.7,0.4-1.4,0.9-1.9
		l0.8,0.4c-0.5,0.5-0.7,1-0.7,1.4c0,0.5,0.3,0.9,1,1.1c0.3,0.1,0.8,0.1,1.4,0.1c0.9,0,1.9-0.1,2.8-0.3L204.1,27.7z M199.9,23.1
		c0.4-0.3,0.9-0.7,1.4-0.9l0,0c-0.6,0.1-2,0.1-2.9,0.1c0-0.2,0-0.7,0-0.9c0.9,0,2.7,0,3.5-0.1c0.5,0,1.1-0.1,1.7-0.2l0.1,0.9
		c-1.2,0.2-2.5,1-3,1.5L199.9,23.1z"/>
	<path class="st0" d="M212.4,27.7c-0.8,0.1-1.8,0.2-2.7,0.2c-0.8,0-1.4,0-1.8-0.1c-1.1-0.3-1.6-1-1.6-1.8c0-0.7,0.4-1.4,0.9-1.9
		l0.8,0.4c-0.5,0.5-0.7,1-0.7,1.4c0,0.5,0.3,0.9,1,1.1c0.3,0.1,0.8,0.1,1.4,0.1c0.9,0,1.9-0.1,2.8-0.3L212.4,27.7z M208.2,23.1
		c0.4-0.3,0.9-0.7,1.4-0.9l0,0c-0.6,0.1-2,0.1-2.9,0.1c0-0.2,0-0.7,0-0.9c0.9,0,2.7,0,3.5-0.1c0.5,0,1.1-0.1,1.7-0.2L212,22
		c-1.2,0.2-2.5,1-3,1.5L208.2,23.1z"/>
	<path class="st0" d="M216.5,24.1c0.7-0.4,1.5-0.5,2.1-0.5c1.4,0,2.3,0.8,2.3,2.1c0,1.7-1.6,2.4-4.6,2.6c0-0.2-0.2-0.6-0.3-0.8
		c2.7-0.1,3.9-0.6,3.9-1.7c0-0.9-0.7-1.4-1.7-1.4s-2.3,0.5-3.1,1.2c-0.2,0.2-0.5,0.5-0.8,0.8l-0.6-0.6c0.8-0.9,3.1-3.2,4.1-4.2
		c-0.5,0-2.1,0.2-2.9,0.2c0,0.1-0.1,0.1-0.2,0.1l-0.1-1c1.2,0,3.8-0.2,4-0.3l0.1-0.1l0.7,0.7c-0.1,0.1-0.1,0.1-0.3,0.1
		C218.6,22,217.1,23.5,216.5,24.1L216.5,24.1z"/>
	<path class="st0" d="M225,20.8c0,0.1-0.1,0.2-0.3,0.2c-0.3,1.5-0.5,3.1-0.5,4c0,0.6,0,1.2,0.1,1.5c0.1-0.4,0.5-1.2,0.6-1.5l0.5,0.6
		c-0.3,0.8-0.6,1.3-0.8,1.7c0,0.2-0.1,0.3-0.1,0.4s0,0.2,0,0.3l-0.9,0.1c-0.3-0.9-0.4-2-0.4-3.2s0.2-2.9,0.4-4.4L225,20.8z
		 M230.6,27.5c-0.3,0-0.6,0-1,0c-0.6,0-1.2,0-1.6-0.1c-1.2-0.2-1.7-0.8-1.7-1.5c0-0.6,0.3-1.2,0.8-1.8l0.8,0.3
		c-0.4,0.4-0.7,0.9-0.7,1.3c0,0.8,1.1,0.9,2.2,0.9c0.4,0,0.8,0,1.2-0.1V27.5z M226.4,21.8c1.1,0,2.7-0.1,3.9-0.3l0.1,0.9
		c-1.1,0.2-2.9,0.3-3.9,0.3L226.4,21.8z"/>
	<path class="st0" d="M240.8,24.4v0.7h-1.4v2.5c0,0.8-0.3,0.9-1.9,0.9c0-0.2-0.2-0.6-0.3-0.8c0.3,0,0.6,0,0.8,0c0.5,0,0.5,0,0.5-0.2
		V25h-5.9v-0.7h1.2c-0.1-0.2-0.2-0.4-0.3-0.5c1.3-0.2,2-0.5,2.4-0.9h-2v-0.7h2.3c0-0.2,0.1-0.4,0.1-0.6h-2.6v1h-0.8v-1.7h3.3v-0.8
		l1.1,0.1c0,0.1-0.1,0.1-0.2,0.2V21h3.4v1.7h-0.8v-1h-3.2l0,0l0.9,0.1c0,0.1-0.1,0.1-0.2,0.1c0,0.1,0,0.3-0.1,0.4h2.5V23h-2.7v0.1
		c1,0.2,2.2,0.6,2.8,0.9l-0.3,0.4H240.8z M237.3,27.7h-2.7V28h-0.8v-2.4h3.5V27.7z M238.7,24.4c-0.7-0.3-1.6-0.6-2.4-0.8
		c-0.4,0.4-1,0.6-1.9,0.8H238.7z M236.5,26.3h-1.9V27h1.9V26.3z"/>
	<path class="st0" d="M243.3,25.5c-0.2-0.6-0.2-1.3-0.2-1.8c0-0.8,0.1-1.7,0.3-2.9l1.2,0.2c0,0.1-0.1,0.1-0.2,0.2
		c-0.2,0.7-0.3,1.8-0.3,2.5c0,0.1,0,0.2,0,0.3c0.2-0.4,0.5-1,0.7-1.3c0.1,0.2,0.3,0.4,0.4,0.6c-0.5,0.8-0.9,1.5-0.9,1.9
		c0,0.1,0,0.2,0,0.2L243.3,25.5z M248.3,20.6c0,0.1-0.1,0.2-0.2,0.2c0.1,0.7,0.2,2,0.2,3.1c0,1.7-0.6,3.3-3.4,4.5
		c-0.1-0.2-0.5-0.5-0.6-0.7c2.5-0.9,3.1-2.4,3.1-3.8c0-1.2-0.1-2.5-0.2-3.4L248.3,20.6z"/>
	<path class="st0" d="M250.9,22.7c0.5,0.2,1.2,0.6,1.5,0.9l-0.5,0.7c-0.3-0.3-1-0.7-1.5-0.9L250.9,22.7z M250.6,28
		c0.4-0.7,0.9-1.8,1.3-2.8l0.7,0.5c-0.4,0.9-0.8,1.9-1.1,2.6c0,0.1,0.1,0.1,0.1,0.2v0.1L250.6,28z M251.3,20.2
		c0.5,0.2,1.2,0.6,1.5,0.9l-0.5,0.7c-0.3-0.3-0.9-0.7-1.5-1L251.3,20.2z M252.7,22.5h2c0.1-0.3,0.2-0.6,0.3-1
		c-0.6,0.1-1.2,0.2-1.8,0.2c0-0.2-0.1-0.5-0.3-0.7c1.7-0.2,3.6-0.5,4.6-1l0.8,0.7c0,0-0.1,0-0.2,0c-0.5,0.2-1.2,0.4-2,0.6l0,0
		c0,0.1-0.1,0.1-0.2,0.1c-0.1,0.4-0.2,0.7-0.3,1h3.2v0.8h-1.7c0.5,0.6,1.1,1.2,1.9,1.5c-0.2,0.2-0.4,0.5-0.6,0.7
		c-0.9-0.4-1.7-1.3-2.2-2.2h-0.9c-0.5,1-1.3,1.8-2.4,2.3c-0.1-0.2-0.4-0.5-0.5-0.6c0.8-0.4,1.5-0.9,2-1.7h-1.6L252.7,22.5
		L252.7,22.5z M252.6,27.3c0.6-0.5,0.9-1.2,1.1-2l0.7,0.2c-0.2,0.8-0.6,1.7-1.2,2.2L252.6,27.3z M254.9,24.3h1
		c0,0.1-0.1,0.1-0.2,0.2v3.2c0,0.8-0.4,0.9-1.6,0.9c0-0.2-0.1-0.5-0.2-0.8c0.2,0,0.5,0,0.6,0c0.4,0,0.4,0,0.4-0.1V24.3z M256.4,27.6
		c-0.1-0.5-0.3-1.3-0.6-1.9l0.6-0.2c0.3,0.6,0.5,1.4,0.6,1.9L256.4,27.6z M258.2,27.8c-0.2-0.6-0.7-1.6-1.3-2.3l0.7-0.3
		c0.6,0.7,1.1,1.6,1.3,2.2L258.2,27.8z"/>
	<path class="st0" d="M260.5,23.4c1.4-0.4,3.1-0.7,3.8-0.7c1.3,0,2.2,0.7,2.2,2.2c0,1.7-1.3,2.9-3.8,3.6c-0.1-0.2-0.4-0.6-0.6-0.8
		c2.3-0.6,3.4-1.6,3.4-2.8c0-0.8-0.4-1.4-1.3-1.4c-0.7,0-2.1,0.3-3.2,0.7c0,0.1-0.1,0.2-0.2,0.2L260.5,23.4z M261.9,20.3
		c1.2,0.1,2.6,0.3,3.6,0.7l-0.2,0.9c-1-0.3-2.4-0.6-3.6-0.7L261.9,20.3z"/>
	<path class="st0" d="M275.4,22.2c0,0.1-0.1,0.1-0.2,0.2c-1,2.9-2.4,4.8-4.9,6c-0.1-0.2-0.4-0.5-0.7-0.7c2.3-1.1,3.7-2.8,4.4-5h-2.9
		c-0.5,0.7-1.2,1.5-2,2.1c-0.2-0.2-0.5-0.4-0.7-0.6c1.2-0.9,2.3-2.3,2.9-3.9l1.1,0.3c0,0.1-0.1,0.1-0.3,0.1c-0.2,0.4-0.4,0.7-0.5,1
		h2.9l0.1-0.1L275.4,22.2z"/>
	<path class="st0" d="M277.5,25.4V21l1.2,0.1c0,0.1-0.1,0.2-0.2,0.2v4.2h-1V25.4z M282.7,20.6c0,0.1-0.1,0.2-0.2,0.2v2.8
		c0,1.9-0.6,3.7-3.2,4.7c-0.1-0.2-0.5-0.5-0.7-0.7c2.4-0.9,2.9-2.4,2.9-4v-3.1L282.7,20.6z"/>
	<path class="st0" d="M293.1,26.5v0.9h-7.5v-0.9H293.1z M292.2,21.7v0.9h-5.6v-0.9H292.2z"/>
	<path class="st0" d="M295.8,22.8c0.3,0.5,0.5,1.4,0.7,1.9l-0.7,0.2c-0.1-0.5-0.4-1.4-0.6-1.9L295.8,22.8z M301.1,22.9
		c0,0.1-0.1,0.1-0.2,0.1c-0.7,2.6-2.1,4.2-4.2,5.1c-0.1-0.2-0.3-0.4-0.5-0.6c2-0.8,3.3-2.2,4-4.9L301.1,22.9z M298,22.4
		c0.2,0.6,0.4,1.4,0.4,2l-0.7,0.2c-0.1-0.6-0.2-1.4-0.4-2L298,22.4z"/>
	<path class="st0" d="M310,22.2c0,0.1-0.1,0.1-0.2,0.2c-1,2.9-2.4,4.8-4.9,6c-0.1-0.2-0.4-0.5-0.7-0.7c2.3-1.1,3.7-2.8,4.4-5h-2.9
		c-0.5,0.7-1.2,1.5-2,2.1c-0.2-0.2-0.5-0.4-0.7-0.6c1.2-0.9,2.3-2.3,2.9-3.9l1.1,0.3c0,0.1-0.1,0.1-0.3,0.1c-0.2,0.4-0.4,0.7-0.5,1
		h2.9l0.1-0.1L310,22.2z"/>
</g>
<g>
	<path class="st1" d="M8.5,38.6l0.1-0.5l3.3-0.8l-2.8-1.9l0.1-0.5l3.7,0.7L12.7,36L10,35.5l2.5,1.7l-0.1,0.3l-3,0.7l2.7,0.5L12,39.2
		L8.5,38.6z"/>
	<path class="st1" d="M10,32.1l0.2-0.5l3.6,1.2l-0.2,0.5L10,32.1z"/>
	<path class="st1" d="M15.1,29.6c-0.3,0.7-0.9,1-1.5,0.7l0.2-0.5c0.3,0.1,0.7,0,0.9-0.4s0.1-0.8-0.2-1c-0.9-0.4-1.2,1.7-2.5,1.1
		c-0.6-0.3-0.7-0.9-0.4-1.6c0.3-0.6,0.9-0.9,1.4-0.7l-0.2,0.5c-0.2-0.1-0.6,0-0.8,0.4s-0.1,0.7,0.2,0.9c0.9,0.4,1.2-1.7,2.5-1.1
		C15.1,28.3,15.4,28.9,15.1,29.6z"/>
	<path class="st1" d="M17.2,24.3l-0.9,1.4l0.5,0.7l-0.3,0.4l-2.3-3.2l0.3-0.5l3.9,1l-0.3,0.4L17.2,24.3z M14.9,23.6l1.2,1.6l0.8-1.1
		L14.9,23.6z"/>
	<path class="st1" d="M16.8,20l0.4-0.4l2.8,1.7l-1.6-2.9l0.4-0.4l2.9,1.7L20,16.8l0.4-0.4l1.9,3.4l-0.4,0.4l-2.8-1.5l1.5,2.8
		l-0.4,0.4L16.8,20z"/>
	<path class="st1" d="M26,16l-1.4,1l0.2,0.9l-0.4,0.3l-0.9-3.9L24,14l3.2,2.4l-0.4,0.3L26,16z M24,14.6l0.5,2l1.1-0.8L24,14.6z"/>
	<path class="st1" d="M30.5,10.5l0.5-0.2l2.3,2.5l0.4-3.4l0.5-0.2l1.1,3.6L34.8,13l-0.9-2.7l-0.3,3l-0.3,0.1l-2-2.3l0.9,2.7L31.7,14
		L30.5,10.5z"/>
	<path class="st1" d="M39,8.8L37.5,9l0.2,1.2l1.4-0.2l0.1,0.4l-1.4,0.2l0.2,1.3l1.5-0.2l0.1,0.4l-2,0.3L37,8.7l2-0.3V8.8z"/>
	<path class="st1" d="M44.7,8.2V12h-0.5l-2-3v3h-0.5V8.2h0.5l2,3v-3H44.7z"/>
	<path class="st1" d="M47.3,8.4l2.5,0.4l-0.1,0.4l-1-0.2l-0.5,3.3l-0.5-0.1L48.3,9l-1-0.2V8.4z"/>
	<path class="st1" d="M53.6,13L52,12.5l-0.5,0.7L51,13l2.5-3.1L54,10l0.1,4l-0.5-0.2V13z M53.6,10.5l-1.2,1.6l1.3,0.4L53.6,10.5z"/>
	<path class="st1" d="M58.2,11.7l-1.5,3l1.2,0.6l-0.2,0.4l-1.6-0.8l1.7-3.4L58.2,11.7z"/>
	<path class="st1" d="M65.6,16.5c0.6,0.5,0.8,1.3,0.6,2l-0.4-0.4c0.1-0.5,0-0.9-0.4-1.3c-0.6-0.5-1.4-0.5-2,0.2s-0.5,1.5,0.1,2
		c0.4,0.4,0.9,0.4,1.3,0.2l0.4,0.4c-0.7,0.4-1.4,0.3-2.1-0.3c-0.8-0.7-0.9-1.8-0.2-2.7C63.7,15.9,64.8,15.8,65.6,16.5z"/>
	<path class="st1" d="M69.1,20.1l-2.5,2.2l0.9,1l-0.3,0.3L66,22.2l2.8-2.5L69.1,20.1z"/>
	<path class="st1" d="M71.5,23l0.3,0.4l-3.1,2.1l-0.3-0.4L71.5,23z"/>
	<path class="st1" d="M74.6,28.4l-3.4,1.7L71,29.7l1.8-3.1L70.1,28l-0.2-0.4l3.4-1.7l0.2,0.4l-1.8,3.1l2.7-1.4L74.6,28.4z"/>
	<path class="st1" d="M75.6,31.1l0.2,0.5l-3.5,1.3l-0.2-0.5L75.6,31.1z"/>
	<path class="st1" d="M77.1,35.9c0.2,0.8-0.1,1.5-0.8,1.9l-0.1-0.6c0.4-0.3,0.6-0.7,0.5-1.3c-0.2-0.8-0.8-1.2-1.8-1
		c-0.9,0.2-1.3,0.9-1.2,1.7c0.1,0.5,0.4,0.9,0.9,1l0.1,0.6c-0.8-0.1-1.3-0.7-1.5-1.5c-0.2-1,0.4-2,1.5-2.2S76.8,34.8,77.1,35.9z"/>
</g>
<g>
	<path class="st1" d="M77.4,48.1l-0.1,0.5L74,49.4l2.7,2l-0.1,0.5L73,51.1l0.1-0.5l2.7,0.6l-2.5-1.8l0.1-0.3l3-0.7l-2.7-0.6l0.1-0.5
		L77.4,48.1z"/>
	<path class="st1" d="M75.7,54.6L75.6,55L72,53.7l0.2-0.5L75.7,54.6z"/>
	<path class="st1" d="M70.6,57c0.3-0.7,1-1,1.5-0.7l-0.2,0.5c-0.3-0.1-0.7-0.1-0.9,0.4c-0.2,0.4-0.1,0.8,0.2,1
		c0.9,0.5,1.2-1.7,2.5-1c0.6,0.3,0.7,0.9,0.4,1.6c-0.3,0.6-0.9,0.9-1.4,0.7l0.2-0.5c0.2,0.1,0.6,0,0.8-0.4c0.2-0.4,0.1-0.7-0.2-0.9
		c-0.9-0.4-1.2,1.6-2.5,1C70.5,58.3,70.2,57.7,70.6,57z"/>
	<path class="st1" d="M68.3,62.3l1-1.3l-0.5-0.7l0.3-0.4l2.2,3.3L71,63.5l-3.8-1.1l0.3-0.4L68.3,62.3z M70.6,63l-1.1-1.7l-0.8,1.1
		L70.6,63z"/>
	<path class="st1" d="M68.6,66.5l-0.4,0.4l-2.8-1.8l1.5,2.9l-0.4,0.4l-2.8-1.7l1.6,2.9L65,70l-1.8-3.5l0.4-0.4l2.7,1.6l-1.4-2.8
		l0.4-0.4L68.6,66.5z"/>
	<path class="st1" d="M59.3,70.3l1.4-0.9l-0.2-0.9l0.4-0.3l0.9,3.9l-0.5,0.3L58.2,70l0.4-0.3L59.3,70.3z M61.3,71.8l-0.4-2l-1.1,0.7
		L61.3,71.8z"/>
	<path class="st1" d="M54.7,75.7l-0.5,0.2L52,73.3l-0.4,3.4l-0.5,0.1L50,73.2l0.5-0.1l0.8,2.7l0.4-3l0.3-0.1l2,2.3l-0.8-2.7l0.5-0.1
		L54.7,75.7z"/>
	<path class="st1" d="M46.2,77.2l1.5-0.2l-0.2-1.2L46.1,76L46,75.6l1.4-0.2l-0.2-1.3l-1.5,0.2v-0.4l2-0.2l0.5,3.7l-2,0.3V77.2z"/>
	<path class="st1" d="M40.5,77.7l0.1-3.8h0.5L43,77l0.1-3h0.5l-0.1,3.8H43l-1.9-3l-0.1,3L40.5,77.7z"/>
	<path class="st1" d="M37.8,77.4l-2.5-0.5l0.1-0.4l1,0.2l0.6-3.3l0.5,0.1l-0.6,3.3l1,0.2L37.8,77.4z"/>
	<path class="st1" d="M31.6,72.7l1.5,0.5l0.6-0.7l0.5,0.2l-2.5,3.1l-0.5-0.2v-4l0.5,0.2L31.6,72.7z M31.6,75.1l1.3-1.6L31.6,73V75.1
		z"/>
	<path class="st1" d="M27.1,73.9l1.6-3l-1.2-0.6l0.2-0.4l1.6,0.8L27.5,74L27.1,73.9z"/>
	<path class="st1" d="M19.7,68.8c-0.6-0.5-0.8-1.3-0.5-2l0.4,0.4c-0.2,0.5,0,0.9,0.4,1.3c0.6,0.5,1.4,0.5,2-0.2s0.6-1.5,0-2
		c-0.4-0.4-0.9-0.4-1.3-0.2l-0.4-0.4c0.7-0.4,1.4-0.2,2.1,0.3c0.8,0.7,0.9,1.8,0.1,2.7C21.7,69.5,20.5,69.5,19.7,68.8z"/>
	<path class="st1" d="M16.3,65.2l2.6-2.1l-0.8-1l0.3-0.3l1.1,1.4l-2.9,2.4L16.3,65.2z"/>
	<path class="st1" d="M14,62.2l-0.3-0.4l3.1-2.1l0.3,0.4L14,62.2z"/>
	<path class="st1" d="M11,56.7l3.4-1.6l0.2,0.4l-1.8,3.1l2.7-1.3l0.2,0.4l-3.4,1.6l-0.2-0.4l1.8-3.1l-2.7,1.3L11,56.7z"/>
	<path class="st1" d="M10.1,54.1l-0.2-0.5l3.6-1.2l0.2,0.5L10.1,54.1z"/>
	<path class="st1" d="M8.7,49.2c-0.1-0.8,0.1-1.5,0.8-1.9l0.1,0.6c-0.4,0.3-0.6,0.7-0.5,1.3c0.1,0.8,0.8,1.2,1.7,1.1
		c0.9-0.2,1.4-0.9,1.2-1.6c-0.1-0.5-0.4-0.9-0.9-1V47c0.8,0.1,1.3,0.7,1.4,1.5c0.2,1-0.4,2-1.5,2.2S8.9,50.3,8.7,49.2z"/>
</g>
<path class="st1" d="M43,85.4c-23.4,0-42.4-19-42.4-42.4S19.6,0.5,43,0.5s42.4,19,42.4,42.4S66.4,85.4,43,85.4z M43,3.5
	C21.2,3.5,3.6,21.2,3.6,43S21.2,82.4,43,82.4S82.4,64.7,82.4,43S64.7,3.5,43,3.5z"/>
<path class="st1" d="M43.1,24.1c-3.1-1.4-6.7,0.1-8.1,3.3c-0.3,0.8-0.5,1.5-0.5,2.3c-0.1-2.1-1.3-4.1-3.4-5c-2.8-1.2-6.2,0-7.4,2.9
	c-0.1,0.3-0.3,0.7-0.3,1l0,0l0,0l0,0c-0.7,2.8,0.5,5.2,1.2,6.4c0.7,1.1,2.9,4.1,3.2,4.6c0.4,0.5,1.7,2.4,1.7,4.7
	c1.2-2.2-0.6-5.1-0.6-5.1c-0.2-0.4-1.5-2.3-1.6-2.5c-0.1-0.1-0.3-0.5-0.6-1c-0.7-1.3-0.7-2.3-0.6-2.9c0.3-1.5,1.2-2.7,2.5-3.3
	c1.7-0.7,3.6-0.2,4.9,1.2c0.3,0.3,0.5,0.6,0.7,0.9c0.1,0.2,0.2,0.4,0.3,0.6c0,0.1,0.1,0.2,0.1,0.3c0.1-0.2,0.2-0.4,0.3-0.5
	c0.1-0.2,0.2-0.4,0.4-0.6c0.2-0.3,0.4-0.5,0.7-0.8c1.9-1.8,4.6-2.3,6.5-0.9c1.6,1.2,2.1,3.3,1.5,5.3c1-0.7,1.8-1.6,2.3-2.8
	C47.5,29.1,46.2,25.5,43.1,24.1z"/>
<path class="st1" d="M57,57.1c0.8-2.2,1.6-4.3,2.4-6.5c1.1-3.1,2.5-6,3.1-9.2c0.2-1.2,0.4-2.5,0-3.7c-0.3-0.9-1.1-1.5-2-1.3
	c-0.5,0.1-0.9,0.3-1.3,0.5c-1.5,1-2.6,2.5-3.6,4c-2.7,4-4.8,8.2-7,12.5c-0.1,0.1-0.2,0.3-0.2,0.4c0-0.2,0-0.4,0.1-0.6
	c1.3-3.5,2.7-7,4-10.5c0.6-1.7,1-3.6,0.6-5.4c-0.5-2.4-2.4-3.2-4.3-1.9c-0.5,0.4-1,0.8-1.4,1.2c-1.7,1.9-3.1,4-4.3,6.3
	c-1.9,3.4-3.6,6.9-5.5,10.4c-0.1,0.2-0.2,0.3-0.3,0.5c0,0-0.1,0-0.1-0.1c0.3-0.7,0.5-1.4,0.8-2.2c1.3-3.7,2.8-7.3,3.8-11.1
	c0.4-1.8,0.6-3.5,0.1-5.3c-0.7-2.2-2.6-2.9-4.4-1.5c-0.8,0.6-1.5,1.3-2,2.1l0,0l-0.1,0.1c0,0.1-0.1,0.1-0.1,0.2
	c-0.4,0.6-0.8,1.2-1.2,1.9l-3.8,5.6c0,0,0.4-0.1,0.9-0.5c1-0.6,2.8-1.7,4.3-3.7c0,0,0-0.1,0.1-0.1c0-0.1,0.1-0.1,0.1-0.2
	c0.4-0.5,0.7-0.9,1.1-1.4c0.2-0.2,0.6-0.3,0.9-0.3c0.2,0.1,0.5,0.5,0.5,0.8c0,0.8,0,1.7-0.3,2.5c-1.7,5.4-3.4,10.8-5.2,16.2
	c-0.5,1.7-1.1,3.4-1.6,5c1.1,0,2,0,3,0c0.5,0,0.7-0.2,1-0.6c2.1-4,4.2-7.9,6.4-11.9c1.6-3,3.4-5.9,5.1-8.8c0.4-0.6,0.9-1.1,1.4-1.6
	c0.8-0.6,1.8-0.2,1.8,0.8c0,0.8-0.2,1.5-0.4,2.3c-1.5,4.5-3.1,9.1-4.7,13.6c-0.7,1.9-1.3,3.9-2,5.7c0.9,0,1.8,0,2.6,0
	c0.2,0,0.4-0.2,0.5-0.4c1.2-2.3,2.4-4.6,3.7-6.9c2-3.6,4.1-7.2,6.2-10.8c0.6-1,1.5-1.9,2.3-2.8c0.3-0.3,0.7-0.6,1.1-0.4
	c0.3,0.2,0.5,0.7,0.5,1.1c0,0.5-0.1,1-0.3,1.4c-0.9,2.4-1.8,4.7-2.6,7.1c-0.9,2.5-1.8,5-2.6,7.5c-0.3,1-0.5,2,0,3.1
	c0.3,0.7,0.8,1.1,1.6,1c1,0,1.6-0.6,2.2-1.3c1.7-1.8,2.8-4,4-6.1c-0.3-0.2-0.5-0.4-0.8-0.6c-0.8,1.3-1.6,2.6-2.5,3.8
	c-0.3,0.4-0.7,0.8-1,1.1c-0.1,0.1-0.5,0.2-0.6,0.1c-0.1-0.1-0.2-0.4-0.2-0.6C56.8,57.6,56.9,57.3,57,57.1z"/>
<path class="st0" d="M101.2,50.5c-1,0-1.9-0.5-2.8-1.5s-1.3-2-1.3-3.2c0-1.1,0.6-2.1,1.7-2.9c1.1-0.8,2.7-1.3,4.6-1.5
	c0.1,0,0.1-0.1,0.2-0.2c0.2-1.4,0.3-2.6,0.4-3.6c0-0.1-0.1-0.2-0.2-0.2h-4.5c-0.2,0-0.4-0.1-0.6-0.2c-0.2-0.2-0.2-0.4-0.2-0.6
	s0.1-0.4,0.2-0.6c0.2-0.2,0.4-0.2,0.6-0.2h5.6c0.3,0,0.5,0.1,0.8,0.3c0.2,0.2,0.3,0.5,0.3,0.8v0.6c-0.3,2.4-0.4,3.6-0.4,3.8
	c0,0.1,0,0.2,0.1,0.2c1.1,0.1,2.2,0.3,3.3,0.5c0.1,0,0.2,0,0.2-0.1c0-1,0.1-2.2,0.1-3.6c0-0.3,0.1-0.5,0.3-0.7s0.4-0.3,0.7-0.3
	s0.5,0.1,0.7,0.3s0.3,0.4,0.3,0.7c0,1.5,0,2.9-0.1,4.2c0,0.1,0,0.2,0.2,0.2c0.6,0.2,1.3,0.6,2.1,1c0.2,0.1,0.4,0.3,0.4,0.6
	c0.1,0.2,0.1,0.5-0.1,0.7c-0.1,0.2-0.3,0.4-0.5,0.4c-0.2,0.1-0.5,0-0.7-0.1c-0.5-0.3-1-0.5-1.4-0.7h-0.1c0,0-0.1,0-0.1,0.1
	c-0.2,1.7-0.5,3-1,3.8s-1.3,1.6-2.4,2.2c-0.2,0.1-0.5,0.2-0.7,0.1c-0.3-0.1-0.5-0.2-0.6-0.4s-0.2-0.4-0.1-0.7s0.2-0.4,0.4-0.6
	c0.8-0.5,1.5-1.1,1.8-1.8s0.6-1.8,0.7-3.4c0-0.1-0.1-0.2-0.2-0.2c-1.1-0.3-2.2-0.5-3.4-0.6c-0.1,0-0.2,0-0.2,0.1
	c-0.2,1.2-0.4,2.3-0.6,3.1s-0.5,1.6-0.7,2.1s-0.5,0.9-0.8,1.2s-0.6,0.5-0.9,0.6C101.9,50.4,101.6,50.5,101.2,50.5z M103.1,43.2
	c-1.3,0.1-2.3,0.4-3,0.9s-1.1,1-1.1,1.7c0,0.6,0.2,1.3,0.7,1.9c0.5,0.6,1,0.9,1.4,0.9c0.8,0,1.5-1.8,2.1-5.3L103.1,43.2
	C103.2,43.2,103.1,43.2,103.1,43.2z"/>
<path class="st0" d="M116.4,39.1c-0.2,0-0.4-0.1-0.6-0.2c-0.2-0.2-0.2-0.4-0.2-0.6c0-0.2,0.1-0.4,0.2-0.6c0.2-0.2,0.4-0.2,0.6-0.2
	c2.1,0,4.6,0,7.6-0.1c0.1,0,0.2-0.1,0.1-0.2c-0.1-0.6-0.1-1-0.2-1.3c0-0.3,0-0.5,0.2-0.7s0.4-0.3,0.7-0.3c0.3,0,0.5,0.1,0.7,0.2
	c0.2,0.2,0.3,0.4,0.3,0.6c0,0.4,0.1,0.8,0.2,1.4c0,0.1,0.1,0.2,0.2,0.2c0.9,0,2.1-0.1,3.7-0.2c0.2,0,0.4,0.1,0.6,0.2
	c0.2,0.2,0.3,0.4,0.3,0.6c0,0.2-0.1,0.4-0.2,0.6c-0.2,0.2-0.3,0.3-0.6,0.3c-0.8,0-1.9,0.1-3.4,0.1c-0.1,0-0.2,0.1-0.1,0.2
	c0.4,1.5,0.9,2.9,1.7,4.2c0.2,0.2,0.2,0.5,0.1,0.8c-0.1,0.3-0.2,0.5-0.5,0.6c-0.6,0.3-1.2,0.3-1.8-0.1c-1.2-0.6-2.5-1-3.9-1
	c-1.1,0-2,0.2-2.6,0.7c-0.6,0.4-0.9,1-0.9,1.8c0,2,1.7,3,5.1,3c1,0,2.2-0.1,3.7-0.3c0.2,0,0.5,0,0.7,0.1s0.3,0.3,0.4,0.6
	c0,0.2,0,0.5-0.1,0.7s-0.3,0.3-0.6,0.4c-1.3,0.2-2.7,0.3-4,0.3c-2.5,0-4.3-0.5-5.4-1.3s-1.7-2.1-1.7-3.5c0-1.2,0.5-2.2,1.4-3
	c1-0.7,2.3-1.1,4-1.1c1.3,0,2.5,0.3,3.7,0.8l0,0l0,0c-0.5-1-0.9-2.1-1.3-3.5c0-0.1-0.1-0.2-0.2-0.2C121.2,39,118.6,39.1,116.4,39.1z
	"/>
<path class="st0" d="M133.5,45.6c1.3-1.6,2.5-3,3.6-4.1c0.1-0.1,0.1-0.2,0.1-0.3v-1.7c0-0.1-0.1-0.2-0.2-0.2h-2.9
	c-0.2,0-0.4-0.1-0.6-0.2c-0.2-0.2-0.2-0.3-0.2-0.6c0-0.2,0.1-0.4,0.2-0.6c0.2-0.2,0.4-0.2,0.6-0.2h2.9c0.1,0,0.2-0.1,0.2-0.2v-1.9
	c0-0.3,0.1-0.5,0.3-0.6c0.2-0.2,0.4-0.3,0.6-0.3c0.2,0,0.4,0.1,0.6,0.3c0.2,0.2,0.3,0.4,0.3,0.6v3.7c0,0,0,0,0,0.1h0.1
	c1.1-1,2.1-1.6,2.9-2c0.8-0.4,1.7-0.6,2.5-0.6c1.6,0,2.9,0.5,3.7,1.6s1.2,2.8,1.2,5.1c0,2-0.5,3.6-1.4,4.8s-2.3,1.7-3.9,1.7
	c-0.7,0-1.5-0.1-2.2-0.4c-0.2-0.1-0.4-0.2-0.5-0.5s-0.1-0.5,0-0.7s0.2-0.4,0.5-0.5s0.4-0.1,0.7,0c0.6,0.2,1.1,0.3,1.6,0.3
	c1.1,0,1.9-0.4,2.5-1.2s0.9-1.9,0.9-3.4c0-1.8-0.2-3-0.7-3.8c-0.5-0.7-1.2-1.1-2.3-1.1c-0.7,0-1.4,0.2-2.3,0.7
	c-0.8,0.5-1.8,1.3-3,2.5c-0.1,0.1-0.1,0.2-0.1,0.3V50c0,0.3-0.1,0.5-0.3,0.6c-0.2,0.2-0.4,0.3-0.6,0.3c-0.3,0-0.5-0.1-0.6-0.3
	c-0.2-0.2-0.3-0.4-0.3-0.6v-5.9c0,0,0,0,0-0.1s0,0-0.1,0c-0.8,0.8-1.5,1.7-2.3,2.7c-0.2,0.2-0.4,0.3-0.6,0.3c-0.2,0-0.4-0.1-0.6-0.2
	c-0.2-0.2-0.3-0.4-0.3-0.6C133.3,46.1,133.4,45.9,133.5,45.6z"/>
<path class="st1" d="M159.8,50.6c-2.2,0-4-0.4-5.3-1.1c-1.3-0.7-1.9-1.7-1.9-3c0-1.1,0.7-2.5,2.2-4c0.2-0.2,0.4-0.3,0.7-0.3
	s0.5,0.1,0.7,0.2c0.2,0.2,0.3,0.4,0.3,0.6s-0.1,0.5-0.2,0.6c-1.1,1.2-1.6,2.1-1.6,2.7c0,0.7,0.5,1.3,1.4,1.8s2.2,0.7,3.8,0.7
	c1.7,0,3.5-0.2,5.4-0.6c0.2-0.1,0.5,0,0.7,0.1s0.3,0.3,0.4,0.6c0.1,0.3,0,0.5-0.1,0.7s-0.3,0.3-0.6,0.4
	C163.5,50.4,161.6,50.6,159.8,50.6z M155.1,36.2h9.3c0.2,0,0.4,0.1,0.6,0.2c0.2,0.2,0.3,0.4,0.3,0.6c0,0.3-0.1,0.5-0.3,0.6
	c-0.2,0.2-0.4,0.2-0.6,0.2h-9.3c-0.2,0-0.4-0.1-0.6-0.2c-0.2-0.2-0.3-0.4-0.3-0.6c0-0.3,0.1-0.5,0.3-0.6
	C154.7,36.3,154.9,36.2,155.1,36.2z"/>
<path class="st1" d="M177.6,50.6c-2.2,0-4-0.4-5.3-1.1c-1.3-0.7-1.9-1.7-1.9-3c0-1.1,0.7-2.5,2.2-4c0.2-0.2,0.4-0.3,0.7-0.3
	s0.5,0.1,0.7,0.2c0.2,0.2,0.3,0.4,0.3,0.6s-0.1,0.5-0.2,0.6c-1.1,1.2-1.6,2.1-1.6,2.7c0,0.7,0.5,1.3,1.4,1.8s2.2,0.7,3.8,0.7
	c1.7,0,3.5-0.2,5.4-0.6c0.2-0.1,0.5,0,0.7,0.1s0.3,0.3,0.4,0.6c0.1,0.3,0,0.5-0.1,0.7s-0.3,0.3-0.6,0.4
	C181.4,50.4,179.5,50.6,177.6,50.6z M173,36.2h9.3c0.2,0,0.4,0.1,0.6,0.2c0.2,0.2,0.3,0.4,0.3,0.6c0,0.3-0.1,0.5-0.3,0.6
	c-0.2,0.2-0.4,0.2-0.6,0.2H173c-0.2,0-0.4-0.1-0.6-0.2c-0.2-0.2-0.3-0.4-0.3-0.6c0-0.3,0.1-0.5,0.3-0.6
	C172.5,36.3,172.7,36.2,173,36.2z"/>
<path class="st1" d="M189.6,44.8c-0.2,0.1-0.4,0.1-0.6,0.1c-0.2-0.1-0.4-0.2-0.5-0.4s-0.1-0.4-0.1-0.6c0.1-0.2,0.2-0.4,0.4-0.5
	l8.8-5.7l0,0l0,0h-7c-0.2,0-0.4-0.1-0.6-0.2c-0.2-0.2-0.2-0.4-0.2-0.6c0-0.2,0.1-0.4,0.2-0.6c0.2-0.2,0.4-0.2,0.6-0.2h9.6
	c0.2,0,0.4,0.1,0.6,0.2c0.2,0.2,0.3,0.4,0.3,0.6c0,0.6-0.2,1-0.7,1.3l-6,3.6l0,0h0.1c1.1-0.3,2-0.4,2.9-0.4c3.8,0,5.7,1.3,5.7,4
	c0,1.7-0.6,3.1-1.9,4c-1.3,0.9-3.2,1.4-5.7,1.4c-0.9,0-2-0.1-3.1-0.2c-0.3,0-0.5-0.1-0.6-0.3c-0.2-0.2-0.3-0.4-0.3-0.7
	c0-0.2,0.1-0.4,0.3-0.6c0.2-0.2,0.4-0.2,0.6-0.2c0.9,0.1,1.9,0.1,2.9,0.1c3.7,0,5.6-1.1,5.6-3.3c0-0.9-0.3-1.5-1-2
	c-0.7-0.4-1.7-0.7-3.2-0.7C194.5,42.9,192.2,43.5,189.6,44.8z"/>
<path class="st0" d="M209.3,50c-1,0-1.9-0.6-2.7-1.7c-0.8-1.1-1.2-2.5-1.2-4.2c0-2.4,0.8-4.4,2.5-5.9s3.8-2.3,6.5-2.3
	c2.1,0,3.9,0.7,5.3,2s2.1,3,2.1,5.1c0,2-0.5,3.6-1.4,4.9c-0.9,1.3-2.2,2.1-3.8,2.4c-0.3,0.1-0.5,0-0.7-0.2s-0.4-0.4-0.4-0.6
	c-0.1-0.2,0-0.5,0.1-0.7s0.3-0.3,0.6-0.4c1.2-0.3,2.1-0.9,2.7-1.9c0.6-0.9,0.9-2.1,0.9-3.6c0-1.4-0.5-2.6-1.4-3.6s-2.1-1.5-3.5-1.7
	c-0.1,0-0.2,0-0.2,0.2c-0.3,2.4-0.6,4.4-1,6.1c-0.4,1.6-0.8,2.9-1.3,3.7s-1,1.4-1.5,1.8S209.9,50,209.3,50z M212.7,37.9
	c-1.7,0.3-3,1-3.9,2.1s-1.5,2.5-1.5,4.1c0,1.1,0.2,2,0.7,2.8c0.4,0.8,0.9,1.2,1.3,1.2c0.2,0,0.4-0.1,0.6-0.3c0.2-0.2,0.5-0.5,0.7-1
	c0.3-0.5,0.5-1.1,0.8-1.8c0.2-0.7,0.5-1.7,0.8-2.9s0.5-2.6,0.7-4.2C212.9,38,212.9,37.9,212.7,37.9
	C212.8,37.9,212.8,37.8,212.7,37.9z"/>
<path class="st0" d="M226.4,43.6c-0.2,0.2-0.4,0.3-0.7,0.3s-0.5-0.1-0.7-0.2c-0.2-0.2-0.3-0.4-0.3-0.6c0-0.3,0.1-0.5,0.2-0.7
	c1.7-1.9,2.8-4.1,3.2-6.5c0.1-0.3,0.2-0.5,0.4-0.7s0.5-0.3,0.7-0.2c0.3,0,0.5,0.1,0.7,0.3s0.2,0.4,0.2,0.7c0,0.1,0,0.2-0.1,0.3
	c0,0.2-0.1,0.3-0.1,0.3c0,0.1,0,0.2,0.1,0.2h7.3c0.3,0,0.5,0.1,0.8,0.3c0.2,0.2,0.3,0.5,0.3,0.8c-0.1,3.9-1.1,6.9-2.9,8.9
	c-1.9,2-4.8,3.2-8.8,3.6c-0.3,0-0.5,0-0.7-0.2s-0.3-0.4-0.4-0.6c0-0.2,0-0.5,0.2-0.7s0.3-0.3,0.6-0.3c3.3-0.4,5.8-1.4,7.3-2.9
	s2.4-3.8,2.6-6.9c0-0.1-0.1-0.2-0.2-0.2h-6.6c-0.1,0-0.2,0.1-0.2,0.2C228.8,40.6,227.8,42.2,226.4,43.6z"/>
<path class="st0" d="M244.8,44.1c-0.3,0-0.5-0.1-0.7-0.3s-0.3-0.5-0.3-0.7v-6.4c0-0.3,0.1-0.5,0.3-0.7s0.4-0.3,0.7-0.3
	s0.5,0.1,0.8,0.3s0.3,0.5,0.3,0.7V43c0,0.3-0.1,0.5-0.3,0.7S245.1,44.1,244.8,44.1z M253.8,35.9c0.2-0.2,0.5-0.3,0.8-0.3
	s0.5,0.1,0.8,0.3s0.3,0.5,0.3,0.8v4c0,3.1-0.7,5.4-2.1,7c-1.4,1.6-3.6,2.6-6.6,3.1c-0.3,0-0.5,0-0.7-0.2s-0.4-0.4-0.4-0.6
	c-0.1-0.3,0-0.5,0.1-0.7s0.3-0.3,0.6-0.4c2.6-0.5,4.4-1.3,5.4-2.5s1.5-3.1,1.5-5.7v-4C253.5,36.4,253.6,36.2,253.8,35.9z"/>
<path class="st0" d="M260.9,49.6c-0.3,0-0.5-0.1-0.7-0.3s-0.3-0.4-0.3-0.7s0.1-0.5,0.3-0.7c0.2-0.2,0.4-0.3,0.7-0.3h13.3
	c0.3,0,0.5,0.1,0.7,0.3s0.3,0.4,0.3,0.7s-0.1,0.5-0.3,0.7c-0.2,0.2-0.4,0.3-0.7,0.3H260.9z M262.3,36.5h10.6c0.3,0,0.5,0.1,0.7,0.3
	s0.3,0.4,0.3,0.7s-0.1,0.5-0.3,0.7c-0.2,0.2-0.4,0.3-0.7,0.3h-10.6c-0.3,0-0.5-0.1-0.7-0.3s-0.3-0.4-0.3-0.7s0.1-0.5,0.3-0.7
	C261.8,36.6,262,36.5,262.3,36.5z"/>
<path class="st0" d="M280.8,43.9c-0.3-1.3-0.6-2.4-0.9-3.3c-0.1-0.2,0-0.5,0.1-0.7s0.3-0.3,0.6-0.4c0.3,0,0.5,0,0.7,0.1
	s0.4,0.3,0.4,0.6c0.4,1.2,0.6,2.3,0.9,3.2c0.1,0.2,0,0.5-0.1,0.7s-0.3,0.4-0.6,0.4c-0.3,0.1-0.5,0-0.7-0.1S280.8,44.2,280.8,43.9z
	 M291.1,39c0.3,0,0.5,0.1,0.7,0.3s0.3,0.4,0.2,0.7c-0.2,3.4-0.9,5.9-2.3,7.5s-3.5,2.6-6.6,3.1c-0.2,0-0.5,0-0.7-0.2
	s-0.3-0.3-0.4-0.6c-0.1-0.2,0-0.5,0.1-0.7s0.3-0.3,0.6-0.4c2.6-0.4,4.4-1.3,5.5-2.6s1.7-3.4,1.8-6.3c0-0.3,0.1-0.5,0.3-0.6
	C290.6,39,290.9,38.9,291.1,39z M286.7,43.9c-0.1,0.2-0.3,0.4-0.6,0.4c-0.3,0.1-0.5,0-0.7-0.1s-0.4-0.3-0.4-0.6
	c-0.3-1.3-0.6-2.4-0.9-3.4c-0.1-0.2,0-0.5,0.1-0.7s0.3-0.4,0.6-0.4c0.3-0.1,0.5,0,0.7,0.1s0.4,0.3,0.4,0.6c0.4,1.6,0.7,2.8,0.9,3.4
	C286.8,43.4,286.8,43.6,286.7,43.9z"/>
<path class="st0" d="M298.2,43.6c-0.2,0.2-0.4,0.3-0.7,0.3c-0.3,0-0.5-0.1-0.7-0.2c-0.2-0.2-0.3-0.4-0.3-0.6c0-0.3,0.1-0.5,0.2-0.7
	c1.7-1.9,2.8-4.1,3.2-6.5c0.1-0.3,0.2-0.5,0.4-0.7c0.2-0.2,0.5-0.3,0.7-0.2c0.3,0,0.5,0.1,0.7,0.3s0.2,0.4,0.2,0.7
	c0,0.1,0,0.2-0.1,0.3c0,0.2-0.1,0.3-0.1,0.3c0,0.1,0,0.2,0.1,0.2h7.3c0.3,0,0.5,0.1,0.8,0.3c0.2,0.2,0.3,0.5,0.3,0.8
	c-0.1,3.9-1.1,6.9-2.9,8.9c-1.9,2-4.8,3.2-8.8,3.6c-0.3,0-0.5,0-0.7-0.2s-0.3-0.4-0.4-0.6c0-0.2,0-0.5,0.2-0.7s0.3-0.3,0.6-0.3
	c3.3-0.4,5.8-1.4,7.3-2.9s2.4-3.8,2.6-6.9c0-0.1-0.1-0.2-0.2-0.2h-6.6c-0.1,0-0.2,0.1-0.2,0.2C300.6,40.6,299.6,42.2,298.2,43.6z"/>
<g>
	<path class="st2" d="M147.1,60.9l-2.6,4.9c-0.3,0.1-0.5,0.1-0.9,0l-2.6-5v7.4c-0.3,0.1-0.8,0.1-1.1,0V59c0.4-0.1,0.9-0.1,1.2,0
		l3,5.6l3-5.6c0.3-0.1,0.9-0.1,1.2,0v9.3c-0.3,0.1-0.8,0.1-1.1,0V60.9z"/>
	<path class="st2" d="M152,59.6c-0.3,0.1-0.9,0.1-1.2,0l0-1.1c0.4-0.1,0.9-0.1,1.3,0L152,59.6z M150.9,61.2c0.3-0.1,0.8-0.1,1.1,0
		v7.1c-0.3,0.1-0.8,0.1-1.1,0V61.2z"/>
	<path class="st2" d="M158.9,66.6c0,1.3-1,1.9-2.5,1.9c-0.7,0-1.5-0.1-2.2-0.2c-0.1-0.3-0.1-0.7,0-0.9c0.7,0.1,1.4,0.2,2.1,0.2
		c0.7,0,1.5-0.1,1.5-1v-0.3c0-0.6-0.3-0.7-0.8-0.9l-1.5-0.4c-0.9-0.3-1.4-0.7-1.4-1.6v-0.5c0-1.3,1-1.8,2.7-1.8c0.6,0,1.2,0,2,0.2
		c0.1,0.3,0.1,0.6,0,0.9c-0.8-0.2-1.3-0.2-1.9-0.2c-0.9,0-1.7,0.1-1.7,1v0.3c0,0.5,0.3,0.7,0.8,0.8l1.4,0.4c1,0.3,1.4,0.7,1.4,1.6
		V66.6z"/>
	<path class="st2" d="M165.1,67.3L165.1,67.3c-0.3,0.8-1.2,1.1-2.4,1.1c-1.4,0-2.4-0.6-2.4-2.1c0-1.8,1.1-2.2,2.7-2.2
		c0.7,0,1.2,0.1,2,0.2v-1c0-0.9-0.4-1.4-2-1.4c-0.6,0-1.3,0.1-2.1,0.2c-0.1-0.3-0.1-0.7,0-0.9c0.8-0.2,1.6-0.2,2.4-0.2
		c1.8,0,2.8,0.7,2.8,2v5.4c-0.3,0.1-0.6,0.1-0.9,0L165.1,67.3z M165,65.2c-0.6-0.1-1.2-0.2-1.8-0.2c-1.2,0-1.8,0.2-1.8,1.3
		c0,1.1,0.8,1.2,1.6,1.2c1.2,0,1.6-0.3,2-1.1V65.2z"/>
	<path class="st2" d="M172.7,62.7l-1.7,5.6c-0.3,0.1-0.9,0.1-1.2,0l-2.2-7.1c0.3-0.1,0.8-0.1,1.1,0l1.8,5.9l1.7-5.9
		c0.3-0.1,0.8-0.1,1.1,0l1.8,5.9l1.8-5.9c0.4-0.1,0.8-0.1,1.1,0l-2.2,7.1c-0.3,0.1-0.9,0.1-1.2,0L172.7,62.7z"/>
	<path class="st2" d="M183.6,67.3L183.6,67.3c-0.3,0.8-1.2,1.1-2.4,1.1c-1.4,0-2.4-0.6-2.4-2.1c0-1.8,1.1-2.2,2.7-2.2
		c0.7,0,1.2,0.1,2,0.2v-1c0-0.9-0.4-1.4-2-1.4c-0.6,0-1.3,0.1-2.1,0.2c-0.1-0.3-0.1-0.7,0-0.9c0.8-0.2,1.6-0.2,2.4-0.2
		c1.8,0,2.8,0.7,2.8,2v5.4c-0.3,0.1-0.6,0.1-0.9,0L183.6,67.3z M183.5,65.2c-0.6-0.1-1.2-0.2-1.8-0.2c-1.2,0-1.8,0.2-1.8,1.3
		c0,1.1,0.8,1.2,1.6,1.2c1.2,0,1.6-0.3,2-1.1V65.2z"/>
	<path class="st2" d="M197.4,60.9l-2.6,4.9c-0.3,0.1-0.5,0.1-0.9,0l-2.6-5v7.4c-0.3,0.1-0.8,0.1-1.1,0V59c0.4-0.1,0.9-0.1,1.2,0
		l3,5.6l3-5.6c0.3-0.1,0.9-0.1,1.2,0v9.3c-0.3,0.1-0.8,0.1-1.1,0V60.9z"/>
	<path class="st2" d="M206.6,65.1c-1.1,0.1-3.2,0.1-4.5,0v1c0,1.2,0.8,1.4,2,1.4c0.9,0,1.5-0.1,2.3-0.2c0.1,0.3,0.1,0.7,0,1
		c-0.9,0.2-1.6,0.3-2.4,0.3c-1.8,0-2.9-0.6-2.9-2.2v-3.1c0-1.6,1.1-2.2,2.8-2.2c1.8,0,2.8,0.7,2.8,2.4V65.1z M205.5,63.4
		c0-1.2-0.8-1.4-1.7-1.4c-0.9,0-1.7,0.2-1.7,1.4v1l1.2-0.1h2.2V63.4z"/>
	<path class="st2" d="M213.6,63.5c0-1.3-0.8-1.5-1.7-1.5c-1.3,0-1.7,0.3-2,1.2v5.1c-0.3,0.1-0.8,0.1-1.1,0v-7.1
		c0.3-0.1,0.6-0.1,0.9,0l0.1,1h0.1c0.2-0.8,1.1-1.1,2.4-1.1c1.4,0,2.4,0.5,2.4,2v5.2c-0.3,0.1-0.8,0.1-1.1,0V63.5z"/>
	<path class="st2" d="M217.4,62.2h-1.2c-0.1-0.3-0.1-0.6,0-0.9l1.2-0.1v-1.9c0.3-0.1,0.8-0.1,1.1,0v1.9h2.3c0.1,0.2,0.1,0.7,0,0.9
		h-2.3V66c0,1.4,0.7,1.5,1.3,1.5c0.4,0,0.7,0,1-0.1c0.1,0.3,0.1,0.7,0,1c-0.4,0.1-0.8,0.1-1.3,0.1c-1.1,0-2.1-0.4-2.1-2.2V62.2z"/>
	<path class="st2" d="M226.7,67.3L226.7,67.3c-0.3,0.8-1.2,1.1-2.4,1.1c-1.4,0-2.4-0.6-2.4-2.1c0-1.8,1.1-2.2,2.7-2.2
		c0.7,0,1.2,0.1,2,0.2v-1c0-0.9-0.4-1.4-2-1.4c-0.6,0-1.3,0.1-2.1,0.2c-0.1-0.3-0.1-0.7,0-0.9c0.8-0.2,1.6-0.2,2.4-0.2
		c1.8,0,2.8,0.7,2.8,2v5.4c-0.3,0.1-0.6,0.1-0.9,0L226.7,67.3z M226.6,65.2c-0.6-0.1-1.2-0.2-1.8-0.2c-1.2,0-1.8,0.2-1.8,1.3
		c0,1.1,0.8,1.2,1.6,1.2c1.2,0,1.6-0.3,2-1.1V65.2z"/>
	<path class="st2" d="M230.1,58.2c0.3-0.1,0.8-0.1,1.1,0v10.1c-0.3,0.1-0.8,0.1-1.1,0V58.2z"/>
	<path class="st2" d="M236.8,61.4c0-1.9,1.3-2.6,3.5-2.6c0.8,0,1.7,0.1,2.5,0.2c0.1,0.3,0.1,0.7,0,0.9c-0.8-0.1-1.5-0.2-2.3-0.2
		c-1.4,0-2.5,0.2-2.5,1.8v4.2c0,1.6,1.1,1.8,2.5,1.8c1,0,1.7-0.2,2.4-0.4c0.1,0.3,0.1,0.6,0.1,0.9c-0.9,0.3-1.8,0.5-2.7,0.5
		c-2.1,0-3.5-0.6-3.5-2.6V61.4z"/>
	<path class="st2" d="M245,58.2c0.3-0.1,0.8-0.1,1.1,0v10.1c-0.3,0.1-0.8,0.1-1.1,0V58.2z"/>
	<path class="st2" d="M250,59.6c-0.3,0.1-0.9,0.1-1.2,0l0-1.1c0.4-0.1,0.9-0.1,1.3,0L250,59.6z M248.8,61.2c0.3-0.1,0.8-0.1,1.1,0
		v7.1c-0.3,0.1-0.8,0.1-1.1,0V61.2z"/>
	<path class="st2" d="M257.4,63.5c0-1.3-0.8-1.5-1.7-1.5c-1.3,0-1.7,0.3-2,1.2v5.1c-0.3,0.1-0.8,0.1-1.1,0v-7.1
		c0.3-0.1,0.6-0.1,0.9,0l0.1,1h0.1c0.2-0.8,1.1-1.1,2.4-1.1c1.4,0,2.4,0.5,2.4,2v5.2c-0.3,0.1-0.8,0.1-1.1,0V63.5z"/>
	<path class="st2" d="M262.2,59.6c-0.3,0.1-0.9,0.1-1.2,0l0-1.1c0.4-0.1,0.9-0.1,1.3,0L262.2,59.6z M261.1,61.2
		c0.3-0.1,0.8-0.1,1.1,0v7.1c-0.3,0.1-0.8,0.1-1.1,0V61.2z"/>
	<path class="st2" d="M264.6,63.1c0-1.6,1.1-2.1,2.7-2.1c0.7,0,1.4,0,2.1,0.2c0.1,0.3,0.1,0.7,0,0.9c-0.7-0.1-1.2-0.2-2-0.2
		c-0.9,0-1.8,0.2-1.8,1.4v2.7c0,1.2,0.9,1.4,1.8,1.4c0.8,0,1.3-0.1,2-0.2c0.1,0.3,0.1,0.7,0,0.9c-0.8,0.2-1.4,0.3-2.1,0.3
		c-1.7,0-2.7-0.6-2.7-2.1V63.1z"/>
</g>
</svg>
