<?xml version="1.0" encoding="utf-8"?>
<!-- Generator: Adobe Illustrator 26.0.1, SVG Export Plug-In . SVG Version: 6.00 Build 0)  -->
<svg version="1.1" id="Layer_1" xmlns="http://www.w3.org/2000/svg" xmlns:xlink="http://www.w3.org/1999/xlink" x="0px" y="0px"
	 viewBox="0 0 298.6 263.1" style="enable-background:new 0 0 298.6 263.1;" xml:space="preserve">
<style type="text/css">
	.st0{fill:#89C2A1;}
	.st1{fill:#FFFFFF;}
	.st2{fill:#16172E;}
	.st3{fill:#64C2BD;}
	.st4{fill:#FFF600;}
	.st5{fill:#FEFFFF;}
</style>
<circle class="st0" cx="131.5" cy="131.4" r="131"/>
<g>
	<g>
		<path class="st1" d="M249.9,254.4c-3.3,0-6.6,0-9.9,0c-0.2,0-0.4,0-0.5-0.2c-0.1-0.1-0.1-0.3-0.1-0.5c0.1-0.9,0.2-1.8,0.6-2.5
			c0.8-1.4,2.5-2,4-2.4c1.2-0.3,2.3-0.9,3.5-1.2s2.4-0.3,3.2-1.4c0.6-0.8,0.8-1.8,0.9-2.7c0.2-1.7,0.2-3.3,0.1-5
			c2.5-0.1,5-0.1,7.5,0c0.2,0,0.4,0,0.5,0.1c0.2,0.1,0.2,0.4,0.3,0.6c0.4,1.9,0.7,3.7,0.8,5.6c0.1,1.8,0.6,3.4,0.9,5.2
			c0.1,0.8,0.4,2,0.3,2.8c-0.1,0.4-0.3,0.8-0.7,1c-0.2,0.1-0.4,0.1-0.5,0.1C257.1,254.3,253.5,254.4,249.9,254.4z"/>
		<g>
			<path class="st2" d="M249.9,254.7c-2.6,0-5.2,0-7.8,0c-0.6,0-1.2,0-1.8,0c-0.5,0-1,0-1.2-0.5c-0.2-0.4,0-0.9,0-1.4
				c0.1-0.6,0.2-1.1,0.4-1.6c0.8-1.8,2.9-2.3,4.6-2.9c1.1-0.4,2.2-0.9,3.3-1.1c0.9-0.2,2-0.3,2.7-1c1-0.9,1.1-2.4,1.2-3.6
				c0.1-1.4,0.1-2.8,0.1-4.2c0-0.2,0.2-0.3,0.3-0.3c1.3-0.1,2.6-0.1,3.9-0.1c1.2,0,2.5,0,3.7,0.1c0.4,0,0.7,0.2,0.9,0.6
				c0.2,0.6,0.3,1.3,0.4,1.9c0.2,1.2,0.4,2.5,0.5,3.7c0.2,2.3,0.8,4.6,1.1,6.9c0.1,0.9,0.3,2-0.4,2.6c-0.3,0.3-0.8,0.4-1.2,0.4
				c-0.7,0.1-1.4,0.1-2.1,0.2C255.6,254.7,252.8,254.7,249.9,254.7c-0.4,0-0.4-0.6,0-0.7c2.3,0,4.7,0,7-0.2c1.1-0.1,2.3-0.1,3.4-0.2
				c0.6,0,1.1-0.1,1.3-0.7c0.1-0.4,0.1-0.9,0-1.4c-0.2-2.1-0.8-4.1-1.1-6.1c-0.1-1.1-0.2-2.3-0.4-3.4c-0.1-0.6-0.2-1.1-0.3-1.7
				c0-0.3-0.1-0.5-0.2-0.8c0-0.2-0.1-0.7-0.3-0.8c-0.2-0.1-0.6-0.1-0.9-0.1s-0.6,0-1,0c-0.6,0-1.3,0-1.9,0c-1.3,0-2.6,0-4,0.1
				c0.1-0.1,0.2-0.2,0.3-0.3c0.1,1.2,0.1,2.4,0,3.6c-0.1,1.1-0.1,2.2-0.5,3.2c-0.3,0.9-0.9,1.6-1.8,2c-0.8,0.4-1.8,0.5-2.7,0.7
				c-1.1,0.3-2.1,0.8-3.2,1.1c-0.9,0.3-1.8,0.5-2.6,1s-1.3,1.3-1.5,2.3c-0.1,0.3-0.1,0.6-0.1,0.9c0,0.1-0.1,0.5,0,0.6
				c0.1,0.2,0.7,0.1,1,0.1s0.6,0,1,0c2.8,0,5.5,0,8.3,0C250.3,254.1,250.3,254.7,249.9,254.7z"/>
		</g>
	</g>
	<g>
		<path class="st2" d="M239.9,251.2c0.8-1.4,2.5-2,4-2.4c2.3-0.7,4.6-1.3,6.4-3c0.2-0.1,0.3-0.3,0.4-0.5c0.5,0.6,0.7,1.3,0.6,2
			c-0.1,1-0.9,1.8-1.8,2.1c2,0.9,4.4,0.7,6.6,0.2c1.7-0.4,3.4-1,5.2-1.4c0.1,0.6,0.3,1.3,0.4,1.9c0.1,0.8,0.4,2,0.3,2.8
			c-0.1,0.4-0.3,0.8-0.7,1c-0.2,0.1-0.4,0.1-0.5,0.1c-3.6,0.3-7.2,0.4-10.8,0.4c-3.3,0-6.6,0-9.9,0c-0.2,0-0.4,0-0.5-0.2
			c-0.1-0.1-0.1-0.3-0.1-0.5C239.4,252.8,239.5,251.9,239.9,251.2z"/>
		<g>
			<path class="st2" d="M239.6,251c1-1.8,3.2-2.3,5-2.8c2.2-0.6,4.3-1.4,5.9-3.2c0.1-0.1,0.4-0.1,0.5,0c0.6,0.8,0.9,1.8,0.6,2.8
				c-0.3,0.9-1,1.6-1.9,1.9c0-0.2,0.1-0.4,0.1-0.6c3.8,1.6,7.8-0.4,11.5-1.3c0.2,0,0.4,0.1,0.4,0.2c0.2,1,0.4,2,0.6,3
				c0.1,0.8,0.3,1.8-0.1,2.5c-0.5,0.9-1.7,0.8-2.6,0.8c-1.2,0.1-2.3,0.2-3.5,0.2c-4.7,0.2-9.3,0.1-14,0.1c-0.7,0-1.3,0-2,0
				c-0.4,0-0.8-0.1-0.9-0.6c-0.1-0.5,0-1,0.1-1.5C239.2,252.1,239.4,251.5,239.6,251c0.2-0.4,0.8,0,0.6,0.3
				c-0.2,0.4-0.3,0.8-0.4,1.2c0,0.2-0.1,0.5-0.1,0.7s-0.1,0.5,0,0.6c0.1,0.2,0.6,0.1,0.8,0.1s0.4,0,0.6,0c0.5,0,1.1,0,1.6,0
				c2,0,4,0,6.1,0c2,0,4,0,6.1-0.1c1,0,2-0.1,3-0.1c1-0.1,2-0.1,3-0.2c1.1-0.2,0.8-1.7,0.7-2.4c-0.2-1-0.3-2-0.6-3
				c0.1,0.1,0.3,0.2,0.4,0.2c-3.9,0.9-8,2.9-12,1.2c-0.3-0.1-0.2-0.5,0.1-0.6c1.5-0.5,2.1-2.3,1.1-3.6c0.2,0,0.3,0,0.5,0
				c-1.5,1.7-3.4,2.5-5.5,3.1c-1.8,0.6-4.3,0.9-5.3,2.7C240,251.7,239.4,251.4,239.6,251z"/>
		</g>
	</g>
	<g>
		<g>
			<path class="st1" d="M267.3,250.3c3-3.4,2-7.3,1.9-11.5c0-0.2,0-0.4,0.1-0.5c0.1-0.2,0.3-0.2,0.6-0.3c2.1-0.3,4.2-0.3,6.3,0.2
				c0.1,0,0.2,0,0.3,0.1c0.2,0.2,0.1,0.5,0,0.7c-0.5,1.8,0.2,4.5,0.7,6.3c0.5,2.4,1.4,4.6,1.7,7c0,0.3,0,0.6-0.1,0.8
				c-0.2,0.3-0.6,0.5-1,0.6c-2.1,0.4-4.2,0.7-6.3,0.7c-1.7,0-3.5-0.2-4.6-1.4c-0.3-0.3-0.5-0.7-0.5-1.1
				C266.4,251.3,266.9,250.7,267.3,250.3z"/>
			<g>
				<path class="st2" d="M267.1,250c1.1-1.3,1.8-2.9,2-4.6c0.2-1.7,0-3.3-0.1-5c0-0.4,0-0.8-0.1-1.2c0-0.4-0.1-0.8,0.1-1.2
					c0.2-0.3,0.6-0.4,0.9-0.4c0.5-0.1,1-0.1,1.5-0.2c1-0.1,2,0,3,0.1c0.5,0.1,0.9,0.1,1.4,0.2c0.3,0.1,0.8,0.1,1,0.4
					c0.2,0.3,0.1,0.6,0,0.9c-0.1,0.4-0.1,0.8-0.1,1.2c0,0.9,0.1,1.7,0.3,2.6c0.4,1.8,0.8,3.5,1.3,5.2c0.3,1,0.5,1.9,0.7,2.9
					c0.1,0.7,0.5,1.8-0.1,2.5c-0.5,0.6-1.6,0.6-2.3,0.8c-1,0.2-2,0.3-3.1,0.4c-1.8,0.1-3.9,0.3-5.7-0.5c-0.7-0.3-1.4-0.9-1.7-1.7
					C265.9,251.5,266.5,250.7,267.1,250c0.3-0.3,0.7,0.1,0.5,0.5c-0.6,0.6-1.1,1.3-0.5,2.1c0.4,0.6,1.1,1,1.8,1.2
					c1.5,0.5,3.1,0.4,4.7,0.2c0.9-0.1,1.9-0.2,2.8-0.3c0.4-0.1,0.8-0.1,1.2-0.2c0.3-0.1,0.8-0.1,1-0.4c0.2-0.3,0-1,0-1.3
					c-0.1-0.4-0.2-0.9-0.3-1.3c-0.2-0.9-0.4-1.7-0.7-2.6c-0.4-1.5-0.8-3-1.1-4.6c-0.3-1.4-0.5-2.9-0.2-4.3c0-0.1,0.1-0.3,0-0.4
					c-0.1-0.1-0.4-0.1-0.6-0.1c-0.5-0.1-1-0.2-1.4-0.2c-0.9-0.1-1.8-0.1-2.7-0.1c-0.5,0-0.9,0.1-1.4,0.1c-0.1,0-0.4,0-0.5,0.1
					c-0.2,0.1-0.1,0.6-0.1,0.7c0,0.7,0.1,1.5,0.1,2.2c0.1,1.6,0.2,3.2-0.1,4.8c-0.3,1.6-1,3.1-2.1,4.3
					C267.3,250.8,266.8,250.4,267.1,250z"/>
			</g>
		</g>
		<g>
			<path class="st2" d="M266.3,254.3c1.2,0.1,13.3,0.3,13.4,0c0.2-2.2-0.2-5.6-1.8-7.3c-0.3,0.6-0.7,1.2-1,1.9
				c-0.1-0.6-0.2-1.2-0.5-1.8c-0.7-1.1-2.2-1.3-3.5-1.4c-0.4,0-0.8,0-1.1,0.1c-0.3,0.1-0.6,0.4-0.8,0.7c-0.7,0.8-1.3,1.6-1.8,2.5
				c-0.2-0.6-0.4-1.3-0.5-1.9c0-0.1-1.9,2.3-2,2.8c-0.5,1.5-0.7,3-0.7,4.6C266,254.3,266.1,254.3,266.3,254.3z"/>
			<g>
				<path class="st2" d="M266.3,254c2.3,0.2,4.7,0.1,7,0.1c1.4,0,2.8,0,4.3,0c0.5,0,1,0,1.4-0.1c0.1,0,0.2,0,0.2,0s0.2,0,0.1,0h0.1
					c0,0,0-0.1,0,0c0,0,0.5-0.2-0.1,0.1c-0.1,0.1,0,0.1-0.1-0.1c0-0.6,0-1.1,0-1.7c0-0.6-0.1-1.2-0.3-1.9c-0.2-1.2-0.7-2.4-1.4-3.3
					c0.2,0,0.3,0,0.5-0.1c-0.3,0.6-0.7,1.2-1,1.9c-0.1,0.2-0.6,0.2-0.6-0.1c-0.1-0.8-0.3-1.7-1-2.2c-0.6-0.4-1.4-0.6-2.1-0.7
					c-0.4,0-0.8-0.1-1.1-0.1c-0.5,0-0.9,0.4-1.2,0.7c-0.7,0.7-1.2,1.5-1.7,2.4c-0.1,0.2-0.5,0.2-0.6-0.1s-0.2-0.6-0.3-0.9
					c0-0.1-0.1-0.3-0.1-0.4c0-0.1-0.1-0.4-0.1-0.4c0.1,0,0.2,0.1,0.2,0.1c0.2,0,0.2-0.1,0.1,0c0,0.1-0.1,0.1-0.2,0.2
					c-0.2,0.2-0.3,0.4-0.5,0.6c-0.3,0.4-0.7,0.9-1,1.4s-0.5,1-0.6,1.7c-0.2,1-0.3,2.1-0.3,3.2c-0.1-0.1-0.2-0.2-0.2-0.3
					C266.1,253.9,266.2,253.9,266.3,254c0.4,0,0.4,0.7,0,0.7c-0.2,0-0.3,0-0.5-0.1c-0.1,0-0.2-0.2-0.2-0.3c0-1.4,0.1-2.8,0.5-4.1
					c0.2-0.7,0.6-1.2,1-1.8c0.4-0.5,0.7-1.1,1.2-1.6c0.2-0.2,0.4-0.2,0.6,0s0.2,0.6,0.3,0.9c0.1,0.4,0.2,0.7,0.3,1.1
					c-0.2,0-0.4-0.1-0.6-0.1c0.6-1,1.2-1.9,2-2.7c0.3-0.4,0.7-0.6,1.2-0.7c0.5-0.1,1,0,1.5,0.1c0.8,0.1,1.7,0.3,2.4,0.8
					c0.8,0.6,1.1,1.6,1.2,2.5c-0.2,0-0.4-0.1-0.6-0.1c0.3-0.6,0.7-1.2,1-1.9c0.1-0.2,0.4-0.2,0.5-0.1c1.4,1.7,1.9,4.1,1.9,6.3
					c0,0.3,0,0.5,0,0.8c0,0.2,0,0.5-0.1,0.6s-0.2,0.2-0.3,0.2c-0.3,0.1-0.7,0.1-1,0.1c-3,0.1-6,0-9,0c-1.1,0-2.2,0-3.3-0.1
					C265.9,254.6,265.9,253.9,266.3,254z"/>
			</g>
		</g>
	</g>
	<g>
		<path class="st2" d="M244,179c0.9,11.1,1.4,22.1,2.2,33.1c0.8,10.6,2.5,21.3,2.7,31.8c0.1,2.7,13.7,0.8,15,0.9
			c-0.5-7.3,0.3-14.4-0.1-21.6c-0.5-8.4,0.1-16.9,0.1-25.3c0-16.3,0.1-32.7-0.9-49.1c-6.3,1.2-14.2-0.4-20.9,0.1
			c-0.6,0,0.9,12.9,1,14.1c0.4,4.9,0.4,9.6,0.8,14.6C243.9,178.1,243.9,178.6,244,179z"/>
		<g>
			<path class="st2" d="M244.3,179c0.6,6.9,1,13.8,1.4,20.6s0.8,13.6,1.5,20.4c0.7,6.8,1.6,13.5,1.9,20.3c0,0.8,0.1,1.7,0.1,2.5
				c0,0.4-0.1,0.9,0.1,1.2c0.2,0.3,0.6,0.5,1,0.6c1.4,0.4,2.9,0.4,4.4,0.4c3,0,5.9-0.4,8.9-0.5c0.1,0,0.3,0,0.4,0
				c-0.1,0.1-0.2,0.2-0.3,0.3c-0.4-6.2,0.1-12.4,0-18.6c-0.1-3.1-0.3-6.2-0.3-9.3c0-3.2,0-6.4,0.1-9.5c0.3-12.5,0.3-24.9,0.1-37.4
				c-0.1-7.1-0.4-14.1-0.8-21.2c0.1,0.1,0.3,0.2,0.4,0.3c-4.3,0.8-8.8,0.4-13.1,0.2c-2.2-0.1-4.4-0.2-6.6-0.1c-0.2,0-0.5,0-0.7,0
				s-0.4,0.1-0.2-0.1c0.1-0.1,0,0.1,0,0.1c0,0.3,0,0.6,0,0.9c0.1,4.3,0.7,8.6,1.1,12.8c0.2,2.6,0.3,5.2,0.4,7.8
				C243.9,173.5,244.1,176.2,244.3,179c0,0.4-0.6,0.4-0.7,0c-0.4-5.1-0.4-10.1-0.8-15.2c-0.2-2-0.4-4-0.6-6
				c-0.2-2.5-0.5-4.9-0.6-7.4c0-0.4-0.2-1.4,0.2-1.7c0.2-0.2,0.4-0.1,0.6-0.1c0.6,0,1.2-0.1,1.8-0.1c1.1,0,2.3,0,3.4,0.1
				c5.1,0.2,10.3,0.9,15.3,0c0.2,0,0.4,0.1,0.4,0.3c0.8,12.6,0.9,25.1,0.9,37.7c0,6.2,0,12.4-0.1,18.6c-0.1,3.2-0.2,6.3-0.2,9.5
				c0,3.1,0.1,6.2,0.3,9.3c0.4,7-0.4,13.9,0.1,20.9c0,0.2-0.2,0.3-0.3,0.3c-1-0.1-2,0.1-3,0.2c-1.7,0.1-3.4,0.3-5.2,0.3
				c-1.6,0-3.3,0.1-4.9-0.2c-0.8-0.1-2.2-0.5-2.3-1.5c-0.1-0.8,0-1.5-0.1-2.3c0-0.9-0.1-1.7-0.1-2.6c-0.1-1.7-0.2-3.4-0.4-5.1
				c-0.3-3.5-0.7-6.9-1.1-10.4c-0.8-6.9-1.3-13.9-1.7-20.9s-0.8-14-1.4-21c-0.1-0.9-0.1-1.8-0.2-2.7
				C243.6,178.6,244.3,178.6,244.3,179z"/>
		</g>
	</g>
	<g>
		<path class="st2" d="M255.9,147.5c7.1,0.6,16,0.5,23-0.1c0.5,3,0,6.5-0.1,9.5c-0.1,3.6-0.2,7.1-0.2,10.7c-0.1,7-0.1,14,0.2,20.9
			c0.6,18.7,1,37.8,0.2,56.5c-4.1-0.2-8.3-0.1-12.4,0.3c-0.7,0.1-3.3-22.2-3.5-24.3C262,212.2,256,147.5,255.9,147.5z"/>
		<g>
			<path class="st2" d="M255.9,147.2c6,0.5,12.1,0.5,18.1,0.2c1.6-0.1,3.3-0.2,4.9-0.3c0.1,0,0.3,0.1,0.3,0.2
				c0.4,2.8,0.1,5.7-0.1,8.6c-0.2,3.2-0.2,6.4-0.3,9.5c-0.1,6.5-0.1,12.9,0,19.4c0.2,6.4,0.4,12.9,0.6,19.3
				c0.1,6.4,0.2,12.9,0.2,19.3c0,7.2-0.1,14.4-0.4,21.6c0,0.2-0.1,0.3-0.3,0.3c-2.2-0.1-4.5-0.1-6.7-0.1c-1.1,0-2.3,0.1-3.4,0.2
				c-0.5,0-1,0.1-1.6,0.1c-0.3,0-0.7,0.2-1,0c-0.3-0.1-0.3-0.5-0.4-0.8c-0.1-0.6-0.2-1.1-0.3-1.7c-0.7-4.1-1.2-8.3-1.7-12.5
				c-0.4-3.2-0.8-6.4-1.2-9.6c-0.2-2.1-0.4-4.3-0.7-6.4c-0.4-3.6-0.7-7.3-1.1-10.9c-0.4-4.5-0.9-9-1.3-13.6
				c-0.5-4.7-0.9-9.5-1.4-14.2c-0.4-4.4-0.8-8.7-1.3-13.1c-0.3-3.3-0.6-6.7-1-10c-0.2-1.7-0.3-3.4-0.5-5v-0.1c0-0.1,0,0,0,0
				c0.1-0.1-0.3-0.1,0.1,0.1c-0.4-0.2,0-0.8,0.3-0.6s0.2,0.8,0.3,1.1c0.1,0.8,0.2,1.6,0.2,2.4c0.3,2.9,0.6,5.8,0.8,8.7
				c0.4,4.1,0.8,8.2,1.2,12.3c0.4,4.7,0.9,9.4,1.3,14.1c0.4,4.6,0.9,9.3,1.3,13.9c0.4,4,0.8,7.9,1.2,11.9c0.3,2.7,0.5,5.3,0.8,8
				c0.2,2.3,0.5,4.6,0.8,6.9c0.5,4.4,1.1,8.8,1.7,13.2c0.2,1.5,0.4,3,0.8,4.5c0,0.2,0.1,0.4,0.1,0.6l0.1,0.2c0,0,0.1,0.1,0,0
				c0.1,0-0.1-0.1-0.1-0.1c-0.1-0.1-0.2,0,0,0c0.2-0.1,0.6,0,0.8-0.1c0.6,0,1.2-0.1,1.7-0.1c1.1-0.1,2.2-0.1,3.3-0.1
				c2.2-0.1,4.3,0,6.5,0.1c-0.1,0.1-0.2,0.2-0.3,0.3c0.5-12.8,0.5-25.6,0.3-38.4c-0.1-6.4-0.4-12.8-0.6-19.3
				c-0.2-6.4-0.2-12.8-0.1-19.2c0-3.6,0.1-7.2,0.2-10.9c0.1-3.2,0.6-6.6,0.1-9.8c0.1,0.1,0.2,0.2,0.3,0.2c-6,0.5-12.1,0.6-18.1,0.4
				c-1.6-0.1-3.3-0.2-4.9-0.3C255.4,147.8,255.4,147.2,255.9,147.2z"/>
		</g>
	</g>
	<g>
		<path class="st1" d="M255.8,157.2c0.6,4.9,1.2,9.9,1.7,14.8c0.7,6.2,1.4,12.4,2.1,18.6c0.7,6.6,1.5,13.3,2.2,19.9
			c0.7,6.2,1.4,12.4,2.2,18.6c0.6,4.9,1.2,9.8,1.9,14.7c0.1,0.5,0.1,0.9,0.2,1.4c0.1,0.4-0.6,0.6-0.6,0.2c-0.7-4.7-1.3-9.4-1.9-14
			c-0.8-6.1-1.5-12.2-2.2-18.3c-0.8-6.6-1.5-13.3-2.2-19.9c-0.7-6.3-1.4-12.6-2.1-19c-0.6-5.1-1.2-10.3-1.8-15.4
			c-0.1-0.5-0.1-1-0.2-1.5C255.1,156.8,255.8,156.8,255.8,157.2L255.8,157.2z"/>
	</g>
	<g>
		<path class="st1" d="M253.5,159.7c-0.9,0.9-1.8,2-2.5,3.1c-0.1,0.1-0.3,0.2-0.4,0.1c-0.1-0.1-0.2-0.3-0.1-0.4
			c0.8-1.1,1.7-2.2,2.6-3.2C253.3,158.9,253.8,159.4,253.5,159.7L253.5,159.7z"/>
	</g>
	<g>
		<path class="st1" d="M258,159.3c0.9,0.8,1.9,1.5,2.9,2.2c0.1,0.1,0.2,0.3,0.1,0.4c-0.1,0.1-0.3,0.2-0.4,0.1c-1-0.7-2.1-1.5-3-2.3
			c-0.1-0.1-0.1-0.3,0-0.5C257.6,159.2,257.8,159.2,258,159.3L258,159.3z"/>
	</g>
	<g>
		<path class="st1" d="M258.6,197.8c-0.9,0.5-1.9,1-2.9,1.5c-0.2,0.1-0.3,0-0.4-0.1c-0.1-0.1,0-0.4,0.1-0.4c1-0.4,2-0.9,2.9-1.5
			C258.6,197,258.9,197.6,258.6,197.8L258.6,197.8z"/>
	</g>
	<g>
		<path class="st1" d="M258.9,200.4c-0.7,1-1.6,2-2.5,2.9c-0.3,0.3-0.8-0.2-0.5-0.5c0.9-0.8,1.7-1.8,2.4-2.8
			c0.1-0.1,0.3-0.2,0.4-0.1C259,200.1,259,200.3,258.9,200.4L258.9,200.4z"/>
	</g>
	<g>
		<path class="st1" d="M265.9,198.1c2.2,0.9,4.5,1.4,6.8,1.5c0.4,0,0.4,0.7,0,0.7c-2.5-0.1-4.9-0.6-7.2-1.6
			C265.2,198.5,265.6,197.9,265.9,198.1L265.9,198.1z"/>
	</g>
	<g>
		<path class="st3" d="M242.5,133.1c0.1-5.2,0.2-10.4,0.6-15.6c0.2-2.7-0.3-8.4,1.3-10.7c0.3-0.4,0.8-0.6,1.2-0.8
			c4.2-1.5,7.8-3.2,12.4-3.3c3.2-0.1,6.3,0.5,9.5,0.8c3.6,0.4,7.3,1.8,10.7,3c0.2,0.1,0.5,0.2,0.6,0.4c0.1,0.2,0.1,0.5,0,0.7
			c-1.3,7.6-1.8,15.3-1.9,22.9c0,3.9,0.1,7.7,0.2,11.6c0.1,2.5,1,6.6-1.5,8.2c-1.2,0.8-2.8,1-4.3,1.1c-9.9,1-20,1.9-29.8-0.2
			C241.7,151.3,242.4,134.5,242.5,133.1z"/>
		<g>
			<path class="st2" d="M242.1,133.1c0.1-5.2,0.2-10.4,0.6-15.7c0.1-1.6,0-3.2,0.1-4.8c0-1.6,0.1-3.4,0.7-5c0.3-0.8,0.7-1.4,1.5-1.8
				c1-0.4,2.1-0.8,3.2-1.2c2.2-0.8,4.3-1.6,6.6-2c2.5-0.4,4.9-0.3,7.4-0.1c1.3,0.1,2.6,0.3,3.9,0.5c1.2,0.2,2.4,0.3,3.6,0.5
				c2.5,0.5,4.8,1.3,7.2,2.2c0.5,0.2,1.1,0.3,1.6,0.6c0.4,0.2,0.7,0.6,0.6,1.1c0,0.6-0.2,1.1-0.3,1.7c-0.1,0.7-0.2,1.3-0.3,2
				c-0.8,5.2-1.1,10.4-1.3,15.7c-0.1,5.2-0.1,10.4,0.1,15.6c0.2,3.1,1.1,7.3-2.5,8.8c-1,0.4-2.1,0.6-3.2,0.7
				c-1.2,0.1-2.5,0.2-3.7,0.3c-2.6,0.2-5.1,0.4-7.7,0.6c-5.1,0.3-10.2,0.2-15.2-0.5c-1.2-0.2-2.5-0.4-3.7-0.7
				c-0.3-0.1-0.3-0.5,0-0.6c0.1,0-0.3,0.3-0.2,0.2l0,0c0,0,0,0.1,0,0s0-0.3,0-0.4c0-0.4,0.1-0.9,0.1-1.3c0.1-1.4,0.1-2.7,0.2-4.1
				c0.2-3.2,0.3-6.3,0.4-9.5C242.1,134.9,242.1,134,242.1,133.1c0-0.4,0.7-0.4,0.7,0c0,2.3-0.2,4.6-0.3,7c-0.1,3.1-0.3,6.3-0.5,9.4
				c0,0.5-0.1,0.9-0.1,1.4c0,0.2,0,0.7-0.3,0.7c0-0.2,0-0.4,0-0.6c9.7,2.1,19.7,1.2,29.5,0.2c1.8-0.2,4.2-0.4,5.2-2.2
				c0.8-1.4,0.6-3.2,0.5-4.7c-0.4-4.5-0.4-9.1-0.4-13.6c0-5.1,0.3-10.1,0.8-15.2c0.3-2.5,0.6-4.9,1-7.4c0-0.3,0.1-0.5,0.1-0.8
				s-0.2-0.4-0.4-0.5c-0.6-0.2-1.1-0.4-1.7-0.6c-1.2-0.4-2.3-0.8-3.5-1.2c-1.1-0.3-2.3-0.6-3.4-0.9c-1.2-0.3-2.5-0.4-3.7-0.5
				c-2.5-0.3-4.9-0.6-7.4-0.6c-2.3,0-4.5,0.4-6.7,1.1c-1.1,0.3-2.1,0.7-3.2,1.1c-1,0.4-2.1,0.7-3.1,1.2c-0.8,0.3-1.1,1.1-1.3,1.8
				c-0.2,0.8-0.3,1.6-0.4,2.4c-0.2,1.7-0.1,3.4-0.1,5.1c0,2-0.2,4-0.3,6.1c-0.1,2.5-0.2,5-0.3,7.5c0,1.2,0,2.5-0.1,3.7
				C242.8,133.5,242.1,133.5,242.1,133.1z"/>
		</g>
	</g>
	<g>
		<path class="st1" d="M235.3,168c0.1-1.5,0.1-2.7,0-3.1c-0.4-2-1.4-4.1-0.4-6.1c0.7-1.5,1-1.8,0.5-3.6c-0.7-2.6-1.4-5.6-1.4-8.3
			c0-2.1-0.6-4.1-0.6-6.2c0-1.5,0.2-3.1,0.3-4.7c0-0.4,0.1-0.9,0.2-1.3c0.2-0.5,0.5-1,0.7-1.5c1.4-2.6,1.7-5,1.9-7.8
			c0.3-2.9,1.8-6,2.6-8.8c0.5-1.8,1.1-3.4,1.9-5c0.7-1.4,1-3.2,2.2-4.4c0.6-0.6,1.4-0.9,2.1-1.2c1.6-0.7,3.1-1.3,4.7-2
			c1.1-0.5,2.4-1.4,3.7-1.4c-0.2,5.8-1.6,11.8-2.6,17.5c-0.8,4.4-1.6,8.7-2.6,13c-0.9,4.3-1.1,8.4-1.2,12.8
			c-0.3,8.9-0.6,17.8-2.6,26.5c-0.6,2.5-0.8,5.4-1.5,7.9c-1.5,0-2-1-3.1-1.7c-1.5-1-3.4-1.5-5-2.2
			C234.9,176.6,235.2,171.5,235.3,168z"/>
		<g>
			<path class="st2" d="M234.9,168c0-1,0.2-2,0-2.9c-0.2-1.2-0.7-2.3-0.8-3.5c-0.1-0.6-0.1-1.2,0-1.8s0.4-1.1,0.6-1.6
				c0.2-0.4,0.4-0.8,0.4-1.2c0.1-0.5-0.1-0.9-0.2-1.4c-0.6-2.5-1.3-5-1.5-7.7c0-0.7,0-1.3-0.1-2s-0.2-1.4-0.3-2.1
				c-0.2-1.3-0.3-2.6-0.2-3.9c0.1-1.4,0.2-2.8,0.3-4.1c0-0.6,0.1-1.2,0.4-1.7c0.3-0.6,0.6-1.1,0.9-1.7c1.1-2.3,1.2-4.7,1.6-7.2
				c0.3-2.5,1.3-4.9,2.2-7.3c0.4-1.2,0.8-2.4,1.2-3.6c0.4-1.1,1-2.2,1.5-3.3c0.4-1,0.7-2,1.2-2.9c0.6-1,1.6-1.6,2.6-2
				c1.3-0.5,2.5-1,3.8-1.6c0.6-0.3,1.3-0.5,1.9-0.8c0.5-0.3,1-0.6,1.6-0.8c0.5-0.2,1-0.3,1.6-0.3c0.2,0,0.3,0.1,0.3,0.3
				c-0.2,5.1-1.3,10.1-2.2,15.1c-1,5.2-1.9,10.3-3,15.5c-1.1,5-1.1,10.1-1.3,15.2c-0.2,5.2-0.4,10.4-1.1,15.5
				c-0.3,2.8-0.8,5.7-1.4,8.4c-0.6,2.7-0.8,5.4-1.6,8.1c0,0.1-0.2,0.2-0.3,0.2c-0.6,0-1.2-0.2-1.7-0.5s-0.9-0.8-1.4-1.2
				c-1.3-0.9-2.8-1.4-4.3-2c-0.3-0.1-1-0.2-1.1-0.6c-0.1-0.2,0-0.5,0-0.8c0-1.1,0.1-2.2,0.1-3.2C234.8,171.1,234.9,169.5,234.9,168
				c0-0.4,0.7-0.4,0.7,0c-0.1,2.4-0.2,4.8-0.3,7.2c0,0.4,0,0.7,0,1.1c0,0.1,0,0.2,0,0.3v-0.1c0,0,0,0,0-0.1h0.1
				c0.1,0,0.3,0.1,0.4,0.1c1.3,0.5,2.7,1,3.9,1.7c1.1,0.7,2,2,3.4,1.9c-0.1,0.1-0.2,0.2-0.3,0.2c0.6-2.4,0.9-4.8,1.4-7.2
				c0.5-2.5,1-5,1.4-7.5c0.7-5.1,1-10.3,1.2-15.4c0.2-5,0.2-10.1,1-15.1c0.4-2.6,1-5.1,1.5-7.7c0.5-2.6,1-5.1,1.5-7.7
				c1-5.7,2.4-11.3,2.6-17.1c0.1,0.1,0.2,0.2,0.3,0.3c-1.2,0-2.2,0.7-3.3,1.2c-1.2,0.6-2.5,1-3.7,1.5c-1.1,0.5-2.5,0.9-3.4,1.7
				c-0.8,0.8-1.1,1.8-1.5,2.8c-0.4,1.1-1,2.1-1.4,3.2c-0.5,1.1-0.8,2.3-1.2,3.5c-0.8,2.4-1.8,4.7-2.3,7.2c-0.2,1.2-0.3,2.4-0.5,3.6
				s-0.4,2.3-0.8,3.4c-0.2,0.6-0.4,1.1-0.7,1.6c-0.3,0.6-0.7,1.1-0.9,1.7c-0.2,0.6-0.2,1.3-0.3,2c0,0.7-0.1,1.4-0.1,2
				c-0.1,1.3-0.2,2.6,0,4c0.2,1.3,0.4,2.6,0.5,3.9c0,1.3,0.1,2.6,0.3,3.9c0.2,1.3,0.5,2.5,0.8,3.7c0.2,0.9,0.7,2,0.5,3
				c-0.1,1-0.8,1.8-1,2.7c-0.3,1.3,0.1,2.5,0.4,3.7c0.1,0.5,0.3,1,0.3,1.5c0,0.4,0,0.7,0,1.1c0,0.6,0,1.2,0,1.8
				C235.6,168.4,234.9,168.4,234.9,168z"/>
		</g>
	</g>
	<g>
		<path class="st2" d="M243.2,112c-0.8,2.6-0.8,5.4-0.8,8.1c-0.1,3-0.4,6-0.6,8.9c-0.2,3.2-0.4,6.4-0.4,9.6c0,3,0,6.1-0.5,9.1
			c-0.3,1.7-0.7,3.3-1.5,4.8c-0.7,1.5-1.7,2.8-2.6,4.2c-0.2,0.3-0.8,0-0.6-0.3c0.8-1.2,1.7-2.4,2.3-3.7c0.7-1.3,1.2-2.7,1.5-4.2
			c0.6-3,0.7-6.1,0.7-9.2c0-3.1,0.1-6.3,0.3-9.4c0.2-3,0.5-6,0.6-9.1c0.1-3,0-6.1,0.9-9C242.7,111.5,243.3,111.6,243.2,112
			L243.2,112z"/>
	</g>
	<g>
		<path class="st2" d="M240.5,155.8c-0.1,2,0.6,3.8,0.8,5.8c0.2,1.9-0.1,3.7-1,5.4c-0.2,0.4-0.8,0-0.6-0.3c0.9-1.7,1.1-3.6,0.8-5.4
			c-0.3-1.8-0.9-3.6-0.8-5.4C239.9,155.4,240.6,155.4,240.5,155.8L240.5,155.8z"/>
	</g>
	<g>
		<path class="st1" d="M235.7,157.7c-0.3,0.4-0.6,0.7-0.7,0.8c0.9-1.2-0.7-3.7,0.6-5.1c0.3-0.3,0.7-0.6,0.9-1
			c0.1-0.2,0.1-0.4,0.2-0.6c0.1-0.3,0.3-0.4,0.5-0.6c0.8-0.7,1.9-0.7,2.7-1.3c0.1,0.5-0.1,0.9-0.3,1.4s-0.2,1,0.2,1.3
			c0.5,0.3,0.9,0.9,1.1,1.5c0.2,0.7,0.4,1.4,0.7,1.9c0.2,0.2,0.4,0.4,0.4,0.7c0,0.4-0.4,0.8-0.8,0.8c-0.4,0-0.8-0.2-1.1-0.5
			c-0.8-0.7-1.6-1.9-2.1-2.8C238.3,154.9,236.7,156.7,235.7,157.7z"/>
		<g>
			<path class="st2" d="M235.9,158c-0.2,0.3-0.5,0.5-0.7,0.8s-0.7-0.1-0.5-0.4c0.5-0.6,0.2-1.6,0.1-2.3c-0.1-0.8-0.2-1.8,0.3-2.5
				c0.3-0.4,0.7-0.6,1-1c0.2-0.2,0.2-0.5,0.3-0.8c0.1-0.2,0.2-0.4,0.4-0.6c0.8-0.8,2-0.9,3-1.5c0.2-0.1,0.4,0,0.5,0.2
				c0.1,0.7-0.3,1.2-0.4,1.8c-0.1,0.4,0,0.5,0.3,0.8c0.2,0.2,0.4,0.4,0.6,0.6c0.4,0.5,0.6,1.1,0.8,1.8c0.1,0.3,0.2,0.7,0.4,1
				c0.2,0.2,0.4,0.5,0.4,0.7c0.1,0.5-0.2,1-0.7,1.2c-0.6,0.2-1.1,0-1.6-0.3c-1-0.7-1.7-1.9-2.3-3c0.2-0.1,0.4-0.2,0.6-0.3
				c0.3,0.6-0.2,1.3-0.5,1.7C237.2,156.6,236.6,157.3,235.9,158c-0.3,0.3-0.7-0.2-0.5-0.5c0.5-0.6,1-1.1,1.5-1.7
				c0.2-0.3,0.4-0.5,0.5-0.8c0.1-0.1,0.2-0.4,0.2-0.5c-0.2-0.4,0.3-0.7,0.6-0.3c0.5,0.9,1.1,1.9,1.9,2.6c0.2,0.2,0.5,0.4,0.7,0.5
				c0.3,0.1,0.7,0,0.7-0.3c0.1-0.3-0.2-0.5-0.3-0.7s-0.3-0.4-0.4-0.7c-0.2-0.5-0.3-1.1-0.5-1.6c-0.1-0.2-0.3-0.5-0.5-0.7
				s-0.4-0.3-0.5-0.5c-0.3-0.3-0.4-0.7-0.3-1.1c0.1-0.6,0.6-1.1,0.5-1.7c0.2,0.1,0.3,0.1,0.5,0.2c-0.9,0.6-2.2,0.6-2.9,1.5
				c-0.2,0.2-0.2,0.5-0.3,0.8c-0.1,0.2-0.2,0.4-0.3,0.6c-0.3,0.3-0.7,0.6-0.9,1c-0.7,1.5,0.7,3.3-0.3,4.6c-0.2-0.1-0.3-0.3-0.5-0.4
				c0.2-0.3,0.5-0.5,0.7-0.8C235.8,157.2,236.2,157.7,235.9,158z"/>
		</g>
	</g>
	<g>
		<path class="st1" d="M264.8,134.4c0.3-2.6,0.5-5.2,0.6-7.8c0.2-7.7,0.4-15.4,2.5-22.8c5.3-0.3,10.8,2.9,15.8,4.4
			c0.6,0.2,1.1,0.4,1.5,0.8c0.3,0.4,0.4,0.9,0.6,1.3c0.5,1.2,1.6,2.1,2.3,3.2c0.3,0.6,0.6,1.2,0.8,1.8c0.9,2.5,2.2,4.9,3.4,7.3
			c2,4.7,3.8,9.4,5.5,14.2c1.5,4.2-0.9,8.6-3.9,11.6c-1.6,1.5-2.9,3.2-4.8,4.4s-4,2.2-5.7,3.7c-0.1,0.1-0.2,0.2-0.3,0.3
			c-0.1,0.2-0.1,0.4-0.1,0.6c0.2,3.2,0.5,6.4,0.6,9.5c0,3.6,0.1,7.1,0.2,10.7c0,0.6-10.8,1.7-11.7,1.7c-2,0-3.6,0.6-5.6,1.1
			c-0.3,0.1-4.2,1-3.9,1.6c-2.4-4.1-2.3-9.4-2.3-14c0-5.7,0.1-11.5,1.6-16.9C263.4,145.7,264.1,140,264.8,134.4z"/>
		<g>
			<path class="st2" d="M264.4,134.4c0.5-4,0.6-8.1,0.7-12.1s0.4-8,1-11.9c0.3-2.2,0.8-4.4,1.4-6.6c0-0.1,0.2-0.2,0.3-0.2
				c4.5-0.3,8.8,1.8,12.9,3.4c1,0.4,2.1,0.7,3.1,1.1c0.4,0.1,0.9,0.3,1.3,0.6c0.4,0.3,0.6,0.7,0.7,1.2c0.4,1,1,1.8,1.7,2.6
				c0.7,0.8,1.1,1.7,1.5,2.8c0.8,2.3,2,4.5,3.1,6.7s2,4.6,2.9,7c0.9,2.4,1.8,4.8,2.7,7.1c0.4,1,0.7,2,0.8,3.2c0.1,1-0.1,2-0.3,3
				c-0.5,2-1.7,3.8-3,5.4c-0.7,0.8-1.5,1.6-2.2,2.3c-0.8,0.8-1.5,1.6-2.4,2.3c-1.7,1.5-3.8,2.4-5.7,3.6c-0.5,0.3-1,0.7-1.4,1.1
				c-0.2,0.2-0.3,0.4-0.3,0.7s0,0.6,0.1,0.9c0.1,1.3,0.2,2.5,0.3,3.8c0.2,2.6,0.2,5.1,0.2,7.7c0,1.3,0,2.6,0.1,3.9
				c0,0.6,0,1.3,0.1,1.9c0,0.3,0,0.6,0,1c0,0.3,0.1,0.7,0,1c-0.1,0.6-1.1,0.7-1.5,0.8c-1.1,0.2-2.3,0.4-3.5,0.5
				c-2.2,0.3-4.5,0.6-6.7,0.7c-0.6,0-1.2,0-1.9,0.1c-1.1,0.2-2.2,0.5-3.2,0.8c-1.1,0.3-2.3,0.6-3.4,0.9c-0.3,0.1-0.5,0.2-0.8,0.3
				c-0.1,0-0.2,0.1-0.2,0.1l0,0c0,0,0-0.1,0-0.2c0.2,0.4-0.3,0.7-0.6,0.3c-1.4-2.4-2-5.3-2.2-8.1c-0.2-3-0.1-6-0.1-9
				c0-3.3,0.2-6.5,0.7-9.8s1.5-6.4,2.1-9.7C263.5,142,264,138.2,264.4,134.4c0.1-0.4,0.7-0.4,0.7,0c-0.4,3.3-0.8,6.6-1.3,9.8
				c-0.3,1.6-0.6,3.2-1,4.8s-0.9,3.2-1.2,4.8c-0.6,3.2-0.8,6.5-0.9,9.7c-0.1,3-0.1,6,0,9c0.1,3.2,0.6,6.5,2.2,9.3
				c-0.2,0.1-0.4,0.2-0.6,0.3c-0.4-0.9,1.7-1.4,2.2-1.5c1.3-0.4,2.6-0.7,3.9-1.1c2.3-0.6,4.8-0.6,7.2-0.9c2.4-0.2,4.8-0.4,7.1-1
				c0.2,0,0.3-0.1,0.5-0.1l0.2-0.1c0,0,0,0.2-0.1,0.2v-0.8c0-0.7,0-1.4-0.1-2.1c-0.1-2.5-0.1-5.1-0.1-7.6c0-2.6-0.2-5.1-0.4-7.6
				c0-0.6-0.1-1.2-0.1-1.7s-0.1-1,0.3-1.4c0.8-0.8,1.8-1.4,2.7-1.9c0.9-0.6,1.9-1.1,2.8-1.7c1-0.6,1.8-1.3,2.7-2.1
				c0.8-0.8,1.6-1.6,2.3-2.4c0.8-0.8,1.5-1.5,2.1-2.4c1.2-1.7,2.1-3.6,2.3-5.7c0.2-2.4-0.9-4.5-1.7-6.7c-0.9-2.4-1.8-4.8-2.7-7.1
				c-0.5-1.1-0.9-2.3-1.4-3.4s-1.1-2.2-1.7-3.4c-0.5-1.1-1-2.2-1.5-3.3c-0.4-1.1-0.7-2.2-1.4-3.2c-0.6-0.8-1.4-1.5-1.9-2.4
				c-0.2-0.4-0.3-0.9-0.5-1.3c-0.3-0.5-0.8-0.7-1.3-0.9c-2.1-0.7-4.2-1.5-6.3-2.3c-2.1-0.8-4.3-1.6-6.5-2c-1.1-0.2-2.1-0.2-3.2-0.2
				c0.1-0.1,0.2-0.2,0.3-0.2c-2.2,7.7-2.2,15.7-2.5,23.7c-0.1,2.3-0.3,4.6-0.6,6.9C265,134.8,264.4,134.8,264.4,134.4z"/>
		</g>
	</g>
	<g>
		<path class="st1" d="M289.5,152.4c-1.7,1.6-4.1,3-6.1,4.1c-1.1,0.6-3.1,2-4.4,2c-0.6,0-1.1-0.4-1.6-0.8c-2.8-2.3-4.1-5.3-4.6-8.8
			c0-0.1,0-0.3,0-0.4c0.1-0.2,0.2-0.4,0.4-0.5c1.9-1.8,3.9-3.6,5.7-5.5c0.9-0.9,4.2-3.3,4.1-4.8c0-0.3-0.2-0.6-0.2-0.9
			c0-0.3,0.3-0.6,0.6-0.5c-1.5-2.2-2.3-4.8-3.2-7.2c-0.9-2.5-2.2-3.6-1.6-6.3c0.5-2.5,1.1-4.9,1.7-7.4c0.3-1,0.5-1.9,1-2.8
			c0.4-0.8,1.1-1.5,1.8-2"/>
		<g>
			<path class="st2" d="M289.8,152.6c-2.2,2.1-5,3.5-7.7,5.1c-1,0.6-2.4,1.4-3.6,1.1c-0.7-0.2-1.3-0.7-1.8-1.2s-1-1-1.5-1.6
				c-0.8-1.1-1.5-2.3-2-3.6c-0.2-0.7-0.4-1.4-0.6-2.1c-0.1-0.3-0.1-0.7-0.2-1c-0.1-0.4-0.1-0.7,0-1.1c0.2-0.4,0.6-0.6,0.9-0.9
				c0.4-0.3,0.7-0.6,1-1c0.7-0.6,1.4-1.3,2-1.9c1-1,2-2,3.1-2.9c0.9-0.8,2-1.6,2.7-2.7c0.1-0.2,0.3-0.4,0.4-0.7s0-0.5,0-0.8
				c-0.1-0.6,0.1-1.5,0.9-1.3c-0.1,0.2-0.2,0.3-0.4,0.5c-1.1-1.6-1.8-3.3-2.5-5.1c-0.3-0.9-0.6-1.9-1-2.8c-0.3-0.7-0.7-1.4-1-2.1
				s-0.5-1.3-0.5-2c-0.1-0.9,0.1-1.8,0.3-2.7c0.4-2.1,0.9-4.1,1.5-6.1c0.3-1.1,0.6-2.2,1.1-3.2c0.5-0.9,1.1-1.6,1.9-2.2
				c0.3-0.2,0.7,0.3,0.3,0.6c-1.6,1.1-2.2,2.8-2.7,4.6c-0.5,1.9-1,3.9-1.4,5.8c-0.2,0.9-0.5,1.8-0.5,2.8c0,0.7,0.2,1.4,0.5,2.1
				s0.6,1.3,0.9,2c0.4,0.8,0.6,1.6,0.9,2.4c0.7,1.9,1.4,3.9,2.6,5.6c0.2,0.3-0.1,0.5-0.4,0.5c-0.3-0.1,0,0.9,0,1c0,0.2,0,0.4,0,0.6
				c-0.1,0.4-0.3,0.8-0.6,1.1c-0.6,0.8-1.4,1.6-2.2,2.2c-2.1,1.8-4.1,3.9-6.1,5.8c-0.3,0.3-0.6,0.5-0.9,0.8
				c-0.1,0.1-0.4,0.3-0.4,0.5c-0.1,0.2,0,0.5,0.1,0.7c0.1,0.7,0.2,1.3,0.4,2c0.3,1.3,0.9,2.5,1.6,3.5c0.7,1.1,1.7,2.2,2.8,3
				c0.6,0.4,1.1,0.5,1.8,0.3c0.6-0.2,1.1-0.4,1.7-0.7c1.3-0.7,2.5-1.4,3.7-2.2c1.5-0.9,2.9-1.8,4.2-3
				C289.6,151.9,290.1,152.3,289.8,152.6L289.8,152.6z"/>
		</g>
	</g>
	<g>
		<path class="st2" d="M272.8,148.9c0-0.1,0-0.2,0-0.2c0.5-1.1,1.6-1.7,3.6-0.9c1.1,0.4,2,1.3,2.6,2.4c0.6,1,0.9,2.2,1.1,3.4
			c0.2,0.9,0.3,1.8,0.4,2.7c0.1,1-0.4,1.8-1.2,2.3c-0.1,0-0.2,0-0.3,0c-0.6,0-1.1-0.4-1.6-0.8C274.6,155.4,273.3,152.4,272.8,148.9z
			"/>
		<g>
			<path class="st2" d="M272.5,148.9c-0.1-0.7,0.7-1.4,1.3-1.6c0.9-0.4,1.8-0.2,2.7,0.1c2.1,0.8,3.2,2.9,3.7,5
				c0.3,1.2,0.6,2.5,0.6,3.8c0,0.9-0.4,1.8-1.2,2.4c-0.9,0.7-2.1-0.4-2.7-0.9c-0.8-0.7-1.5-1.5-2.1-2.3
				C273.5,153.5,272.8,151.2,272.5,148.9c-0.1-0.4,0.6-0.4,0.7,0c0.2,1.7,0.7,3.4,1.5,5c0.8,1.5,2,3,3.4,3.9
				c0.4,0.2,0.9,0.5,1.3,0.2c0.3-0.3,0.5-0.6,0.7-1c0.1-0.5,0.1-0.9,0.1-1.4c-0.1-0.6-0.1-1.1-0.3-1.7c-0.4-1.9-0.9-4-2.5-5.2
				c-0.7-0.6-1.8-1-2.7-0.9c-0.5,0-1.5,0.5-1.5,1.2C273.2,149.3,272.5,149.3,272.5,148.9z"/>
		</g>
	</g>
	<g>
		<path class="st1" d="M268.5,158.7c2.9,0.5,5.8,1.1,8.6,1.5c0.2-0.6-0.2-2.7,0.5-3c0.1-0.1,0.2-0.1,0.3-0.1
			c0.1-0.1,0.1-0.2,0.1-0.3c0.3-1.2,0-2.4-0.4-3.5c-0.4-1.2-1.4-4.4-3.2-3.4c-0.6,0.3-0.9,0.9-1.3,1.4c-0.8,1-2,1.7-3.2,2
			c-2.2,0.5-3.4,1.2-4.6,3.3c-0.7,1.2-1.2,2.6-2.1,3.6c-0.2,0.2-0.4,0.6-0.2,0.9c0.1,0.1,0.2,0.1,0.3,0.1c1,0.2,1.9-0.2,2.6-0.8
			c0.3-0.3,1-2,1.3-1.9C267.4,158.5,267.9,158.6,268.5,158.7z"/>
		<g>
			<path class="st2" d="M268.6,158.4c2.9,0.5,5.7,1.1,8.6,1.5c-0.1,0.1-0.2,0.2-0.3,0.2c0.2-0.9-0.2-1.9,0.2-2.7
				c0.1-0.2,0.2-0.3,0.3-0.4c0.1-0.1,0.2-0.1,0.3-0.2c0.1-0.2,0.1-0.5,0.2-0.7c0-0.8-0.1-1.7-0.4-2.5c-0.4-1.1-1.5-4.8-3.2-3.2
				c-0.5,0.5-0.8,1.1-1.3,1.5c-0.5,0.5-1.1,0.9-1.7,1.2c-1.1,0.5-2.3,0.6-3.4,1.2c-1,0.6-1.7,1.5-2.3,2.5c-0.4,0.7-0.7,1.3-1,2
				c-0.2,0.3-0.4,0.6-0.6,1c-0.1,0.1-0.2,0.3-0.3,0.4c-0.1,0.1-0.3,0.3-0.4,0.5c-0.1,0.3,0.8,0.2,1.1,0.2c0.4-0.1,0.8-0.3,1.1-0.5
				c0.4-0.3,0.6-0.7,0.8-1.2c0.2-0.3,0.4-0.8,0.7-1c0.2-0.1,0.3,0,0.5,0C267.9,158.3,268.3,158.4,268.6,158.4
				c0.4,0.1,0.2,0.7-0.2,0.6c-0.4-0.1-0.7-0.1-1.1-0.2h-0.1c-0.1-0.1,0,0.1,0.1,0c0,0-0.1,0.1-0.1,0.2c-0.3,0.4-0.5,0.9-0.7,1.3
				c-0.6,1-2.1,1.7-3.3,1.3c-0.8-0.2-0.5-1-0.2-1.5c0.5-0.7,1-1.4,1.4-2.2c0.6-1.2,1.2-2.6,2.3-3.5c0.9-0.8,2.1-1.1,3.3-1.4
				c0.8-0.2,1.5-0.5,2.2-1.1c0.6-0.5,1-1.1,1.5-1.7c0.7-0.9,1.8-1.1,2.7-0.3c0.8,0.7,1.2,1.7,1.5,2.7c0.2,0.7,0.5,1.4,0.6,2.1
				c0.1,0.5,0.1,0.9,0.1,1.4c0,0.4,0,0.9-0.3,1.2c-0.2,0.2-0.5,0.2-0.6,0.5s-0.1,0.6-0.1,0.8c0,0.6,0.1,1.2-0.1,1.7
				c0,0.1-0.2,0.3-0.3,0.2c-2.9-0.4-5.8-1-8.7-1.5C268,159,268.2,158.3,268.6,158.4z"/>
		</g>
	</g>
	<g>
		<path class="st3" d="M253.9,100.2c0.1-0.1,0.1-0.1,0.2-0.1c1.3-0.8,4.5-0.2,6-0.2s2.9,0,4.4-0.1c1,0,5.3-1,5.8-0.1
			c0.8,1.4,1.1,2.8,1.6,4.3c0.1,0.2,0.1,0.4,0.1,0.6s-0.2,0.4-0.3,0.6c-2.1,2.6-4.1,5.2-6.2,7.9c-1.3-1-2.4-2.3-3.3-3.7
			c-0.5-0.8-1.3-4-2.3-2.8c-0.6,0.7-1.1,1.4-1.7,2.1c-0.5-0.4-0.7-1.1-1-1.7c-0.7-1.7-1.8-1.1-2.9-0.1c-1,0.9-2.2,2.1-3.8,1.9
			c1.6-2.3,1.8-5.1,2.8-7.6C253.5,100.8,253.6,100.4,253.9,100.2z"/>
		<g>
			<path class="st2" d="M253.6,100c0.7-0.6,1.6-0.6,2.5-0.7c1,0,2,0.1,3,0.1c1.2,0.1,2.4,0,3.6,0c0.9,0,1.8,0,2.7-0.2
				c0.8-0.1,1.7-0.2,2.5-0.3c0.7-0.1,1.4-0.1,2.1,0.1c0.3,0.1,0.5,0.3,0.6,0.6c0.3,0.6,0.6,1.2,0.8,1.8c0.2,0.6,0.4,1.3,0.6,1.9
				s0.4,1.1,0,1.7c-2,2.7-4.2,5.3-6.3,8c-0.1,0.1-0.3,0.1-0.5,0c-1-0.8-1.9-1.7-2.6-2.8c-0.5-0.7-0.9-1.4-1.2-2.2
				c-0.1-0.3-0.3-0.7-0.5-1c-0.1-0.2-0.3-0.6-0.5-0.7c-0.3-0.1-0.5,0.4-0.6,0.5c-0.5,0.6-0.9,1.2-1.4,1.7c-0.1,0.1-0.3,0.1-0.4,0.1
				c-0.8-0.6-0.8-1.4-1.3-2.2c-0.4-0.8-1.1-0.5-1.7,0c-0.7,0.5-1.3,1.2-2,1.7c-0.8,0.5-1.6,0.9-2.5,0.8c-0.2,0-0.4-0.3-0.3-0.5
				c0.9-1.3,1.4-2.8,1.8-4.4c0.2-0.7,0.4-1.5,0.6-2.2C252.9,101.3,253.1,100.5,253.6,100c0.3-0.3,0.7,0.2,0.5,0.5
				c-0.5,0.5-0.7,1.4-0.9,2.1s-0.4,1.5-0.6,2.2c-0.4,1.4-0.9,2.9-1.7,4.1c-0.1-0.2-0.2-0.3-0.3-0.5c1,0.1,1.9-0.4,2.7-1
				c0.7-0.5,1.2-1.2,2-1.6c0.6-0.3,1.3-0.3,1.8,0.2c0.7,0.7,0.6,1.8,1.4,2.4c-0.1,0-0.3,0-0.4,0.1c0.5-0.7,1.1-1.3,1.6-2
				c0.2-0.3,0.5-0.5,0.8-0.5c0.7,0,1.1,0.9,1.3,1.5c0.3,0.8,0.6,1.5,1.1,2.2c0.8,1.2,1.8,2.3,2.9,3.2c-0.2,0-0.3,0-0.5,0
				c1.7-2.2,3.4-4.4,5.1-6.5c0.2-0.3,0.4-0.5,0.6-0.8s0.6-0.6,0.6-1c0-0.3-0.2-0.6-0.3-0.9c-0.1-0.3-0.2-0.6-0.3-0.9
				c-0.2-0.6-0.4-1.2-0.6-1.8c-0.1-0.3-0.3-0.9-0.6-1.1c-0.5-0.3-1.3-0.1-1.8-0.1c-0.8,0.1-1.6,0.2-2.3,0.3
				c-1.9,0.3-3.9,0.3-5.9,0.2c-1,0-1.9-0.1-2.9-0.2c-0.8,0-2.2-0.1-2.8,0.5C253.8,100.7,253.3,100.3,253.6,100z"/>
		</g>
	</g>
	<g>
		<path class="st1" d="M267.9,92.9c0.1-1.3,0.4-2.6,0.9-3.8c1.7-3.8,3.2-7.2,2.8-11.5c-0.3-2.9-1.5-5.8-3.8-7.7
			c-3.3-2.8-7.9-3.2-12-2.5c-2.7,0.5-5.3,1.9-6.7,4.2c-1,1.6-1.4,3.5-1.6,5.4c-0.2,2,0.2,3.9,0.2,5.9c0,1.9-0.2,3.8-0.1,5.7
			c0.2,3.2,1.6,5.8,4.8,6.7c1,0.3,2.9-0.2,3.7,0.7c1,1.2-0.1,5-0.4,6.4c0.6,0.1,1.2,0.3,1.8,0.4c-0.2,2,0,4,0.6,6
			c-0.2-0.8,1.2-3.4,1.5-4.2c0.1-0.2,0.1-0.4,0.3-0.5c0.2-0.2,0.6-0.3,0.9-0.3c0.8-0.1,8-1.7,8-2.4
			C268.7,98.4,267.6,95.9,267.9,92.9z"/>
		<g>
			<path class="st2" d="M267.6,92.9c0.1-1.5,0.5-2.9,1.1-4.3s1.2-2.7,1.7-4.2c1-2.8,1.3-5.8,0.6-8.7c-0.7-2.7-2.3-5.1-4.7-6.5
				c-2.3-1.4-5.1-1.9-7.8-1.8c-2.7,0.1-5.4,0.8-7.5,2.5c-2.3,1.9-3.2,5-3.3,7.9c-0.1,1.6,0.2,3.2,0.3,4.8c0,1.7-0.2,3.3-0.1,4.9
				c0,2.3,0.5,4.8,2.4,6.3c0.9,0.7,2,1.2,3.1,1.2c1,0,2.2-0.1,3,0.6c0.6,0.6,0.6,1.7,0.5,2.5c-0.1,1.1-0.3,2.1-0.6,3.1
				c-0.1,0.4-0.2,0.8-0.3,1.1c-0.1-0.1-0.2-0.3-0.2-0.4c0.6,0.1,1.2,0.3,1.8,0.4c0.1,0,0.3,0.2,0.2,0.3c-0.2,2,0,4,0.6,5.9
				c-0.2,0.1-0.4,0.1-0.6,0.2c-0.2-0.6,0.2-1.3,0.4-1.9c0.3-0.7,0.6-1.4,1-2.1c0.1-0.3,0.2-0.7,0.5-1c0.2-0.2,0.4-0.3,0.6-0.4
				c0.1,0,0.2-0.1,0.4-0.1c0.1,0,0.2,0,0.2,0c0.4-0.1,0.8-0.1,1.2-0.2c1.4-0.3,2.7-0.6,4.1-1c0.6-0.2,1.2-0.4,1.8-0.6
				c0.2-0.1,0.4-0.1,0.5-0.2c0.1,0,0.1-0.1,0.1-0.1s0.1-0.1,0,0c0,0,0,0.1,0,0c0-0.2,0-0.4,0-0.6s0-0.3,0-0.5c0-0.4-0.1-0.7-0.1-1.1
				c-0.1-0.7-0.2-1.4-0.3-2C267.6,95.7,267.4,94.3,267.6,92.9c0-0.4,0.7-0.4,0.7,0c-0.2,2.5,0.5,4.9,0.8,7.4
				c0.1,0.6,0.2,1.3-0.3,1.6c-0.4,0.3-0.8,0.4-1.3,0.5c-1.3,0.5-2.7,0.8-4.1,1.1c-0.6,0.1-1.1,0.3-1.7,0.4c-0.4,0.1-1,0.1-1.4,0.3
				c-0.3,0.2-0.4,0.8-0.6,1.1c-0.2,0.4-0.4,0.8-0.6,1.2c-0.2,0.4-0.4,0.8-0.5,1.3c-0.1,0.3-0.3,0.6-0.2,0.9c0.1,0.4-0.5,0.6-0.6,0.2
				c-0.6-2-0.8-4-0.6-6c0.1,0.1,0.2,0.2,0.2,0.3c-0.6-0.1-1.2-0.3-1.8-0.4c-0.2,0-0.3-0.2-0.2-0.4c0.2-0.9,0.5-1.9,0.7-2.9
				c0.2-0.9,0.4-2.1,0-2.9c-0.4-1-2-0.7-2.9-0.7c-1.1,0-2.2-0.5-3.1-1.2c-1.9-1.4-2.7-3.6-2.8-5.9c-0.1-1.7,0.1-3.4,0.1-5.1
				s-0.2-3.4-0.3-5.1c0-1.5,0.2-3.1,0.7-4.6c0.4-1.4,1.1-2.6,2.1-3.7c1.9-2,4.4-2.9,7.1-3.3c2.7-0.4,5.6-0.2,8.1,0.9
				c2.6,1.1,4.7,3,5.8,5.6c1.2,2.7,1.4,5.7,0.9,8.5c-0.3,1.5-0.8,2.9-1.3,4.3c-0.6,1.4-1.3,2.8-1.8,4.3c-0.2,0.8-0.4,1.6-0.4,2.4
				C268.2,93.3,267.5,93.3,267.6,92.9z"/>
		</g>
	</g>
	<g>
		<path class="st2" d="M255.4,74.9c-1.7,0.9-3.6,1.3-5.5,1.1c-3.2-0.4-6.2-2.7-7.1-5.8c-0.1-0.3-0.1-0.6-0.1-0.9
			c0.3-1.2,2.5-1.3,3.4-1.6c1.7-0.6,2.6-1.2,3.7-2.7c3.4-4.7,12-5.2,16.8-2.4c2.3,1.4,3.7,3.6,3.1,6.4c2.5,0.2,4.8,1.9,5.6,4.2
			c0.8,2.3,0.3,4.9-0.5,7.2c-1.3,3.9-2.4,7.7-4,11.5c-0.1,0.3-2.2,3.7-2.4,3.2c-1-2.4-0.3-4.1,0.2-6.5c0.2-0.8-0.2-4.8,0.1-5.2
			c-0.5,0.5-1.1,0.9-1.8,1.2c-0.2-3.6,0-8.4-1.6-11.7c-0.1-0.2-0.2-0.4-0.4-0.5c-0.5-0.3-1.2,0.3-1.8,0.1
			C262.5,66.7,257.3,73.9,255.4,74.9z"/>
		<g>
			<path class="st2" d="M255.6,75.2c-1.9,1-4.1,1.5-6.3,1.1c-1.8-0.3-3.5-1.3-4.8-2.6c-0.6-0.7-1.2-1.4-1.5-2.3
				c-0.3-0.7-0.8-1.8-0.3-2.5c0.7-1.2,2.6-1.1,3.8-1.5c0.8-0.3,1.5-0.7,2.1-1.2c0.6-0.6,1.1-1.3,1.6-2c1.1-1.2,2.4-2,3.9-2.5
				c3-1.2,6.6-1.3,9.7-0.4c1.7,0.5,3.5,1.3,4.7,2.6c1.4,1.5,2,3.5,1.5,5.5c-0.1-0.1-0.2-0.3-0.3-0.4c3.3,0.2,5.9,2.8,6.3,6
				c0.2,1.9-0.2,3.8-0.8,5.6c-0.7,2-1.3,3.9-1.9,5.9c-0.6,1.9-1.2,3.9-2.1,5.8c-0.4,0.8-0.9,1.5-1.4,2.2c-0.2,0.3-1.1,1.7-1.6,1
				c-0.2-0.3-0.3-0.9-0.4-1.2c-0.1-0.4-0.1-0.9-0.2-1.3c0-0.9,0.1-1.7,0.3-2.6c0.2-0.7,0.4-1.4,0.4-2.1c0-0.6,0-1.2,0-1.8
				c0-0.6,0-1.3,0-1.9c0-0.4,0-0.9,0.2-1.2c0.2,0.2,0.3,0.3,0.5,0.5c-0.6,0.5-1.2,0.9-1.8,1.3c-0.2,0.1-0.5,0-0.5-0.3
				c-0.1-2.4-0.1-4.7-0.4-7.1c-0.1-1.2-0.4-2.3-0.8-3.5c-0.1-0.4-0.4-1.4-0.9-1.4c-0.2,0-0.5,0.1-0.7,0.2c-0.3,0.1-0.5,0.1-0.8,0
				c-0.2,0-0.2-0.2-0.2-0.3c-0.1-0.6-0.2-1.6-0.8-2c-0.4-0.3-1,0-1.4,0.2c-1.3,0.7-2.4,1.9-3.5,2.9
				C256.7,74.4,256.2,74.9,255.6,75.2c-0.4,0.2-0.7-0.4-0.3-0.6c0.6-0.3,1-0.8,1.5-1.2c0.6-0.6,1.3-1.2,1.9-1.8
				c0.9-0.8,2.5-2.2,3.7-1.4c0.8,0.5,1,1.7,1.1,2.5c-0.1-0.1-0.2-0.2-0.2-0.3c0.6,0.1,1.1-0.4,1.7-0.2c0.5,0.2,0.7,0.8,0.9,1.3
				c0.5,1.1,0.7,2.4,0.9,3.6c0.4,2.5,0.3,5.1,0.5,7.7c-0.2-0.1-0.3-0.2-0.5-0.3c0.6-0.3,1.2-0.7,1.7-1.2c0.3-0.3,0.7,0.2,0.5,0.5
				l0,0c0,0.1,0,0.1,0,0.2c0,0.2,0,0.4,0,0.6c0,0.5,0,1,0,1.5c0,0.9,0.1,1.8,0,2.6c-0.2,1.5-0.8,3-0.6,4.6c0,0.4,0.1,0.8,0.3,1.2
				c0,0.1,0.3,0.7-0.1,0.4l0,0c0.2-0.3,0.5-0.6,0.7-0.9c0.5-0.7,0.9-1.3,1.3-2.1c0.3-0.7,0.6-1.4,0.8-2.1c0.3-0.9,0.6-1.8,0.9-2.7
				c0.6-1.8,1.1-3.5,1.7-5.3c0.6-1.7,1.2-3.4,1.4-5.2c0.2-1.8-0.2-3.7-1.5-5.1c-1.1-1.2-2.6-2-4.2-2.1c-0.2,0-0.4-0.2-0.3-0.4
				c0.4-1.7,0-3.4-1.2-4.7c-1-1.1-2.4-1.9-3.9-2.3c-2.8-0.9-6-1-8.9-0.2c-1.4,0.4-2.8,1-3.9,2c-1.1,0.9-1.8,2.3-3,3.2
				c-0.6,0.5-1.3,0.8-2.1,1c-0.6,0.2-1.2,0.3-1.9,0.4c-0.5,0.1-1.3,0.4-1.5,1c-0.1,0.4,0.2,1,0.3,1.3c0.2,0.4,0.4,0.9,0.7,1.3
				c1.1,1.6,2.7,2.8,4.6,3.4c2.2,0.6,4.6,0.3,6.6-0.8C255.6,74.5,255.9,75,255.6,75.2z"/>
		</g>
	</g>
	<g>
		<path class="st1" d="M266.1,84.7c0.8-1.3,3.4-5.2,5.3-3.1c2.5,2.7-2.5,6.3-3.8,8.2"/>
		<g>
			<path class="st2" d="M265.9,84.5c0.6-1,1.3-2,2.1-2.8c0.8-0.7,1.9-1.5,3-1s1.6,1.8,1.4,2.9c-0.2,1.2-1,2.3-1.8,3.2
				c-0.9,1-1.9,1.9-2.7,3c-0.2,0.3-0.8,0-0.6-0.3c1.3-1.8,3.2-3,4.1-5c0.4-1,0.4-2-0.3-2.8c-0.8-0.8-1.8-0.3-2.6,0.4
				c-0.9,0.8-1.5,1.8-2.1,2.7C266.2,85.2,265.6,84.9,265.9,84.5L265.9,84.5z"/>
		</g>
	</g>
	<g>
		<path class="st2" d="M269.1,84.3C269.1,84.3,269,84.2,269.1,84.3C269,84.2,269.1,84.3,269.1,84.3S269,84.3,269.1,84.3
			c0-0.1-0.1,0-0.1,0c0.1,0,0,0,0,0h-0.1c0,0-0.1,0-0.1,0.1c-0.2,0.1-0.4,0.4-0.6,0.7c-0.4,0.6-0.7,1.3-0.9,2
			c-0.1,0.4-0.7,0.2-0.6-0.2c0.2-0.9,0.7-1.7,1.2-2.5c0.3-0.3,0.5-0.6,0.9-0.8c0.4-0.1,0.8-0.1,1,0.3
			C269.8,84.3,269.3,84.7,269.1,84.3L269.1,84.3z"/>
	</g>
	<g>
		<path class="st2" d="M256.2,77.3c0.7,0.1,1.4,0.5,2.1,0.6c0.2,0,0.4,0,0.5-0.2c0-0.1,0-0.2-0.1-0.2c-0.3-0.5-0.6-1-1.1-1.3
			s-1-0.5-1.6-0.4c-0.3,0.1-0.6,0.3-0.7,0.6C255.2,77.1,255.8,77.3,256.2,77.3z"/>
		<g>
			<path class="st2" d="M256.2,77c0.6,0.1,1.1,0.3,1.7,0.5c0.1,0,0.3,0.1,0.4,0.1h0.2l-0.1,0.1l0,0v-0.1c0-0.1-0.1-0.1-0.1-0.2
				c-0.1-0.1-0.2-0.2-0.2-0.4c-0.3-0.4-0.7-0.8-1.2-0.9c-0.4-0.1-1-0.1-1.2,0.4c0,0.1,0,0.2,0,0.2s0,0.1,0,0l0.1,0.1
				C255.9,76.9,256.1,77,256.2,77c0.2,0,0.3,0.1,0.3,0.3c0,0.2-0.1,0.3-0.3,0.3c-0.5-0.1-1.2-0.3-1.3-0.9c0-0.8,0.7-1.2,1.4-1.2
				c0.8,0,1.5,0.4,2,1c0.2,0.3,0.5,0.6,0.6,0.9c0.1,0.2,0.2,0.4,0.1,0.5c-0.1,0.2-0.2,0.3-0.4,0.4c-0.4,0.1-0.8-0.1-1.2-0.2
				c-0.4-0.1-0.8-0.3-1.2-0.4c-0.2,0-0.3-0.1-0.3-0.3C255.9,77.2,256.1,77,256.2,77z"/>
		</g>
	</g>
	<g>
		<g>
			<path class="st2" d="M256.5,81.1c-0.2,0.2-0.5,0.2-0.7,0.1s-0.3-0.3-0.4-0.5c0-0.1,0-0.2-0.1-0.3c0-0.1,0-0.1,0-0.2
				c0-0.2,0.1-0.3,0.1-0.5c0.1-0.3,0.4-0.6,0.8-0.5c0.2,0.1,0.3,0.2,0.4,0.4c0.1,0.1,0.1,0.3,0.1,0.5s0,0.3,0,0.5
				C256.7,80.8,256.6,81,256.5,81.1s-0.3,0.1-0.5,0c-0.1-0.1-0.1-0.3,0-0.5c0,0,0,0.1,0,0l0,0c0,0,0,0,0-0.1v0.1
				c0-0.1,0.1-0.2,0.1-0.3v0.1c0-0.1,0-0.3,0-0.4v0.1c0-0.1,0-0.2-0.1-0.2V80c0,0,0,0,0-0.1l0,0l0,0c0,0,0,0.1,0,0l0,0
				c0,0-0.1,0,0,0s0,0,0,0h0.1c0,0,0,0-0.1,0h0.1c0,0,0,0-0.1,0h0.1c0,0,0,0-0.1,0h0.1l0,0l0,0c0,0,0.1-0.1,0,0c0,0,0,0-0.1,0.1
				c0,0,0.1-0.1,0,0l0,0l0,0c0,0,0,0.1-0.1,0.1V80c0,0.1-0.1,0.2-0.1,0.3v-0.1c0,0.1,0,0.1,0,0.2v-0.1c0,0.1,0,0.2,0.1,0.3v-0.1v0.1
				l0,0c0,0-0.1-0.1,0,0l0,0c0,0-0.1,0,0,0c0,0,0,0,0.1,0h-0.1h0.1h-0.1c0,0,0,0,0.1,0h-0.1c0,0,0,0,0.1,0h-0.1l0,0c0,0-0.1,0.1,0,0
				s0.3-0.1,0.5,0C256.7,80.8,256.7,81,256.5,81.1z"/>
		</g>
		<g>
			<path class="st2" d="M256.4,79.7l0.1,0.1c0,0.1,0.1,0.2,0.1,0.2c0,0.1,0,0.2,0,0.2c0,0.1,0,0.2,0,0.3c0,0.1-0.1,0.2-0.1,0.2
				c-0.1,0-0.2,0.1-0.3,0c-0.1,0-0.2-0.1-0.2-0.1v-0.1c0-0.1,0-0.1,0-0.2l0,0v0.1c0-0.1,0-0.2,0-0.2v0.1c0-0.1,0-0.1-0.1-0.2v0.1
				c0-0.1-0.1-0.1-0.1-0.2s-0.1-0.2,0-0.3c0-0.1,0.1-0.2,0.1-0.2c0.1,0,0.2-0.1,0.3,0C256.3,79.6,256.3,79.7,256.4,79.7L256.4,79.7z
				"/>
		</g>
	</g>
	<g>
		<path class="st2" d="M248.4,76.5c-0.9,1.6,0.8,0.8,1.5,0.6c0.2-0.1,0.3-0.1,0.4-0.3c0.1-0.1,0-0.3,0-0.5c-0.2-0.3-0.6-0.5-0.9-0.4
			C248.9,75.9,248.6,76.2,248.4,76.5z"/>
		<g>
			<path class="st2" d="M248.7,76.7c0,0.1-0.1,0.1-0.1,0.2V77l0,0c0,0,0-0.1,0,0s-0.1,0.2-0.1,0.2c0,0.1,0,0,0,0l0,0l0,0
				c0,0.1,0,0,0,0l0,0c0,0,0-0.1,0,0s-0.1-0.1,0,0c0,0-0.1,0,0,0l0,0c0,0-0.1,0,0,0l0,0l0,0c0,0-0.1,0,0,0h0.1h0.1c0,0,0.1,0,0,0
				l0,0c0.1,0,0.1,0,0.2,0c0.3-0.1,0.5-0.2,0.8-0.3c0.1,0,0.1,0,0.2-0.1h0.1c-0.1,0,0,0,0,0s0,0,0.1,0c-0.1,0,0,0,0,0l0,0l0,0l0,0
				c0-0.1,0,0,0,0l0,0l0,0c0,0,0,0,0-0.1c0,0,0-0.1,0,0l0,0v-0.1l0,0c0,0,0,0-0.1-0.1l0,0l0,0c0,0-0.1,0-0.1-0.1l0,0l0,0
				c-0.1,0-0.1,0-0.2-0.1c0.1,0,0,0,0,0h-0.1c0,0-0.1,0,0,0l0,0h-0.1h-0.1h-0.1c0,0-0.1,0-0.1,0.1l0,0c0.1,0,0,0,0,0
				c-0.1,0-0.1,0.1-0.1,0.1l0,0l0,0C248.7,76.6,248.7,76.6,248.7,76.7c-0.1,0.1-0.3,0.2-0.4,0.1c-0.1-0.1-0.2-0.3-0.1-0.4
				c0.3-0.6,1.1-1,1.7-0.7c0.3,0.1,0.6,0.4,0.7,0.7c0.1,0.2,0.1,0.4,0,0.6s-0.3,0.3-0.5,0.4c-0.3,0.1-0.6,0.2-0.9,0.3
				c-0.3,0.1-0.7,0.2-1,0c-0.5-0.3-0.2-1,0-1.4c0.1-0.1,0.3-0.2,0.4-0.1C248.7,76.3,248.8,76.5,248.7,76.7z"/>
		</g>
	</g>
	<g>
		<path class="st2" d="M249.5,79.5c0.2,0.4,0.3,0.9,0.1,1.4c0,0.1-0.1,0.2-0.2,0.2c-0.1,0-0.2,0-0.3-0.1c-0.4-0.4-0.5-1.1-0.2-1.5
			c0.1-0.1,0.3-0.2,0.4-0.1c0.1,0.1,0.2,0.3,0.1,0.4v0.1c0,0,0,0.1,0,0s0,0,0,0c0,0.1,0,0.1,0,0.2V80c0,0.1,0,0.2,0,0.3v-0.1v0.1
			c0,0,0,0,0,0.1l0,0c0,0,0-0.1,0,0c0,0,0,0.1,0.1,0.1l0,0l0,0c0,0,0,0,0,0.1c-0.2,0-0.4,0.1-0.5,0.1c0-0.1,0.1-0.2,0.1-0.3v0.1
			c0-0.1,0-0.3,0-0.4v0.1c0-0.1,0-0.1,0-0.2v-0.1l0,0l0,0c0,0,0,0,0-0.1s-0.1-0.2,0-0.3c0-0.1,0.1-0.2,0.1-0.2
			C249.2,79.3,249.4,79.4,249.5,79.5L249.5,79.5z"/>
	</g>
	<g>
		<path class="st2" d="M251.2,81.9c0,0.6-0.1,1.1-0.6,1.5c-0.2,0.2-0.5,0.3-0.8,0.2c-0.1,0-0.5-0.1-0.5,0v0.2c0,0.1,0.1,0.2,0.1,0.3
			c0.1,0.2,0.2,0.3,0.4,0.4c0.3,0.2,0.8,0.3,1,0c0.1-0.1,0.3-0.1,0.5,0c0.1,0.1,0.1,0.3,0,0.5c-0.3,0.4-0.8,0.4-1.3,0.3
			c-0.4-0.1-0.8-0.4-1.1-0.7c-0.2-0.3-0.4-0.9-0.3-1.3c0.1-0.2,0.3-0.4,0.5-0.4c0.1,0,0.2,0,0.4,0c0.1,0,0.3,0.1,0.4,0
			c0.5,0,0.5-0.8,0.5-1.1c0-0.2,0.1-0.3,0.3-0.3C251.1,81.6,251.3,81.7,251.2,81.9L251.2,81.9z"/>
	</g>
	<g>
		<path class="st2" d="M255.9,86.6c-0.5,0.7-1.3,1.1-2.1,1.2c-0.5,0.1-0.9,0.1-1.4,0.1s-1,0-1.6,0c-0.4,0-0.4-0.7,0-0.7
			c0.9,0.1,1.8,0,2.6-0.1c0.7-0.1,1.5-0.3,1.9-0.9C255.6,86,256.1,86.3,255.9,86.6L255.9,86.6z"/>
	</g>
	<g>
		<path class="st2" d="M264.3,90.2c-0.6,1.8-2.2,3.1-3.8,4c-1,0.5-1.9,0.9-3,1.1c-1.1,0.3-2.3,0.5-3.4,0.5c-0.4,0-0.4-0.6,0-0.7
			c1.1,0,2.1-0.2,3.1-0.5c1-0.2,1.9-0.6,2.9-1.1c1.5-0.8,3.1-1.9,3.6-3.7C263.8,89.7,264.4,89.8,264.3,90.2L264.3,90.2z"/>
	</g>
	<g>
		<path class="st2" d="M268,102.4c-0.4,0-0.4-0.7,0-0.7C268.4,101.7,268.4,102.4,268,102.4L268,102.4z"/>
	</g>
	<g>
		<path class="st2" d="M264.6,165.2c0.3,3.3,1.7,6.5,4,9c0.3,0.3-0.2,0.8-0.5,0.5c-2.4-2.6-3.8-6-4.2-9.5
			C263.9,164.7,264.6,164.7,264.6,165.2L264.6,165.2z"/>
	</g>
	<g>
		<path class="st2" d="M270.8,174.1c1-0.2,2-0.4,3-1c0.9-0.5,1.5-1.3,1.9-2.3s0.6-2.1,0.8-3.1c0.2-1.3,0.4-2.5,0.5-3.8
			c0-0.4,0.7-0.4,0.7,0c-0.1,1.3-0.3,2.7-0.5,4c-0.2,1.2-0.4,2.3-0.9,3.4c-0.4,1-1.1,1.8-2,2.4c-1,0.6-2.1,0.8-3.2,1
			C270.5,174.8,270.4,174.2,270.8,174.1L270.8,174.1z"/>
	</g>
	<g>
		<path class="st2" d="M238.4,168.2c-0.2,0.5-0.7,0.8-1.2,0.9c-0.5,0.1-1.1,0-1.5-0.3c-0.1-0.1-0.1-0.3,0-0.5c0.1-0.1,0.3-0.1,0.5,0
			c-0.1,0,0,0,0,0s0,0,0.1,0c0,0,0,0,0.1,0c0,0,0.1,0,0,0l0,0h0.1h0.1l0,0h0.1c0.1,0,0.1,0,0.2,0c0,0,0,0,0.1,0c0,0,0.1,0,0,0
			c0.1,0,0.1,0,0.2,0h0.1c0,0,0,0,0.1,0c-0.1,0,0,0,0,0c0.1,0,0.2-0.1,0.3-0.1c-0.1,0,0,0,0,0s0,0,0.1-0.1l0.1-0.1c0-0.1,0,0,0,0
			s0,0,0-0.1l0.1-0.1c0.1-0.2,0.3-0.2,0.4-0.1C238.4,167.9,238.5,168,238.4,168.2L238.4,168.2z"/>
	</g>
	<g>
		<path class="st2" d="M241.1,137.4c-0.9-0.3-1.9-0.3-2.8-0.1c-0.5,0.1-0.9,0.2-1.4,0.4c-0.5,0.1-0.9,0.3-1.4,0.4
			c-0.3,0.1-0.7,0-0.8-0.4c-0.1-0.3,0.1-0.6,0.3-0.9c0.5-0.6,1.3-0.9,2-1.1c1-0.3,2-0.3,2.9-0.2c0.4,0.1,0.2,0.7-0.2,0.6
			c-0.9-0.1-1.9,0-2.8,0.3c-0.4,0.1-0.8,0.3-1.2,0.6c-0.1,0.1-0.3,0.2-0.4,0.4c-0.1,0.1-0.1,0.1-0.1,0.2c0,0.1,0,0-0.1,0h0.1
			c0.9-0.3,2-0.6,3-0.8s2-0.2,2.9,0.1C241.7,136.9,241.5,137.5,241.1,137.4L241.1,137.4z"/>
	</g>
	<g>
		<path class="st2" d="M283.4,136.1c2.5-0.7,5.2-0.9,7.7-0.1c0.5,0.2,3,1.1,2.3,2c-0.2,0.2-0.4,0.1-0.7,0.1
			c-0.4-0.1-0.8-0.1-1.2-0.2c-0.8-0.1-1.6-0.2-2.4-0.3c-0.9-0.1-1.8-0.2-2.7-0.2c-0.9,0-1.8-0.1-2.6,0.2c-0.4,0.2-0.6-0.5-0.2-0.6
			c0.7-0.3,1.5-0.3,2.2-0.2c0.8,0,1.7,0.1,2.5,0.1c1.6,0.1,3.3,0.4,4.9,0.6c-0.1,0-0.2,0.1-0.3,0.1c-0.1,0.1,0,0-0.2-0.1
			c-0.1-0.1-0.2-0.1-0.3-0.2c-0.2-0.1-0.3-0.2-0.5-0.3c-0.3-0.2-0.7-0.3-1.1-0.5c-0.8-0.3-1.6-0.4-2.4-0.5c-1.6-0.1-3.3,0.1-4.9,0.6
			C283.2,136.8,283,136.2,283.4,136.1L283.4,136.1z"/>
	</g>
	<g>
		<path class="st2" d="M258.2,108.6c-0.7,5.6-1.2,11.3-1.6,16.9c-0.4,5.6-0.6,11.2-0.7,16.9c0,3.2-0.1,6.4,0,9.6
			c0,0.4-0.6,0.4-0.7,0c-0.1-5.7,0-11.3,0.2-17c0.2-5.6,0.6-11.2,1.1-16.9c0.3-3.2,0.6-6.4,1-9.5
			C257.6,108.2,258.3,108.1,258.2,108.6L258.2,108.6z"/>
	</g>
	<g>
		<path class="st2" d="M272.7,115.1c1,0.4,1.9,1.1,2.5,2.1c0.7,1.2,0.7,2.6,0.7,3.9c0.1,1.5,0.1,3.1,0,4.6c0,1.4-0.1,2.8-0.6,4.1
			c-0.5,1.2-1.4,2.2-2.7,2.6c-0.2,0.1-0.4-0.1-0.4-0.3c0-0.6,0-1.1-0.1-1.7c0.2,0.1,0.3,0.2,0.5,0.3c-0.8,0.3-1.3,1.1-1.2,2
			c-0.1-0.1-0.2-0.2-0.2-0.3c0.6,0.2,1-0.4,0.7-0.9c0.2,0,0.3,0,0.5,0.1c-0.3,0.2-0.4,0.5-0.4,0.8c0,0.2-0.2,0.3-0.3,0.3
			c-0.4,0.1-0.6-0.3-0.6-0.7c0.1-0.4,0.7-0.2,0.6,0.2c0-0.1,0-0.1-0.1-0.2c-0.1,0.1-0.2,0.2-0.3,0.3c0-0.5,0.2-1,0.6-1.3
			c0.2-0.1,0.4-0.1,0.5,0.1c0.6,1-0.3,2.2-1.4,1.8c-0.1,0-0.2-0.2-0.2-0.3c-0.1-1.1,0.6-2.1,1.6-2.6c0.2-0.1,0.5,0,0.5,0.3
			c0,0.6,0,1.1,0.1,1.7c-0.1-0.1-0.3-0.2-0.4-0.3c2.4-0.7,2.8-3.6,2.9-5.7c0-1.4,0-2.7,0-4.1c0-1.3,0-2.7-0.4-3.9
			c-0.4-1.1-1.3-2-2.4-2.4C272.1,115.5,272.3,114.9,272.7,115.1L272.7,115.1z"/>
	</g>
	<g>
		<path class="st2" d="M272.2,115.6c-3,0.1-4,3.9-4.5,6.3c-0.3,1.4-0.5,2.9-0.5,4.4c0,0.7-0.1,1.5-0.1,2.2c0,0.4,0,0.7,0,1.1
			c0,0.2,0,0.4,0,0.6c0,0.2,0.1,0.4-0.1,0.5c0,0.1-0.1,0.2-0.1,0.3c-0.1-0.7,0.2-1.2,0.8-1.5c0.2-0.1,0.4,0.1,0.4,0.3
			c0.1,0.6,0.2,1.2,0.2,1.8c0,0.4-0.2,0.8-0.6,0.9c-0.4,0.1-0.8-0.1-1-0.4c-0.3-0.5-0.1-1,0.2-1.4c0.1-0.2,0.4-0.2,0.5-0.1
			c0.2,0.2,0.3,0.5,0.3,0.8c-0.1,0.4-0.6,0.3-0.6-0.1c0-0.2,0-0.3,0-0.5c0.2,0,0.4,0,0.7,0c0,0.3,0,0.6,0.1,0.9
			c-0.2,0-0.4,0.1-0.6,0.1c0-0.1,0-0.2,0-0.3c0.1-0.4,0.7-0.4,0.7,0c0,0.1,0,0.2,0,0.3c0,0.3-0.5,0.5-0.6,0.1
			c-0.1-0.3-0.1-0.7-0.1-1c0-0.4,0.7-0.4,0.7,0c0,0.2,0,0.3,0,0.5c-0.2,0-0.4-0.1-0.6-0.1c0-0.1-0.1-0.1-0.1-0.2
			c0.2,0,0.3,0,0.5-0.1c-0.1,0.2-0.4,0.6-0.2,0.8c0.3,0.2,0.3-0.2,0.3-0.4c0-0.5-0.1-1.1-0.2-1.6c0.1,0.1,0.3,0.2,0.4,0.3
			c-0.3,0.1-0.4,0.4-0.4,0.7c0,0.2-0.2,0.4-0.4,0.4c-0.7,0.1-0.8-0.6-0.7-1.1c0-1.5,0.1-3.1,0.2-4.6s0.3-2.9,0.6-4.4
			c0.3-1.4,0.8-2.8,1.5-4c0.8-1.2,2-2.1,3.5-2.2C272.6,114.9,272.6,115.6,272.2,115.6L272.2,115.6z"/>
	</g>
	<g>
		<path class="st2" d="M271.7,115.3c0.6-2,1.2-4.1,1.3-6.2c0.1-1,0-2.1-0.2-3.1c-0.2-0.9-0.5-1.9-1.3-2.4c-0.4-0.2,0-0.8,0.3-0.6
			c0.8,0.5,1.2,1.3,1.4,2.2c0.3,1.1,0.4,2.2,0.4,3.4c-0.1,2.3-0.7,4.6-1.4,6.8C272.2,115.8,271.5,115.7,271.7,115.3L271.7,115.3z"/>
	</g>
	<g>
		<path class="st2" d="M252.8,103.1c-0.7,0.2-1.1,0.8-1.4,1.3c-0.4,0.7-0.8,1.3-1.1,2c-0.7,1.4-1.3,2.8-1.9,4.3
			c-1,2.9-1.7,6-1.9,9.1c-0.1,1.7-0.1,3.5,0,5.2c0,0.4-0.6,0.4-0.7,0c-0.5-6.5,0.9-13.1,3.9-18.9c0.4-0.8,0.8-1.6,1.3-2.3
			c0.4-0.6,0.9-1.2,1.7-1.4C253,102.4,253.2,103,252.8,103.1L252.8,103.1z"/>
	</g>
	<g>
		<path class="st2" d="M245.8,124.7c1.3,0.4,1.7,1.7,1.7,2.9s0,2.8-1.1,3.6c-1,0.7-2.3,0.1-2.8-0.9c-0.3-0.6-0.4-1.3-0.4-2
			s-0.1-1.4,0.1-2.1c0.2-0.6,0.5-1.2,1.1-1.5c0.7-0.4,1.4-0.1,2.1,0.2c0.4,0.2,0.1,0.7-0.3,0.6c-0.5-0.2-1-0.4-1.5-0.1
			c-0.4,0.2-0.7,0.6-0.8,1.1s-0.1,1.1-0.1,1.6c0,0.5,0,1,0.2,1.5c0.2,0.8,1,1.8,1.9,1.2c0.9-0.5,0.9-1.8,0.9-2.7
			c0.1-1,0-2.4-1.2-2.8C245.2,125.2,245.4,124.6,245.8,124.7L245.8,124.7z"/>
	</g>
	<g>
		<path class="st1" d="M258.8,66.8c-0.3,1.1-0.8,2.2-1.4,3.2c-0.2,0.4-0.8,0-0.6-0.3c0.6-0.9,1-2,1.3-3
			C258.3,66.2,258.9,66.3,258.8,66.8L258.8,66.8z"/>
	</g>
	<g>
		<path class="st1" d="M254.8,68c-0.2,1.5-1.1,2.8-2.4,3.6c-0.4,0.2-0.7-0.3-0.3-0.6c1.1-0.7,1.9-1.9,2.1-3.2c0-0.2,0.2-0.3,0.4-0.2
			C254.7,67.6,254.8,67.8,254.8,68L254.8,68z"/>
	</g>
	<g>
		<path class="st1" d="M250.3,70.2c-0.7,0.6-1.5,1-2.4,1.2c-0.2,0-0.4-0.1-0.4-0.2c0-0.2,0.1-0.4,0.2-0.4c0.8-0.2,1.5-0.6,2.1-1.1
			c0.1-0.1,0.3-0.1,0.5,0C250.4,69.8,250.4,70.1,250.3,70.2L250.3,70.2z"/>
	</g>
	<g>
		<path class="st1" d="M269,72.4c-0.2,0.9-0.3,1.8-0.2,2.6c0,0.2-0.2,0.3-0.3,0.3c-0.2,0-0.3-0.1-0.3-0.3c-0.1-0.9,0-1.9,0.2-2.8
			C268.5,71.8,269.1,72,269,72.4L269,72.4z"/>
	</g>
	<g>
		<path class="st1" d="M270.9,74c0.1,0.8,0.4,1.6,1,2.3c0.1,0.1,0.1,0.3,0,0.5c-0.1,0.1-0.3,0.1-0.5,0c-0.7-0.8-1-1.7-1.1-2.7
			c0-0.2,0.2-0.3,0.3-0.3C270.8,73.6,270.9,73.8,270.9,74L270.9,74z"/>
	</g>
	<g>
		<path class="st1" d="M261.5,66.6c0.1,0.5,0.1,1.1-0.2,1.5c-0.1,0.1-0.3,0.2-0.4,0.1s-0.2-0.3-0.1-0.4c0,0,0.1-0.1,0.1-0.2
			s0,0.1,0,0v-0.1v-0.1v-0.1l0,0c0,0,0,0.1,0,0s0-0.2,0-0.3v-0.1l0,0l0,0c0-0.1,0-0.1,0-0.2c0-0.2,0.1-0.4,0.2-0.4
			S261.4,66.4,261.5,66.6L261.5,66.6z"/>
	</g>
</g>
<path class="st1" d="M131.5,77.7c-2.2-1-4.8,0.1-5.8,2.4c-0.2,0.5-0.4,1.1-0.4,1.6c0-1.5-0.9-2.9-2.4-3.6c-2-0.9-4.4,0-5.3,2.1
	c-0.1,0.2-0.2,0.5-0.2,0.7l0,0l0,0c-0.5,2,0.3,3.7,0.8,4.5s2,2.9,2.3,3.3c0.2,0.4,1.2,1.7,1.2,3.3c0.8-1.6-0.4-3.6-0.4-3.6
	c-0.2-0.3-1.1-1.6-1.1-1.8c0-0.1-0.2-0.4-0.4-0.7c-0.5-1-0.5-1.6-0.4-2.1c0.2-1,0.8-1.9,1.8-2.3c1.2-0.5,2.6-0.1,3.5,0.9
	c0.2,0.2,0.3,0.4,0.5,0.7c0.1,0.1,0.1,0.3,0.2,0.4c0,0.1,0,0.1,0.1,0.2c0.1-0.1,0.1-0.2,0.2-0.4c0.1-0.1,0.2-0.3,0.3-0.4
	c0.1-0.2,0.3-0.4,0.5-0.6c1.3-1.3,3.3-1.6,4.6-0.6c1.1,0.8,1.5,2.3,1.1,3.8c0.7-0.5,1.3-1.1,1.6-2C134.7,81.3,133.7,78.7,131.5,77.7
	"/>
<path class="st1" d="M141.4,101.2c0.6-1.5,1.1-3.1,1.7-4.6c0.8-2.2,1.7-4.3,2.2-6.5c0.2-0.9,0.3-1.7,0-2.6c-0.2-0.7-0.8-1-1.4-0.9
	c-0.3,0.1-0.6,0.2-0.9,0.4c-1.1,0.7-1.8,1.8-2.6,2.9c-1.9,2.8-3.4,5.9-4.9,8.9c-0.1,0.1-0.1,0.2-0.2,0.3c0-0.2,0-0.3,0.1-0.4
	c0.9-2.5,1.9-5,2.8-7.5c0.4-1.2,0.7-2.5,0.5-3.9c-0.3-1.7-1.7-2.3-3.1-1.3c-0.4,0.3-0.7,0.5-1,0.9c-1.2,1.3-2.2,2.9-3,4.5
	c-1.3,2.5-2.6,4.9-3.9,7.4c-0.1,0.1-0.1,0.2-0.2,0.4h-0.1c0.2-0.5,0.4-1,0.6-1.5c1-2.6,2-5.2,2.7-7.9c0.3-1.2,0.4-2.5,0-3.8
	c-0.5-1.6-1.8-2-3.1-1c-0.5,0.4-1,0.9-1.4,1.5l0,0l-0.1,0.1l-0.1,0.1c-0.3,0.4-0.6,0.9-0.9,1.3l-2.7,4c0,0,0.3-0.1,0.7-0.3
	c0.7-0.4,2-1.2,3.1-2.6c0,0,0,0,0-0.1l0.1-0.1c0.2-0.3,0.5-0.6,0.8-1c0.1-0.1,0.5-0.2,0.6-0.2c0.2,0,0.3,0.4,0.3,0.5
	c0,0.6,0,1.2-0.2,1.8c-1.2,3.8-2.4,7.7-3.7,11.5c-0.4,1.2-0.8,2.4-1.1,3.5c0.7,0,1.5,0,2.2,0c0.3,0,0.5-0.2,0.7-0.5
	c1.5-2.8,3-5.6,4.5-8.4c1.2-2.1,2.4-4.2,3.6-6.3c0.3-0.4,0.6-0.8,1-1.1c0.6-0.4,1.3-0.2,1.3,0.5c0,0.5-0.1,1.1-0.3,1.6
	c-1.1,3.2-2.2,6.4-3.4,9.7c-0.5,1.4-1,2.7-1.4,4.1c0.6,0,1.2,0,1.9,0c0.1,0,0.3-0.1,0.4-0.3c0.9-1.6,1.7-3.3,2.6-4.9
	c1.5-2.6,2.9-5.1,4.4-7.7c0.4-0.7,1-1.3,1.6-2c0.2-0.2,0.5-0.4,0.8-0.3c0.2,0.1,0.3,0.5,0.3,0.8s-0.1,0.7-0.2,1
	c-0.6,1.7-1.2,3.4-1.9,5c-0.6,1.8-1.3,3.5-1.9,5.3c-0.2,0.7-0.3,1.5,0,2.2c0.2,0.5,0.6,0.8,1.1,0.7c0.7,0,1.2-0.4,1.6-0.9
	c1.2-1.3,2-2.8,2.9-4.3c-0.2-0.2-0.4-0.3-0.5-0.4c-0.6,0.9-1.2,1.8-1.8,2.7c-0.2,0.3-0.5,0.6-0.7,0.8c-0.1,0.1-0.3,0.1-0.4,0.1
	c-0.1-0.1-0.1-0.3-0.1-0.4C141.3,101.6,141.3,101.4,141.4,101.2"/>
<rect x="175" y="52.2" transform="matrix(0.4347 -0.9006 0.9006 0.4347 59.9732 200.9801)" class="st1" width="30.2" height="1"/>
<rect x="173.5" y="49.2" transform="matrix(0.4347 -0.9006 0.9006 0.4347 60.6078 195.6626)" class="st1" width="25.4" height="0.8"/>
<rect x="73.9" y="37.6" transform="matrix(0.9006 -0.4347 0.4347 0.9006 -15.5179 37.5772)" class="st1" width="1" height="30.2"/>
<rect x="78.1" y="36.8" transform="matrix(0.9006 -0.4347 0.4347 0.9006 -13.7035 39.033)" class="st1" width="0.8" height="25.4"/>
<g>
	<path class="st4" d="M109.8,19.5c0-2.1,1.2-3.3,2.8-3.3c1.7,0,2.8,1.2,2.8,3.3s-1.2,3.3-2.8,3.3C110.9,22.8,109.8,21.5,109.8,19.5z
		 M114.2,19.5c0-1.4-0.6-2.2-1.5-2.2s-1.5,0.8-1.5,2.2c0,1.4,0.6,2.2,1.5,2.2S114.2,20.8,114.2,19.5z"/>
	<path class="st4" d="M117.6,16.3h2.1c1.4,0,2.5,0.5,2.5,2c0,1.4-1.1,2.1-2.4,2.1H119v2.3h-1.3L117.6,16.3L117.6,16.3z M119.6,19.4
		c0.9,0,1.3-0.4,1.3-1.1s-0.5-1-1.3-1h-0.7v2.1H119.6z"/>
	<path class="st4" d="M124.1,16.3h3.9v1.1h-2.6v1.5h2.2V20h-2.2v1.7h2.7v1.1h-4C124.1,22.8,124.1,16.3,124.1,16.3z"/>
	<path class="st4" d="M130.2,16.3h1.3l1.8,3.4l0.6,1.4l0,0c-0.1-0.7-0.2-1.5-0.2-2.2v-2.5h1.2v6.3h-1.3l-1.8-3.4l-0.6-1.4l0,0
		c0.1,0.7,0.2,1.5,0.2,2.2v2.5h-1.2V16.3z"/>
	<path class="st4" d="M137.5,16.3h1.3v6.3h-1.3V16.3z"/>
	<path class="st4" d="M141.2,16.3h1.3l1.8,3.4l0.6,1.4l0,0c-0.1-0.7-0.2-1.5-0.2-2.2v-2.5h1.2v6.3h-1.3l-1.8-3.4l-0.6-1.4l0,0
		c0.1,0.7,0.2,1.5,0.2,2.2v2.5h-1.2V16.3z"/>
	<path class="st4" d="M148.1,19.5c0-2.1,1.4-3.3,3-3.3c0.9,0,1.5,0.4,2,0.8l-0.7,0.8c-0.3-0.3-0.7-0.5-1.2-0.5
		c-1.1,0-1.8,0.8-1.8,2.2c0,1.4,0.6,2.2,1.9,2.2c0.3,0,0.6-0.1,0.8-0.2v-1.2H151v-1h2.3V22c-0.4,0.4-1.2,0.8-2.1,0.8
		C149.5,22.8,148.1,21.6,148.1,19.5z"/>
</g>
<g>
	<path class="st1" d="M92.5,42L92.5,42C92.5,42,92.5,42.1,92.5,42h3c0.1,0,0.3,0,0.4,0.1s0.1,0.2,0.1,0.4s0,0.3-0.1,0.4
		S95.7,43,95.5,43h-4.2c-0.1,0-0.3,0-0.4-0.1s-0.1-0.2-0.1-0.4c0-0.3,0.1-0.6,0.4-0.8c1.4-1.1,2.3-2,2.8-2.6s0.7-1.3,0.7-1.9
		c0-1-0.5-1.4-1.5-1.4c-0.5,0-1.1,0.1-1.7,0.4c-0.1,0.1-0.2,0-0.4,0c0-0.1-0.1-0.2-0.1-0.4s0-0.4,0.1-0.5c0.1-0.2,0.2-0.3,0.4-0.3
		c0.6-0.2,1.2-0.3,1.8-0.3c0.8,0,1.5,0.2,2,0.6c0.5,0.4,0.7,1,0.7,1.7s-0.2,1.5-0.7,2.2S93.9,40.9,92.5,42z"/>
	<path class="st1" d="M102.8,42.2c-0.5,0.7-1.3,1-2.3,1s-1.8-0.3-2.3-1s-0.8-1.7-0.8-3.2s0.3-2.6,0.8-3.2c0.5-0.7,1.3-1,2.3-1
		s1.8,0.3,2.3,1s0.8,1.7,0.8,3.2C103.6,40.4,103.3,41.5,102.8,42.2z M101.9,36.5c-0.3-0.5-0.7-0.7-1.4-0.7s-1.1,0.2-1.4,0.7
		s-0.4,1.3-0.4,2.5s0.1,2,0.4,2.5s0.7,0.7,1.4,0.7s1.1-0.2,1.4-0.7s0.4-1.3,0.4-2.5S102.2,36.9,101.9,36.5z"/>
	<path class="st1" d="M106.7,42L106.7,42C106.7,42,106.7,42.1,106.7,42h3c0.1,0,0.3,0,0.4,0.1s0.1,0.2,0.1,0.4s0,0.3-0.1,0.4
		s-0.2,0.1-0.4,0.1h-4.2c-0.1,0-0.3,0-0.4-0.1s-0.1-0.2-0.1-0.4c0-0.3,0.1-0.6,0.4-0.8c1.4-1.1,2.3-2,2.8-2.6s0.7-1.3,0.7-1.9
		c0-1-0.5-1.4-1.5-1.4c-0.5,0-1.1,0.1-1.7,0.4c-0.1,0.1-0.2,0-0.4,0c-0.1-0.1-0.2-0.2-0.2-0.3c0-0.2,0-0.4,0.1-0.5
		c0.1-0.2,0.2-0.3,0.4-0.3c0.6-0.2,1.2-0.3,1.8-0.3c0.8,0,1.5,0.2,2,0.6c0.5,0.4,0.7,1,0.7,1.7s-0.2,1.5-0.7,2.2
		S108.1,40.9,106.7,42z"/>
	<path class="st1" d="M113.8,42L113.8,42C113.8,42,113.8,42.1,113.8,42h3c0.1,0,0.3,0,0.4,0.1s0.1,0.2,0.1,0.4s0,0.3-0.1,0.4
		S117,43,116.8,43h-4.2c-0.1,0-0.3,0-0.4-0.1s-0.1-0.2-0.1-0.4c0-0.3,0.1-0.6,0.4-0.8c1.4-1.1,2.3-2,2.8-2.6s0.7-1.3,0.7-1.9
		c0-1-0.5-1.4-1.5-1.4c-0.5,0-1.1,0.1-1.7,0.4c-0.1,0.1-0.2,0-0.4,0c-0.1-0.1-0.2-0.2-0.2-0.3c0-0.2,0-0.4,0.1-0.5
		c0.1-0.2,0.2-0.3,0.4-0.3c0.6-0.2,1.2-0.3,1.8-0.3c0.8,0,1.5,0.2,2,0.6c0.5,0.4,0.7,1,0.7,1.7s-0.2,1.5-0.7,2.2
		S115.2,40.9,113.8,42z"/>
	<path class="st1" d="M122.4,41.7c-0.1,0-0.3,0-0.4-0.1s-0.2-0.2-0.2-0.4s0.1-0.3,0.2-0.4s0.2-0.1,0.4-0.1h1.4c0.1,0,0.1,0,0.1-0.1
		v-2.3c0-0.2,0.1-0.3,0.2-0.5c0.1-0.1,0.3-0.2,0.5-0.2h2.3c0.1,0,0.1,0,0.1-0.1V36c0-0.1,0-0.1-0.1-0.1h-2.2c-0.1,0-0.1,0-0.1,0.1
		c-0.3,0.8-0.8,1.6-1.3,2.4c-0.1,0.1-0.2,0.2-0.4,0.3c-0.2,0-0.3,0-0.4-0.1s-0.2-0.2-0.2-0.4s0-0.3,0.1-0.5c0.6-1,1.2-2.2,1.6-3.4
		c0.1-0.2,0.2-0.3,0.3-0.4c0.1-0.1,0.3-0.1,0.5-0.1s0.3,0.1,0.3,0.2c0.1,0.1,0.1,0.3,0,0.4v0.1c0,0.1,0,0.1,0,0.1
		c0,0.1,0,0.1,0.1,0.1h6.1c0.1,0,0.3,0,0.4,0.1s0.1,0.2,0.1,0.4c0,0.1,0,0.3-0.1,0.4s-0.2,0.1-0.4,0.1h-2.8c-0.1,0-0.1,0-0.1,0.1
		v1.5c0,0.1,0,0.1,0.1,0.1h2.5c0.1,0,0.3,0,0.4,0.1s0.1,0.2,0.1,0.4s0,0.3-0.1,0.4c-0.1,0.1-0.2,0.2-0.4,0.2h-2.5
		c-0.1,0-0.1,0-0.1,0.1v1.9c0,0.1,0,0.1,0.1,0.1h3.3c0.1,0,0.3,0,0.4,0.1s0.2,0.2,0.2,0.4c0,0.1-0.1,0.3-0.2,0.4s-0.2,0.1-0.4,0.1
		h-3.3c-0.1,0-0.1,0-0.1,0.1v1.6c0,0.2-0.1,0.3-0.2,0.4c-0.1,0.1-0.3,0.2-0.4,0.2c-0.2,0-0.3-0.1-0.4-0.2c-0.1-0.1-0.2-0.3-0.2-0.4
		v-1.6c0-0.1,0-0.1-0.1-0.1h-4.7V41.7z M125.1,38.7v1.9c0,0.1,0,0.1,0.1,0.1h1.7c0.1,0,0.1,0,0.1-0.1v-1.9c0-0.1,0-0.1-0.1-0.1
		L125.1,38.7C125.2,38.6,125.1,38.7,125.1,38.7z"/>
	<path class="st1" d="M135.3,41.3c-0.1,0-0.3,0-0.3-0.1s-0.1-0.2-0.1-0.3c0-0.3,0.1-0.6,0.3-0.9l3.2-4.5c0.2-0.3,0.6-0.5,1-0.5
		c0.2,0,0.3,0.1,0.4,0.2s0.2,0.3,0.2,0.4v4.7c0,0.1,0,0.1,0.1,0.1h0.8c0.1,0,0.3,0,0.3,0.1s0.1,0.2,0.1,0.3s0,0.3-0.1,0.3
		s-0.2,0.1-0.3,0.1H140c-0.1,0-0.1,0-0.1,0.1v1.1c0,0.2-0.1,0.3-0.2,0.4s-0.3,0.2-0.4,0.2c-0.2,0-0.3-0.1-0.4-0.2
		c-0.1-0.1-0.2-0.3-0.2-0.4v-1.1c0-0.1,0-0.1-0.1-0.1h-3.3V41.3z M136.1,40.2L136.1,40.2C136.1,40.2,136.1,40.3,136.1,40.2
		C136.1,40.3,136.1,40.3,136.1,40.2h2.5c0.1,0,0.1,0,0.1-0.1v-3.5l0,0l0,0L136.1,40.2z"/>
	<path class="st1" d="M151.8,43c0.3,0,0.5,0,0.5-0.1c0.1,0,0.1-0.2,0.1-0.5v-1.7c0-0.1,0-0.1-0.1-0.1h-5.2c-0.1,0-0.1,0-0.1,0.1
		c-0.2,1.2-0.6,2.2-1.3,3c-0.1,0.1-0.2,0.2-0.4,0.2s-0.3,0-0.5-0.1c-0.1-0.1-0.2-0.2-0.2-0.4s0-0.3,0.1-0.4c0.5-0.6,0.8-1.2,1-1.9
		s0.3-1.6,0.3-2.8v-3.5c0-0.2,0.1-0.3,0.2-0.5c0.1-0.1,0.3-0.2,0.5-0.2h6.4c0.2,0,0.3,0.1,0.5,0.2c0.1,0.1,0.2,0.3,0.2,0.5v7.6
		c0,0.7-0.1,1.2-0.3,1.4s-0.6,0.3-1.3,0.3c-0.3,0-0.7,0-1.3,0c-0.1,0-0.3-0.1-0.4-0.2c-0.1-0.1-0.2-0.2-0.2-0.4c0-0.1,0-0.3,0.1-0.4
		c0.1-0.1,0.2-0.1,0.4-0.1C151.3,43,151.7,43,151.8,43z M152.3,39.6c0.1,0,0.1,0,0.1-0.1v-1.6c0-0.1,0-0.1-0.1-0.1h-5
		c-0.1,0-0.1,0-0.1,0.1v0.9c0,0.2,0,0.4,0,0.7c0,0.1,0,0.1,0.1,0.1C147.3,39.6,152.3,39.6,152.3,39.6z M147.2,35.3v1.5
		c0,0.1,0,0.1,0.1,0.1h5c0.1,0,0.1,0,0.1-0.1v-1.5c0-0.1,0-0.1-0.1-0.1h-5C147.2,35.2,147.2,35.2,147.2,35.3z"/>
	<path class="st1" d="M156.9,37.6c-0.1,0.1-0.2,0.1-0.3,0s-0.2-0.1-0.2-0.3v-0.1c0-0.4,0.2-0.8,0.5-1l1.3-1c0.3-0.3,0.7-0.4,1.1-0.4
		c0.2,0,0.3,0.1,0.4,0.2c0.1,0.1,0.2,0.3,0.2,0.4v7c0,0.2-0.1,0.3-0.2,0.4c-0.1,0.1-0.3,0.2-0.4,0.2c-0.2,0-0.3-0.1-0.4-0.2
		s-0.2-0.3-0.2-0.4v-6.2l0,0l0,0L156.9,37.6z"/>
	<path class="st1" d="M164.5,44c-0.2,0-0.3-0.1-0.4-0.2s-0.2-0.3-0.2-0.4V35c0-0.2,0.1-0.3,0.2-0.5c0.1-0.1,0.3-0.2,0.5-0.2h6.8
		c0.2,0,0.3,0.1,0.5,0.2c0.1,0.1,0.2,0.3,0.2,0.5v8.4c0,0.2-0.1,0.3-0.2,0.4s-0.3,0.2-0.4,0.2l0,0c-0.2,0-0.3-0.1-0.4-0.2
		c-0.1-0.1-0.2-0.3-0.2-0.4c0-0.1,0-0.1-0.1-0.1h-5.5c-0.1,0-0.1,0-0.1,0.1c0,0.2-0.1,0.3-0.2,0.4S164.7,44,164.5,44L164.5,44z
		 M165.1,35.4V38c0,0.1,0,0.1,0.1,0.1h5.5c0.1,0,0.1,0,0.1-0.1v-2.6c0-0.1,0-0.1-0.1-0.1h-5.5C165.1,35.3,165.1,35.3,165.1,35.4z
		 M165.1,39.3v2.9c0,0.1,0,0.1,0.1,0.1h5.5c0.1,0,0.1,0,0.1-0.1v-2.9c0-0.1,0-0.1-0.1-0.1h-5.5C165.1,39.2,165.1,39.2,165.1,39.3z"
		/>
	<path class="st1" d="M91.6,65.2c-0.2,0.2-0.3,0.2-0.6,0.2c-0.2,0-0.4-0.1-0.6-0.2c-0.2-0.2-0.2-0.3-0.2-0.6V52.8
		c0-0.2,0.1-0.4,0.3-0.6C90.6,52,90.8,52,91,52h4.4c0.2,0,0.4,0.1,0.6,0.3s0.3,0.4,0.3,0.6v4c0,0.2-0.1,0.4-0.3,0.6
		c-0.2,0.2-0.4,0.3-0.6,0.3h-3.6c-0.1,0-0.1,0-0.1,0.1v6.8C91.8,64.9,91.7,65.1,91.6,65.2z M91.8,53.4v0.9c0,0.1,0,0.1,0.1,0.1h2.7
		c0.1,0,0.1,0,0.1-0.1v-0.9c0-0.1,0-0.1-0.1-0.1L91.8,53.4C91.8,53.3,91.8,53.3,91.8,53.4z M91.8,55.6v0.9c0,0.1,0,0.1,0.1,0.1h2.7
		c0.1,0,0.1,0,0.1-0.1v-0.9c0-0.1,0-0.1-0.1-0.1L91.8,55.6C91.8,55.5,91.8,55.5,91.8,55.6z M93.3,63.8c0.5-0.5,0.9-1,1.1-1.5
		c0-0.1,0-0.1-0.1-0.1h-1c-0.2,0-0.3-0.1-0.4-0.2c-0.1-0.1-0.2-0.3-0.2-0.4c0-0.2,0.1-0.3,0.2-0.4c0.1-0.1,0.2-0.2,0.4-0.2h1.1
		c0.1,0,0.1,0,0.1-0.1v-0.1V60c0-0.1,0-0.1-0.1-0.1h-0.8c-0.2,0-0.3-0.1-0.4-0.2S93,59.4,93,59.2s0.1-0.3,0.2-0.4s0.3-0.2,0.4-0.2
		h6.4c0.2,0,0.3,0.1,0.4,0.2c0.1,0.1,0.2,0.3,0.2,0.4c0,0.2-0.1,0.3-0.2,0.4c-0.1,0.1-0.3,0.2-0.4,0.2h-0.7c-0.1,0-0.1,0-0.1,0.1
		v0.9c0,0.1,0,0.1,0.1,0.1h1c0.2,0,0.3,0.1,0.4,0.2c0.1,0.1,0.2,0.2,0.2,0.4s-0.1,0.3-0.2,0.4c-0.1,0.1-0.2,0.2-0.4,0.2h-1
		c-0.1,0-0.1,0-0.1,0.1v2c0,0.2-0.1,0.4-0.2,0.5C98.8,65,98.6,65,98.4,65s-0.4,0-0.6-0.2c-0.1-0.1-0.2-0.3-0.2-0.5v-2
		c0-0.1,0-0.1-0.1-0.1h-1.4c-0.1,0-0.1,0-0.2,0.1c-0.2,0.9-0.7,1.7-1.4,2.4c-0.2,0.2-0.4,0.2-0.6,0.2s-0.5-0.1-0.7-0.2
		S93,64.4,93,64.2C93,64.1,93.1,63.9,93.3,63.8z M96.1,60.7v0.2c0,0.1,0,0.1,0.1,0.1h1.2c0.1,0,0.1,0,0.1-0.1V60
		c0-0.1,0-0.1-0.1-0.1h-1.2c-0.1,0-0.1,0-0.1,0.1V60.7z M102.7,52c0.2,0,0.4,0.1,0.6,0.3s0.3,0.4,0.3,0.6v10.3c0,1-0.1,1.7-0.4,1.9
		c-0.2,0.2-0.9,0.4-1.9,0.4c-0.2,0-0.4,0-0.9,0c-0.2,0-0.4-0.1-0.5-0.2s-0.2-0.3-0.2-0.5s0-0.3,0.2-0.5c0.1-0.1,0.3-0.2,0.5-0.2
		c0.4,0,0.7,0,0.7,0c0.4,0,0.6,0,0.7-0.1s0.1-0.3,0.1-0.7V58c0-0.1,0-0.1-0.1-0.1h-3.7c-0.2,0-0.4-0.1-0.6-0.3s-0.3-0.4-0.3-0.6v-4
		c0-0.2,0.1-0.4,0.3-0.6c0.2-0.2,0.4-0.3,0.6-0.3h4.6V52z M102,54.3v-0.9c0-0.1,0-0.1-0.1-0.1H99c-0.1,0-0.1,0-0.1,0.1v0.9
		c0,0.1,0,0.1,0.1,0.1L102,54.3C101.9,54.4,102,54.4,102,54.3z M102,56.5v-0.9c0-0.1,0-0.1-0.1-0.1H99c-0.1,0-0.1,0-0.1,0.1v0.9
		c0,0.1,0,0.1,0.1,0.1L102,56.5C101.9,56.6,102,56.6,102,56.5z"/>
	<path class="st1" d="M114.4,65.2c-0.2,0.1-0.4,0.1-0.6,0s-0.4-0.2-0.5-0.4c-0.1-0.2-0.1-0.3,0-0.5s0.2-0.3,0.4-0.3
		c1.9-0.5,3.4-1.1,4.6-1.7l0,0l0,0h-4c-0.2,0-0.3-0.1-0.4-0.2c-0.1-0.1-0.2-0.3-0.2-0.5s0.1-0.3,0.2-0.4c0.1-0.1,0.3-0.2,0.4-0.2h5
		c0.1,0,0.1,0,0.1-0.1v-0.6c0-0.1,0-0.1-0.1-0.1H115c-0.2,0-0.3-0.1-0.4-0.2c-0.1-0.1-0.2-0.3-0.2-0.4c0-0.2,0.1-0.3,0.2-0.4
		c0.1-0.1,0.3-0.2,0.4-0.2h4.3c0.1,0,0.1,0,0.1-0.1v-0.6c0-0.1,0-0.1-0.1-0.1h-4.8c-0.2,0-0.3-0.1-0.4-0.2c-0.1-0.1-0.2-0.3-0.2-0.4
		s0.1-0.3,0.2-0.4s0.3-0.2,0.4-0.2h2.5c0.1,0,0.1,0,0.1-0.1c-0.1-0.3-0.3-0.9-0.6-1.5c0-0.1-0.1-0.1-0.2-0.1h-2
		c-0.2,0-0.3-0.1-0.5-0.2c-0.1-0.1-0.2-0.3-0.2-0.5s0.1-0.3,0.2-0.5c0.1-0.1,0.3-0.2,0.5-0.2h1h0.1c0,0,0,0,0-0.1
		c-0.2-0.4-0.3-0.6-0.4-0.6c-0.1-0.2-0.1-0.3-0.1-0.5c0.1-0.2,0.2-0.3,0.4-0.4c0.2-0.1,0.4-0.1,0.6,0s0.4,0.2,0.5,0.4
		c0.2,0.3,0.4,0.7,0.7,1.2c0,0.1,0.1,0.1,0.2,0.1h0.8c0.1,0,0.1,0,0.1-0.1v-1.2c0-0.2,0.1-0.4,0.2-0.5s0.3-0.2,0.5-0.2
		s0.4,0.1,0.5,0.2c0.1,0.1,0.2,0.3,0.2,0.5v1.2c0,0.1,0,0.1,0.1,0.1h1.1c0.1,0,0.1,0,0.1-0.1v-1.2c0-0.2,0.1-0.4,0.2-0.5
		s0.3-0.2,0.5-0.2s0.4,0.1,0.5,0.2c0.1,0.1,0.2,0.3,0.2,0.5v1.2c0,0.1,0,0.1,0.1,0.1h0.9c0.1,0,0.2,0,0.2-0.1
		c0.1-0.2,0.3-0.6,0.6-1.1c0.1-0.2,0.2-0.3,0.4-0.4c0.2-0.1,0.4-0.1,0.6,0s0.3,0.2,0.4,0.4s0.1,0.4,0,0.5c0,0.1-0.2,0.3-0.4,0.7
		c0,0,0,0,0,0.1c0,0,0,0,0.1,0h1c0.2,0,0.3,0.1,0.5,0.2c0.1,0.1,0.2,0.3,0.2,0.5s-0.1,0.3-0.2,0.5c-0.1,0.1-0.3,0.2-0.5,0.2h-2
		c-0.1,0-0.1,0-0.2,0.1c-0.2,0.6-0.5,1.1-0.7,1.5c0,0.1,0,0.1,0.1,0.1h2.5c0.2,0,0.3,0.1,0.4,0.2c0.1,0.1,0.2,0.3,0.2,0.4
		s-0.1,0.3-0.2,0.4c-0.1,0.1-0.3,0.2-0.4,0.2h-4.8c-0.1,0-0.1,0-0.1,0.1v0.6c0,0.1,0,0.1,0.1,0.1h4.3c0.2,0,0.3,0.1,0.4,0.2
		s0.2,0.3,0.2,0.4c0,0.2-0.1,0.3-0.2,0.4c-0.1,0.1-0.3,0.2-0.4,0.2h-4.3c-0.1,0-0.1,0-0.1,0.1v0.6c0,0.1,0,0.1,0.1,0.1h5
		c0.2,0,0.3,0.1,0.4,0.2s0.2,0.3,0.2,0.4c0,0.2-0.1,0.3-0.2,0.5c-0.1,0.1-0.3,0.2-0.4,0.2h-4l0,0c1.1,0.6,2.7,1.2,4.6,1.7
		c0.2,0.1,0.3,0.2,0.4,0.3c0.1,0.2,0.1,0.3,0,0.5s-0.3,0.3-0.5,0.4s-0.4,0.1-0.6,0c-2-0.6-3.6-1.4-4.9-2.1c-0.1,0-0.1,0-0.1,0.1v1.7
		c0,0.2-0.1,0.4-0.3,0.6c-0.2,0.2-0.4,0.2-0.6,0.2s-0.4-0.1-0.6-0.2c-0.2-0.2-0.3-0.4-0.3-0.6v-1.7v-0.1h-0.1
		C118,63.8,116.4,64.5,114.4,65.2z M118.8,56.7h2.7c0.1,0,0.1,0,0.2-0.1c0.3-0.6,0.6-1.1,0.7-1.5c0-0.1,0-0.1-0.1-0.1H118h-0.1v0.1
		c0.3,0.7,0.5,1.2,0.6,1.5C118.7,56.7,118.8,56.7,118.8,56.7z"/>
	<path class="st1" d="M137,58.8c-0.2,0-0.4-0.1-0.5-0.2c-0.1-0.1-0.2-0.3-0.2-0.5s0.1-0.4,0.2-0.5c0.1-0.1,0.3-0.2,0.5-0.2h5.9l0,0
		c0,0,0,0,0-0.1c-1-0.6-1.8-1.2-2.6-1.6c-0.2-0.1-0.3-0.3-0.3-0.4s0-0.4,0.1-0.5c0.1-0.2,0.3-0.3,0.5-0.3s0.4,0,0.6,0.1
		c0.5,0.3,1.2,0.8,2.1,1.3c0.1,0.1,0.1,0.1,0.2,0c1-0.7,2-1.4,2.9-2.2l0,0l0,0H139c-0.2,0-0.4-0.1-0.5-0.2s-0.2-0.3-0.2-0.5
		s0.1-0.4,0.2-0.5c0.1-0.1,0.3-0.2,0.5-0.2h8.9c0.2,0,0.4,0.1,0.5,0.2c0.1,0.1,0.2,0.3,0.2,0.5c0,0.5-0.2,0.9-0.5,1.2
		c-1.1,1-2.2,1.9-3.3,2.6c-0.1,0-0.1,0.1,0,0.1c0.1,0.1,0.2,0.1,0.4,0.2c0.2,0.1,0.3,0.2,0.4,0.2c0.1,0.1,0.2,0.1,0.2,0.1h3.9
		c0.2,0,0.4,0.1,0.5,0.2c0.1,0.1,0.2,0.3,0.2,0.5c0,0.5-0.2,0.9-0.5,1.3c-0.7,0.8-1.4,1.6-2.3,2.3c-0.2,0.1-0.4,0.2-0.6,0.2
		s-0.4-0.1-0.5-0.3s-0.2-0.3-0.2-0.5s0.1-0.4,0.3-0.5c0.5-0.4,1.1-1,1.8-1.7c0,0,0,0,0-0.1l0,0h-3.7c-0.1,0-0.1,0-0.1,0.1v4.2
		c0,1-0.1,1.7-0.3,1.9s-0.8,0.4-1.8,0.4c-0.4,0-1,0-1.8,0c-0.2,0-0.4-0.1-0.5-0.2s-0.2-0.3-0.2-0.5s0.1-0.4,0.2-0.5
		c0.1-0.1,0.3-0.2,0.5-0.2c0.4,0,1,0,1.5,0c0.4,0,0.6,0,0.7-0.1s0.1-0.3,0.1-0.7V59c0-0.1,0-0.1-0.1-0.1L137,58.8L137,58.8z"/>
	<path class="st1" d="M160.3,65.3c-0.2-0.1-0.3-0.2-0.4-0.4c-0.1-0.2-0.1-0.4,0-0.6c0.8-1.6,1.4-3.3,1.9-5.1c0-0.2,0.2-0.4,0.3-0.5
		c0.2-0.1,0.4-0.2,0.6-0.1c0.2,0,0.4,0.2,0.5,0.3c0.1,0.2,0.2,0.4,0.1,0.6c0,0.1-0.1,0.3-0.1,0.5c-0.1,0.2-0.1,0.4-0.1,0.5
		s0,0.2,0,0.2c0.7,1.2,1.6,2,2.8,2.4h0.1c0,0,0,0,0-0.1v-5.9c0-0.1,0-0.1-0.1-0.1H163c-0.2,0-0.3-0.1-0.5-0.2
		c-0.1-0.1-0.2-0.3-0.2-0.5s0.1-0.3,0.2-0.5c0.1-0.1,0.3-0.2,0.5-0.2h7.4c0.2,0,0.3,0.1,0.5,0.2c0.1,0.1,0.2,0.3,0.2,0.5
		s-0.1,0.3-0.2,0.5c-0.1,0.1-0.3,0.2-0.5,0.2h-2.5c-0.1,0-0.1,0-0.1,0.1v2c0,0.1,0,0.1,0.1,0.1h3.7c0.2,0,0.3,0.1,0.5,0.2
		s0.2,0.3,0.2,0.5s-0.1,0.3-0.2,0.5c-0.1,0.1-0.3,0.2-0.5,0.2h-3.7c-0.1,0-0.1,0-0.1,0.1v2.7c0,0.1,0,0.1,0.1,0.2
		c1.1,0.2,2.7,0.3,4.7,0.3h0.3c0.2,0,0.4,0.1,0.5,0.2s0.2,0.3,0.2,0.5s-0.1,0.4-0.2,0.5c-0.1,0.1-0.3,0.2-0.5,0.2h-0.3
		c-2.8,0-4.9-0.2-6.4-0.7c-1.5-0.4-2.6-1.2-3.5-2.4c0,0,0,0-0.1,0h-0.1c-0.3,0.8-0.7,1.7-1.1,2.6c-0.1,0.2-0.3,0.3-0.5,0.4
		C160.7,65.3,160.5,65.3,160.3,65.3z M173,56.3c-0.2,0.2-0.3,0.2-0.6,0.2c-0.2,0-0.4-0.1-0.6-0.2s-0.2-0.3-0.2-0.6v-1.3
		c0-0.1,0-0.1-0.1-0.1h-9.6c-0.1,0-0.1,0-0.1,0.1v1.3c0,0.2-0.1,0.4-0.2,0.6c-0.2,0.2-0.3,0.2-0.6,0.2s-0.4-0.1-0.6-0.2
		c-0.2-0.2-0.2-0.3-0.2-0.6v-1.9c0-0.2,0.1-0.4,0.3-0.6c0.2-0.2,0.4-0.3,0.6-0.3h4.6c0.1,0,0.1,0,0.1-0.1v-0.6
		c0-0.2,0.1-0.4,0.3-0.6s0.4-0.3,0.6-0.3s0.4,0.1,0.6,0.3s0.3,0.4,0.3,0.6v0.6c0,0.1,0,0.1,0.1,0.1h4.6c0.2,0,0.4,0.1,0.6,0.3
		c0.2,0.2,0.3,0.4,0.3,0.6v1.9C173.2,56,173.1,56.1,173,56.3z"/>
</g>
<g>
	<path class="st5" d="M60.2,133.8c-0.3-0.5-0.7-1.1-1.2-1.8v6.5h-2.7v-6.2c-0.7,1.4-1.4,2.8-2.2,3.8c-0.2-0.8-0.9-1.9-1.3-2.7
		c1.1-1.2,2.2-3,2.9-4.6h-2.4v-2.6h3v-1.9c-0.8,0.1-1.6,0.3-2.4,0.4c-0.1-0.6-0.5-1.5-0.8-2.1c2.4-0.4,5.1-1,6.8-1.8l1.9,2.1
		c-0.9,0.3-1.8,0.6-2.8,0.9v2.4h2.6v2.6H59v0.1c0.7,0.6,2.4,2.4,2.7,2.8L60.2,133.8z M68.1,138.5c0-0.5-0.1-1-0.2-1.6
		c-2.7,0.4-5.3,0.8-7.5,1.1l-0.6-2.9c0.5,0,1.1-0.1,1.7-0.1c1-3.9,1.8-9.3,2.2-13.7l3.1,0.5c-0.5,4.4-1.5,9.3-2.4,13
		c1-0.1,1.9-0.2,3-0.3c-0.3-1.3-0.7-2.6-1.2-3.8l2.6-0.7c1,2.5,2,5.6,2.2,7.8L68.1,138.5z"/>
	<path class="st5" d="M83.7,123.7c0,0.1,0,0.2-0.1,0.3c1-0.1,1.9-0.3,2.9-0.6v2.8c-1.1,0.3-2.3,0.5-3.5,0.6
		c-0.2,0.8-0.4,1.6-0.6,2.4c-0.7,2.6-1.9,6.4-3,8.7l-3.1-1.1c1.1-1.8,2.6-5.8,3.3-8.4c0.1-0.4,0.2-0.9,0.3-1.3c-0.3,0-0.7,0-1,0
		c-1,0-1.7,0-2.3-0.1l-0.1-2.8c1,0.1,1.6,0.1,2.4,0.1c0.5,0,1,0,1.5,0c0-0.3,0.1-0.5,0.1-0.7c0.1-0.8,0.1-1.6,0.1-2.1l3.5,0.3
		C84,122.3,83.8,123.2,83.7,123.7z M86,133.6c0,0.8,0.6,1.3,2.2,1.3c1.3,0,2.6-0.1,4-0.4l-0.1,2.9c-1.1,0.1-2.3,0.3-3.9,0.3
		c-3.3,0-5-1.2-5-3.1c0-1,0.2-2,0.4-2.7l2.7,0.3C86.1,132.6,86,133.3,86,133.6z M88.6,127.2c1,0,2.2,0.1,3.3,0.2l-0.1,2.7
		c-0.9-0.1-2.1-0.2-3.2-0.2c-1.3,0-2.5,0.1-3.7,0.2v-2.6C86,127.3,87.4,127.2,88.6,127.2z"/>
	<path class="st5" d="M105.7,123.8c0,0.1,0,0.2-0.1,0.3c2.1-0.1,4.5-0.4,6.7-0.9l0.1,2.7c-1.8,0.3-4.8,0.7-7.3,0.8
		c-0.2,0.9-0.4,1.8-0.7,2.6c1.5-0.7,2.8-0.9,4.3-0.9c3,0,5.2,1.6,5.2,4.2c0,4.4-4.1,5.9-10.3,5.2l-0.8-2.9c4,0.7,8.1,0.3,8.1-2.2
		c0-1-0.9-1.8-2.5-1.8c-2.1,0-3.9,0.8-5,2.2c-0.2,0.2-0.3,0.5-0.5,0.8l-2.7-0.9c0.9-1.7,1.6-4.1,2.1-6.1c-1.1,0-2.1-0.1-3-0.2v-2.8
		c1.1,0.2,2.4,0.3,3.5,0.4c0-0.2,0.1-0.4,0.1-0.5c0.1-0.9,0.1-1.4,0.1-2.1l3.2,0.1C105.9,122.5,105.8,123.2,105.7,123.8z"/>
	<path class="st5" d="M128.5,126.7c1.4-0.8,2.8-1.5,3.6-2s1.4-0.8,1.9-1.3l1.6,2.6c-0.7,0.4-1.3,0.8-2.1,1.1
		c-1.1,0.5-3.3,1.6-4.9,2.6c-1.4,1-2.5,1.9-2.5,3.2c0,1.2,1.2,1.8,3.6,1.8c1.8,0,4.4-0.3,6.2-0.7v3.3c-1.7,0.3-3.6,0.5-6.1,0.5
		c-3.8,0-6.8-1-6.8-4.5c0-2.1,1.3-3.7,3-4.9c-0.9-1.6-1.7-3.5-2.6-5.5l2.8-1.2C126.9,123.6,127.7,125.3,128.5,126.7z"/>
	<path class="st5" d="M160.3,128v3h-17.4v-3H160.3z"/>
	<path class="st5" d="M179.1,128.2c-0.3,0.4-0.7,0.7-1,1.1h3.8v9.2h-2.6v-0.7H176v0.7h-2.4v-6c-0.2,0.1-0.4,0.2-0.7,0.4
		c-0.2-0.4-0.8-1.1-1.2-1.5l-0.9,0.4c0-0.3-0.1-0.6-0.2-0.9L170,131v1.5l1.7-0.5c0.4,1,0.8,2.4,0.9,3.2l-2,0.7c-0.1-0.8-0.3-2-0.7-3
		v5.7h-2.3v-5.7c-0.2,1.6-0.5,3.2-1,4.3c-0.4-0.3-1.4-0.7-1.9-0.9c0.5-1.1,0.7-2.8,0.8-4.3l2.1,0.4v-1.2l-2.4,0.2L165,129l1.4-0.1
		c0.2-0.3,0.4-0.6,0.6-0.9c-0.5-0.8-1.3-1.8-2-2.6l1.3-1.8l0.3,0.3c0.5-1,0.9-2.2,1.2-3.1l2.3,0.8c-0.7,1.3-1.5,2.8-2.1,3.8
		c0.1,0.1,0.2,0.3,0.4,0.4c0.6-1,1.1-2,1.5-2.8l2.2,1c-0.7,1.1-1.6,2.3-2.4,3.5l1.5-0.6c0.6,1,1.2,2.4,1.5,3.4
		c1.1-0.6,2.1-1.3,3-2.1H172v-2.3h2.9v-1.2h-2.3v-2.2h2.3v-1.7h2.5v1.7h1.9v1.1c0.4-0.8,0.8-1.6,1.1-2.5l2.4,0.8
		c-0.5,1.5-1.2,2.8-2,4h2v2.3H179.1z M169.8,128.7c-0.1-0.3-0.2-0.5-0.4-0.8c-0.2,0.3-0.4,0.6-0.7,0.9L169.8,128.7z M179.3,131.5
		H176v1h3.2v-1H179.3z M179.3,135.6v-1H176v1H179.3z M177.4,125.9h0.4c0.3-0.4,0.6-0.8,0.9-1.2h-1.3L177.4,125.9L177.4,125.9z"/>
	<path class="st5" d="M192.3,124.2c-0.2,1-0.9,4.9-0.9,6.7c0,0.1,0,0.4,0,0.4c0.3-0.5,0.5-0.9,0.7-1.4l1.4,1.1
		c-0.6,1.7-1.1,3.8-1.3,4.8c-0.1,0.3-0.1,0.7-0.1,0.9s0,0.5,0,0.8l-2.6,0.2c-0.4-1.3-0.7-3.6-0.7-6.1c0-2.9,0.5-6,0.7-7.4
		c0.1-0.6,0.2-1.4,0.2-2.1l3.2,0.3C192.6,122.7,192.4,123.9,192.3,124.2z M197,133.1c0,0.8,0.8,1.1,2.3,1.1c1.7,0,3-0.1,4.7-0.5
		l0.1,3.1c-1.2,0.2-2.7,0.4-4.9,0.4c-3.3,0-4.9-1.2-4.9-3.2c0-0.8,0.1-1.6,0.3-2.6l2.6,0.2C197.1,132.2,197,132.6,197,133.1z
		 M203.5,123.4v2.9c-2.4,0.2-5.7,0.2-8.2,0v-2.9C197.7,123.8,201.4,123.7,203.5,123.4z"/>
	<path class="st5" d="M70.7,158.1c0,0,0,0.7,0,1c-0.1,7.7-0.2,10.5-0.7,11.3c-0.4,0.6-0.7,0.8-1.3,1c-0.5,0.1-1.1,0.1-1.8,0.1
		c0-0.6-0.2-1.4-0.4-2c-0.4,0.8-0.8,1.5-1.4,2.1c-0.3-0.3-0.8-0.7-1.3-1.1c-2.1,0.2-4.2,0.5-5.8,0.6l-0.3-2.2c0.7,0,1.6-0.1,2.6-0.2
		V168h-2.2v-1.9h2.2v-0.7h-2.2v-5.6h2.2v-0.6h-2.4v-1.9h2.4v-0.4c-0.7,0.1-1.3,0.1-1.9,0.1c-0.1-0.4-0.2-0.8-0.3-1.2
		c-0.3,0.8-0.6,1.6-0.9,2.4v13.6h-2.4v-8.9c-0.2,0.3-0.4,0.6-0.7,0.9c-0.2-0.7-0.8-2.3-1.2-3c1.3-1.7,2.4-4.3,3-6.9l2.4,0.7
		l-0.1,0.5c2-0.2,4.1-0.4,5.6-0.8l1.3,1.9c-0.8,0.2-1.7,0.3-2.6,0.4v0.6H65v0.9h0.7v-4.2H68v4.2H70.7z M59.6,161.8h0.8v-0.5h-0.8
		V161.8z M59.6,163.8h0.8v-0.5h-0.8V163.8z M62.9,161.8v-0.5h-0.8v0.5H62.9z M62.9,163.8v-0.5h-0.8v0.5H62.9z M64.7,167.3
		c0.7-2.2,0.8-4.7,0.8-6.6v-0.3h-0.7v-1.3h-2.4v0.6h2.3v5.6h-2.3v0.7h2.3C64.7,166,64.7,167.3,64.7,167.3z M62.4,168.7l1.8-0.1
		c0.1-0.2,0.2-0.4,0.2-0.6h-2.1L62.4,168.7L62.4,168.7z M67.8,160.6c0,2.6-0.2,5.9-1.3,8.6c0.4,0,0.6,0,0.9,0c0.2,0,0.4-0.1,0.5-0.4
		c0.3-0.5,0.4-2.6,0.5-8.5h-0.5L67.8,160.6L67.8,160.6z"/>
	<path class="st5" d="M84.7,160.2c-0.1-0.2-0.1-0.3-0.2-0.5c-0.1-0.4-0.2-0.7-0.3-0.9c-1.8,0.1-3.9,0-6.2-0.2l-0.1-2.6
		c2.2,0.2,4,0.3,5.6,0.3c-0.2-0.5-0.4-1.1-0.6-1.7l3-0.3c0.1,0.7,0.2,1.3,0.3,1.8c1.2-0.1,2.4-0.4,3.6-0.8l0.4,2.6
		c-1,0.3-2.1,0.5-3.3,0.7c0.1,0.2,0.1,0.4,0.2,0.7c0.1,0.2,0.2,0.4,0.3,0.7c1.5-0.2,2.6-0.5,3.5-0.7l0.4,2.7
		c-0.8,0.2-1.8,0.4-2.7,0.5c0.2,0.5,0.5,0.9,0.7,1.3c0.3,0.4,0.5,0.7,0.9,1.1l-1.3,2c-1-0.2-3.2-0.4-4.6-0.6l0.2-2.1
		c0.7,0.1,1.6,0.1,2.1,0.2c-0.3-0.5-0.6-1-0.8-1.5c-2.3,0.1-5.3,0.1-8.1,0l-0.1-2.7C80.3,160.3,82.7,160.3,84.7,160.2z M80.8,166.6
		c0,1.3,1.3,1.7,3.5,1.7c1.8,0,3.5-0.1,4.8-0.4l-0.2,2.9c-1.3,0.2-3.2,0.4-4.7,0.4c-3.8,0-6.2-1.1-6.3-3.9c0-1.3,0.4-2.3,0.9-3.2
		l2.8,0.5C81.2,165.1,80.8,165.8,80.8,166.6z"/>
	<path class="st5" d="M108.7,155.9c0,0.1,0,0.3,0,0.5c1.4-0.1,2.9-0.2,4.5-0.5v2.6c-1.1,0.2-2.8,0.3-4.6,0.4c0,0.5,0,1.1,0,1.6
		c1.9-0.1,3.4-0.3,4.9-0.4v2.7c-1.6,0.2-3,0.3-4.8,0.3c0,0.6,0.1,1.2,0.1,1.9c2.3,0.7,4,1.9,5.1,2.8l-1.6,2.5
		c-0.9-0.9-2.1-1.8-3.3-2.4c0,0.1,0,0.3,0,0.4c0,1.8-1.4,3-3.9,3c-3.2,0-4.8-1.3-4.8-3.3s1.8-3.4,4.8-3.4c0.3,0,0.6,0,0.9,0
		c0-0.4,0-0.9-0.1-1.3c-0.3,0-0.6,0-0.9,0c-1,0-3.1-0.1-4.3-0.2v-2.7c1.2,0.2,3.5,0.4,4.4,0.4c0.3,0,0.6,0,0.8,0c0-0.5,0-1,0-1.5
		c-0.2,0-0.4,0-0.6,0c-1.1,0-3.2-0.2-4.5-0.3l-0.1-2.6c1.4,0.2,3.4,0.4,4.5,0.4c0.2,0,0.4,0,0.6,0c0-0.3,0-0.5,0-0.6
		c0-0.4,0-1-0.1-1.4h3.1C108.8,154.9,108.7,155.5,108.7,155.9z M104.6,168.6c1,0,1.5-0.3,1.5-1.2c0-0.1,0-0.3,0-0.5
		c-0.4-0.1-0.9-0.1-1.4-0.1c-1,0-1.6,0.4-1.6,0.9C103,168.2,103.6,168.6,104.6,168.6z"/>
	<path class="st5" d="M134.2,156.8c0,0.7,0,1.2,0,1.7c0.4,0,0.7-0.1,1-0.1c0.5,0,1.4-0.1,2-0.1v2.7c-0.4,0-1.5,0-2,0
		c-0.3,0-0.7,0-1.1,0.1c-0.1,1.5-0.1,2.9-0.3,3.6c-0.2,1.1-0.7,1.3-1.7,1.3c-0.7,0-2.3-0.2-3-0.3l0.1-2.5c0.5,0.1,1.3,0.2,1.6,0.2
		s0.5-0.1,0.5-0.4c0.1-0.4,0.1-1.1,0.1-1.8c-1.5,0.1-3.1,0.3-4.6,0.4c0,1.6,0,3.2,0,4c0,1.7,0.3,2,2.8,2c1.7,0,4.1-0.2,5.6-0.5
		l-0.1,3.1c-1.3,0.1-3.5,0.3-5.3,0.3c-5.1,0-5.8-1-5.9-4.4c0-0.8,0-2.5,0-4.2c-0.3,0-0.6,0.1-0.8,0.1c-0.6,0.1-2,0.3-2.4,0.4
		l-0.3-2.9c0.5,0,1.5,0,2.6-0.1c0.2,0,0.6-0.1,1-0.1c0-0.7,0-1.2,0-1.5c0-0.9-0.1-1.6-0.2-2.4h3.2c-0.1,0.7-0.1,1.3-0.1,2.2
		c0,0.3,0,0.8,0,1.4c1.4-0.1,3.1-0.3,4.6-0.4v-1.8c0-0.5-0.1-1.5-0.1-1.9h3C134.3,155.3,134.3,156.2,134.2,156.8z"/>
	<path class="st5" d="M152.7,156.8c-1,1.4-2.1,3.3-3,4.9c0.6-0.2,1.2-0.2,1.8-0.2c1.5,0,2.3,0.9,2.4,2.5c0,0.7,0,2.2,0.1,2.9
		c0.1,0.6,0.5,0.8,1,0.8c1.4,0,2.2-1.8,2.8-4.3l2.5,2c-1,3.3-2.8,5.5-5.8,5.5c-2.1,0-3.2-1.2-3.3-2.7c-0.1-1-0.1-2.5-0.1-3.1
		c-0.1-0.6-0.4-0.9-0.9-0.9c-1.1,0-2,1.2-2.6,2.7c-0.4,1.1-1,3.1-1.3,4.1l-3.2-1.1c1.4-3.7,5.1-11.3,6.1-13.1c0.2-0.5,0.7-1.2,1-2.1
		l3.2,1.3C153.1,156.2,152.9,156.5,152.7,156.8z"/>
	<path class="st5" d="M173.1,156.8c-0.1,0.5-0.2,1-0.3,1.5c0.5,0,0.9-0.1,1.3-0.1c2.1,0,3.6,1,3.6,3.8c0,2.2-0.2,5.2-1,6.9
		c-0.6,1.3-1.7,1.8-3.2,1.8c-0.7,0-1.6-0.1-2.3-0.3l-0.5-3c0.7,0.2,1.8,0.4,2.3,0.4c0.6,0,1-0.2,1.3-0.7c0.5-0.9,0.7-3.1,0.7-4.9
		c0-1.4-0.6-1.5-1.7-1.5c-0.2,0-0.5,0-0.9,0.1c-0.7,2.9-2.1,7.4-3.7,10l-3-1.2c1.8-2.4,3-5.9,3.7-8.5c-0.5,0.1-0.9,0.1-1.2,0.2
		c-0.6,0.1-1.7,0.2-2.3,0.4l-0.3-3c0.7,0.1,1.4,0,2.2,0c0.5,0,1.3-0.1,2.1-0.1c0.3-1.5,0.4-2.7,0.4-3.9l3.4,0.4
		C173.4,155.5,173.2,156.2,173.1,156.8z M183.1,163.7l-2.9,1.3c-0.4-2.2-1.7-5.6-3-7.3l2.7-1.1C181.1,158.2,182.6,161.9,183.1,163.7
		z"/>
	<path class="st5" d="M198.2,159.8c0-1-0.9-1.5-2.1-1.5c-1.1,0-1.8,0.5-2.7,1.3l-1.8-1.7c1.2-1.4,2.9-2.4,4.9-2.4
		c2.7,0,4.9,1.2,4.9,3.9s-3.9,2.9-3.7,5.3h-2.9C194.4,162,198.2,161.4,198.2,159.8z M194.3,168.1c0-1.1,0.8-1.9,1.9-1.9
		c1.1,0,1.9,0.8,1.9,1.9c0,1.1-0.8,1.9-1.9,1.9S194.3,169.2,194.3,168.1z"/>
</g>
<rect x="52.9" y="146.9" class="st1" width="157.3" height="1"/>
<rect x="52.9" y="180.1" class="st1" width="157.3" height="1"/>
<g>
	<path class="st1" d="M64.7,208.5c0,0.7,0.3,0.9,0.5,0.9s0.5,0,0.7-0.1H66v0.1v0.1c-0.1,0.1-0.5,0.4-1.1,0.4c-0.5,0-1-0.5-1-0.8
		c0-0.4,0-1.3,0-1.4v-0.2c0-0.2,0-0.9,0-1.3h-0.6c-0.1,0-0.1,0-0.1-0.1s0.1-0.1,0.2-0.2c0.2-0.1,1-0.9,1.1-1.2
		c0-0.1,0.1-0.1,0.1-0.1c0.1,0,0.1,0.1,0.1,0.1v1h1.4c0.1,0,0.1,0,0.1,0.1L66,206c0,0,0,0.1-0.1,0.1h-1.3c0,0.5,0,0.9,0,1.4
		L64.7,208.5L64.7,208.5z"/>
	<path class="st1" d="M68.3,207.1c0,0.1,0,0.2,0,0.5c0,1,0.6,1.7,1.4,1.7c0.6,0,1-0.3,1.2-0.7c0,0,0.1-0.1,0.1,0l0.1,0.1
		c0,0,0,0,0,0.1c-0.2,0.4-0.7,1.1-1.6,1.1c-0.6,0-1.2-0.2-1.5-0.7s-0.4-0.9-0.4-1.6c0-0.4,0.1-1.1,0.6-1.6c0.4-0.4,0.9-0.5,1.4-0.5
		c1.1,0,1.4,1.1,1.4,1.5c0,0.1-0.1,0.2-0.3,0.2h-2.4V207.1z M69.8,206.8c0.2,0,0.3,0,0.3-0.1c0-0.2-0.1-0.9-0.8-0.9
		c-0.4,0-0.8,0.3-1,1H69.8z"/>
	<path class="st1" d="M74,206.7c0,0.5,0,2,0,2.3c0,0.2,0,0.3,0.3,0.3h0.4c0.1,0,0.1,0,0.1,0.1v0.2c0,0.1,0,0.1-0.1,0.1s-0.5,0-1.1,0
		s-1,0-1.1,0c0,0-0.1,0-0.1-0.1v-0.2c0-0.1,0-0.1,0.1-0.1H73c0.1,0,0.2-0.1,0.2-0.2c0-0.3,0-2,0-2.6v-0.6c0-0.7,0-1.6,0-1.9
		c0-0.3-0.2-0.5-0.5-0.6l-0.2-0.1h-0.1v-0.1c0,0,0,0,0.1-0.1c0.3-0.2,0.8-0.3,1.2-0.6c0.1-0.1,0.1-0.1,0.2-0.1s0.1,0,0.1,0.2
		c0,0.5,0,2.6,0,3.2C74,205.8,74,206.7,74,206.7z"/>
	<path class="st1" d="M76.5,209.2c0-0.2,0.1-0.6,0.6-0.6c0.3,0,0.6,0.2,0.6,0.6c0,0.3-0.2,0.5-0.6,0.5
		C76.9,209.8,76.5,209.7,76.5,209.2z"/>
</g>
</svg>
