<?xml version="1.0" encoding="utf-8"?>
<!-- Generator: Adobe Illustrator 26.0.1, SVG Export Plug-In . SVG Version: 6.00 Build 0)  -->
<svg version="1.1" id="Layer_1" xmlns="http://www.w3.org/2000/svg" xmlns:xlink="http://www.w3.org/1999/xlink" x="0px" y="0px"
	 viewBox="0 0 298.6 263.1" style="enable-background:new 0 0 298.6 263.1;" xml:space="preserve">
<style type="text/css">
	.st0{fill:#095B4C;}
	.st1{fill:#F0EA3E;}
	.st2{fill:#FFFFFF;}
	.st3{fill:#0C5D4D;}
</style>
<circle class="st0" cx="131.5" cy="131.4" r="131"/>
<rect x="175" y="52.2" transform="matrix(0.4347 -0.9006 0.9006 0.4347 60.0023 200.9576)" class="st1" width="30.2" height="1"/>
<rect x="173.5" y="49.1" transform="matrix(0.4347 -0.9006 0.9006 0.4347 60.6637 195.7057)" class="st1" width="25.4" height="0.8"/>
<rect x="73.9" y="37.6" transform="matrix(0.9006 -0.4347 0.4347 0.9006 -15.5105 37.5781)" class="st1" width="1" height="30.2"/>
<rect x="78.1" y="36.8" transform="matrix(0.9006 -0.4347 0.4347 0.9006 -13.7067 39.0483)" class="st1" width="0.8" height="25.4"/>
<g>
	<path class="st2" d="M109.8,19.5c0-2.1,1.2-3.3,2.8-3.3c1.7,0,2.8,1.2,2.8,3.3s-1.2,3.3-2.8,3.3C110.9,22.8,109.8,21.5,109.8,19.5z
		 M114.2,19.5c0-1.4-0.6-2.2-1.5-2.2s-1.5,0.8-1.5,2.2c0,1.4,0.6,2.2,1.5,2.2S114.2,20.8,114.2,19.5z"/>
	<path class="st2" d="M117.6,16.3h2.1c1.4,0,2.5,0.5,2.5,2c0,1.4-1.1,2.1-2.4,2.1H119v2.3h-1.3L117.6,16.3L117.6,16.3z M119.6,19.4
		c0.9,0,1.3-0.4,1.3-1.1s-0.5-1-1.3-1h-0.7v2.1H119.6z"/>
	<path class="st2" d="M124.1,16.3h3.9v1.1h-2.6v1.5h2.2V20h-2.2v1.7h2.7v1.1h-4C124.1,22.8,124.1,16.3,124.1,16.3z"/>
	<path class="st2" d="M130.2,16.3h1.3l1.8,3.4l0.6,1.4l0,0c-0.1-0.7-0.2-1.5-0.2-2.2v-2.5h1.2v6.3h-1.3l-1.8-3.4l-0.6-1.4l0,0
		c0.1,0.7,0.2,1.5,0.2,2.2v2.5h-1.2V16.3z"/>
	<path class="st2" d="M137.5,16.3h1.3v6.3h-1.3V16.3z"/>
	<path class="st2" d="M141.2,16.3h1.3l1.8,3.4l0.6,1.4l0,0c-0.1-0.7-0.2-1.5-0.2-2.2v-2.5h1.2v6.3h-1.3l-1.8-3.4l-0.6-1.4l0,0
		c0.1,0.7,0.2,1.5,0.2,2.2v2.5h-1.2V16.3z"/>
	<path class="st2" d="M148.1,19.5c0-2.1,1.4-3.3,3-3.3c0.9,0,1.5,0.4,2,0.8l-0.7,0.8c-0.3-0.3-0.7-0.5-1.2-0.5
		c-1.1,0-1.8,0.8-1.8,2.2c0,1.4,0.6,2.2,1.9,2.2c0.3,0,0.6-0.1,0.8-0.2v-1.2H151v-1h2.3V22c-0.4,0.4-1.2,0.8-2.1,0.8
		C149.5,22.8,148.1,21.6,148.1,19.5z"/>
</g>
<g>
	<path class="st1" d="M92.5,42L92.5,42C92.5,42,92.5,42.1,92.5,42h3c0.1,0,0.3,0,0.4,0.1s0.1,0.2,0.1,0.4s0,0.3-0.1,0.4
		S95.7,43,95.5,43h-4.2c-0.1,0-0.3,0-0.4-0.1s-0.1-0.2-0.1-0.4c0-0.3,0.1-0.6,0.4-0.8c1.4-1.1,2.3-2,2.8-2.6s0.7-1.3,0.7-1.9
		c0-1-0.5-1.4-1.5-1.4c-0.5,0-1.1,0.1-1.7,0.4c-0.1,0.1-0.2,0-0.4,0c0-0.1-0.1-0.2-0.1-0.4s0-0.4,0.1-0.5c0.1-0.2,0.2-0.3,0.4-0.3
		c0.6-0.2,1.2-0.3,1.8-0.3c0.8,0,1.5,0.2,2,0.6c0.5,0.4,0.7,1,0.7,1.7s-0.2,1.5-0.7,2.2S93.9,40.9,92.5,42z"/>
	<path class="st1" d="M102.8,42.2c-0.5,0.7-1.3,1-2.3,1s-1.8-0.3-2.3-1s-0.8-1.7-0.8-3.2s0.3-2.6,0.8-3.2c0.5-0.7,1.3-1,2.3-1
		s1.8,0.3,2.3,1s0.8,1.7,0.8,3.2C103.6,40.4,103.3,41.5,102.8,42.2z M101.9,36.5c-0.3-0.5-0.7-0.7-1.4-0.7s-1.1,0.2-1.4,0.7
		s-0.4,1.3-0.4,2.5s0.1,2,0.4,2.5s0.7,0.7,1.4,0.7s1.1-0.2,1.4-0.7s0.4-1.3,0.4-2.5S102.2,36.9,101.9,36.5z"/>
	<path class="st1" d="M106.7,42L106.7,42C106.7,42,106.7,42.1,106.7,42h3c0.1,0,0.3,0,0.4,0.1s0.1,0.2,0.1,0.4s0,0.3-0.1,0.4
		s-0.2,0.1-0.4,0.1h-4.2c-0.1,0-0.3,0-0.4-0.1s-0.1-0.2-0.1-0.4c0-0.3,0.1-0.6,0.4-0.8c1.4-1.1,2.3-2,2.8-2.6s0.7-1.3,0.7-1.9
		c0-1-0.5-1.4-1.5-1.4c-0.5,0-1.1,0.1-1.7,0.4c-0.1,0.1-0.2,0-0.4,0c-0.1-0.1-0.2-0.2-0.2-0.3c0-0.2,0-0.4,0.1-0.5
		c0.1-0.2,0.2-0.3,0.4-0.3c0.6-0.2,1.2-0.3,1.8-0.3c0.8,0,1.5,0.2,2,0.6c0.5,0.4,0.7,1,0.7,1.7s-0.2,1.5-0.7,2.2
		S108.1,40.9,106.7,42z"/>
	<path class="st1" d="M113.8,42L113.8,42C113.8,42,113.8,42.1,113.8,42h3c0.1,0,0.3,0,0.4,0.1s0.1,0.2,0.1,0.4s0,0.3-0.1,0.4
		S117,43,116.8,43h-4.2c-0.1,0-0.3,0-0.4-0.1s-0.1-0.2-0.1-0.4c0-0.3,0.1-0.6,0.4-0.8c1.4-1.1,2.3-2,2.8-2.6s0.7-1.3,0.7-1.9
		c0-1-0.5-1.4-1.5-1.4c-0.5,0-1.1,0.1-1.7,0.4c-0.1,0.1-0.2,0-0.4,0c-0.1-0.1-0.2-0.2-0.2-0.3c0-0.2,0-0.4,0.1-0.5
		c0.1-0.2,0.2-0.3,0.4-0.3c0.6-0.2,1.2-0.3,1.8-0.3c0.8,0,1.5,0.2,2,0.6c0.5,0.4,0.7,1,0.7,1.7s-0.2,1.5-0.7,2.2
		S115.2,40.9,113.8,42z"/>
	<path class="st1" d="M122.4,41.7c-0.1,0-0.3,0-0.4-0.1s-0.2-0.2-0.2-0.4s0.1-0.3,0.2-0.4s0.2-0.1,0.4-0.1h1.4c0.1,0,0.1,0,0.1-0.1
		v-2.3c0-0.2,0.1-0.3,0.2-0.5c0.1-0.1,0.3-0.2,0.5-0.2h2.3c0.1,0,0.1,0,0.1-0.1V36c0-0.1,0-0.1-0.1-0.1h-2.2c-0.1,0-0.1,0-0.1,0.1
		c-0.3,0.8-0.8,1.6-1.3,2.4c-0.1,0.1-0.2,0.2-0.4,0.3c-0.2,0-0.3,0-0.4-0.1s-0.2-0.2-0.2-0.4s0-0.3,0.1-0.5c0.6-1,1.2-2.2,1.6-3.4
		c0.1-0.2,0.2-0.3,0.3-0.4c0.1-0.1,0.3-0.1,0.5-0.1s0.3,0.1,0.3,0.2c0.1,0.1,0.1,0.3,0,0.4v0.1c0,0.1,0,0.1,0,0.1
		c0,0.1,0,0.1,0.1,0.1h6.1c0.1,0,0.3,0,0.4,0.1s0.1,0.2,0.1,0.4c0,0.1,0,0.3-0.1,0.4s-0.2,0.1-0.4,0.1h-2.8c-0.1,0-0.1,0-0.1,0.1
		v1.5c0,0.1,0,0.1,0.1,0.1h2.5c0.1,0,0.3,0,0.4,0.1s0.1,0.2,0.1,0.4s0,0.3-0.1,0.4c-0.1,0.1-0.2,0.2-0.4,0.2h-2.5
		c-0.1,0-0.1,0-0.1,0.1v1.9c0,0.1,0,0.1,0.1,0.1h3.3c0.1,0,0.3,0,0.4,0.1s0.2,0.2,0.2,0.4c0,0.1-0.1,0.3-0.2,0.4s-0.2,0.1-0.4,0.1
		h-3.3c-0.1,0-0.1,0-0.1,0.1v1.6c0,0.2-0.1,0.3-0.2,0.4c-0.1,0.1-0.3,0.2-0.4,0.2c-0.2,0-0.3-0.1-0.4-0.2c-0.1-0.1-0.2-0.3-0.2-0.4
		v-1.6c0-0.1,0-0.1-0.1-0.1h-4.7V41.7z M125.1,38.7v1.9c0,0.1,0,0.1,0.1,0.1h1.7c0.1,0,0.1,0,0.1-0.1v-1.9c0-0.1,0-0.1-0.1-0.1
		L125.1,38.7C125.2,38.6,125.1,38.7,125.1,38.7z"/>
	<path class="st1" d="M135.3,41.3c-0.1,0-0.3,0-0.3-0.1s-0.1-0.2-0.1-0.3c0-0.3,0.1-0.6,0.3-0.9l3.2-4.5c0.2-0.3,0.6-0.5,1-0.5
		c0.2,0,0.3,0.1,0.4,0.2s0.2,0.3,0.2,0.4v4.7c0,0.1,0,0.1,0.1,0.1h0.8c0.1,0,0.3,0,0.3,0.1s0.1,0.2,0.1,0.3s0,0.3-0.1,0.3
		s-0.2,0.1-0.3,0.1H140c-0.1,0-0.1,0-0.1,0.1v1.1c0,0.2-0.1,0.3-0.2,0.4s-0.3,0.2-0.4,0.2c-0.2,0-0.3-0.1-0.4-0.2
		c-0.1-0.1-0.2-0.3-0.2-0.4v-1.1c0-0.1,0-0.1-0.1-0.1h-3.3V41.3z M136.1,40.2L136.1,40.2C136.1,40.2,136.1,40.3,136.1,40.2
		C136.1,40.3,136.1,40.3,136.1,40.2h2.5c0.1,0,0.1,0,0.1-0.1v-3.5l0,0l0,0L136.1,40.2z"/>
	<path class="st1" d="M151.8,43c0.3,0,0.5,0,0.5-0.1c0.1,0,0.1-0.2,0.1-0.5v-1.7c0-0.1,0-0.1-0.1-0.1h-5.2c-0.1,0-0.1,0-0.1,0.1
		c-0.2,1.2-0.6,2.2-1.3,3c-0.1,0.1-0.2,0.2-0.4,0.2s-0.3,0-0.5-0.1c-0.1-0.1-0.2-0.2-0.2-0.4s0-0.3,0.1-0.4c0.5-0.6,0.8-1.2,1-1.9
		s0.3-1.6,0.3-2.8v-3.5c0-0.2,0.1-0.3,0.2-0.5c0.1-0.1,0.3-0.2,0.5-0.2h6.4c0.2,0,0.3,0.1,0.5,0.2c0.1,0.1,0.2,0.3,0.2,0.5v7.6
		c0,0.7-0.1,1.2-0.3,1.4s-0.6,0.3-1.3,0.3c-0.3,0-0.7,0-1.3,0c-0.1,0-0.3-0.1-0.4-0.2c-0.1-0.1-0.2-0.2-0.2-0.4c0-0.1,0-0.3,0.1-0.4
		c0.1-0.1,0.2-0.1,0.4-0.1C151.3,43,151.7,43,151.8,43z M152.3,39.6c0.1,0,0.1,0,0.1-0.1v-1.6c0-0.1,0-0.1-0.1-0.1h-5
		c-0.1,0-0.1,0-0.1,0.1v0.9c0,0.2,0,0.4,0,0.7c0,0.1,0,0.1,0.1,0.1C147.3,39.6,152.3,39.6,152.3,39.6z M147.2,35.3v1.5
		c0,0.1,0,0.1,0.1,0.1h5c0.1,0,0.1,0,0.1-0.1v-1.5c0-0.1,0-0.1-0.1-0.1h-5C147.2,35.2,147.2,35.2,147.2,35.3z"/>
	<path class="st1" d="M156.9,37.6c-0.1,0.1-0.2,0.1-0.3,0s-0.2-0.1-0.2-0.3v-0.1c0-0.4,0.2-0.8,0.5-1l1.3-1c0.3-0.3,0.7-0.4,1.1-0.4
		c0.2,0,0.3,0.1,0.4,0.2c0.1,0.1,0.2,0.3,0.2,0.4v7c0,0.2-0.1,0.3-0.2,0.4c-0.1,0.1-0.3,0.2-0.4,0.2c-0.2,0-0.3-0.1-0.4-0.2
		s-0.2-0.3-0.2-0.4v-6.2l0,0l0,0L156.9,37.6z"/>
	<path class="st1" d="M164.5,44c-0.2,0-0.3-0.1-0.4-0.2s-0.2-0.3-0.2-0.4V35c0-0.2,0.1-0.3,0.2-0.5c0.1-0.1,0.3-0.2,0.5-0.2h6.8
		c0.2,0,0.3,0.1,0.5,0.2c0.1,0.1,0.2,0.3,0.2,0.5v8.4c0,0.2-0.1,0.3-0.2,0.4s-0.3,0.2-0.4,0.2l0,0c-0.2,0-0.3-0.1-0.4-0.2
		c-0.1-0.1-0.2-0.3-0.2-0.4c0-0.1,0-0.1-0.1-0.1h-5.5c-0.1,0-0.1,0-0.1,0.1c0,0.2-0.1,0.3-0.2,0.4S164.7,44,164.5,44L164.5,44z
		 M165.1,35.4V38c0,0.1,0,0.1,0.1,0.1h5.5c0.1,0,0.1,0,0.1-0.1v-2.6c0-0.1,0-0.1-0.1-0.1h-5.5C165.1,35.3,165.1,35.3,165.1,35.4z
		 M165.1,39.3v2.9c0,0.1,0,0.1,0.1,0.1h5.5c0.1,0,0.1,0,0.1-0.1v-2.9c0-0.1,0-0.1-0.1-0.1h-5.5C165.1,39.2,165.1,39.2,165.1,39.3z"
		/>
</g>
<rect x="52.9" y="138.9" class="st2" width="157.3" height="1"/>
<rect x="52.9" y="180.1" class="st2" width="157.3" height="1"/>
<g>
	<path class="st2" d="M64.7,208.5c0,0.7,0.3,0.9,0.5,0.9s0.5,0,0.7-0.1H66v0.1v0.1c-0.1,0.1-0.5,0.4-1.1,0.4c-0.5,0-1-0.5-1-0.8
		c0-0.4,0-1.3,0-1.4v-0.2c0-0.2,0-0.9,0-1.3h-0.6c-0.1,0-0.1,0-0.1-0.1s0.1-0.1,0.2-0.2c0.2-0.1,1-0.9,1.1-1.2
		c0-0.1,0.1-0.1,0.1-0.1c0.1,0,0.1,0.1,0.1,0.1v1h1.4c0.1,0,0.1,0,0.1,0.1L66,206c0,0,0,0.1-0.1,0.1h-1.3c0,0.5,0,0.9,0,1.4
		L64.7,208.5L64.7,208.5z"/>
	<path class="st2" d="M68.3,207.1c0,0.1,0,0.2,0,0.5c0,1,0.6,1.7,1.4,1.7c0.6,0,1-0.3,1.2-0.7c0,0,0.1-0.1,0.1,0l0.1,0.1
		c0,0,0,0,0,0.1c-0.2,0.4-0.7,1.1-1.6,1.1c-0.6,0-1.2-0.2-1.5-0.7s-0.4-0.9-0.4-1.6c0-0.4,0.1-1.1,0.6-1.6c0.4-0.4,0.9-0.5,1.4-0.5
		c1.1,0,1.4,1.1,1.4,1.5c0,0.1-0.1,0.2-0.3,0.2h-2.4C68.3,207.2,68.3,207.1,68.3,207.1z M69.8,206.8c0.2,0,0.3,0,0.3-0.1
		c0-0.2-0.1-0.9-0.8-0.9c-0.4,0-0.8,0.3-1,1H69.8z"/>
	<path class="st2" d="M74,206.7c0,0.5,0,2,0,2.3c0,0.2,0,0.3,0.3,0.3h0.4c0.1,0,0.1,0,0.1,0.1v0.2c0,0.1,0,0.1-0.1,0.1s-0.5,0-1.1,0
		s-1,0-1.1,0c0,0-0.1,0-0.1-0.1v-0.2c0-0.1,0-0.1,0.1-0.1H73c0.1,0,0.2-0.1,0.2-0.2c0-0.3,0-2,0-2.6v-0.6c0-0.7,0-1.6,0-1.9
		c0-0.3-0.2-0.5-0.5-0.6l-0.2-0.1h-0.1v-0.1c0,0,0,0,0.1-0.1c0.3-0.2,0.8-0.3,1.2-0.6c0.1-0.1,0.1-0.1,0.2-0.1s0.1,0,0.1,0.2
		c0,0.5,0,2.6,0,3.2C74,205.8,74,206.7,74,206.7z"/>
	<path class="st2" d="M76.5,209.2c0-0.2,0.1-0.6,0.6-0.6c0.3,0,0.6,0.2,0.6,0.6c0,0.3-0.2,0.5-0.6,0.5
		C76.9,209.8,76.5,209.7,76.5,209.2z"/>
</g>
<g>
	<path class="st1" d="M91.9,65.9c-0.2,0.2-0.4,0.3-0.7,0.3s-0.5-0.1-0.7-0.3c-0.2-0.2-0.3-0.4-0.3-0.7V51.6c0-0.3,0.1-0.5,0.3-0.7
		c0.2-0.2,0.4-0.3,0.7-0.3h5.1c0.3,0,0.5,0.1,0.7,0.3c0.2,0.2,0.3,0.4,0.3,0.7v4.7c0,0.3-0.1,0.5-0.3,0.7s-0.4,0.3-0.7,0.3h-4.1
		c-0.1,0-0.2,0.1-0.2,0.2v7.8C92.1,65.5,92,65.7,91.9,65.9z M92.1,52.2v1c0,0.1,0.1,0.2,0.2,0.2h3.1c0.1,0,0.2-0.1,0.2-0.2v-1
		c0-0.1-0.1-0.2-0.2-0.2h-3.1C92.2,52.1,92.1,52.1,92.1,52.2z M92.1,54.8v1c0,0.1,0.1,0.1,0.2,0.1h3.1c0.1,0,0.2,0,0.2-0.1v-1
		c0-0.1-0.1-0.1-0.2-0.1h-3.1C92.2,54.6,92.1,54.7,92.1,54.8z M93.8,64.3c0.6-0.5,1.1-1.1,1.3-1.8c0-0.1,0-0.1-0.1-0.1h-1.1
		c-0.2,0-0.3-0.1-0.5-0.2c-0.1-0.1-0.2-0.3-0.2-0.5c0-0.2,0.1-0.3,0.2-0.5c0.1-0.1,0.3-0.2,0.5-0.2h1.3c0.1,0,0.2-0.1,0.2-0.2v-0.1
		v-0.9c0-0.1-0.1-0.2-0.2-0.2h-1c-0.2,0-0.4-0.1-0.5-0.2c-0.1-0.1-0.2-0.3-0.2-0.5s0.1-0.4,0.2-0.5c0.1-0.1,0.3-0.2,0.5-0.2h7.3
		c0.2,0,0.4,0.1,0.5,0.2c0.1,0.1,0.2,0.3,0.2,0.5s-0.1,0.4-0.2,0.5c-0.1,0.1-0.3,0.2-0.5,0.2h-0.8c-0.1,0-0.2,0.1-0.2,0.2v1
		c0,0.1,0.1,0.2,0.2,0.2h1.1c0.2,0,0.3,0.1,0.5,0.2c0.1,0.1,0.2,0.3,0.2,0.5c0,0.2-0.1,0.4-0.2,0.5c-0.1,0.1-0.3,0.2-0.5,0.2h-1.1
		c-0.1,0-0.2,0.1-0.2,0.2v2.3c0,0.3-0.1,0.5-0.3,0.6c-0.2,0.2-0.4,0.3-0.6,0.3c-0.3,0-0.5-0.1-0.6-0.3c-0.2-0.2-0.3-0.4-0.3-0.6
		v-2.3c0-0.1,0-0.2-0.1-0.2h-1.6c-0.1,0-0.2,0.1-0.2,0.2c-0.3,1.1-0.8,2-1.6,2.7c-0.2,0.2-0.4,0.3-0.7,0.3c-0.3,0-0.5-0.1-0.8-0.2
		c-0.2-0.1-0.3-0.3-0.3-0.5C93.6,64.6,93.7,64.4,93.8,64.3z M97.1,60.6v0.3c0,0.1,0,0.1,0.1,0.1h1.4c0.1,0,0.1-0.1,0.1-0.2v-1
		c0-0.1,0-0.2-0.1-0.2h-1.4c-0.1,0-0.2,0.1-0.2,0.2V60.6z M104.7,50.6c0.3,0,0.5,0.1,0.7,0.3c0.2,0.2,0.3,0.4,0.3,0.7v11.9
		c0,1.2-0.1,1.9-0.4,2.2c-0.3,0.3-1,0.4-2.1,0.4c-0.2,0-0.5,0-1-0.1c-0.2,0-0.4-0.1-0.6-0.3s-0.2-0.4-0.3-0.6c0-0.2,0.1-0.4,0.2-0.5
		c0.1-0.1,0.3-0.2,0.5-0.2c0.5,0,0.8,0,0.8,0c0.5,0,0.7,0,0.8-0.1c0.1-0.1,0.1-0.4,0.1-0.8v-6.1c0-0.1-0.1-0.2-0.2-0.2h-4.3
		c-0.3,0-0.5-0.1-0.7-0.3s-0.3-0.4-0.3-0.7v-4.7c0-0.3,0.1-0.5,0.3-0.7c0.2-0.2,0.4-0.3,0.7-0.3H104.7z M103.9,53.2v-1
		c0-0.1-0.1-0.2-0.2-0.2h-3.3c-0.1,0-0.2,0.1-0.2,0.2v1c0,0.1,0.1,0.2,0.2,0.2h3.3C103.8,53.4,103.9,53.3,103.9,53.2z M103.9,55.8
		v-1c0-0.1-0.1-0.1-0.2-0.1h-3.3c-0.1,0-0.2,0-0.2,0.1v1c0,0.1,0.1,0.1,0.2,0.1h3.3C103.8,55.9,103.9,55.9,103.9,55.8z"/>
	<path class="st1" d="M115.8,66c-0.2,0.2-0.4,0.3-0.6,0.3c-0.3,0-0.5-0.1-0.6-0.3c-0.2-0.2-0.3-0.4-0.3-0.6V51.7
		c0-0.3,0.1-0.5,0.3-0.7c0.2-0.2,0.4-0.3,0.7-0.3h4c0.2,0,0.4,0.1,0.5,0.2c0.1,0.1,0.2,0.3,0.2,0.5c0,0.1,0,0.3,0,0.6
		c0,0.1,0,0.1,0.1,0c0.2-0.2,0.4-0.3,0.7-0.3h2.5c0.1,0,0.2-0.1,0.2-0.2v-0.6c0-0.3,0.1-0.5,0.3-0.7c0.2-0.2,0.4-0.3,0.7-0.3
		c0.3,0,0.5,0.1,0.7,0.3c0.2,0.2,0.3,0.4,0.3,0.7v0.6c0,0.1,0,0.2,0.1,0.2h3.2c0.3,0,0.5,0.1,0.7,0.3c0.2,0.2,0.3,0.4,0.3,0.7v1.8
		c0,0.3-0.1,0.5-0.3,0.7s-0.4,0.3-0.7,0.3c-0.1,0-0.1,0-0.3,0c-0.1,0-0.1,0-0.1,0.1c0,0.2-0.1,0.4-0.3,0.5c-0.1,0.1-0.3,0.2-0.5,0.2
		h-5.9c-0.2,0-0.4-0.1-0.5-0.2c-0.1-0.1-0.2-0.3-0.3-0.5c0-0.1,0-0.1-0.1-0.1c-0.1,0-0.2,0-0.3,0c-0.3,0-0.5-0.1-0.6-0.3
		c-0.2-0.2-0.3-0.4-0.3-0.6V53c0,0,0,0-0.1,0c-0.5,1.2-1,2.3-1.5,3.3c-0.1,0.1-0.1,0.2,0,0.3c0.9,1.2,1.4,2.5,1.4,3.8
		c0,0.8-0.2,1.4-0.5,1.8s-0.9,0.6-1.6,0.7c-0.2,0-0.4-0.1-0.6-0.2c-0.2-0.1-0.3-0.3-0.3-0.6c0-0.2,0-0.4,0.1-0.5
		c0.1-0.1,0.3-0.2,0.5-0.3c0.3-0.1,0.4-0.2,0.5-0.4c0.1-0.2,0.2-0.5,0.2-1c0-0.9-0.3-1.7-0.9-2.6c-0.4-0.5-0.5-1.1-0.1-1.7
		c0.6-1.1,1.1-2.2,1.5-3.4c0-0.1,0-0.1-0.1-0.1h-1.9c-0.1,0-0.2,0-0.2,0.1v13.1C116.1,65.6,116,65.8,115.8,66z M129.4,61.5
		c0.2,0,0.4,0.1,0.6,0.3s0.2,0.4,0.2,0.6c0,0.5,0,0.8-0.1,1.1c0,0.3-0.1,0.6-0.1,0.9s-0.1,0.5-0.1,0.6c0,0.1-0.1,0.3-0.3,0.4
		c-0.1,0.1-0.2,0.2-0.3,0.3c-0.1,0-0.3,0.1-0.5,0.1s-0.4,0.1-0.6,0.1c-0.2,0-0.4,0-0.8,0c-0.8,0-1.4,0-1.8-0.1
		c-0.3-0.1-0.6-0.2-0.7-0.4c-0.1-0.2-0.2-0.5-0.2-1v-4.8c0-0.1-0.1-0.2-0.2-0.2H124c-0.1,0-0.2,0-0.2,0.1c-0.1,1.6-0.4,2.8-1,3.8
		s-1.6,1.8-3.1,2.4c-0.2,0.1-0.5,0.1-0.7,0.1s-0.4-0.2-0.6-0.4c-0.1-0.2-0.1-0.4-0.1-0.6s0.2-0.4,0.4-0.5c1.1-0.5,1.9-1.1,2.4-1.8
		c0.5-0.7,0.8-1.7,0.8-2.9c0-0.1,0-0.2-0.1-0.2h-1.3c-0.2,0-0.4-0.1-0.6-0.2c-0.2-0.2-0.2-0.3-0.2-0.6c0-0.2,0.1-0.4,0.2-0.6
		s0.3-0.2,0.6-0.2h8.5c0.2,0,0.4,0.1,0.6,0.2c0.2,0.2,0.2,0.3,0.2,0.6c0,0.2-0.1,0.4-0.2,0.6c-0.2,0.2-0.4,0.2-0.6,0.2h-2.3
		c-0.1,0-0.1,0.1-0.1,0.2v4.1c0,0.3,0,0.5,0.1,0.5c0.1,0,0.3,0.1,0.7,0.1c0.3,0,0.4,0,0.5,0c0.1,0,0.2-0.1,0.3-0.2
		c0.1-0.1,0.1-0.3,0.2-0.6c0-0.3,0-0.7,0-1.2c0-0.2,0.1-0.4,0.3-0.6C128.9,61.6,129.1,61.5,129.4,61.5z M121.6,53.4v1.1
		c0,0.1,0,0.1,0.1,0.1h0.1h5.9h0.1c0.1,0,0.2,0,0.2-0.1v-0.1v-1.1c0-0.1-0.1-0.2-0.2-0.2h-6.1C121.7,53.3,121.6,53.3,121.6,53.4z"/>
	<path class="st1" d="M135.8,58.5c-0.2,0-0.4-0.1-0.6-0.3c-0.2-0.2-0.2-0.4-0.2-0.6c0-0.2,0.1-0.4,0.2-0.6c0.2-0.2,0.4-0.3,0.6-0.3
		h6.8c0,0,0,0,0,0c0,0,0-0.1,0-0.1c-1.1-0.7-2.1-1.3-3-1.8c-0.2-0.1-0.3-0.3-0.4-0.5c0-0.2,0-0.4,0.2-0.6c0.2-0.2,0.4-0.3,0.6-0.4
		c0.2-0.1,0.5,0,0.7,0.1c0.6,0.4,1.4,0.9,2.4,1.5c0.1,0.1,0.2,0.1,0.3,0c1.2-0.8,2.3-1.6,3.3-2.6c0,0,0,0,0-0.1c0,0,0,0-0.1,0h-8.6
		c-0.2,0-0.4-0.1-0.6-0.2c-0.2-0.2-0.2-0.3-0.2-0.6c0-0.2,0.1-0.4,0.2-0.6c0.2-0.2,0.3-0.2,0.6-0.2h10.3c0.2,0,0.4,0.1,0.6,0.2
		c0.2,0.2,0.2,0.3,0.2,0.6c0,0.5-0.2,1-0.6,1.4c-1.2,1.1-2.5,2.2-3.8,3.1c-0.1,0-0.1,0.1,0,0.1c0.1,0.1,0.2,0.2,0.4,0.3
		c0.2,0.1,0.3,0.2,0.4,0.3c0.1,0.1,0.2,0.1,0.3,0.1h4.5c0.2,0,0.4,0.1,0.6,0.3c0.2,0.2,0.2,0.4,0.2,0.6c0,0.6-0.2,1.1-0.5,1.5
		c-0.8,0.9-1.6,1.8-2.7,2.7c-0.2,0.2-0.4,0.2-0.7,0.2c-0.3,0-0.5-0.1-0.6-0.3c-0.2-0.2-0.2-0.4-0.2-0.6s0.1-0.4,0.3-0.6
		c0.6-0.5,1.3-1.2,2-1.9c0,0,0,0,0-0.1c0,0,0-0.1-0.1-0.1h-4.3c-0.1,0-0.2,0.1-0.2,0.2v4.8c0,1.2-0.1,1.9-0.4,2.2
		c-0.3,0.3-1,0.4-2.1,0.4c-0.5,0-1.2,0-2-0.1c-0.2,0-0.4-0.1-0.6-0.3c-0.2-0.2-0.3-0.4-0.3-0.6c0-0.2,0.1-0.4,0.2-0.6
		c0.2-0.2,0.3-0.2,0.6-0.2c0.5,0,1.1,0,1.8,0c0.4,0,0.7,0,0.8-0.1c0.1-0.1,0.1-0.4,0.1-0.8v-4.8c0-0.1,0-0.2-0.1-0.2H135.8z"/>
	<path class="st1" d="M157,65.9c-0.2-0.1-0.4-0.2-0.4-0.5c-0.1-0.2-0.1-0.4,0-0.7c0.9-1.8,1.6-3.8,2.1-5.9c0-0.2,0.2-0.4,0.4-0.6
		s0.4-0.2,0.7-0.1c0.2,0,0.4,0.2,0.6,0.4c0.1,0.2,0.2,0.4,0.1,0.7c0,0.1-0.1,0.3-0.1,0.5c-0.1,0.2-0.1,0.4-0.1,0.5
		c0,0.1,0,0.2,0,0.3c0.8,1.3,1.9,2.3,3.2,2.8c0,0,0.1,0,0.1,0c0,0,0.1,0,0.1-0.1v-6.8c0-0.1-0.1-0.2-0.2-0.2h-3.4
		c-0.2,0-0.4-0.1-0.5-0.2s-0.2-0.3-0.2-0.6s0.1-0.4,0.2-0.6s0.3-0.2,0.5-0.2h8.6c0.2,0,0.4,0.1,0.5,0.2s0.2,0.3,0.2,0.6
		s-0.1,0.4-0.2,0.6s-0.3,0.2-0.5,0.2h-2.9c-0.1,0-0.1,0.1-0.1,0.2v2.3c0,0.1,0,0.2,0.1,0.2h4.3c0.2,0,0.4,0.1,0.6,0.2
		c0.2,0.2,0.2,0.3,0.2,0.6s-0.1,0.4-0.2,0.5c-0.2,0.1-0.3,0.2-0.6,0.2h-4.3c-0.1,0-0.1,0.1-0.1,0.2v3.2c0,0.1,0,0.2,0.1,0.2
		c1.3,0.2,3.1,0.3,5.4,0.3h0.4c0.2,0,0.4,0.1,0.6,0.2c0.2,0.2,0.2,0.4,0.2,0.6c0,0.2-0.1,0.4-0.3,0.6c-0.2,0.2-0.4,0.2-0.6,0.2h-0.4
		c-3.2,0-5.7-0.3-7.4-0.8s-3-1.4-4.1-2.7c0,0,0,0-0.1,0c0,0-0.1,0-0.1,0.1c-0.3,0.9-0.8,1.9-1.3,3c-0.1,0.2-0.3,0.4-0.5,0.5
		C157.4,66,157.2,66,157,65.9z M171.6,55.6c-0.2,0.2-0.4,0.3-0.6,0.3s-0.5-0.1-0.6-0.3c-0.2-0.2-0.3-0.4-0.3-0.6v-1.5
		c0-0.1-0.1-0.2-0.2-0.2h-11.1c-0.1,0-0.2,0.1-0.2,0.2v1.5c0,0.3-0.1,0.5-0.3,0.6c-0.2,0.2-0.4,0.3-0.6,0.3c-0.2,0-0.5-0.1-0.6-0.3
		c-0.2-0.2-0.3-0.4-0.3-0.6v-2.2c0-0.3,0.1-0.5,0.3-0.7c0.2-0.2,0.4-0.3,0.7-0.3h5.4c0.1,0,0.2-0.1,0.2-0.2v-0.6
		c0-0.3,0.1-0.5,0.3-0.7s0.4-0.3,0.7-0.3s0.5,0.1,0.7,0.3s0.3,0.4,0.3,0.7v0.6c0,0.1,0.1,0.2,0.2,0.2h5.4c0.3,0,0.5,0.1,0.7,0.3
		c0.2,0.2,0.3,0.4,0.3,0.7v2.2C171.9,55.2,171.8,55.4,171.6,55.6z"/>
</g>
<path class="st1" d="M180,92.1H85.6c-5,0-9.1-4.1-9.1-9.1v-1.3c0-5,4.1-9.1,9.1-9.1H180c5,0,9.1,4.1,9.1,9.1V83
	C189.1,88,185,92.1,180,92.1z"/>
<g>
	<path class="st3" d="M87.9,86.2c-0.2-0.1-0.3-0.2-0.4-0.3c-0.1-0.2-0.1-0.3-0.1-0.5c0.3-1.1,0.5-2.3,0.6-3.7c0-0.2,0.1-0.3,0.2-0.4
		c0.1-0.1,0.3-0.2,0.5-0.2l0.4,0c0.2,0,0.3,0.1,0.4,0.2c0.1,0.1,0.2,0.3,0.2,0.5c-0.1,1.6-0.3,2.9-0.6,4.1c0,0.2-0.1,0.3-0.3,0.4
		c-0.2,0.1-0.3,0.1-0.5,0L87.9,86.2z M90.7,78.9c-0.2,0-0.3-0.1-0.4-0.3c-0.1-0.1-0.1-0.3-0.1-0.5l0.1-0.2c0.1-0.2,0.2-0.3,0.3-0.4
		s0.3-0.1,0.5-0.1c1.4,0.2,2.8,0.6,4.2,1.1c0.2,0.1,0.3,0.2,0.4,0.3c0.1,0.2,0.1,0.3,0,0.5l-0.1,0.3c-0.1,0.2-0.2,0.3-0.3,0.4
		c-0.2,0.1-0.3,0.1-0.5,0C93.4,79.5,92.1,79.2,90.7,78.9z M91.5,80.1c0.2,0,0.3,0.1,0.4,0.2c0.1,0.1,0.2,0.3,0.2,0.5v4.7
		c0,0.2,0,0.4,0.1,0.4c0,0.1,0.1,0.1,0.3,0.1c0.2,0,0.4,0,0.7,0c0.2,0,0.5,0,0.7,0c0.1,0,0.2,0,0.2,0c0,0,0.1-0.1,0.1-0.1
		s0.1-0.2,0.1-0.3c0-0.1,0-0.3,0.1-0.5c0-0.2,0-0.5,0-0.9c0-0.2,0.1-0.3,0.2-0.4c0.1-0.1,0.3-0.1,0.4-0.1l0.4,0.1
		c0.2,0,0.3,0.1,0.4,0.3c0.1,0.1,0.2,0.3,0.2,0.5c0,0.5,0,0.9-0.1,1.2c0,0.3-0.1,0.6-0.1,0.8c-0.1,0.2-0.1,0.4-0.2,0.5
		c-0.1,0.1-0.1,0.2-0.3,0.3c-0.1,0.1-0.2,0.1-0.4,0.2c-0.1,0-0.3,0.1-0.5,0.1c-0.4,0-0.9,0.1-1.3,0.1c-0.5,0-0.9,0-1.3,0
		c-0.5,0-0.8-0.1-1-0.2c-0.2-0.1-0.3-0.3-0.4-0.5c-0.1-0.2-0.1-0.6-0.1-1.2v-4.9c0-0.2,0.1-0.3,0.2-0.5c0.1-0.1,0.3-0.2,0.4-0.2
		H91.5z M96.7,80.7c0.2,0,0.3,0,0.5,0.1c0.2,0.1,0.3,0.2,0.3,0.4c0.3,1.3,0.6,2.6,0.8,4.1c0,0.2,0,0.3-0.1,0.5
		c-0.1,0.1-0.3,0.2-0.4,0.3l-0.4,0.1c-0.2,0-0.3,0-0.5-0.1c-0.1-0.1-0.2-0.2-0.2-0.4c-0.2-1.5-0.5-2.8-0.8-4c0-0.2,0-0.3,0.1-0.5
		c0.1-0.2,0.2-0.3,0.4-0.3L96.7,80.7z"/>
	<path class="st3" d="M100.2,84.4l-0.1-0.3c-0.1-0.2,0-0.3,0-0.5c0.1-0.2,0.2-0.3,0.4-0.4c0.3-0.1,0.6-0.3,0.9-0.4
		c0.1,0,0.1-0.1,0.1-0.1c0-0.2,0-0.6,0-1.1c0,0,0,0,0,0c-0.1,0.1-0.2,0.1-0.3,0.1c-0.1,0-0.2-0.1-0.2-0.2c-0.1-0.2-0.3-0.6-0.7-1.2
		c-0.1-0.2-0.1-0.3-0.1-0.5s0.1-0.3,0.3-0.4l0.1-0.1c0.1-0.1,0.3-0.1,0.5-0.1c0.2,0,0.3,0.1,0.4,0.3c0,0,0,0,0,0c0,0,0,0,0,0
		c0,0,0,0,0,0c0,0,0,0,0,0v-1.1c0-0.2,0.1-0.3,0.2-0.4c0.1-0.1,0.3-0.2,0.5-0.2h3.1c0.1,0,0.1,0,0.1-0.1c0-0.2,0.1-0.3,0.2-0.4
		c0.1-0.1,0.3-0.2,0.4-0.2h0.6c0.2,0,0.3,0.1,0.4,0.2c0.1,0.1,0.2,0.3,0.2,0.4c0,0.1,0,0.1,0.1,0.1h2.9c0.2,0,0.3,0.1,0.5,0.2
		c0.1,0.1,0.2,0.3,0.2,0.4v0.1c0,0.2-0.1,0.3-0.2,0.5c-0.1,0.1-0.3,0.2-0.5,0.2h-2.4c0,0-0.1,0-0.1,0.1c0,0,0,0.1,0,0.2
		c0,0,0,0.1,0,0.1h2.3c0.2,0,0.3,0.1,0.4,0.2c0.1,0.1,0.2,0.3,0.2,0.4c0,0.2-0.1,0.3-0.2,0.4c-0.1,0.1-0.3,0.2-0.4,0.2h-0.3
		c0,0,0,0,0,0c0,0,0,0,0,0l0.3,0.2c0.2,0.1,0.2,0.2,0.3,0.4c0,0.2,0,0.3-0.1,0.4c0,0-0.1,0.1-0.1,0.1c0,0-0.1,0.1-0.1,0.2
		c0,0.1-0.1,0.1-0.1,0.1c0,0,0,0,0,0.1c0,0,0,0,0,0.1c0.2,0.1,0.3,0.2,0.5,0.3c0.2,0.1,0.3,0.2,0.4,0.4c0.1,0.2,0.1,0.3,0,0.5
		l-0.1,0.2c-0.1,0.2-0.2,0.3-0.3,0.3s-0.3,0.1-0.4,0c0,0,0,0,0,0s0,0,0,0c0,0,0,0-0.1,0c0,0,0,0,0,0.1v0.9c0,0.1,0,0.2-0.1,0.3
		c-0.1,0.1-0.2,0.1-0.3,0.1c0,0,0,0,0,0s0,0,0,0c0.4,0.3,0.7,0.5,1,0.8c0.1,0.1,0.2,0.2,0.2,0.4s-0.1,0.3-0.2,0.4l-0.2,0.1
		c-0.1,0.1-0.3,0.2-0.5,0.2c-0.2,0-0.3-0.1-0.5-0.2c-0.2-0.2-0.6-0.4-0.9-0.7c-0.1-0.1-0.2-0.2-0.2-0.4c0-0.2,0-0.3,0.2-0.4l0.3-0.3
		c0,0,0,0,0,0c0,0,0,0,0,0H108c-0.1,0-0.1,0-0.1,0.1v0.9c0,0.6-0.1,1-0.2,1.1c-0.2,0.1-0.6,0.2-1.2,0.2c0,0-0.3,0-0.7,0
		c-0.2,0-0.3-0.1-0.5-0.2c-0.1-0.1-0.2-0.3-0.2-0.5l0-0.3c0-0.1,0-0.1-0.1,0c-0.3,0.2-0.5,0.4-0.8,0.6c-0.2,0.1-0.3,0.1-0.5,0.1
		c-0.2,0-0.4-0.1-0.5-0.2l-0.2-0.2c-0.1-0.1-0.2-0.2-0.1-0.4c0-0.2,0.1-0.3,0.2-0.4c0.4-0.3,0.8-0.5,1.1-0.9c0,0,0,0,0,0s0,0,0,0
		c-0.1,0-0.2,0-0.3-0.1c-0.1-0.1-0.1-0.2-0.1-0.3v-0.9c0,0,0,0,0-0.1c0,0,0,0-0.1,0c0,0-0.1,0-0.1,0.1c0,0-0.1,0.1-0.1,0.1
		c-0.1,0.1-0.2,0.1-0.4,0.1c-0.1,0-0.1,0-0.1,0.1c-0.1,1.1-0.5,2-1,2.8c-0.1,0.1-0.2,0.2-0.4,0.2c-0.2,0-0.3-0.1-0.4-0.2l-0.3-0.3
		c-0.1-0.1-0.2-0.3-0.2-0.5s0-0.4,0.2-0.5c0.3-0.4,0.5-0.8,0.6-1.2c0,0,0,0,0-0.1c0,0,0,0-0.1,0c-0.1,0.1-0.2,0.1-0.3,0.1
		c-0.2,0.1-0.3,0.1-0.5,0C100.4,84.7,100.3,84.6,100.2,84.4z M103.2,79.2c-0.1,0-0.1,0-0.1,0.1v0.5c0,0,0,0,0,0c0,0,0,0,0,0
		c0.1-0.2,0.3-0.2,0.5-0.2h2.2c0.1,0,0.1,0,0.1-0.1c0-0.1,0.1-0.1,0.1-0.2c0,0,0,0,0-0.1c0,0,0,0-0.1,0H103.2z M103.8,80.8
		C103.8,80.8,103.8,80.8,103.8,80.8C103.8,80.7,103.8,80.7,103.8,80.8l-0.2-0.1c-0.2,0-0.4-0.1-0.5-0.2c0,0,0,0,0,0c0,0,0,0,0,0v1.8
		v0.2c0,0,0,0,0,0.1c0,0,0,0,0.1,0c0.1-0.1,0.3-0.2,0.5-0.3c0,0,0,0,0-0.1c0,0,0-0.1,0-0.1c0,0-0.1-0.1-0.1-0.1
		c-0.1-0.1-0.1-0.1-0.1-0.1c-0.1-0.1-0.2-0.3-0.2-0.4c0-0.2,0.1-0.3,0.2-0.4L103.8,80.8z M104.9,81.2c0.2-0.2,0.3-0.3,0.4-0.4
		c0-0.1,0-0.1,0-0.1h-0.9c0,0,0,0,0,0c0,0,0,0,0,0c0.1,0,0.1,0.1,0.2,0.2c0.1,0.1,0.2,0.2,0.2,0.2C104.8,81.3,104.8,81.3,104.9,81.2
		z M106.2,85.9v-0.5c0-0.1,0-0.1-0.1-0.1H105c0,0,0,0,0,0s0,0,0,0l0.3,0.1c0.1,0.1,0.2,0.2,0.2,0.3c0,0.1,0,0.3-0.1,0.4c0,0,0,0,0,0
		c0,0,0,0,0,0c0.1,0,0.2,0,0.3,0c0.2,0,0.3,0,0.4,0C106.2,86.2,106.2,86.1,106.2,85.9z M108.1,82.8h-2.6c-0.1,0-0.1,0-0.1,0.1V83
		c0,0.1,0,0.1,0.1,0.1h2.6c0.1,0,0.1,0,0.1-0.1v-0.2C108.2,82.8,108.2,82.8,108.1,82.8z M108.2,84.2V84c0-0.1,0-0.1-0.1-0.1h-2.6
		c-0.1,0-0.1,0-0.1,0.1v0.2c0,0.1,0,0.1,0.1,0.1L108.2,84.2C108.2,84.3,108.2,84.2,108.2,84.2z M106.4,81.6
		C106.4,81.7,106.4,81.7,106.4,81.6l0.9,0.1c0,0,0,0,0,0c0,0,0,0,0-0.1c-0.1-0.2-0.3-0.4-0.4-0.5c0,0,0,0-0.1,0c0,0,0,0-0.1,0
		C106.7,81.3,106.5,81.5,106.4,81.6z M108.4,80.7C108.4,80.7,108.4,80.7,108.4,80.7C108.4,80.8,108.4,80.8,108.4,80.7
		c0.1,0.3,0.2,0.5,0.3,0.6c0,0,0.1,0,0.1,0c0.1-0.1,0.2-0.3,0.4-0.5c0-0.1,0-0.1,0-0.1H108.4z"/>
	<path class="st3" d="M113.6,87.5c-0.2,0-0.3-0.1-0.5-0.2c-0.1-0.1-0.2-0.3-0.2-0.5V79c0-0.2,0.1-0.3,0.2-0.5
		c0.1-0.1,0.3-0.2,0.5-0.2h3.2c0.1,0,0.1,0,0.1-0.1v-0.4c0-0.2,0.1-0.3,0.2-0.4c0.1-0.1,0.3-0.2,0.5-0.2h0.5c0.2,0,0.3,0.1,0.5,0.2
		c0.1,0.1,0.2,0.3,0.2,0.4v0.4c0,0.1,0,0.1,0.1,0.1h3.3c0.2,0,0.3,0.1,0.4,0.2c0.1,0.1,0.2,0.3,0.2,0.5v6.4c0,0.3,0,0.6,0,0.8
		c0,0.2,0,0.4-0.1,0.6c-0.1,0.2-0.1,0.3-0.2,0.4c-0.1,0.1-0.2,0.1-0.4,0.2c-0.2,0.1-0.3,0.1-0.5,0.1c-0.2,0-0.4,0-0.8,0
		c-0.2,0-0.6,0-1.3,0c-0.2,0-0.3-0.1-0.5-0.2c-0.1-0.1-0.2-0.3-0.2-0.5l0-0.2c0-0.2,0-0.3,0.2-0.4c0.1-0.1,0.3-0.2,0.4-0.2
		c0.3,0,0.6,0,1,0c0.2,0,0.4,0,0.4-0.1c0,0,0.1-0.2,0.1-0.4v-1.6c0,0,0,0,0,0c0,0,0,0,0,0c0,0-0.1,0.1-0.2,0.1l-0.4,0.2
		c-0.2,0.1-0.3,0.1-0.5,0.1c-0.2,0-0.3-0.1-0.4-0.3c-0.5-0.7-1-1.3-1.5-1.8c0,0,0,0-0.1,0c0,0,0,0-0.1,0c-0.5,0.7-1.2,1.4-2,1.9
		c-0.2,0.1-0.3,0.1-0.5,0.1c-0.2,0-0.3-0.1-0.4-0.3l-0.1-0.1c0,0,0,0,0,0c0,0,0,0,0,0v2.9c0,0.2-0.1,0.3-0.2,0.5
		c-0.1,0.1-0.3,0.2-0.5,0.2H113.6z M114.9,79.8c-0.1,0-0.1,0-0.1,0.1v2.8c0,0.1,0,0.1,0.1,0c0.6-0.3,1.1-0.7,1.4-1.2
		c0.3-0.5,0.5-1,0.6-1.7c0-0.1,0-0.1-0.1-0.1H114.9z M121,79.9c0-0.1,0-0.1-0.1-0.1h-2.1c-0.1,0-0.1,0-0.1,0.1
		c0,0.3-0.1,0.5-0.1,0.6c0,0.1,0,0.1,0.1,0.2c0.8,0.7,1.5,1.5,2.2,2.4c0,0,0,0,0,0c0,0,0,0,0,0V79.9z"/>
	<path class="st3" d="M125.4,85.7l-0.2-0.4c-0.2-0.4-0.2-0.7,0.1-1.1c0.6-0.8,1-1.6,1.2-2.4c0-0.1,0-0.1-0.1-0.1h-0.5
		c-0.2,0-0.3-0.1-0.5-0.2c-0.1-0.1-0.2-0.3-0.2-0.4v-0.2c0-0.2,0.1-0.3,0.2-0.5c0.1-0.1,0.3-0.2,0.5-0.2h0.6c0.1,0,0.1,0,0.1-0.1
		v-0.9c0-0.1,0-0.1-0.1-0.1c0,0-0.1,0-0.2,0c-0.1,0-0.2,0-0.2,0c-0.2,0-0.3,0-0.5-0.2c-0.1-0.1-0.2-0.3-0.2-0.4l0-0.1
		c0-0.2,0-0.3,0.1-0.5c0.1-0.1,0.3-0.2,0.4-0.2c0.9-0.1,1.9-0.2,2.7-0.4c0.2,0,0.4,0,0.5,0.1c0.2,0.1,0.3,0.2,0.3,0.4l0,0.1
		c0.1,0.2,0,0.3,0,0.5c-0.1,0.2-0.2,0.3-0.4,0.3c-0.3,0.1-0.5,0.1-0.8,0.2c-0.1,0-0.1,0.1-0.1,0.1v1.1c0,0.1,0,0.1,0.1,0.1h0.5
		c0.2,0,0.3,0.1,0.5,0.2c0.1,0.1,0.2,0.3,0.2,0.5V81c0,0.2-0.1,0.3-0.2,0.4c-0.1,0.1-0.3,0.2-0.5,0.2h-0.1c0,0,0,0-0.1,0
		c0,0,0,0,0,0.1c0.1,0.2,0.3,0.5,0.5,0.8c0.2,0.3,0.3,0.6,0.4,0.7c0.1,0.2,0.1,0.3,0.1,0.5c0,0.2-0.1,0.3-0.3,0.4
		c-0.1,0.1-0.3,0.1-0.5,0.1c-0.2,0-0.3-0.2-0.4-0.3c0-0.1-0.1-0.1-0.1-0.2c0-0.1-0.1-0.2-0.1-0.2c0,0,0,0,0,0c0,0,0,0,0,0V87
		c0,0.2-0.1,0.3-0.2,0.5c-0.1,0.1-0.3,0.2-0.4,0.2h-0.3c-0.2,0-0.3-0.1-0.5-0.2c-0.1-0.1-0.2-0.3-0.2-0.5v-2.4c0,0,0,0,0,0s0,0,0,0
		c-0.1,0.4-0.3,0.7-0.5,1.1c-0.1,0.1-0.2,0.2-0.3,0.2C125.6,85.9,125.5,85.8,125.4,85.7z M135.2,83.6c0.2,0,0.3,0,0.5,0.1
		c0.1,0.1,0.2,0.2,0.2,0.4l0,0.2c0,0.2,0,0.3-0.1,0.5c-0.1,0.1-0.3,0.2-0.4,0.3l-0.3,0c-0.1,0-0.1,0.1-0.1,0.1V87
		c0,0.2-0.1,0.3-0.2,0.5c-0.1,0.1-0.3,0.2-0.5,0.2h-0.5c-0.2,0-0.3-0.1-0.5-0.2c-0.1-0.1-0.2-0.3-0.2-0.5v-1.4c0,0,0,0,0-0.1
		c0,0,0,0-0.1,0l-3.3,0.6c-0.2,0-0.3,0-0.5-0.1c-0.1-0.1-0.2-0.2-0.2-0.4l0-0.2c0-0.2,0-0.3,0.1-0.5c0.1-0.1,0.3-0.2,0.4-0.3
		l3.5-0.6c0.1,0,0.1-0.1,0.1-0.1V80c0,0,0,0,0,0c0,0,0,0,0,0l-0.5,0.5c-0.1,0.1-0.3,0.2-0.5,0.2c-0.2,0-0.3-0.1-0.4-0.2
		c-0.2-0.2-0.6-0.6-1.1-1.1c-0.1-0.1-0.2-0.3-0.2-0.4c0-0.2,0.1-0.3,0.2-0.4l0.2-0.2c0.1-0.1,0.3-0.2,0.5-0.2c0.2,0,0.3,0.1,0.5,0.2
		c0.5,0.5,0.9,0.9,1.3,1.3c0,0,0,0,0,0c0,0,0,0,0,0V78c0-0.2,0.1-0.3,0.2-0.5c0.1-0.1,0.3-0.2,0.5-0.2h0.5c0.2,0,0.3,0.1,0.5,0.2
		c0.1,0.1,0.2,0.3,0.2,0.5v5.6c0,0.1,0,0.1,0.1,0.1L135.2,83.6z M131.1,83.4c-0.5-0.6-1-1-1.4-1.4c-0.1-0.1-0.2-0.3-0.2-0.4
		c0-0.2,0.1-0.3,0.2-0.4L130,81c0.1-0.1,0.3-0.2,0.5-0.2c0.2,0,0.3,0.1,0.5,0.2c0.5,0.4,0.9,0.9,1.4,1.4c0.1,0.1,0.2,0.3,0.2,0.5
		c0,0.2-0.1,0.3-0.2,0.5l-0.2,0.2c-0.1,0.1-0.3,0.2-0.5,0.2C131.4,83.6,131.2,83.6,131.1,83.4z"/>
	<path class="st3" d="M138,83.6c-0.2,0-0.3-0.1-0.4-0.2c-0.1-0.1-0.2-0.3-0.2-0.4v-1c0-0.2,0.1-0.3,0.2-0.4c0.1-0.1,0.3-0.2,0.4-0.2
		h0.9c0.2,0,0.3,0.1,0.4,0.2c0.1,0.1,0.2,0.3,0.2,0.4v1c0,0.2-0.1,0.3-0.2,0.4c-0.1,0.1-0.3,0.2-0.4,0.2H138z"/>
	<path class="st3" d="M142.1,86l-0.2-0.6c-0.1-0.4-0.1-0.8,0.2-1.1c0.4-0.6,0.7-1.2,1-1.8c0-0.1,0-0.1-0.1-0.1h-0.4
		c-0.2,0-0.3-0.1-0.4-0.2c-0.1-0.1-0.2-0.3-0.2-0.5v-0.1c0-0.2,0.1-0.3,0.2-0.5c0.1-0.1,0.3-0.2,0.4-0.2h0.7c0.1,0,0.1,0,0.1-0.1
		v-0.3c0-0.1,0-0.1-0.1-0.1l-0.2,0.1c-0.2,0.1-0.3,0.1-0.5,0c-0.2-0.1-0.3-0.2-0.3-0.4c-0.2-0.7-0.3-1.1-0.4-1.4c0-0.2,0-0.3,0-0.5
		c0.1-0.2,0.2-0.3,0.4-0.3c0.2-0.1,0.3,0,0.5,0c0.1,0.1,0.2,0.2,0.3,0.3c0.1,0.2,0.2,0.6,0.3,1.1c0,0,0,0,0,0V78
		c0-0.2,0.1-0.3,0.2-0.5c0.1-0.1,0.3-0.2,0.5-0.2h0.2c0.2,0,0.3,0.1,0.4,0.2c0.1,0.1,0.2,0.3,0.2,0.5v1.4c0,0,0,0,0,0c0,0,0,0,0,0
		c0.1-0.3,0.2-0.7,0.3-1.1c0-0.2,0.1-0.3,0.3-0.4c0.1-0.1,0.3-0.1,0.5-0.1c0.1,0,0.2,0.1,0.2,0.1c0,0,0.1,0,0.1,0
		c0.1,0,0.2-0.1,0.3-0.1h1.6c0.1,0,0.1,0,0.1-0.1c0-0.2,0.1-0.3,0.2-0.4c0.1-0.1,0.2-0.2,0.4-0.2h0.7c0.2,0,0.3,0.1,0.4,0.2
		c0.1,0.1,0.2,0.2,0.2,0.4c0,0.1,0,0.1,0.1,0.1h1.7c0.2,0,0.3,0.1,0.4,0.2s0.2,0.3,0.2,0.4c0,0.2-0.1,0.3-0.2,0.4
		c-0.1,0.1-0.3,0.2-0.4,0.2h-1.6c-0.1,0-0.1,0-0.1,0.1v0.1c0,0.1,0,0.1,0.1,0.1h1.5c0.2,0,0.3,0.1,0.4,0.2c0.1,0.1,0.2,0.2,0.2,0.4
		s-0.1,0.3-0.2,0.4c-0.1,0.1-0.2,0.2-0.4,0.2h-1.5c-0.1,0-0.1,0-0.1,0.1v0.1c0,0.1,0,0.1,0.1,0.1h1.8c0.2,0,0.3,0.1,0.4,0.2
		c0.1,0.1,0.2,0.3,0.2,0.4c0,0.2-0.1,0.3-0.2,0.4c-0.1,0.1-0.3,0.2-0.4,0.2h-5.5c-0.2,0-0.3-0.1-0.4-0.2c0,0-0.1,0-0.1,0
		c0,0.2-0.1,0.3-0.2,0.4c-0.1,0.1-0.3,0.2-0.4,0.2c-0.1,0-0.1,0-0.1,0.1c0.2,0.3,0.4,0.8,0.8,1.5c0,0,0,0,0,0v-1.1
		c0-0.2,0.1-0.3,0.2-0.4c0.1-0.1,0.3-0.2,0.4-0.2h4.9c0.2,0,0.3,0.1,0.5,0.2c0.1,0.1,0.2,0.3,0.2,0.4v2.9c0,0.3,0,0.5,0,0.7
		c0,0.2,0,0.3-0.1,0.5c0,0.2-0.1,0.3-0.2,0.3c-0.1,0.1-0.2,0.1-0.3,0.2c-0.2,0-0.3,0.1-0.5,0.1c-0.2,0-0.4,0-0.7,0c0,0-0.2,0-0.6,0
		c-0.2,0-0.3-0.1-0.5-0.2c-0.1-0.1-0.2-0.3-0.2-0.5v0c0-0.2,0.1-0.3,0.2-0.4c0.1-0.1,0.3-0.2,0.4-0.2c0.2,0,0.4,0,0.4,0
		c0.1,0,0.2,0,0.3,0c0,0,0-0.1,0-0.2c0-0.1,0-0.1-0.1-0.1h-2.4c-0.1,0-0.1,0-0.1,0.1V87c0,0.2-0.1,0.3-0.2,0.4
		c-0.1,0.1-0.3,0.2-0.5,0.2h-0.5c-0.2,0-0.3-0.1-0.4-0.2c-0.1-0.1-0.2-0.3-0.2-0.4v-2.1c0,0,0,0,0,0c0,0,0,0,0,0
		c0,0.1-0.1,0.2-0.2,0.2l0,0c-0.1,0.1-0.2,0.1-0.4,0.1c-0.2,0-0.3-0.1-0.3-0.3c0-0.1-0.1-0.2-0.2-0.5c0,0,0,0,0,0V87
		c0,0.2-0.1,0.3-0.2,0.5c-0.1,0.1-0.3,0.2-0.5,0.2H144c-0.2,0-0.3-0.1-0.5-0.2c-0.1-0.1-0.2-0.3-0.2-0.5v-2.1c0,0,0,0,0,0
		c-0.2,0.5-0.4,0.9-0.6,1.2c-0.1,0.1-0.2,0.2-0.3,0.1C142.3,86.2,142.2,86.2,142.1,86z M144.9,80.6v0.4c0,0.1,0,0.1,0.1,0.1h0.4
		c0.2,0,0.4,0.1,0.5,0.2c0,0,0,0,0,0s0,0,0,0c0-0.1,0.1-0.2,0.2-0.3c0.1-0.1,0.2-0.1,0.4-0.1h1.7c0.1,0,0.1,0,0.1-0.1v-0.1
		c0-0.1,0-0.1-0.1-0.1h-1.4c-0.1,0-0.3-0.1-0.4-0.2c-0.1-0.1-0.2-0.2-0.2-0.4s0.1-0.3,0.2-0.4c0.1-0.1,0.2-0.2,0.4-0.2h1.4
		c0.1,0,0.1,0,0.1-0.1v-0.1c0-0.1,0-0.1-0.1-0.1h-1.6c-0.1,0-0.1,0-0.2,0c-0.1,0-0.1,0-0.1,0.1c-0.1,0.3-0.2,0.6-0.3,1.1
		c-0.1,0.2-0.2,0.3-0.3,0.4c-0.2,0.1-0.3,0.1-0.5,0H144.9C144.9,80.5,144.9,80.5,144.9,80.6z M147.8,83.5v0.2c0,0.1,0,0.1,0.1,0.1
		h2.4c0.1,0,0.1,0,0.1-0.1v-0.2c0-0.1,0-0.1-0.1-0.1L147.8,83.5C147.9,83.4,147.8,83.4,147.8,83.5z M147.8,84.8v0.2
		c0,0.1,0,0.1,0.1,0.1h2.4c0.1,0,0.1,0,0.1-0.1v-0.2c0-0.1,0-0.1-0.1-0.1L147.8,84.8C147.9,84.7,147.8,84.7,147.8,84.8z"/>
	<path class="st3" d="M154.5,84.6l-0.1-0.6c-0.1-0.4,0.1-0.7,0.4-1c0.8-0.7,1.4-1.5,1.8-2.4c0-0.1,0-0.1-0.1-0.1h-1.3
		c-0.2,0-0.3-0.1-0.5-0.2c-0.1-0.1-0.2-0.3-0.2-0.5v-0.3c0-0.2,0.1-0.3,0.2-0.4c0.1-0.1,0.3-0.2,0.5-0.2h0.3c0.1,0,0.1,0,0.1-0.1V78
		c0-0.2,0.1-0.3,0.2-0.5c0.1-0.1,0.3-0.2,0.4-0.2h0.4c0.2,0,0.3,0.1,0.5,0.2c0.1,0.1,0.2,0.3,0.2,0.5v0.9c0,0.1,0,0.1,0.1,0.1h0.2
		c0.2,0,0.3,0.1,0.5,0.2c0.1,0.1,0.2,0.3,0.2,0.4v0.3c0,0.5-0.1,0.9-0.2,1.3c-0.1,0.3-0.3,0.6-0.4,0.8c0,0.1,0,0.1,0,0.2
		c0.3,0.3,0.6,0.7,0.9,1.1c0,0,0,0,0,0c0,0,0,0,0,0v-4c0-0.2,0.1-0.3,0.2-0.5c0.1-0.1,0.3-0.2,0.5-0.2h1.6c0.1,0,0.1,0,0.1-0.1V78
		c0-0.2,0.1-0.3,0.2-0.5c0.1-0.1,0.3-0.2,0.5-0.2h0.5c0.2,0,0.3,0.1,0.5,0.2c0.1,0.1,0.2,0.3,0.2,0.5v0.5c0,0.1,0,0.1,0.1,0.1h1.7
		c0.2,0,0.3,0.1,0.4,0.2c0.1,0.1,0.2,0.3,0.2,0.5v5.9c0,0.2-0.1,0.3-0.2,0.5c-0.1,0.1-0.3,0.2-0.4,0.2H164c-0.1,0-0.3-0.1-0.4-0.2
		c-0.1-0.1-0.2-0.2-0.2-0.4c0-0.1,0-0.1-0.1-0.1h-0.6c-0.1,0-0.1,0-0.1,0.1V87c0,0.2-0.1,0.3-0.2,0.5c-0.1,0.1-0.3,0.2-0.5,0.2h-0.5
		c-0.2,0-0.3-0.1-0.5-0.2c-0.1-0.1-0.2-0.3-0.2-0.5v-1.8c0-0.1,0-0.1-0.1-0.1h-0.6c-0.1,0-0.1,0-0.1,0.1c0,0.1-0.1,0.3-0.2,0.4
		c-0.1,0.1-0.2,0.2-0.4,0.2h-0.5c-0.2,0-0.3-0.1-0.5-0.2c-0.1-0.1-0.2-0.3-0.2-0.5v-0.6c0,0,0,0,0,0c0,0,0,0,0,0l-0.1,0
		c-0.1,0.1-0.3,0.2-0.4,0.1c-0.2,0-0.3-0.1-0.4-0.2c0,0-0.1-0.1-0.1-0.2c-0.1-0.1-0.1-0.2-0.2-0.2c0,0,0,0,0,0c0,0,0,0,0,0v3
		c0,0.2-0.1,0.3-0.2,0.5c-0.1,0.1-0.3,0.2-0.5,0.2h-0.4c-0.2,0-0.3-0.1-0.4-0.2c-0.1-0.1-0.2-0.3-0.2-0.5v-2.4c0,0,0,0,0,0
		c0,0,0,0-0.1,0c-0.2,0.1-0.3,0.2-0.3,0.3c-0.1,0.1-0.3,0.1-0.4,0.1C154.6,84.8,154.5,84.7,154.5,84.6z M160.2,80.1V81
		c0,0.1,0,0.1,0.1,0.1h0.6c0.1,0,0.1,0,0.1-0.1v-0.9c0-0.1,0-0.1-0.1-0.1h-0.6C160.3,80,160.2,80,160.2,80.1z M160.2,82.6v1
		c0,0.1,0,0.1,0.1,0.1h0.6c0.1,0,0.1,0,0.1-0.1v-1c0-0.1,0-0.1-0.1-0.1h-0.6C160.3,82.5,160.2,82.6,160.2,82.6z M162.8,80.1V81
		c0,0.1,0,0.1,0.1,0.1h0.5c0.1,0,0.1,0,0.1-0.1v-0.9c0-0.1,0-0.1-0.1-0.1h-0.5C162.8,80,162.8,80,162.8,80.1z M162.8,82.6v1
		c0,0.1,0,0.1,0.1,0.1h0.5c0.1,0,0.1,0,0.1-0.1v-1c0-0.1,0-0.1-0.1-0.1h-0.5C162.8,82.5,162.8,82.6,162.8,82.6z"/>
	<path class="st3" d="M167.7,85.7l-0.2-0.4c-0.2-0.4-0.2-0.7,0.1-1.1c0.6-0.8,1-1.6,1.2-2.4c0-0.1,0-0.1-0.1-0.1h-0.5
		c-0.2,0-0.3-0.1-0.5-0.2c-0.1-0.1-0.2-0.3-0.2-0.4v-0.2c0-0.2,0.1-0.3,0.2-0.5c0.1-0.1,0.3-0.2,0.5-0.2h0.6c0.1,0,0.1,0,0.1-0.1
		v-0.9c0-0.1,0-0.1-0.1-0.1c0,0-0.1,0-0.2,0c-0.1,0-0.2,0-0.2,0c-0.2,0-0.3,0-0.5-0.2c-0.1-0.1-0.2-0.3-0.2-0.4l0-0.1
		c0-0.2,0-0.3,0.1-0.5c0.1-0.1,0.3-0.2,0.4-0.2c0.9-0.1,1.9-0.2,2.7-0.4c0.2,0,0.4,0,0.5,0.1c0.2,0.1,0.3,0.2,0.3,0.4l0,0.1
		c0.1,0.2,0,0.3,0,0.5c-0.1,0.2-0.2,0.3-0.4,0.3c-0.3,0.1-0.5,0.1-0.8,0.2c-0.1,0-0.1,0.1-0.1,0.1v1.1c0,0.1,0,0.1,0.1,0.1h0.5
		c0.2,0,0.3,0.1,0.5,0.2c0.1,0.1,0.2,0.3,0.2,0.5V81c0,0.2-0.1,0.3-0.2,0.4c-0.1,0.1-0.3,0.2-0.5,0.2H171c0,0,0,0-0.1,0
		c0,0,0,0,0,0.1c0.1,0.2,0.3,0.5,0.5,0.8c0.2,0.3,0.3,0.6,0.4,0.7c0.1,0.2,0.1,0.3,0.1,0.5c0,0.2-0.1,0.3-0.3,0.4
		c-0.1,0.1-0.3,0.1-0.5,0.1c-0.2,0-0.3-0.2-0.4-0.3c0-0.1-0.1-0.1-0.1-0.2c0-0.1-0.1-0.2-0.1-0.2c0,0,0,0,0,0s0,0,0,0V87
		c0,0.2-0.1,0.3-0.2,0.5c-0.1,0.1-0.3,0.2-0.4,0.2h-0.3c-0.2,0-0.3-0.1-0.5-0.2c-0.1-0.1-0.2-0.3-0.2-0.5v-2.4c0,0,0,0,0,0s0,0,0,0
		c-0.1,0.4-0.3,0.7-0.5,1.1c-0.1,0.1-0.2,0.2-0.3,0.2C167.9,85.9,167.8,85.8,167.7,85.7z M177.5,83.6c0.2,0,0.3,0,0.5,0.1
		c0.1,0.1,0.2,0.2,0.2,0.4l0,0.2c0,0.2,0,0.3-0.1,0.5c-0.1,0.1-0.3,0.2-0.4,0.3l-0.3,0c-0.1,0-0.1,0.1-0.1,0.1V87
		c0,0.2-0.1,0.3-0.2,0.5c-0.1,0.1-0.3,0.2-0.5,0.2h-0.5c-0.2,0-0.3-0.1-0.5-0.2c-0.1-0.1-0.2-0.3-0.2-0.5v-1.4c0,0,0,0,0-0.1
		c0,0,0,0-0.1,0l-3.3,0.6c-0.2,0-0.3,0-0.5-0.1c-0.1-0.1-0.2-0.2-0.2-0.4l0-0.2c0-0.2,0-0.3,0.1-0.5c0.1-0.1,0.3-0.2,0.4-0.3
		l3.5-0.6c0.1,0,0.1-0.1,0.1-0.1V80c0,0,0,0,0,0c0,0,0,0,0,0l-0.5,0.5c-0.1,0.1-0.3,0.2-0.5,0.2c-0.2,0-0.3-0.1-0.4-0.2
		c-0.2-0.2-0.6-0.6-1.1-1.1c-0.1-0.1-0.2-0.3-0.2-0.4c0-0.2,0.1-0.3,0.2-0.4l0.2-0.2c0.1-0.1,0.3-0.2,0.5-0.2s0.3,0.1,0.5,0.2
		c0.5,0.5,0.9,0.9,1.3,1.3c0,0,0,0,0,0c0,0,0,0,0,0V78c0-0.2,0.1-0.3,0.2-0.5c0.1-0.1,0.3-0.2,0.5-0.2h0.5c0.2,0,0.3,0.1,0.5,0.2
		c0.1,0.1,0.2,0.3,0.2,0.5v5.6c0,0.1,0,0.1,0.1,0.1L177.5,83.6z M173.4,83.4c-0.5-0.6-1-1-1.4-1.4c-0.1-0.1-0.2-0.3-0.2-0.4
		c0-0.2,0.1-0.3,0.2-0.4l0.2-0.2c0.1-0.1,0.3-0.2,0.5-0.2c0.2,0,0.3,0.1,0.5,0.2c0.5,0.4,0.9,0.9,1.4,1.4c0.1,0.1,0.2,0.3,0.2,0.5
		c0,0.2-0.1,0.3-0.2,0.5l-0.2,0.2c-0.1,0.1-0.3,0.2-0.5,0.2C173.7,83.6,173.5,83.6,173.4,83.4z"/>
</g>
<g>
	<path class="st2" d="M71.7,123.9c0-0.6,0-0.9,0-1.8c-2.4,3.5-5.5,6.3-10,8.7c-0.8-1.6-1.4-2.3-2.8-3.6c4.8-2.3,7.8-4.8,10.1-8.2H64
		c-1.7,0-2.6,0-3.6,0.1V115c1.2,0.1,2.2,0.2,3.7,0.2h7.5l0-1.2c0-1,0-1.8-0.1-2.7h4.5c-0.1,0.8-0.1,1.2-0.1,2.3c0,0,0,0.2,0,0.4v1.2
		h1.5c1.7,0,2.5,0,3.4-0.2v4.1c-0.9-0.1-1.7-0.1-3.4-0.1h-1.5l0.1,10.3c0,1.2,0.1,2.5,0.2,3.3h-4.6c0.1-0.9,0.2-1.8,0.2-2.9
		c0-0.1,0-0.2,0-0.3l0-4.6V123.9z"/>
	<path class="st2" d="M85,119.6c1.1,0.2,2.4,0.2,4.9,0.2h11.5c2.4,0,3.3,0,4.9-0.2v4.6c-1.2-0.1-2.2-0.1-4.9-0.1H89.9
		c-2.7,0-3.5,0-4.9,0.1V119.6z"/>
	<path class="st2" d="M129.1,116L129.1,116c0,0.2-0.1,0.3-0.1,0.3l-0.1,0.6c-2,7.7-6.1,12.6-13.8,16c-0.8-1.6-1.5-2.5-3-4
		c6.4-2,10.7-6.2,12.1-11.8h-10c-2.5,0-3.1,0-4,0.1v-4.3c0.9,0.1,1.6,0.2,4,0.2h12.2c0.1-1.5,1.2-2.6,2.7-2.6c1.5,0,2.7,1.2,2.7,2.7
		C131.8,114.7,130.6,115.8,129.1,116L129.1,116z M127.7,113.1c0,0.7,0.6,1.3,1.4,1.3s1.4-0.6,1.4-1.3c0-0.7-0.6-1.4-1.4-1.4
		S127.7,112.4,127.7,113.1z"/>
	<path class="st2" d="M134.5,125.6c1.4,0.2,1.8,0.2,4,0.2h12.4c2.4,0,3.1,0,4.2-0.2v4.5c-1.1-0.1-1.7-0.1-4.2-0.1h-12.6
		c-2.1,0-3,0-3.9,0.1V125.6z M136.9,113.7c1.1,0.1,1.8,0.2,3.7,0.2h8.1c2.1,0,3,0,4-0.2v4.4c-1.4-0.1-2-0.1-3.9-0.1h-8.2
		c-1.8,0-2.9,0-3.7,0.1V113.7z"/>
	<path class="st2" d="M162.7,112.4c3,1.8,4.6,2.9,6.6,4.7l-2.8,3.7c-2.1-2.2-4.1-3.8-6.5-5.1L162.7,112.4z M160.2,127.4
		c2.4-0.2,5-0.8,7.2-1.7c3-1.2,5.2-3,7-5.9c1-1.5,1.7-2.9,2.4-4.7c1.2,1.4,1.7,1.9,3.5,3.2c-2.2,4.7-4.5,7.6-7.8,9.7
		c-2.6,1.7-4.9,2.6-9.3,3.6c-0.9,0.2-1.1,0.2-1.7,0.4L160.2,127.4z"/>
	<path class="st2" d="M203.9,116.6c-0.2,0.3-0.4,0.8-0.6,1.6c-2.3,7.2-6.3,11.7-13.5,14.9c-0.7-1.4-1.7-2.7-2.9-3.7
		c6.3-2.3,10.2-6.1,12-11.7l-6.4,0.1c-1.5,2.4-3.4,4.5-5.4,6c-1.2-1.3-1.9-2-3.4-2.9c2.8-1.9,4.9-4.3,6.4-7.3c0.6-1.2,1-2.2,1-2.9
		l4.5,0.8c-0.1,0.2-0.1,0.3-0.3,0.6c0,0.1-0.1,0.2-0.2,0.4c-0.1,0.2-0.2,0.4-0.2,0.5c-0.2,0.4-0.3,0.6-0.3,0.6
		c0,0.1-0.1,0.2-0.2,0.4l5.4,0h0.5c-0.4-0.8-0.8-1.5-1.4-2.3l2.4-0.8c0.8,1.1,1.5,2.3,2,3.7l-0.7,0.3L203.9,116.6z M204.8,110
		c0.8,1.1,1.3,2.1,2,3.6l-2.3,0.8c-0.7-1.6-1.2-2.6-2-3.7L204.8,110z"/>
	<path class="st2" d="M77.4,172.5c-2.1-2.6-4.2-4.7-6.9-6.8c-2.3,2.7-5.1,4.8-8.8,6.6c-0.8-1.7-1.3-2.4-2.7-3.8
		c3.1-1.2,5.6-2.8,7.8-4.8c2.2-2.1,3.7-4.3,4.8-7.1l-6.2,0.1c-2.1,0-2.8,0.1-3.8,0.2l-0.1-4.3c0.9,0.1,1.6,0.2,2.5,0.2
		c0.2,0,0.6,0,1.3,0l8.2-0.1c1.1,0,1.3,0,1.9-0.3l2.1,2.2c-0.4,0.4-0.5,0.6-0.9,1.4c-1.3,3-2.2,4.7-3.5,6.5c2.9,2.1,3.9,2.9,7.6,6.5
		L77.4,172.5z"/>
	<path class="st2" d="M94.9,151.5c0,0-0.4,0.7-1,2.1l6.5-0.1c0.7,0,1-0.1,1.5-0.3l2.1,2.1c-0.3,0.3-0.4,0.5-0.6,1
		c-1.4,4.3-2.7,6.9-4.5,9.3c-1.5,2.1-3.5,3.9-5.8,5.4c-1.3,0.8-2.3,1.4-4.1,2.2c-0.9-1.6-1.5-2.3-2.8-3.6c3.6-1.3,6-2.7,8.1-4.9
		c-1.5-1.2-2.7-2-4.5-3l2.5-3c2.1,1.2,2.9,1.6,4.4,2.7c1-1.5,1.6-2.8,2.1-4.4l-6.6,0c-1.4,2.4-3,4.4-5.5,6.5
		c-1.2-1.2-1.9-1.8-3.5-2.7c2.8-2.2,4.6-4.2,6-6.9c0.7-1.2,1.1-2.3,1.4-3.4L94.9,151.5z"/>
	<path class="st2" d="M112.2,156.6c0.9,1.8,1.7,3.7,2.3,6.1l-3.7,1.1c-0.6-2.5-1.1-4-2.1-6.2L112.2,156.6z M126.2,157
		c-0.1,0.4-0.2,0.5-0.4,1.5c-0.7,3.4-1.7,5.8-3,7.8c-1.3,1.9-3,3.6-5,4.9c-0.8,0.5-1.5,0.9-2.9,1.6c-0.8-1.5-1.3-2.1-2.6-3.4
		c4.8-1.9,7.4-4.3,8.9-8.3c0.6-1.7,1-3.6,1.1-5.1L126.2,157z M117.5,155.6c1.3,2.5,1.7,3.6,2.3,5.9l-3.7,1.1c-0.5-2-1.1-3.8-2.2-6
		L117.5,155.6z"/>
	<path class="st2" d="M150.8,154.7c-0.3,0.4-0.3,0.5-0.5,1.3c-1.1,4.5-2.5,7.5-4.8,10.2c-2.2,2.7-4.9,4.6-9.1,6.5
		c-0.9-1.8-1.4-2.5-3-4c3.5-1.1,6-2.6,8.1-4.7c2-2,3.2-4.2,4-7.1h-10c-2.3,0-2.8,0-4,0.1v-4.3c1,0.2,1.8,0.2,4.1,0.2h11.4
		c0.8,0,1.2-0.1,1.8-0.3L150.8,154.7z"/>
	<path class="st2" d="M159.4,168.3c-1,0.6-1.8,1-3.1,1.5c-0.5-1.2-0.9-1.9-1.8-2.9c1.7-0.4,3.3-1.1,4.7-1.9h-1.5
		c-1.3,0-1.9,0-2.8,0.1v-2.9c0.9,0.1,1.6,0.1,2.9,0.1h4.3c0.2-0.2,0.2-0.3,0.4-0.6h-3.3c-0.8,0-1.4,0-1.9,0c0-0.5,0.1-1,0.1-1.7
		v-3.2c0-0.7,0-1.2-0.1-1.7c0.4,0,0.9,0,1.9,0h0.9v-0.7h-2.4c-1.3,0-1.9,0-2.8,0.1v-3c0.9,0.1,1.8,0.1,3,0.1h2.3
		c0-0.6,0-0.9-0.1-1.2h3.7c-0.1,0.3-0.1,0.6-0.1,1.2h4.4c0-0.6,0-0.9-0.1-1.2h3.7c-0.1,0.3-0.1,0.6-0.1,1.2h2.4c1.2,0,2,0,3-0.1v3
		c-0.9-0.1-1.6-0.1-2.8-0.1h-2.6v0.7h1c1,0,1.5,0,1.9,0c0,0.5-0.1,0.9-0.1,1.7v3.2c0,0.8,0,1.2,0.1,1.7c-0.5,0-1.1,0-1.9,0h-6.3
		c-0.2,0.3-0.2,0.3-0.4,0.6h8.2c1.4,0,2.1,0,3-0.1v2.9c-0.8-0.1-1.6-0.1-2.9-0.1h-1.6c1.2,0.8,2.8,1.4,5,1.7
		c-0.8,1.2-1.1,1.9-1.6,3.3c-1.2-0.4-1.8-0.7-2.8-1.2c-0.1,1.3-0.3,2.3-0.6,2.9c-0.5,1.1-1.5,1.5-4.3,1.5c-0.4,0-0.9,0-1.6,0
		c-0.1-1.1-0.4-1.8-0.9-2.9c0.7,0.1,1.6,0.1,2.1,0.1c0.9,0,1.3-0.1,1.4-0.2c0.1-0.2,0.2-0.5,0.3-1h-3.4c-1.7,2.5-4.1,3.8-8.3,4.3
		c-0.5-1.2-0.8-1.8-1.8-2.9c2.9-0.1,4.6-0.6,5.8-1.4h-0.8c-0.8,0-1.3,0-1.8,0.1V168.3z M160.9,157.7h10v-0.6h-10V157.7z
		 M160.9,159.9h10v-0.6h-10V159.9z M163.9,166.5c0.1-0.4,0.1-0.6,0.1-1.1l3.7,0.1c-0.1,0.3-0.1,0.5-0.2,0.6c0,0.2,0,0.3-0.1,0.4h2.3
		c-0.7-0.6-1.1-1-1.6-1.5h-4.3c-0.5,0.6-1.1,1.1-1.7,1.5H163.9z M168,154.5h-4.4v0.7h4.4V154.5z"/>
	<path class="st2" d="M194.8,161.6h5c1.2,0,1.8,0,2.5-0.1v2.6c-0.7-0.1-1.2-0.1-2.4-0.1h-6.1v0.8h6.4c1.5,0,2.2,0,2.8-0.1v3.1
		c-0.8-0.1-1.5-0.1-2.8-0.1h-3.6c1.6,1,4.2,1.8,6.9,2.1c-0.8,1.2-1,1.5-1.8,3.3c-1.9-0.5-3-0.8-4.4-1.4c-1.6-0.7-2.5-1.3-3.7-2.3
		c0,0.6,0.1,1,0.1,1.4v0.9c0,0.8,0,1.1,0.1,1.6H190c0.1-0.5,0.1-0.9,0.1-1.6v-0.9c0-0.5,0-0.9,0.1-1.4c-1.2,1.1-2.3,1.8-4,2.5
		c-1.2,0.5-2.5,0.9-4,1.3c-0.5-1.2-0.9-2.1-1.7-3.2c2.9-0.4,5-1.1,6.7-2.2h-3.4c-1.3,0-2,0-2.8,0.1v-3.1c0.6,0.1,1.3,0.1,2.8,0.1
		h6.3V164h-4.2c-1,0-1.7,0-2.4,0.1c0.1-0.6,0.1-1.2,0.1-2.2v-2c0-0.6,0-1.1,0.1-1.8c-0.6,0.7-1,1-1.8,1.6c-0.5-1.5-0.8-2.3-1.6-3.5
		c1.8-1.2,2.9-2.5,4.1-4.4c0.3-0.5,0.6-1.1,0.7-1.5l3.9,0.5c-0.4,0.8-0.6,1.1-1,1.7h3.4c0.4-0.7,0.7-1.3,1.1-2.2l3.9,0.3
		c-0.4,0.7-0.7,1.2-1.1,1.9h4.3c1.1,0,1.7,0,2.5-0.1v2.9c-0.5,0-1.1-0.1-1.9-0.1h-5.4v0.7h4.1c1.4,0,1.7,0,2.4-0.1v2.2
		c-0.7-0.1-1-0.1-2.4-0.1h-4.1v0.7h4.1c1.4,0,1.6,0,2.4-0.1v2.2c-0.6-0.1-1-0.1-2.4-0.1h-4.1V161.6z M191.3,155.2h-4.1v0.7h4.1
		V155.2z M191.3,158h-4.1v0.7h4.1V158z M187.2,160.8v0.8h4.1v-0.8H187.2z"/>
</g>
</svg>
