<?xml version="1.0" encoding="utf-8"?>
<!-- Generator: Adobe Illustrator 25.4.1, SVG Export Plug-In . SVG Version: 6.00 Build 0)  -->
<svg version="1.1" id="レイヤー_1" xmlns="http://www.w3.org/2000/svg" xmlns:xlink="http://www.w3.org/1999/xlink" x="0px"
	 y="0px" viewBox="0 0 209.1 33.9" style="enable-background:new 0 0 209.1 33.9;" xml:space="preserve">
<style type="text/css">
	.st0{fill:#FFFFFF;}
	.st1{fill:#80C1A1;}
</style>
<g>
	<path class="st0" d="M7.9,15.9c-0.7,0-1.1-0.5-1.1-1c0-0.4,0.3-0.8,0.8-0.9c1.9-0.5,3.4-1.7,4.3-3.2c-1.5-0.7-3.2-1.1-4.8-1.3
		c-1.9,2.5-2.9,2.9-4,2.9c-1.5,0-2.5-1-2.5-2.1c0-1,0.7-2.1,2.7-2.4C4,7.8,4.6,7.8,5.3,7.8c0.4,0,0.8,0,1.2,0C7.9,5.9,9.2,3.3,9.2,3
		c0-0.1,0-0.1-0.1-0.1s-0.1,0-0.2,0c-0.4,0.2-1,0.3-1.6,0.3c-0.8,0-1.7-0.3-1.7-1.2c0-0.4,0.3-0.8,0.8-0.8c0.1,0,0.2,0,0.3,0
		c0.2,0,0.5,0.1,0.8,0.1c0.3,0,0.7,0,0.9-0.1C9.2,1.2,9.8,1,10.4,1c0.6,0,1.4,0.3,1.4,1.1c0,0.3-0.1,0.8-0.4,1.2
		c-0.7,1.1-1.8,3-3,4.7c1.5,0.2,3,0.7,4.4,1.2C12.9,8.6,13,8,13.1,7.4c0-0.5,0.5-0.8,0.9-0.8c0.5,0,1,0.4,1,1c0,0.1-0.2,1.1-0.6,2.3
		c1.4,0.6,2.6,1.3,3.4,2.1c0.3,0.2,0.4,0.6,0.4,0.9c0,0.6-0.4,1.1-1,1.1c-0.2,0-0.5-0.1-0.7-0.3c-0.8-0.8-1.8-1.5-2.9-2.1
		C11.9,14.7,8.8,15.9,7.9,15.9z M2.5,10.2c0,0.2,0.2,0.5,0.7,0.5c0.3,0,0.9,0,2.1-1.3C2.6,9.4,2.5,10,2.5,10.2z"/>
	<path class="st0" d="M28.8,3.8c-0.9-1.6-1-2.2-1-2.3c0-0.6,0.4-0.9,0.9-0.9c0.5,0,1,0.3,1.2,1c0.1,0.5,0.4,1.1,0.7,1.7
		C31,3.3,31.3,3.2,31.6,3C31.8,3,32,2.9,32.1,2.9c0.6,0,0.9,0.5,0.9,0.9c0,0.8-0.5,0.9-1.5,1.2c1.7,3.1,2.7,4.9,2.7,6.2
		c0,0.8-0.4,1.1-0.9,1.1c-0.3,0-0.7-0.1-1-0.4c-0.7-0.6-3.2-1.1-4.6-1.1c-1.6,0-2.4,0.8-2.4,1.3c0,0.9,1.7,1.5,3.5,1.5
		c0.3,0,0.6,0,1,0c0.1,0,0.1,0,0.2,0c0.8,0,1.2,0.5,1.2,1c0,0.6-0.5,1.1-1.3,1.1c-4.1,0-6.5-1.6-6.5-3.4c0-1,1.1-3.2,4.5-3.2
		c1.4,0,2.7,0.3,3.7,0.4c0.1,0,0.1,0,0.2,0s0.1,0,0.1,0c0,0,0-0.8-2.1-4.1c-1.7,0.3-2,0.3-2.2,0.3c-2.3,0-4.3-2-4.3-2.8
		c0-0.5,0.5-0.8,1-0.8c0.3,0,0.7,0.1,0.9,0.4c1,1.2,2,1.4,2.6,1.4c0.1,0,0.3,0,0.4,0L28.8,3.8z"/>
	<path class="st0" d="M47,7.2c0.7-0.5,3.2-2.3,5.8-2.3c2.2,0,4.7,1.7,4.7,3.9c0,3.8-6.3,6.4-7.4,6.4c-0.6,0-0.9-0.4-0.9-0.9
		c0-0.4,0.3-0.9,0.8-1c3.9-1.4,5.4-3.1,5.4-4.4c0-1.2-1.3-2.3-2.9-2.3c-1,0-3.6,0.6-5.8,3c0,0.8-0.1,1.6-0.1,2.3
		c0,1.1,0,2.1,0.2,2.9c0,0.1,0,0.1,0,0.2c0,0.6-0.5,1-1,1c-0.5,0-0.9-0.3-1-1.1c0-0.5,0-1.1,0-1.7c0-0.5,0-1.1,0-1.6
		c-0.5,0.7-1.1,1.6-1.6,2.4c-0.3,0.6-0.8,0.8-1.2,0.8c-0.5,0-0.9-0.4-0.9-0.9c0-0.4,0.3-0.7,0.8-1.3c0.5-0.8,1.2-1.7,2-2.7
		c0.4-0.5,0.8-1.1,1.1-1.6l0.1-0.7l0-0.4C43,8.9,42.7,9,42.5,9c-0.7,0-1-0.5-1-0.9c0-0.4,0.3-0.9,0.8-1c0.4-0.1,2.3-1.4,3-2
		c0.1-1.5,0.3-2.9,0.3-3.7c0-0.6,0.5-0.9,0.9-0.9c0.5,0,1,0.3,1,0.9c0,0-0.1,1.2-0.3,2.6c0.1,0,0.1,0,0.2,0c0.5,0,0.9,0.2,0.9,0.8
		c0,0.3-0.1,0.7-0.4,1.2L47,7.2z"/>
	<path class="st1" d="M67.8,15.5c-4.1,0-6.4-1.9-6.4-3.1c0-0.6,0.5-1.1,1-1.1c0.3,0,0.6,0.2,0.9,0.5c1,1.2,2.4,1.5,3.8,1.5
		c1.2,0,2.5-0.3,3.4-0.5c0.2,0,0.3-0.1,0.5-0.1c0.7,0,1.1,0.5,1.1,1c0,0.5-0.4,1.1-1.1,1.3C70,15.4,68.9,15.5,67.8,15.5z M69.2,5.1
		c-2.7,0-4.9-1-5.4-1.3c-0.5-0.2-0.7-0.6-0.7-1c0-0.5,0.3-0.9,0.9-0.9c0.2,0,0.4,0,0.6,0.1c1.4,0.6,2.7,0.9,4.8,1c0.7,0,1,0.5,1,1
		C70.5,4.6,70.1,5.1,69.2,5.1z"/>
	<path class="st1" d="M84.8,15.5c-4.1,0-6.4-1.9-6.4-3.1c0-0.6,0.5-1.1,1-1.1c0.3,0,0.6,0.2,0.9,0.5c1,1.2,2.4,1.5,3.8,1.5
		c1.2,0,2.5-0.3,3.4-0.5c0.2,0,0.3-0.1,0.5-0.1c0.7,0,1.1,0.5,1.1,1c0,0.5-0.4,1.1-1.1,1.3C87,15.4,85.9,15.5,84.8,15.5z M86.2,5.1
		c-2.7,0-4.9-1-5.4-1.3c-0.5-0.2-0.7-0.6-0.7-1c0-0.5,0.3-0.9,0.9-0.9c0.2,0,0.4,0,0.6,0.1c1.4,0.6,2.7,0.9,4.8,1c0.7,0,1,0.5,1,1
		C87.5,4.6,87.1,5.1,86.2,5.1z"/>
	<path class="st1" d="M102.5,0.2c0.8,0,1.2,0.5,1.2,1.1c0,0.3-0.1,0.7-0.5,1c-1.4,1.4-3.5,3.7-4,4.2c0.8-0.5,2-0.8,3.2-0.8
		c3,0,4.9,2.2,4.9,4.2c0,4-5.4,6.3-9.5,6.3c-0.7,0-1.2-0.5-1.2-1c0-0.5,0.3-0.9,1.1-0.9c5.4-0.2,7.5-2.7,7.5-4.3
		c0-0.7-0.7-2.5-3.2-2.5c-1.4,0-3.3,0.5-5.1,2.4c-0.7,0.8-0.9,1.3-1.4,1.9c-0.3,0.4-0.6,0.5-1,0.5c-0.6,0-1.1-0.4-1.1-1
		c0-0.4,0.2-0.7,1.7-2.3c1.3-1.3,5.7-6.6,5.7-6.7c0,0,0,0,0,0s-0.1,0-0.1,0.1c-1.2,0.7-3.5,1.3-3.9,1.3c-0.7,0-1.1-0.5-1.1-1.1
		c0-0.5,0.3-0.9,1.1-1c1-0.1,3.6-0.8,4.3-1C101.8,0.3,101.8,0.2,102.5,0.2L102.5,0.2z"/>
	<path class="st0" d="M123.8,7.8c0-2.2-1.7-4.1-4.6-4.1c0,0,0,0,0,0c0.3,0.1,0.6,0.4,0.6,0.8c0,0,0,0.1,0,0.1c0,2.1-2.1,5.7-4.3,7.9
		c-0.5,0.5-1,0.7-1.5,0.7c-1.4,0-2.7-1.6-2.7-3.8c0-3.6,3.6-7.3,8.1-7.3c4,0,6.6,2.7,6.6,5.8c0,0.7-0.1,1.5-0.4,2.3
		c-1.8,4.4-7.2,5.1-7.5,5.1c-0.7,0-1.1-0.5-1.1-1c0-0.4,0.3-0.9,1.1-1C121.6,12.7,123.8,10.5,123.8,7.8z M118.1,3.8
		c-2.5,0.5-5,3.2-5,5.5c0,1.5,1,1.7,1.1,1.7c0.1,0,0.3,0,0.4-0.2c0.6-0.5,3.1-3.5,3.2-6.2C117.7,4.3,117.8,4,118.1,3.8z"/>
	<path class="st0" d="M132,9.4c-1.4,0.9-2.6-0.9-1.2-1.7c1.9-1.2,3.4-3.2,4.3-4.6c0.3-0.5,0.6-1.1,0.8-1.6c0.4-1.3,2.4-1,2.1,0.3
		c0,0.3-0.2,0.6-0.3,0.9c1-0.2,2-0.4,2.9-0.5c1.4-0.1,2.6,0.9,1.9,2.2c-3.2,5.5-6.1,9.4-11.5,11.5c-1.7,0.7-2.5-1.4-0.8-1.9
		c4.2-1.4,7.5-5,9.8-9.4c0.2-0.4,0-0.5-0.3-0.5c-0.8,0-2.4,0.4-3.2,0.5C135.4,6.2,133.8,8.2,132,9.4z"/>
	<path class="st0" d="M148,14.7c3.7-1.8,5.5-5.5,5.4-8.5c0-1.6,0.1-2.2,0.1-3.2c0-0.5-0.1-1.3-0.2-1.7c-0.4-1.6,2.1-1.8,2.2-0.1
		c0.1,0.8,0,1.1,0,1.8c0,0.7,0,1.1,0,1.5s0,0.8,0,1.7c0.1,3.8-2.2,8.3-6.4,10.4C147.5,17.3,146.7,15.3,148,14.7z M148.6,8.6
		c0.3-1.4,0.3-3.6,0.1-4.9c-0.1-0.4-0.1-0.8-0.2-1.2c-0.4-1.8,2-2.2,2.2-0.4c0.1,0.6,0.1,1.2,0.1,1.7c0,0.8,0,1.8,0,2.6
		s0,1.5-0.1,2.3C150.4,10.5,148.3,9.9,148.6,8.6z"/>
	<path class="st0" d="M174.5,12.8c-1.1-0.1-2.2-0.2-3.2-0.2c-2.1,0.1-4.8,0.3-6.3,0.5c-1.2,0.1-1.7,0.3-2.9,0.3
		c-1.4,0-1.5-2.2,0.2-2.1c0.7,0,1.9,0,2.6-0.1c1.4-0.1,4.5-0.4,6.5-0.5c1.2-0.1,2.4-0.2,3.5-0.1c0.9,0.1,1.4,0.8,1.3,1.4
		C176.1,12.6,175.4,13,174.5,12.8z M170.4,6.4c-1.1,0.2-2.6,0.3-3.5,0.3c-0.9,0-1.7,0.2-2.5,0c-1.2-0.2-1.2-2.2,0.4-2
		c0.7,0.1,1.1,0.1,1.8,0c0.9,0,2.6-0.2,3.8-0.4c0.4-0.1,0.6-0.1,0.9-0.2c0.3-0.1,0.6-0.1,1-0.1c1.5,0,1.9,1.9,0,2.1
		C171.5,6.3,171,6.3,170.4,6.4z"/>
	<path class="st0" d="M182.4,10.3c-0.3-0.5-0.7-1.1-1.1-1.5c-0.8-0.7,0.3-1.9,1.3-1.1c0.5,0.5,1,1.1,1.4,1.7
		C184.6,10.5,183,11.4,182.4,10.3z M182.5,14.2c2.8-1.3,4.8-3.4,5.7-6.1c0.1-0.3,0.1-0.7,0.1-1c0-1.2,1.9-1.3,2,0
		c0,0.6-0.2,1.1-0.4,1.6c-1.3,3.1-3.2,5.3-6.6,7C182,16.5,181.4,14.7,182.5,14.2z M185,9.2c-0.2-0.6-0.5-1.2-0.9-1.6
		c-0.7-0.8,0.6-1.9,1.4-0.9c0.4,0.5,0.9,1.2,1.2,1.9C187.1,9.7,185.4,10.5,185,9.2z"/>
	<path class="st0" d="M197.6,9.4c-1.4,0.9-2.6-0.9-1.2-1.7c1.9-1.2,3.4-3.2,4.3-4.6c0.3-0.5,0.6-1.1,0.8-1.6c0.4-1.3,2.4-1,2.1,0.3
		c0,0.3-0.2,0.6-0.3,0.9c1-0.2,2-0.4,2.9-0.5c1.4-0.1,2.6,0.9,1.9,2.2c-3.2,5.5-6.1,9.4-11.5,11.5c-1.7,0.7-2.5-1.4-0.8-1.9
		c4.2-1.4,7.5-5,9.8-9.4c0.2-0.4,0-0.5-0.3-0.5c-0.8,0-2.4,0.4-3.2,0.5C201,6.2,199.4,8.2,197.6,9.4z"/>
</g>
<g>
	<path class="st0" d="M11.2,28.8c0-0.4,0-3.4,0-3.4h0c-0.1,0.2-1.6,3.7-1.8,4c-0.2,0.4-1.4,3.3-1.5,3.4c0,0.1-0.1,0.3-0.3,0.3
		c-0.1,0-0.1-0.1-0.2-0.2c0-0.1-1.6-3.9-1.7-4.1c-0.2-0.6-1.3-3.3-1.5-3.4c0,0.2-0.1,3.2-0.1,3.4c0,0.1,0,2.2,0.1,3
		c0,0.6,0.2,1,0.6,1h0.5c0.1,0,0.1,0,0.1,0.1v0.3c0,0,0,0.1-0.1,0.1c-0.1,0-0.5,0-1.4,0c-1,0-1.5,0-1.6,0c-0.1,0-0.1,0-0.1-0.1v-0.3
		c0,0,0-0.1,0.1-0.1h0.6c0.4,0,0.5-0.4,0.6-0.9c0.1-0.9,0.2-3.9,0.2-4.1v-2.1c0-0.4-0.1-0.7-0.6-0.7H2.5c-0.1,0-0.1,0-0.1-0.1v-0.3
		c0,0,0-0.1,0.1-0.1c0.1,0,0.4,0,1.7,0c0.6,0,0.9,0,1.1,0c0.1,0,0.2,0,0.3,0.2C6.1,25.9,7.8,30,8.1,31c0.1-0.2,1-2.2,1.3-3
		c0.2-0.5,1.3-3,1.4-3.3c0-0.1,0.2-0.1,0.5-0.1c1.8,0,2.2,0,2.3,0c0,0,0.1,0,0.1,0.1v0.3c0,0.1,0,0.1-0.1,0.1h-0.5
		c-0.3,0-0.3,0.2-0.4,0.5c0,0.3,0,2.7,0,3v0.9c0,0.7,0,2.5,0,2.7c0,0.5,0.1,0.7,0.3,0.7h0.7c0.1,0,0.1,0,0.1,0.1v0.3
		c0,0.1,0,0.1-0.1,0.1c-0.1,0-0.7,0-1.8,0c-1.2,0-1.7,0-1.8,0c-0.1,0-0.1,0-0.1-0.1v-0.3c0-0.1,0-0.1,0.1-0.1h0.8
		c0.2,0,0.3-0.1,0.4-0.4c0-0.1,0-1.9,0-2.9V28.8z"/>
	<path class="st0" d="M16,29.8c0-0.4-0.1-0.6-0.6-0.8c-0.1,0-0.1-0.1-0.1-0.1v-0.1c0,0,0-0.1,0.1-0.1c0.2-0.1,1.4-0.5,1.6-0.6
		c0.1,0,0.2-0.1,0.3-0.1c0.1,0,0.1,0,0.1,0.1c0,0.2,0,1,0,2v1.3c0,0.5,0,0.9,0,1c0,0.2,0.1,0.3,0.2,0.3H18c0.1,0,0.1,0,0.1,0.1v0.2
		c0,0.1,0,0.1-0.1,0.1c-0.1,0-0.7,0-1.5,0c-0.7,0-1.2,0-1.3,0c-0.1,0-0.1,0-0.1-0.1v-0.2c0-0.1,0-0.1,0.1-0.1h0.5
		c0.1,0,0.2,0,0.2-0.2c0-0.4,0-0.8,0-1.1V29.8z M16.5,26.8c-0.4,0-0.8-0.3-0.8-0.7c0-0.4,0.4-0.8,0.9-0.8c0.5,0,0.8,0.4,0.8,0.7
		C17.3,26.4,17,26.8,16.5,26.8z"/>
	<path class="st0" d="M18.7,31.7C18.7,31.7,18.7,31.6,18.7,31.7l0.3-0.2c0,0,0.1,0,0.1,0l0.4,0.7c0.2,0.4,0.5,0.7,1,0.7
		c0.5,0,0.9-0.3,0.9-0.7c0-0.5-0.3-0.7-1.2-1c-0.8-0.2-1.5-0.7-1.5-1.5c0-0.5,0.2-1,0.6-1.3c0.4-0.3,0.8-0.4,1.3-0.4
		c0.6,0,1,0.1,1.2,0.3c0.2,0.1,0.2,0.1,0.2,0.2l0.2,0.8c0,0,0,0.1,0,0.1L22,29.6c0,0-0.1,0-0.1,0l-0.6-0.7c-0.1-0.2-0.4-0.4-0.8-0.4
		c-0.5,0-0.8,0.3-0.8,0.7c0,0.5,0.4,0.6,1.1,0.8c0.6,0.1,0.9,0.3,1.2,0.6c0.3,0.3,0.4,0.6,0.4,1c0,1-0.8,1.8-2,1.8
		c-0.6,0-1.2-0.2-1.3-0.3c0,0-0.1-0.1-0.1-0.1L18.7,31.7z"/>
	<path class="st0" d="M26,32.6c-0.3,0.3-0.6,0.5-1.1,0.7c-0.3,0.1-0.5,0.1-0.8,0.1c-0.5,0-0.8-0.4-0.8-1c0-0.6,0.2-1.1,1.1-1.5
		c0.8-0.4,1.2-0.6,1.5-0.8v-0.6c0-0.2,0-0.5-0.2-0.7c-0.1-0.1-0.3-0.2-0.6-0.2c-0.2,0-0.5,0.1-0.7,0.2c-0.2,0.1,0,0.3,0,0.6
		c0,0.4-0.2,0.7-0.7,0.7c-0.2,0-0.4-0.1-0.4-0.4c0-0.3,0.2-0.7,0.6-1c0.5-0.4,1.2-0.7,2-0.7c0.7,0,0.9,0.1,1.1,0.3
		c0.3,0.2,0.3,0.6,0.3,0.9l0,1.9v0.6c0,0.7,0.1,0.9,0.3,0.9c0.2,0,0.3-0.1,0.4-0.2c0-0.1,0.1-0.1,0.1,0l0.1,0.1c0,0,0.1,0.1,0,0.2
		c-0.1,0.2-0.4,0.7-1.1,0.7C26.6,33.4,26.2,33.2,26,32.6L26,32.6z M25.9,30.5c-0.5,0.3-1.3,0.5-1.3,1.4c0,0.5,0.3,0.7,0.6,0.7
		c0.3,0,0.8-0.4,0.8-0.6V30.5z"/>
	<path class="st0" d="M30.4,33.2l-1.7-4.3c-0.1-0.2-0.3-0.3-0.5-0.3h-0.2c-0.1,0-0.1,0-0.1-0.1v-0.3c0-0.1,0-0.1,0.1-0.1
		c0.1,0,0.4,0,1.3,0c0.6,0,0.9,0,1,0c0.1,0,0.1,0,0.1,0.1v0.3c0,0.1,0,0.1-0.1,0.1h-0.1c-0.1,0-0.2,0.1-0.1,0.3l0.9,2.9h0.1l1-2.4
		c0.1-0.2,0-0.4-0.1-0.5c-0.1-0.1-0.2-0.1-0.3-0.1h-0.1c-0.1,0-0.1,0-0.1-0.1v-0.3c0-0.1,0-0.1,0.1-0.1c0.1,0,0.5,0,1.3,0
		c0.6,0,0.8,0,0.9,0c0.1,0,0.1,0,0.1,0.1v0.3c0,0.1,0,0.1-0.1,0.1h-0.2c-0.1,0-0.2,0.1-0.2,0.3l0.9,2.6h0l0.8-2.2
		c0.2-0.5,0-0.8-0.2-0.8h-0.2c0,0-0.1,0-0.1-0.1v-0.3c0-0.1,0-0.1,0.1-0.1c0.1,0,0.4,0,1,0c0.5,0,0.8,0,0.9,0c0.1,0,0.1,0,0.1,0.1
		v0.3c0,0.1,0,0.1-0.1,0.1h-0.2c-0.2,0-0.4,0.1-0.5,0.2c-0.1,0.2-1.7,4.1-1.9,4.5c-0.1,0.1-0.2,0.2-0.3,0.2c-0.1,0-0.2-0.1-0.2-0.3
		l-1.2-3.3h-0.1l-1.4,3.4c-0.1,0.2-0.2,0.2-0.3,0.2C30.5,33.4,30.5,33.3,30.4,33.2z"/>
	<path class="st0" d="M39.7,32.6c-0.3,0.3-0.6,0.5-1.1,0.7c-0.3,0.1-0.5,0.1-0.8,0.1c-0.5,0-0.8-0.4-0.8-1c0-0.6,0.2-1.1,1.1-1.5
		c0.8-0.4,1.2-0.6,1.5-0.8v-0.6c0-0.2,0-0.5-0.2-0.7c-0.1-0.1-0.3-0.2-0.6-0.2c-0.2,0-0.5,0.1-0.7,0.2c-0.2,0.1,0,0.3,0,0.6
		c0,0.4-0.2,0.7-0.7,0.7c-0.2,0-0.4-0.1-0.4-0.4c0-0.3,0.2-0.7,0.6-1c0.5-0.4,1.2-0.7,2-0.7c0.7,0,0.9,0.1,1.1,0.3
		c0.3,0.2,0.3,0.6,0.3,0.9l0,1.9v0.6c0,0.7,0.1,0.9,0.3,0.9c0.2,0,0.3-0.1,0.4-0.2c0-0.1,0.1-0.1,0.1,0l0.1,0.1c0,0,0.1,0.1,0,0.2
		c-0.1,0.2-0.4,0.7-1.1,0.7C40.3,33.4,39.9,33.2,39.7,32.6L39.7,32.6z M39.6,30.5c-0.5,0.3-1.3,0.5-1.3,1.4c0,0.5,0.3,0.7,0.6,0.7
		c0.3,0,0.8-0.4,0.8-0.6V30.5z"/>
	<path class="st0" d="M46.7,32.5c0,0.2,0.1,0.3,0.2,0.3h0.3c0.1,0,0.1,0,0.1,0.1v0.2c0,0.1,0,0.1-0.1,0.1s-0.5,0-1.2,0
		c-0.8,0-1.2,0-1.3,0s-0.1,0-0.1-0.1v-0.2c0-0.1,0-0.1,0.1-0.1h0.3c0.2,0,0.2-0.1,0.2-0.3c0-0.2,0-1.3,0-1.8l0-4.4
		c0-0.5,0-0.7-0.6-0.9c-0.1,0-0.2-0.1-0.2-0.1v-0.2c0,0,0-0.1,0.2-0.1c0.3-0.1,1.4-0.5,1.5-0.5c0.2-0.1,0.3-0.1,0.4-0.1
		c0.1,0,0.1,0,0.1,0.2c0,0.6-0.1,2.4-0.1,3.8v1.9c0.1,0,0.4,0,0.5-0.1c0.3-0.3,1-1,1.1-1.2c0-0.1,0.1-0.2,0.1-0.2
		c0-0.1-0.1-0.2-0.2-0.2h-0.1c-0.1,0-0.1,0-0.1-0.1v-0.3c0,0,0-0.1,0.1-0.1s0.5,0,1.2,0c0.7,0,1,0,1.1,0c0.1,0,0.1,0,0.1,0.1v0.2
		c0,0.1,0,0.1-0.1,0.1h-0.1c-0.2,0-0.5,0.1-0.8,0.2c-0.3,0.1-1.2,1-1.6,1.4c0.4,0.4,2.1,2.3,2.4,2.5c0.2,0.1,0.5,0.2,0.6,0.2
		c0.1,0,0.1,0,0.1,0.1v0.2c0,0.1,0,0.1-0.1,0.1c-0.1,0-0.4,0-1.2,0c-0.7,0-1.2,0-1.3,0c-0.1,0-0.1,0-0.1-0.1v-0.2
		c0-0.1,0-0.1,0.1-0.1h0.1c0.1,0,0.1-0.1,0.1-0.2c0-0.1-1.2-1.5-1.4-1.8c-0.1-0.1-0.3-0.1-0.4-0.1V32.5z"/>
	<path class="st0" d="M55.6,28.7c0.6,0.6,0.8,1.2,0.8,1.9c0,0.7-0.3,1.3-0.8,1.9c-0.5,0.6-1.2,0.9-2,0.9c-0.8,0-1.4-0.2-2-0.9
		c-0.5-0.6-0.7-1.1-0.7-1.9c0-0.6,0.3-1.4,1-2c0.6-0.5,1.2-0.6,1.7-0.6C54.6,28,55.2,28.3,55.6,28.7z M55,30.6
		c0-1.3-0.7-2.1-1.3-2.1c-0.3,0-0.6,0.1-0.8,0.3c-0.4,0.4-0.5,0.9-0.5,1.8c0,0.7,0,1.2,0.4,1.7c0.2,0.3,0.5,0.5,1,0.5
		C54.6,32.9,55,31.9,55,30.6z"/>
	<path class="st0" d="M59.2,32.5c0,0.2,0.1,0.3,0.2,0.3h0.3c0.1,0,0.1,0,0.1,0.1v0.2c0,0.1,0,0.1-0.1,0.1c-0.1,0-0.5,0-1.2,0
		c-0.8,0-1.2,0-1.3,0c-0.1,0-0.1,0-0.1-0.1v-0.2c0-0.1,0-0.1,0.1-0.1h0.3c0.2,0,0.2-0.1,0.2-0.3c0-0.2,0-1.3,0-1.8l0-4.4
		c0-0.5,0-0.7-0.6-0.9c-0.1,0-0.2-0.1-0.2-0.1v-0.2c0,0,0-0.1,0.2-0.1c0.3-0.1,1.4-0.5,1.5-0.5c0.2-0.1,0.3-0.1,0.4-0.1
		c0.1,0,0.1,0,0.1,0.2c0,0.6-0.1,2.4-0.1,3.8v1.9c0.1,0,0.4,0,0.5-0.1c0.3-0.3,1-1,1.1-1.2c0-0.1,0.1-0.2,0.1-0.2
		c0-0.1-0.1-0.2-0.2-0.2h-0.1c-0.1,0-0.1,0-0.1-0.1v-0.3c0,0,0-0.1,0.1-0.1s0.5,0,1.2,0c0.7,0,1,0,1.1,0c0.1,0,0.1,0,0.1,0.1v0.2
		c0,0.1,0,0.1-0.1,0.1h-0.1c-0.2,0-0.5,0.1-0.8,0.2s-1.2,1-1.6,1.4c0.4,0.4,2.1,2.3,2.4,2.5c0.2,0.1,0.5,0.2,0.6,0.2
		c0.1,0,0.1,0,0.1,0.1v0.2c0,0.1,0,0.1-0.1,0.1c-0.1,0-0.4,0-1.2,0c-0.7,0-1.2,0-1.3,0c-0.1,0-0.1,0-0.1-0.1v-0.2
		c0-0.1,0-0.1,0.1-0.1h0.1c0.1,0,0.1-0.1,0.1-0.2c0-0.1-1.2-1.5-1.4-1.8c-0.1-0.1-0.3-0.1-0.4-0.1V32.5z"/>
	<path class="st0" d="M68.1,28.7c0.6,0.6,0.8,1.2,0.8,1.9c0,0.7-0.3,1.3-0.8,1.9c-0.5,0.6-1.2,0.9-2,0.9c-0.8,0-1.4-0.2-2-0.9
		c-0.5-0.6-0.7-1.1-0.7-1.9c0-0.6,0.3-1.4,1-2c0.6-0.5,1.2-0.6,1.7-0.6C67,28,67.6,28.3,68.1,28.7z M67.4,30.6
		c0-1.3-0.7-2.1-1.3-2.1c-0.3,0-0.6,0.1-0.8,0.3c-0.4,0.4-0.5,0.9-0.5,1.8c0,0.7,0,1.2,0.4,1.7c0.2,0.3,0.5,0.5,1,0.5
		C67,32.9,67.4,31.9,67.4,30.6z"/>
	<path class="st0" d="M70.4,30.1c0-0.6-0.1-0.8-0.5-1L69.7,29c-0.1,0-0.1,0-0.1-0.1v-0.1c0,0,0-0.1,0.1-0.1l1.5-0.7
		c0.1,0,0.1,0,0.2,0c0.1,0,0.1,0.1,0.1,0.1l0.1,0.9h0c0.4-0.7,0.9-1.1,1.5-1.1c0.4,0,0.6,0.3,0.6,0.6c0,0.3-0.3,0.7-0.7,0.7
		c-0.2,0-0.3,0-0.4-0.1c-0.1-0.1-0.2-0.1-0.3-0.1c-0.1,0-0.4,0.1-0.5,0.4c-0.1,0.2-0.1,0.4-0.1,0.6v2.3c0,0.4,0.1,0.5,0.3,0.5h0.5
		c0.1,0,0.1,0,0.1,0.1v0.3c0,0.1,0,0.1-0.1,0.1c-0.1,0-0.6,0-1.5,0c-0.9,0-1.3,0-1.4,0c-0.1,0-0.1,0-0.1-0.1v-0.3
		c0-0.1,0-0.1,0.1-0.1h0.4c0.2,0,0.3-0.1,0.3-0.3V30.1z"/>
	<path class="st0" d="M78.6,28.7c0.6,0.6,0.8,1.2,0.8,1.9c0,0.7-0.3,1.3-0.8,1.9c-0.5,0.6-1.2,0.9-2,0.9c-0.8,0-1.4-0.2-2-0.9
		c-0.5-0.6-0.7-1.1-0.7-1.9c0-0.6,0.3-1.4,1-2c0.6-0.5,1.2-0.6,1.7-0.6C77.6,28,78.2,28.3,78.6,28.7z M78,30.6
		c0-1.3-0.7-2.1-1.3-2.1c-0.3,0-0.6,0.1-0.8,0.3c-0.4,0.4-0.5,0.9-0.5,1.8c0,0.7,0,1.2,0.4,1.7c0.2,0.3,0.5,0.5,1,0.5
		C77.6,32.9,78,31.9,78,30.6z"/>
	<path class="st0" d="M86.3,31.5c0,0.1-0.1,0.1-0.2,0.1h-4.6c-0.1,0-0.1,0-0.1-0.1v-0.8c0-0.1,0-0.1,0.1-0.1h4.6
		c0.1,0,0.2,0,0.2,0.2V31.5z"/>
	<path class="st0" d="M90,28.1c0.1,0,0.2-0.1,0.2-0.1c0.1,0,0.1,0,0.1,0.1l0.1,0.6h0.1c0.1-0.2,0.4-0.4,0.6-0.5
		c0.3-0.2,0.6-0.3,1-0.3c0.4,0,0.8,0.1,1.1,0.3c0.5,0.4,0.7,0.8,0.7,1.3v1.8c0,0.4,0,0.9,0,1.2c0,0.3,0.1,0.3,0.3,0.3h0.3
		c0.1,0,0.1,0,0.1,0.1v0.3c0,0.1,0,0.1-0.1,0.1c-0.1,0-0.5,0-1.3,0c-0.7,0-1.1,0-1.2,0c-0.1,0-0.1,0-0.1-0.1v-0.2
		c0-0.1,0-0.1,0.1-0.1h0.2c0.1,0,0.2-0.1,0.2-0.3c0-0.3,0-0.7,0-1.1V30c0-0.5,0-0.8-0.3-1c-0.2-0.2-0.5-0.2-0.7-0.2
		c-0.2,0-0.5,0-0.8,0.3c-0.2,0.2-0.3,0.5-0.3,0.9v2.5c0,0.3,0.1,0.4,0.2,0.4H91c0.1,0,0.1,0,0.1,0.1v0.2c0,0.1,0,0.1-0.1,0.1
		c-0.1,0-0.4,0-1.1,0c-0.8,0-1.1,0-1.2,0c0,0-0.1,0-0.1-0.1v-0.2c0-0.1,0-0.1,0.1-0.1h0.2c0.1,0,0.3,0,0.3-0.2v-2.7
		c0-0.4-0.2-0.6-0.5-0.7l-0.1,0c-0.1,0-0.1-0.1-0.1-0.1v-0.1c0,0,0-0.1,0.1-0.1L90,28.1z"/>
	<path class="st0" d="M99.8,28.7c0.6,0.6,0.8,1.2,0.8,1.9c0,0.7-0.3,1.3-0.8,1.9c-0.5,0.6-1.2,0.9-2,0.9c-0.8,0-1.4-0.2-2-0.9
		c-0.5-0.6-0.7-1.1-0.7-1.9c0-0.6,0.3-1.4,1-2c0.6-0.5,1.2-0.6,1.7-0.6C98.8,28,99.4,28.3,99.8,28.7z M99.2,30.6
		c0-1.3-0.7-2.1-1.3-2.1c-0.3,0-0.6,0.1-0.8,0.3c-0.4,0.4-0.5,0.9-0.5,1.8c0,0.7,0,1.2,0.4,1.7c0.2,0.3,0.5,0.5,1,0.5
		C98.7,32.9,99.2,31.9,99.2,30.6z"/>
	<path class="st0" d="M108.6,32.3c0,0,0,0.1,0,0.1c-0.3,0.4-1.2,0.9-2.1,0.9c-0.8,0-1.5-0.2-2-0.8c-0.5-0.6-0.6-1.1-0.6-1.7
		c0-0.8,0.3-1.6,0.9-2.2c0.5-0.5,1.1-0.7,1.8-0.7c1.4,0,1.7,0.7,1.7,1.1c0,0.3-0.2,0.5-0.5,0.5c-0.4,0-0.6-0.3-0.7-0.6
		c-0.2-0.4-0.4-0.5-0.8-0.5c-0.5,0-1.1,0.5-1.1,1.4c0,0.7,0,1.2,0.5,2c0.3,0.5,0.9,0.7,1.3,0.7c0.6,0,1-0.2,1.3-0.5c0,0,0.1,0,0.1,0
		L108.6,32.3z"/>
	<path class="st0" d="M109.7,28.6c0-0.9,0-1.9,0-2.2c0-0.4-0.2-0.6-0.6-0.7l-0.2-0.1c-0.1,0-0.1,0-0.1-0.1v-0.1c0,0,0-0.1,0.1-0.1
		c0.5-0.1,1.4-0.5,1.8-0.7c0.1,0,0.2-0.1,0.3-0.1c0.1,0,0.1,0,0.1,0.2c0,0.7,0,3.2,0,3.9v1.8c0,0.6,0,1.8,0,2.2c0,0.2,0,0.4,0.3,0.4
		h0.5c0.1,0,0.1,0,0.1,0.1v0.2c0,0.1,0,0.1-0.1,0.1c-0.1,0-0.6,0-1.5,0c-0.9,0-1.4,0-1.5,0c-0.1,0-0.1,0-0.1-0.1v-0.2
		c0-0.1,0-0.1,0.2-0.1h0.5c0.1,0,0.3-0.1,0.3-0.4V29V28.6z"/>
	<path class="st0" d="M113,29.8c0-0.4-0.1-0.6-0.6-0.8c-0.1,0-0.1-0.1-0.1-0.1v-0.1c0,0,0-0.1,0.1-0.1c0.2-0.1,1.4-0.5,1.6-0.6
		c0.1,0,0.2-0.1,0.3-0.1c0.1,0,0.1,0,0.1,0.1c0,0.2,0,1,0,2v1.3c0,0.5,0,0.9,0,1c0,0.2,0.1,0.3,0.2,0.3h0.5c0.1,0,0.1,0,0.1,0.1v0.2
		c0,0.1,0,0.1-0.1,0.1c-0.1,0-0.7,0-1.5,0c-0.7,0-1.2,0-1.3,0c-0.1,0-0.1,0-0.1-0.1v-0.2c0-0.1,0-0.1,0.1-0.1h0.5
		c0.1,0,0.2,0,0.2-0.2c0-0.4,0-0.8,0-1.1V29.8z M113.4,26.8c-0.4,0-0.8-0.3-0.8-0.7c0-0.4,0.4-0.8,0.9-0.8c0.5,0,0.8,0.4,0.8,0.7
		C114.2,26.4,113.9,26.8,113.4,26.8z"/>
	<path class="st0" d="M117,28.1c0.1,0,0.2-0.1,0.2-0.1s0.1,0,0.1,0.1l0.1,0.6h0.1c0.1-0.2,0.4-0.4,0.6-0.5c0.3-0.2,0.6-0.3,1-0.3
		c0.4,0,0.8,0.1,1.1,0.3c0.5,0.4,0.7,0.8,0.7,1.3v1.8c0,0.4,0,0.9,0,1.2c0,0.3,0.1,0.3,0.3,0.3h0.3c0.1,0,0.1,0,0.1,0.1v0.3
		c0,0.1,0,0.1-0.1,0.1c-0.1,0-0.5,0-1.3,0c-0.7,0-1.1,0-1.2,0c-0.1,0-0.1,0-0.1-0.1v-0.2c0-0.1,0-0.1,0.1-0.1h0.2
		c0.1,0,0.2-0.1,0.2-0.3c0-0.3,0-0.7,0-1.1V30c0-0.5,0-0.8-0.3-1c-0.2-0.2-0.5-0.2-0.7-0.2c-0.2,0-0.5,0-0.8,0.3
		c-0.2,0.2-0.3,0.5-0.3,0.9v2.5c0,0.3,0.1,0.4,0.2,0.4h0.2c0.1,0,0.1,0,0.1,0.1v0.2c0,0.1,0,0.1-0.1,0.1c-0.1,0-0.4,0-1.1,0
		c-0.8,0-1.1,0-1.2,0c0,0-0.1,0-0.1-0.1v-0.2c0-0.1,0-0.1,0.1-0.1h0.2c0.1,0,0.3,0,0.3-0.2v-2.7c0-0.4-0.2-0.6-0.5-0.7l-0.1,0
		c-0.1,0-0.1-0.1-0.1-0.1v-0.1c0,0,0-0.1,0.1-0.1L117,28.1z"/>
	<path class="st0" d="M123,29.8c0-0.4-0.1-0.6-0.6-0.8c-0.1,0-0.1-0.1-0.1-0.1v-0.1c0,0,0-0.1,0.1-0.1c0.2-0.1,1.4-0.5,1.6-0.6
		c0.1,0,0.2-0.1,0.3-0.1c0.1,0,0.1,0,0.1,0.1c0,0.2,0,1,0,2v1.3c0,0.5,0,0.9,0,1c0,0.2,0.1,0.3,0.2,0.3h0.5c0.1,0,0.1,0,0.1,0.1v0.2
		c0,0.1,0,0.1-0.1,0.1c-0.1,0-0.7,0-1.5,0c-0.7,0-1.2,0-1.3,0c-0.1,0-0.1,0-0.1-0.1v-0.2c0-0.1,0-0.1,0.1-0.1h0.5
		c0.1,0,0.2,0,0.2-0.2c0-0.4,0-0.8,0-1.1V29.8z M123.4,26.8c-0.4,0-0.8-0.3-0.8-0.7c0-0.4,0.4-0.8,0.9-0.8c0.5,0,0.8,0.4,0.8,0.7
		C124.2,26.4,123.9,26.8,123.4,26.8z"/>
	<path class="st0" d="M130.2,32.3c0,0,0,0.1,0,0.1c-0.3,0.4-1.2,0.9-2.1,0.9c-0.8,0-1.5-0.2-2-0.8c-0.5-0.6-0.6-1.1-0.6-1.7
		c0-0.8,0.3-1.6,0.9-2.2c0.5-0.5,1.1-0.7,1.8-0.7c1.4,0,1.7,0.7,1.7,1.1c0,0.3-0.2,0.5-0.5,0.5c-0.4,0-0.6-0.3-0.7-0.6
		c-0.2-0.4-0.4-0.5-0.8-0.5c-0.5,0-1.1,0.5-1.1,1.4c0,0.7,0,1.2,0.5,2c0.3,0.5,0.9,0.7,1.3,0.7c0.6,0,1-0.2,1.3-0.5c0,0,0.1,0,0.1,0
		L130.2,32.3z"/>
</g>
</svg>
