<?xml version="1.0" encoding="utf-8"?>
<!-- Generator: Adobe Illustrator 25.4.1, SVG Export Plug-In . SVG Version: 6.00 Build 0)  -->
<svg version="1.1" id="Layer_1" xmlns="http://www.w3.org/2000/svg" xmlns:xlink="http://www.w3.org/1999/xlink" x="0px" y="0px"
	 viewBox="0 0 131.9 115.5" style="enable-background:new 0 0 131.9 115.5;" xml:space="preserve">
<style type="text/css">
	.st0{fill:#282D33;}
</style>
<g>
	<g>
		<path class="st0" d="M127.5,104.7l-31.3-8.4c-6.9,2.5-14.3,3.8-21.8,3.8c-4.5,0-9-0.5-13.4-1.4l0.8-3.9c4.1,0.9,8.3,1.3,12.6,1.3
			c7.3,0,14.4-1.3,21-3.8l0.6-0.2l25.9,6.9l-5.6-20.9l0.7-0.8c6.5-7.8,10-17.1,10-26.7C126.9,25.5,103.3,5,74.4,5
			c-29,0-52.5,20.4-52.5,45.6c0,2.9,0.3,5.8,0.9,8.6l-3.9,0.9c-0.7-3.1-1-6.3-1-9.5C17.9,23.3,43.2,1,74.4,1
			c31.2,0,56.5,22.2,56.5,49.6c0,10.3-3.5,20.1-10.3,28.5L127.5,104.7z"/>
	</g>
	<g>
		<path class="st0" d="M1.6,114.6l4.1-15.4c-3.2-4.6-4.9-9.8-4.9-15.2c0-16.1,14.9-29.2,33.2-29.2c18.3,0,33.2,13.1,33.2,29.2
			s-14.9,29.2-33.2,29.2c-5.2,0-10.4-1.1-15.1-3.2L1.6,114.6z M19.3,105.7L20,106c4.3,2,9.1,3.1,14,3.1c16.1,0,29.2-11.3,29.2-25.2
			c0-13.9-13.1-25.2-29.2-25.2S4.9,70,4.9,83.9c0,4.8,1.6,9.6,4.7,13.6l0.6,0.8l-2.8,10.6L19.3,105.7z"/>
	</g>
	<g>
		<rect x="52.7" y="23.8" class="st0" width="9.4" height="4"/>
	</g>
	<g>
		<g>
			<rect x="18.5" y="82" class="st0" width="5.9" height="4"/>
		</g>
		<g>
			<rect x="31.1" y="82" class="st0" width="5.9" height="4"/>
		</g>
		<g>
			<rect x="43.7" y="82" class="st0" width="5.9" height="4"/>
		</g>
	</g>
	<g>
		<rect x="87.4" y="23.8" class="st0" width="9.4" height="4"/>
	</g>
	<g>
		<path class="st0" d="M75.1,61.6c-10.9,0-19.8-9.6-20.3-21.8l-0.1-2.1h40.7l-0.1,2.1C94.8,52,85.9,61.6,75.1,61.6z M59,41.7
			c1.2,9,8,15.9,16.1,15.9c8.1,0,14.8-6.8,16.1-15.9H59z"/>
	</g>
</g>
</svg>
