<?xml version="1.0" encoding="utf-8"?>
<!-- Generator: Adobe Illustrator 25.4.1, SVG Export Plug-In . SVG Version: 6.00 Build 0)  -->
<svg version="1.1" id="Layer_1" xmlns="http://www.w3.org/2000/svg" xmlns:xlink="http://www.w3.org/1999/xlink" x="0px" y="0px"
	 viewBox="0 0 130.2 127.7" style="enable-background:new 0 0 130.2 127.7;" xml:space="preserve">
<style type="text/css">
	.st0{fill:#282D33;}
</style>
<g>
	<polygon class="st0" points="123.1,127.7 81.1,127.7 81.1,74.4 47.4,74.4 47.4,127.7 7.1,127.7 7.1,58.5 11.1,58.5 11.1,123.7 
		43.4,123.7 43.4,70.4 85.1,70.4 85.1,123.7 119.1,123.7 119.1,58.5 123.1,58.5 	"/>
</g>
<g>
	<path class="st0" d="M76.1,34v19.9H53.5V34H76.1L76.1,34z M79.1,31H50.5v25.9h28.6V31L79.1,31z"/>
</g>
<g>
	<polygon class="st0" points="2.8,67.9 0,65.1 65.1,0 130.2,65.1 127.4,67.9 65.1,5.7 	"/>
</g>
<g>
	<rect x="66" y="101.5" class="st0" width="7.8" height="4"/>
</g>
</svg>
