<?xml version="1.0" encoding="utf-8"?>
<!-- Generator: Adobe Illustrator 25.4.1, SVG Export Plug-In . SVG Version: 6.00 Build 0)  -->
<svg version="1.1" id="Layer_1" xmlns="http://www.w3.org/2000/svg" xmlns:xlink="http://www.w3.org/1999/xlink" x="0px" y="0px"
	 viewBox="0 0 130 107.3" style="enable-background:new 0 0 130 107.3;" xml:space="preserve">
<style type="text/css">
	.st0{fill:#FFFFFF;}
	.st1{fill:#FFFFFF;stroke:#282D33;stroke-width:4;}
</style>
<g>
	<g>
		<path class="st0" d="M78.5,54.3h-3v-4h3V54.3z M71.5,54.3h-4v-4h4V54.3z M63.5,54.3h-4v-4h4V54.3z M55.5,54.3h-4v-4h4V54.3z"/>
	</g>
	<g>
		<g>
			<path class="st0" d="M25.7,63.1h-6.8c-11.4,0-18.7-8.6-18.7-22V23.1h4V41c0,8.7,3.9,18,14.7,18h6.8V63.1z"/>
		</g>
		<g>
			<path class="st0" d="M111.2,63.1h-6.9v-4h6.9c10.8,0,14.7-9.8,14.7-18.2V23h4v17.9C129.8,54.2,122.3,63.1,111.2,63.1z"/>
		</g>
	</g>
	<g>
		<g>
			<g>
				<g>
					<rect x="37.7" y="17.5" class="st0" width="4" height="30.9"/>
				</g>
				<g>
					<rect x="27" y="17.5" class="st0" width="4" height="30.9"/>
				</g>
			</g>
			<g>
				<g>
					<rect x="37.7" y="73.5" class="st0" width="4" height="30.9"/>
				</g>
				<g>
					<rect x="27" y="73.5" class="st0" width="4" height="30.9"/>
				</g>
			</g>
			<g>
				<path class="st0" d="M40.8,76.1H27.9c-2.3,0-4.2-1.9-4.2-4.2V51.3c0-2.3,1.9-4.2,4.2-4.2h12.8c2.3,0,4.2,1.9,4.2,4.2v20.6
					C44.9,74.2,43.1,76.1,40.8,76.1z M27.9,51.1c-0.1,0-0.2,0.1-0.2,0.2v20.6c0,0.1,0.1,0.2,0.2,0.2h12.8c0.1,0,0.2-0.1,0.2-0.2
					V51.3c0-0.1-0.1-0.2-0.2-0.2H27.9z"/>
			</g>
			<g>
				<rect x="32.4" y="65.4" class="st0" width="4" height="7.3"/>
			</g>
		</g>
		<g>
			<g>
				<g>
					<rect x="99" y="17.5" class="st0" width="4" height="30.9"/>
				</g>
				<g>
					<rect x="88.3" y="17.5" class="st0" width="4" height="30.9"/>
				</g>
			</g>
			<g>
				<g>
					<rect x="99" y="73.5" class="st0" width="4" height="30.9"/>
				</g>
				<g>
					<rect x="88.3" y="73.5" class="st0" width="4" height="30.9"/>
				</g>
			</g>
			<g>
				<path class="st0" d="M102.1,76.1H89.2c-2.3,0-4.2-1.9-4.2-4.2V51.3c0-2.3,1.9-4.2,4.2-4.2h12.8c2.3,0,4.2,1.9,4.2,4.2v20.6
					C106.2,74.2,104.4,76.1,102.1,76.1z M89.2,51.1c-0.1,0-0.2,0.1-0.2,0.2v20.6c0,0.1,0.1,0.2,0.2,0.2h12.8c0.1,0,0.2-0.1,0.2-0.2
					V51.3c0-0.1-0.1-0.2-0.2-0.2H89.2z"/>
			</g>
			<g>
				<rect x="93.6" y="65.4" class="st0" width="4" height="7.3"/>
			</g>
		</g>
	</g>
	<g>
		<rect x="42.9" y="59.1" class="st0" width="44.3" height="4"/>
	</g>
	<g>
		<path class="st0" d="M130,107.3H0V15.2h130V107.3z M4,103.3h122V19.2H4V103.3z"/>
	</g>
	<g>
		<polygon class="st0" points="83.9,10.8 79.9,10.8 79.9,4 50.1,4 50.1,10.8 46.1,10.8 46.1,0 83.9,0 		"/>
	</g>
</g>
<g>
	<path class="st1" d="M65,53.7"/>
</g>
</svg>
